<?xml version="1.0" encoding="UTF-8" standalone="no"?>
<!-- Created with Inkscape (http://www.inkscape.org/) -->

<svg
   width="86.696091mm"
   height="86.684036mm"
   viewBox="0 0 86.69609 86.684035"
   version="1.1"
   id="svg5"
   xml:space="preserve"
   xmlns="http://www.w3.org/2000/svg"
   xmlns:svg="http://www.w3.org/2000/svg"><defs
     id="defs2" /><g
     id="layer1"
     transform="translate(-103.73258,-154.23673)"><g
       id="g1571"
       transform="translate(-0.2716184,27.301122)"><path
         style="fill:#f9fbfb;stroke-width:0.0846667"
         d="m 119.41224,181.63121 c -0.0699,-0.0464 -0.28426,-0.0849 -0.47646,-0.0856 -0.20597,-7.6e-4 -0.39275,-0.0534 -0.45487,-0.12829 -0.058,-0.0699 -0.21037,-0.127 -0.33867,-0.127 -0.12829,0 -0.28069,-0.0572 -0.33866,-0.127 -0.058,-0.0699 -0.21212,-0.127 -0.34254,-0.127 -0.13043,0 -0.35034,-0.0952 -0.48869,-0.21167 -0.13835,-0.11642 -0.34616,-0.21167 -0.4618,-0.21167 -0.11563,0 -0.25767,-0.0572 -0.31564,-0.127 -0.058,-0.0699 -0.17007,-0.127 -0.2491,-0.127 -0.079,0 -0.22652,-0.0952 -0.32774,-0.21166 -0.10122,-0.11642 -0.25583,-0.21167 -0.34357,-0.21167 -0.0877,0 -0.20695,-0.0572 -0.26492,-0.127 -0.058,-0.0699 -0.15076,-0.127 -0.2062,-0.127 -0.0554,0 -0.2103,-0.1143 -0.34414,-0.254 -0.13384,-0.1397 -0.29337,-0.254 -0.3545,-0.254 -0.0611,0 -0.11116,-0.0455 -0.11116,-0.1012 0,-0.14051 0.4301,-0.57613 0.56883,-0.57613 0.0626,0 0.13735,-0.0667 0.16611,-0.14817 0.0807,-0.22877 0.38027,-0.52907 0.52865,-0.53001 0.0734,-4.2e-4 3.42906,-3.30106 7.45707,-7.33465 4.27066,-4.27658 7.41191,-7.35824 7.53534,-7.39242 0.11641,-0.0322 0.22512,-0.13206 0.24157,-0.22184 0.0422,-0.23033 0.25242,-0.44558 0.4649,-0.47601 0.10231,-0.0147 0.19371,-0.0994 0.21055,-0.19524 0.0336,-0.19142 0.76194,-0.97366 0.90653,-0.97366 0.11395,0 0.41797,-0.32625 0.48698,-0.5226 0.0274,-0.0779 0.13783,-0.15408 0.24545,-0.16934 0.12414,-0.0176 0.24964,-0.13607 0.34326,-0.32406 0.083,-0.16675 0.23115,-0.31637 0.33867,-0.34214 0.11582,-0.0278 0.20201,-0.12151 0.21882,-0.23801 0.0153,-0.10571 0.0915,-0.2146 0.16933,-0.24198 0.21094,-0.0742 0.5226,-0.37654 0.5226,-0.50706 0,-0.0629 0.094,-0.15007 0.20886,-0.19374 0.11487,-0.0437 1.33423,-1.20479 2.70969,-2.58024 1.37546,-1.37546 2.55329,-2.50083 2.61741,-2.50083 0.12418,0 5.23637,5.09157 5.29185,5.27052 0.0744,0.24008 0.7948,0.99481 0.9495,0.99481 0.0975,0 0.19742,0.0856 0.24447,0.20932 0.0438,0.11513 1.07287,1.20203 2.28689,2.41535 1.21402,1.21331 2.24312,2.30022 2.28689,2.41534 0.0438,0.11513 0.13834,0.20932 0.21016,0.20932 0.0718,0 2.3195,2.19075 4.99485,4.86834 2.67535,2.67758 4.92615,4.86833 5.00178,4.86833 0.0756,0 0.15819,0.0791 0.18348,0.17583 0.81995,1.04186 4.14835,3.64804 3.83462,4.352 -0.15895,0.16399 -0.32615,0.29817 -0.37156,0.29817 -1.93591,1.10438 -6.31279,3.28053 -8.27362,1.72677 -0.0539,-0.065 -0.16487,-0.11808 -0.2466,-0.11808 -0.0817,0 -0.19603,-0.0572 -0.254,-0.127 -0.058,-0.0699 -0.164,-0.127 -0.23563,-0.127 -0.15463,0 -2.27654,-2.12712 -2.31804,-2.32373 -0.0363,-0.17174 -13.45129,-13.59361 -13.58668,-13.59361 -0.0551,0 -0.64653,0.55337 -1.31438,1.2297 -0.66785,0.67634 -1.29415,1.2505 -1.39177,1.27592 -0.0976,0.0254 -3.18372,3.05331 -6.858,6.72864 -3.67428,3.67534 -6.74251,6.68258 -6.8183,6.68276 -0.0758,1.6e-4 -0.18523,0.0575 -0.2432,0.12732 -0.058,0.0699 -0.15322,0.127 -0.21167,0.127 -0.0584,0 -0.15036,0.0531 -0.20426,0.11808 -0.19108,0.23023 -3.17924,0.42162 -3.47874,0.22281 z m 14.56267,-1.7e-4 c -0.0699,-0.0463 -0.34141,-0.0847 -0.60347,-0.0855 -0.31894,-8.7e-4 -0.51131,-0.0433 -0.58186,-0.1283 -0.058,-0.0699 -0.20742,-0.127 -0.3321,-0.127 -0.12469,0 -0.2712,-0.0445 -0.32559,-0.0989 -0.12547,-0.12547 -0.68318,-0.3215 -0.91945,-0.32317 -0.0991,-6.8e-4 -0.22756,-0.0584 -0.28553,-0.12828 -0.058,-0.0699 -0.15322,-0.127 -0.21167,-0.127 -0.0584,0 -0.15369,-0.0571 -0.21166,-0.127 -0.058,-0.0699 -0.17228,-0.127 -0.254,-0.127 -0.0817,0 -0.20089,-0.0631 -0.2648,-0.14011 -0.0639,-0.0771 -0.2305,-0.19365 -0.3702,-0.25908 -0.59801,-0.28008 -1.17287,-0.73888 -1.12095,-0.89465 0.0393,-0.11775 6.43369,-6.49547 6.51251,-6.49547 0.039,0 0.0611,2.04788 0.049,4.55083 -0.0229,4.76864 -0.11442,5.15059 -1.08023,4.51059 z m 38.52333,6e-5 c -0.0699,-0.0463 -0.24858,-0.0848 -0.39717,-0.0855 -0.14859,-6.8e-4 -0.29517,-0.0418 -0.32572,-0.0912 -0.0306,-0.0494 -0.13758,-0.12612 -0.23783,-0.17039 -0.10026,-0.0443 -0.31563,-0.15986 -0.47861,-0.25685 -0.16299,-0.097 -3.14459,-3.02069 -6.62579,-6.49711 -3.48119,-3.47642 -6.37679,-6.30973 -6.43466,-6.29625 -0.0579,0.0135 -0.31904,0.25161 -0.58036,0.52917 -0.61207,0.65007 -0.29214,1.36343 -0.70965,0.37311 -0.0674,-0.15994 -1.20738,-1.22327 -1.29285,-1.22347 -0.1431,-3.1e-4 -4.33803,-4.13198 -4.33803,-4.2726 0,-0.10038 6.96732,-7.06813 7.06967,-7.0701 0.18563,-0.004 22.67336,22.58572 22.62072,22.72289 -0.0285,0.0742 -0.12447,0.13484 -0.21336,0.13484 -0.0889,0 -0.20906,0.0572 -0.26703,0.127 -0.058,0.0699 -0.15322,0.127 -0.21166,0.127 -0.0584,0 -0.15856,0.0631 -0.22247,0.14012 -0.0639,0.0771 -0.2305,0.19193 -0.3702,0.25526 -0.1397,0.0633 -0.31115,0.14993 -0.381,0.19244 -0.0699,0.0425 -0.18415,0.0995 -0.254,0.12667 -0.0699,0.0272 -0.2413,0.12474 -0.381,0.21684 -0.1397,0.0921 -0.31115,0.19004 -0.381,0.21763 -0.0699,0.0276 -0.21452,0.0851 -0.32148,0.12793 -0.10697,0.0428 -0.28328,0.0778 -0.3918,0.0778 -0.10853,0 -0.24475,0.0572 -0.30272,0.127 -0.058,0.0699 -0.21037,0.127 -0.33867,0.127 -0.12829,0 -0.27774,0.0536 -0.33209,0.11908 -0.17974,0.21657 -3.6146,0.41178 -3.90124,0.22172 z"
         id="path1575" /><path
         style="fill:#0d587f;stroke-width:0.0846667"
         d="m 122.87252,213.54171 c -10.07789,-0.68326 -18.09114,-8.7712 -18.78365,-18.95873 -0.1129,-1.66093 -0.1129,-46.93773 0,-48.59866 0.69895,-10.28221 8.68183,-18.26509 18.96404,-18.96404 1.66093,-0.1129 46.93773,-0.1129 48.59866,0 10.28221,0.69895 18.26509,8.68183 18.96404,18.96404 0.1129,1.66093 0.1129,46.93773 0,48.59866 -0.69895,10.28221 -8.68183,18.26509 -18.96404,18.96404 -1.47254,0.10009 -47.29791,0.0951 -48.77905,-0.005 z m -0.39408,-31.95415 c 0.173,-0.0336 0.35864,-0.11421 0.41254,-0.17916 0.0539,-0.065 0.14582,-0.11808 0.20426,-0.11808 0.0584,0 0.1537,-0.0572 0.21167,-0.127 0.058,-0.0699 0.16741,-0.12715 0.2432,-0.12732 0.0758,-1.7e-4 3.14402,-3.00742 6.8183,-6.68276 3.67428,-3.67533 6.76038,-6.70322 6.858,-6.72864 0.0976,-0.0254 0.72392,-0.59958 1.39177,-1.27592 0.66785,-0.67633 1.25932,-1.2297 1.31438,-1.2297 0.13539,0 13.55042,13.42187 13.58668,13.59361 0.0415,0.19661 2.16341,2.32373 2.31804,2.32373 0.0716,0 0.17766,0.0572 0.23563,0.127 0.058,0.0699 0.17227,0.127 0.254,0.127 0.0817,0 0.1927,0.0531 0.2466,0.11808 3.26258,1.30355 5.71813,-0.47997 8.27362,-1.72677 0.0454,0 0.21261,-0.13418 0.37156,-0.29818 0.25636,-0.26449 -0.67091,-1.50188 -1.1483,-1.50188 -0.15533,0 -0.55581,-0.35098 -1.50791,-1.50616 -0.0556,-0.0674 -0.82114,-1.04976 -0.93233,-1.09205 -0.11005,-0.0418 -0.22079,-0.15519 -0.24608,-0.2519 -0.0253,-0.0967 -0.10785,-0.17583 -0.18348,-0.17583 -0.0756,0 -2.32643,-2.19075 -5.00178,-4.86833 -2.67535,-2.67759 -4.92304,-4.86834 -4.99485,-4.86834 -0.0718,0 -0.16639,-0.0942 -0.21016,-0.20932 -0.0438,-0.11512 -1.07287,-1.20203 -2.28689,-2.41534 -1.21402,-1.21332 -2.24312,-2.30022 -2.28689,-2.41535 -0.047,-0.12375 -0.14699,-0.20932 -0.24447,-0.20932 -0.1547,0 -0.87506,-0.75473 -0.9495,-0.99481 -0.0555,-0.17895 -5.16767,-5.27052 -5.29185,-5.27052 -0.0641,0 -1.24195,1.12537 -2.61741,2.50083 -1.37546,1.37545 -2.59482,2.53656 -2.70969,2.58024 -0.11487,0.0437 -0.20886,0.13086 -0.20886,0.19374 0,0.13052 -0.31166,0.43291 -0.5226,0.50706 -0.0779,0.0274 -0.15408,0.13627 -0.16933,0.24198 -0.0168,0.1165 -0.103,0.21025 -0.21882,0.23801 -0.10752,0.0258 -0.25562,0.17539 -0.33867,0.34214 -0.0936,0.18799 -0.21912,0.30647 -0.34326,0.32406 -0.10762,0.0153 -0.21807,0.0915 -0.24545,0.16934 -0.069,0.19635 -0.37303,0.5226 -0.48698,0.5226 -0.14459,0 -0.87289,0.78224 -0.90653,0.97366 -0.0168,0.0958 -0.10824,0.18058 -0.21055,0.19524 -0.21248,0.0304 -0.4227,0.24568 -0.4649,0.47601 -0.0164,0.0898 -0.12516,0.18961 -0.24157,0.22184 -0.12343,0.0342 -3.26468,3.11584 -7.53534,7.39242 -4.02801,4.03359 -7.3837,7.33419 -7.45707,7.33465 -0.14838,9.4e-4 -0.44792,0.30124 -0.52865,0.53001 -0.0288,0.0815 -0.10351,0.14817 -0.16611,0.14817 -0.13873,0 -0.56883,0.43562 -0.56883,0.57613 0,0.0557 0.05,0.1012 0.11116,0.1012 0.0611,0 0.22066,0.1143 0.3545,0.254 0.13384,0.1397 0.28871,0.254 0.34414,0.254 0.0554,0 0.14823,0.0572 0.2062,0.127 0.058,0.0699 0.17718,0.127 0.26492,0.127 0.0877,0 0.24235,0.0952 0.34357,0.21167 0.10122,0.11641 0.24871,0.21166 0.32774,0.21166 0.079,0 0.19113,0.0572 0.2491,0.127 0.058,0.0698 0.20001,0.127 0.31564,0.127 0.11564,0 0.32345,0.0952 0.4618,0.21167 0.13835,0.11642 0.35826,0.21167 0.48869,0.21167 0.13042,0 0.28457,0.0572 0.34254,0.127 0.058,0.0699 0.21037,0.127 0.33866,0.127 0.1283,0 0.2807,0.0571 0.33867,0.127 0.0621,0.0748 0.2489,0.12753 0.45487,0.12829 0.1922,6.8e-4 0.40661,0.0392 0.47646,0.0856 0.13937,0.0925 2.54108,0.0583 3.0662,-0.0437 z m 12.5767,-4.46708 c 0.0121,-2.50295 -0.01,-4.55083 -0.049,-4.55083 -0.0788,0 -6.47325,6.37772 -6.51251,6.49549 -0.0519,0.15577 0.52294,0.61457 1.12095,0.89465 0.1397,0.0654 0.30629,0.18202 0.3702,0.25908 0.0639,0.0771 0.18307,0.14011 0.2648,0.14011 0.0817,0 0.19602,0.0572 0.254,0.127 0.058,0.0698 0.15322,0.127 0.21166,0.127 0.0584,0 0.1537,0.0572 0.21167,0.127 0.058,0.0699 0.18646,0.12758 0.28553,0.12828 0.23627,0.002 0.79398,0.1977 0.91945,0.32318 0.0544,0.0544 0.2009,0.0989 0.32559,0.0989 0.12468,0 0.27412,0.0571 0.3321,0.127 0.0705,0.085 0.26292,0.12743 0.58186,0.12829 0.26206,6.8e-4 0.53362,0.0392 0.60347,0.0855 0.96581,0.64 1.05728,0.25805 1.08023,-4.51059 z m 40.8048,4.46518 c 0.24239,-0.0314 0.48518,-0.11076 0.53954,-0.17626 0.0543,-0.0655 0.2038,-0.11908 0.33209,-0.11908 0.1283,0 0.2807,-0.0572 0.33867,-0.127 0.058,-0.0699 0.19419,-0.127 0.30272,-0.127 0.10852,0 0.28483,-0.035 0.3918,-0.0778 0.10696,-0.0428 0.25163,-0.10035 0.32148,-0.12793 0.0699,-0.0276 0.2413,-0.12552 0.381,-0.21763 0.1397,-0.0921 0.31115,-0.18968 0.381,-0.21684 0.0699,-0.0272 0.18415,-0.0842 0.254,-0.12667 0.0699,-0.0425 0.2413,-0.12911 0.381,-0.19244 0.1397,-0.0633 0.30629,-0.1782 0.3702,-0.25526 0.0639,-0.0771 0.16402,-0.14012 0.22247,-0.14012 0.0584,0 0.15369,-0.0571 0.21166,-0.127 0.058,-0.0699 0.17813,-0.127 0.26703,-0.127 0.0889,0 0.1849,-0.0607 0.21336,-0.13484 0.0526,-0.13717 -22.43509,-22.72646 -22.62072,-22.72289 -0.10235,0.002 -7.06967,6.96972 -7.06967,7.0701 0,0.14062 4.19493,4.27229 4.33803,4.27262 0.0855,1.7e-4 1.27282,1.41673 1.40441,1.30354 0.87633,-0.75382 -0.014,0.1969 0.59809,-0.45318 0.26132,-0.27756 0.52249,-0.51568 0.58036,-0.52917 0.0579,-0.0135 2.95347,2.81983 6.43466,6.29625 3.4812,3.47642 6.4628,6.40012 6.62579,6.49711 0.16298,0.097 0.37835,0.21258 0.47861,0.25685 0.10025,0.0443 0.20727,0.12095 0.23783,0.17039 0.0306,0.0494 0.17713,0.0905 0.32572,0.0912 0.14859,6.8e-4 0.32732,0.0392 0.39717,0.0855 0.13468,0.0893 2.57765,0.0563 3.3617,-0.0455 z"
         id="path1573" /></g></g></svg>
