<?xml version="1.0" encoding="UTF-8" standalone="no"?>
<!-- Created with Inkscape (http://www.inkscape.org/) -->

<svg
   width="86.698654mm"
   height="86.698662mm"
   viewBox="0 0 86.698654 86.698662"
   version="1.1"
   id="svg5"
   xml:space="preserve"
   inkscape:version="1.2.2 (732a01da63, 2022-12-09, custom)"
   sodipodi:docname="arch.svg"
   xmlns:inkscape="http://www.inkscape.org/namespaces/inkscape"
   xmlns:sodipodi="http://sodipodi.sourceforge.net/DTD/sodipodi-0.dtd"
   xmlns="http://www.w3.org/2000/svg"
   xmlns:svg="http://www.w3.org/2000/svg"><sodipodi:namedview
     id="namedview7"
     pagecolor="#505050"
     bordercolor="#eeeeee"
     borderopacity="1"
     inkscape:showpageshadow="0"
     inkscape:pageopacity="0"
     inkscape:pagecheckerboard="0"
     inkscape:deskcolor="#505050"
     inkscape:document-units="mm"
     showgrid="false"
     inkscape:zoom="1.7813094"
     inkscape:cx="211.92276"
     inkscape:cy="225.1153"
     inkscape:window-width="1390"
     inkscape:window-height="827"
     inkscape:window-x="0"
     inkscape:window-y="37"
     inkscape:window-maximized="1"
     inkscape:current-layer="layer1" /><defs
     id="defs2" /><g
     inkscape:label="Layer 1"
     inkscape:groupmode="layer"
     id="layer1"
     transform="translate(-102.98272,-140.07494)"><g
       id="g1330"
       transform="translate(39.535942,40.974527)"><path
         style="fill:#fdfdfe;stroke-width:0.0846667"
         d="m 77.67078,168.78107 c 0,-0.0466 0.0381,-0.0847 0.08467,-0.0847 0.04657,0 0.08467,-0.0762 0.08467,-0.16934 0,-0.0931 0.0381,-0.16933 0.08467,-0.16933 0.04657,0 0.08467,-0.0678 0.08467,-0.15064 0,-0.0829 0.0762,-0.20557 0.169333,-0.27269 0.09313,-0.0671 0.169334,-0.18984 0.169334,-0.27269 0,-0.0829 0.0381,-0.15065 0.08467,-0.15065 0.04657,0 0.08467,-0.0762 0.08467,-0.16933 0,-0.0931 0.0381,-0.16933 0.08467,-0.16933 0.04657,0 0.08467,-0.0762 0.08467,-0.16934 0,-0.0931 0.0381,-0.16933 0.08467,-0.16933 0.04657,0 0.08467,-0.0678 0.08467,-0.15064 0,-0.0829 0.0762,-0.20557 0.169333,-0.27269 0.09313,-0.0671 0.169333,-0.18984 0.169333,-0.27269 0,-0.0829 0.0381,-0.15065 0.08467,-0.15065 0.04657,0 0.08467,-0.0762 0.08467,-0.16933 0,-0.0931 0.0381,-0.16933 0.08467,-0.16933 0.04657,0 0.08467,-0.0762 0.08467,-0.16934 0,-0.0931 0.0381,-0.16933 0.08467,-0.16933 0.04657,0 0.08467,-0.0678 0.08467,-0.15064 0,-0.0829 0.0762,-0.20557 0.169333,-0.27269 0.09313,-0.0671 0.169334,-0.18984 0.169334,-0.27269 0,-0.0829 0.0381,-0.15065 0.08467,-0.15065 0.04657,0 0.08467,-0.0762 0.08467,-0.16933 0,-0.0931 0.0381,-0.16933 0.08467,-0.16933 0.04657,0 0.08467,-0.0762 0.08467,-0.16934 0,-0.0931 0.0381,-0.16933 0.08467,-0.16933 0.04657,0 0.08467,-0.0678 0.08467,-0.15064 0,-0.0829 0.0762,-0.20557 0.169333,-0.27269 0.09313,-0.0671 0.169333,-0.18984 0.169333,-0.27269 0,-0.0829 0.0381,-0.15065 0.08467,-0.15065 0.04657,0 0.08467,-0.0762 0.08467,-0.16933 0,-0.0931 0.0381,-0.16933 0.08467,-0.16933 0.04657,0 0.08467,-0.0762 0.08467,-0.16934 0,-0.0931 0.0381,-0.16933 0.08467,-0.16933 0.04657,0 0.08467,-0.0762 0.08467,-0.16933 0,-0.0931 0.0381,-0.16934 0.08467,-0.16934 0.04657,0 0.08467,-0.0678 0.08467,-0.15064 0,-0.0829 0.0762,-0.20556 0.169333,-0.27269 0.09313,-0.0671 0.169333,-0.18984 0.169333,-0.27269 0,-0.0828 0.0381,-0.15064 0.08467,-0.15064 0.04657,0 0.08467,-0.0762 0.08467,-0.16934 0,-0.0931 0.0381,-0.16933 0.08467,-0.16933 0.04657,0 0.08467,-0.0762 0.08467,-0.16933 0,-0.0931 0.0381,-0.16934 0.08467,-0.16934 0.04657,0 0.08467,-0.0678 0.08467,-0.15064 0,-0.0829 0.0762,-0.20556 0.169334,-0.27269 0.09313,-0.0671 0.169333,-0.18984 0.169333,-0.27269 0,-0.0828 0.0381,-0.15064 0.08467,-0.15064 0.04657,0 0.08467,-0.0762 0.08467,-0.16934 0,-0.0931 0.0381,-0.16933 0.08467,-0.16933 0.04657,0 0.08467,-0.0762 0.08467,-0.16933 0,-0.0931 0.0381,-0.16934 0.08467,-0.16934 0.04657,0 0.08467,-0.0678 0.08467,-0.15064 0,-0.0829 0.0762,-0.20556 0.169333,-0.27269 0.09313,-0.0671 0.169334,-0.18984 0.169334,-0.27269 0,-0.0828 0.0381,-0.15064 0.08467,-0.15064 0.04657,0 0.08467,-0.0762 0.08467,-0.16934 0,-0.0931 0.0381,-0.16933 0.08467,-0.16933 0.04657,0 0.08467,-0.0762 0.08467,-0.16933 0,-0.0931 0.0381,-0.16934 0.08467,-0.16934 0.04657,0 0.08467,-0.0762 0.08467,-0.16933 0,-0.0931 0.0381,-0.16933 0.08467,-0.16933 0.04657,0 0.08467,-0.0678 0.08467,-0.15065 0,-0.0829 0.0762,-0.20556 0.169333,-0.27269 0.09313,-0.0671 0.169334,-0.18983 0.169334,-0.27269 0,-0.0829 0.0381,-0.15064 0.08467,-0.15064 0.04657,0 0.08467,-0.0762 0.08467,-0.16933 0,-0.0931 0.0381,-0.16934 0.08467,-0.16934 0.04657,0 0.08467,-0.0762 0.08467,-0.16933 0,-0.0931 0.0381,-0.16933 0.08467,-0.16933 0.04657,0 0.08467,-0.0762 0.08467,-0.16934 0,-0.0931 0.0381,-0.16933 0.08467,-0.16933 0.04657,0 0.08467,-0.0678 0.08467,-0.15064 0,-0.0829 0.0762,-0.20557 0.169333,-0.27269 0.09313,-0.0671 0.169333,-0.18984 0.169333,-0.27269 0,-0.0829 0.0381,-0.15065 0.08467,-0.15065 0.04657,0 0.08467,-0.0762 0.08467,-0.16933 0,-0.0931 0.0381,-0.16933 0.08467,-0.16933 0.04657,0 0.08467,-0.0762 0.08467,-0.16934 0,-0.0931 0.0381,-0.16933 0.08467,-0.16933 0.04657,0 0.08467,-0.0762 0.08467,-0.16933 0,-0.0931 0.0381,-0.16934 0.08467,-0.16934 0.04657,0 0.08467,-0.0678 0.08467,-0.15064 0,-0.0828 0.0762,-0.20556 0.169333,-0.27269 0.09313,-0.0671 0.169333,-0.18984 0.169333,-0.27269 0,-0.0829 0.0381,-0.15064 0.08467,-0.15064 0.04657,0 0.08467,-0.0762 0.08467,-0.16934 0,-0.0931 0.0381,-0.16933 0.08467,-0.16933 0.04657,0 0.08467,-0.0762 0.08467,-0.16933 0,-0.0931 0.0381,-0.16934 0.08467,-0.16934 0.04657,0 0.08467,-0.0762 0.08467,-0.16933 0,-0.0931 0.0381,-0.16933 0.08467,-0.16933 0.04657,0 0.08467,-0.0678 0.08467,-0.15065 0,-0.0829 0.0762,-0.20556 0.169333,-0.27269 0.09313,-0.0671 0.169333,-0.18983 0.169333,-0.27269 0,-0.0828 0.0381,-0.15064 0.08467,-0.15064 0.04657,0 0.08467,-0.0762 0.08467,-0.16933 0,-0.0931 0.0381,-0.16934 0.08467,-0.16934 0.04657,0 0.08467,-0.0762 0.08467,-0.16933 0,-0.0931 0.0381,-0.16933 0.08467,-0.16933 0.04657,0 0.08467,-0.0762 0.08467,-0.16934 0,-0.0931 0.0381,-0.16933 0.08467,-0.16933 0.04657,0 0.08467,-0.0678 0.08467,-0.15064 0,-0.0829 0.0762,-0.20557 0.169333,-0.27269 0.09313,-0.0671 0.169333,-0.18984 0.169333,-0.27269 0,-0.0829 0.0381,-0.15065 0.08467,-0.15065 0.04657,0 0.08467,-0.0762 0.08467,-0.16933 0,-0.0931 0.0381,-0.16933 0.08467,-0.16933 0.04657,0 0.08467,-0.0762 0.08467,-0.16934 0,-0.0931 0.0381,-0.16933 0.08467,-0.16933 0.04657,0 0.08467,-0.0762 0.08467,-0.16933 0,-0.0931 0.0381,-0.16934 0.08467,-0.16934 0.04657,0 0.08467,-0.0762 0.08467,-0.16933 0,-0.0931 0.0381,-0.16933 0.08467,-0.16933 0.04657,0 0.08467,-0.0678 0.08467,-0.15064 0,-0.0829 0.0762,-0.20557 0.169333,-0.2727 0.09313,-0.0671 0.169334,-0.18983 0.169334,-0.27269 0,-0.0829 0.0381,-0.15064 0.08467,-0.15064 0.04657,0 0.08467,-0.0762 0.08467,-0.16933 0,-0.0931 0.0381,-0.16934 0.08467,-0.16934 0.04657,0 0.08467,-0.0762 0.08467,-0.16933 0,-0.0931 0.0381,-0.16933 0.08467,-0.16933 0.04657,0 0.08467,-0.0762 0.08467,-0.16934 0,-0.0931 0.0381,-0.16933 0.08467,-0.16933 0.04657,0 0.08467,-0.0762 0.08467,-0.16933 0,-0.0931 0.0381,-0.16934 0.08467,-0.16934 0.04657,0 0.08467,-0.0762 0.08467,-0.16933 0,-0.0931 0.0381,-0.16933 0.08467,-0.16933 0.04657,0 0.08467,-0.0678 0.08467,-0.15064 0,-0.0829 0.0762,-0.20557 0.169333,-0.2727 0.09313,-0.0671 0.169333,-0.18983 0.169333,-0.27269 0,-0.0829 0.0381,-0.15064 0.08467,-0.15064 0.04657,0 0.08467,-0.0762 0.08467,-0.16933 0,-0.0931 0.0381,-0.16934 0.08467,-0.16934 0.04657,0 0.08467,-0.0762 0.08467,-0.16933 0,-0.0931 0.0381,-0.16933 0.08467,-0.16933 0.04657,0 0.08467,-0.0762 0.08467,-0.16934 0,-0.0931 0.0381,-0.16933 0.08467,-0.16933 0.04657,0 0.08467,-0.0762 0.08467,-0.16933 0,-0.0931 0.0381,-0.16934 0.08467,-0.16934 0.04657,0 0.08467,-0.0762 0.08467,-0.16933 0,-0.0931 0.0381,-0.16933 0.08467,-0.16933 0.04657,0 0.08467,-0.0762 0.08467,-0.16934 0,-0.0931 0.0381,-0.16933 0.08467,-0.16933 0.04657,0 0.08467,-0.0678 0.08467,-0.15064 0,-0.0829 0.0762,-0.20557 0.169334,-0.27269 0.09313,-0.0671 0.169333,-0.18984 0.169333,-0.27269 0,-0.0829 0.0381,-0.15065 0.08467,-0.15065 0.04657,0 0.08467,-0.0762 0.08467,-0.16933 0,-0.0931 0.0381,-0.16933 0.08467,-0.16933 0.04657,0 0.08467,-0.0762 0.08467,-0.16934 0,-0.0931 0.0381,-0.16933 0.08467,-0.16933 0.04657,0 0.08467,-0.0762 0.08467,-0.16933 0,-0.0931 0.0381,-0.16934 0.08467,-0.16934 0.04657,0 0.08467,-0.0762 0.08467,-0.16933 0,-0.0931 0.0381,-0.16933 0.08467,-0.16933 0.04657,0 0.08467,-0.0762 0.08467,-0.16934 0,-0.0931 0.0381,-0.16933 0.08467,-0.16933 0.04657,0 0.08467,-0.0762 0.08467,-0.16933 0,-0.0931 0.0381,-0.16934 0.08467,-0.16934 0.04657,0 0.08467,-0.0762 0.08467,-0.16933 0,-0.0931 0.0381,-0.16933 0.08467,-0.16933 0.04657,0 0.08467,-0.0762 0.08467,-0.16934 0,-0.0931 0.0381,-0.16933 0.08467,-0.16933 0.04657,0 0.08467,-0.0678 0.08467,-0.15064 0,-0.0828 0.0762,-0.20556 0.169333,-0.27269 0.09313,-0.0671 0.169334,-0.18984 0.169334,-0.27269 0,-0.0829 0.0381,-0.15065 0.08467,-0.15065 0.04657,0 0.08467,-0.0762 0.08467,-0.16933 0,-0.0931 0.0381,-0.16933 0.08467,-0.16933 0.04657,0 0.08467,-0.0762 0.08467,-0.16934 0,-0.0931 0.0381,-0.16933 0.08467,-0.16933 0.04657,0 0.08467,-0.0762 0.08467,-0.16933 0,-0.0931 0.0381,-0.16934 0.08467,-0.16934 0.04657,0 0.08467,-0.0762 0.08467,-0.16933 0,-0.0931 0.0381,-0.16933 0.08467,-0.16933 0.04657,0 0.08467,-0.0762 0.08467,-0.16934 0,-0.0931 0.0381,-0.16933 0.08467,-0.16933 0.04657,0 0.08467,-0.0762 0.08467,-0.16933 0,-0.0931 0.0381,-0.16934 0.08467,-0.16934 0.04657,0 0.08467,-0.0762 0.08467,-0.16933 0,-0.0931 0.0381,-0.16933 0.08467,-0.16933 0.04657,0 0.08467,-0.0762 0.08467,-0.16934 0,-0.0931 0.0381,-0.16933 0.08467,-0.16933 0.04657,0 0.08467,-0.0762 0.08467,-0.16933 0,-0.0931 0.0381,-0.16934 0.08467,-0.16934 0.04657,0 0.08467,-0.0762 0.08467,-0.16933 0,-0.0931 0.0381,-0.16933 0.08467,-0.16933 0.04657,0 0.08467,-0.0762 0.08467,-0.16934 0,-0.0931 0.0381,-0.16933 0.08467,-0.16933 0.04657,0 0.08467,-0.0762 0.08467,-0.16933 0,-0.0931 0.0381,-0.16934 0.08467,-0.16934 0.04657,0 0.08467,-0.0762 0.08467,-0.16933 0,-0.0931 0.0381,-0.16933 0.08467,-0.16933 0.04657,0 0.08467,-0.0762 0.08467,-0.16934 0,-0.0931 0.0381,-0.16933 0.08467,-0.16933 0.04657,0 0.08467,-0.0762 0.08467,-0.16933 0,-0.0931 0.0381,-0.16934 0.08467,-0.16934 0.04657,0 0.08467,-0.0762 0.08467,-0.16933 0,-0.0931 0.0381,-0.16933 0.08467,-0.16933 0.04657,0 0.08467,-0.0762 0.08467,-0.16934 0,-0.0931 0.0381,-0.16933 0.08467,-0.16933 0.04657,0 0.08467,-0.0762 0.08467,-0.16933 0,-0.0931 0.0381,-0.16934 0.08467,-0.16934 0.04657,0 0.08467,-0.0762 0.08467,-0.16933 0,-0.0931 0.0381,-0.16933 0.08467,-0.16933 0.04657,0 0.08467,-0.0762 0.08467,-0.16934 0,-0.0931 0.0381,-0.16933 0.08467,-0.16933 0.04657,0 0.08467,-0.0762 0.08467,-0.16933 0,-0.0931 0.0381,-0.16934 0.08467,-0.16934 0.04657,0 0.08467,-0.0762 0.08467,-0.16933 0,-0.0931 0.0381,-0.16933 0.08467,-0.16933 0.04657,0 0.08467,-0.0762 0.08467,-0.16933 0,-0.0931 0.0381,-0.16934 0.08467,-0.16934 0.04657,0 0.08467,-0.0762 0.08467,-0.16933 0,-0.0931 0.0381,-0.16933 0.08467,-0.16933 0.04657,0 0.08467,-0.0762 0.08467,-0.16934 0,-0.22885 0.05975,-0.21392 0.338666,0.0847 0.1305,0.1397 0.2829,0.254 0.338667,0.254 0.05577,0 0.208167,0.1143 0.338667,0.254 0.130499,0.1397 0.289776,0.254 0.353946,0.254 0.0642,0 0.1716,0.0762 0.23872,0.16933 0.0671,0.0931 0.18143,0.16933 0.254,0.16933 0.0726,0 0.18688,0.0762 0.254,0.16934 0.0671,0.0931 0.18143,0.16933 0.254,0.16933 0.0726,0 0.18688,0.0762 0.254,0.16933 0.0671,0.0931 0.18143,0.16934 0.254,0.16934 0.0726,0 0.18688,0.0762 0.254,0.16933 0.0671,0.0931 0.18984,0.16933 0.27269,0.16933 0.0829,0 0.15065,0.0381 0.15065,0.0847 0,0.0466 0.0762,0.0847 0.16933,0.0847 0.0931,0 0.16933,0.0381 0.16933,0.0847 0,0.0466 0.0762,0.0847 0.16934,0.0847 0.0931,0 0.16933,0.0381 0.16933,0.0847 0,0.0466 0.0678,0.0847 0.15064,0.0847 0.0829,0 0.20557,0.0762 0.27269,0.16934 0.0671,0.0931 0.18984,0.16933 0.27269,0.16933 0.0829,0 0.15065,0.0381 0.15065,0.0847 0,0.0466 0.0762,0.0847 0.16933,0.0847 0.0931,0 0.16933,0.0381 0.16933,0.0847 0,0.0466 0.0762,0.0847 0.16934,0.0847 0.0931,0 0.16933,0.0381 0.16933,0.0847 0,0.0466 0.1143,0.0847 0.254,0.0847 0.1397,0 0.254,0.0381 0.254,0.0847 0,0.0466 0.0762,0.0847 0.16933,0.0847 0.0931,0 0.16934,0.0381 0.16934,0.0847 0,0.0466 0.0762,0.0847 0.16933,0.0847 0.0931,0 0.16933,0.0381 0.16933,0.0847 0,0.0466 0.0762,0.0847 0.16934,0.0847 0.0931,0 0.16933,0.0381 0.16933,0.0847 0,0.0466 0.0762,0.0847 0.16933,0.0847 0.0931,0 0.16934,0.0381 0.16934,0.0847 0,0.0466 0.0762,0.0847 0.16933,0.0847 0.0931,0 0.16933,-0.0218 0.16933,-0.0484 0,-0.0866 -0.23929,-0.29029 -0.34098,-0.29029 -0.0545,0 -0.20585,-0.1143 -0.33635,-0.254 -0.1305,-0.1397 -0.2829,-0.254 -0.33867,-0.254 -0.0558,0 -0.20817,-0.1143 -0.33866,-0.254 -0.1305,-0.1397 -0.28213,-0.254 -0.33694,-0.254 -0.0548,0 -0.2461,-0.1524 -0.42506,-0.33867 -0.17897,-0.18626 -0.36832,-0.33866 -0.42079,-0.33866 -0.0525,0 -0.35841,-0.2667 -0.67988,-0.59267 -0.32147,-0.32597 -0.62469,-0.59267 -0.67381,-0.59267 -0.14609,0 -3.262444,-3.16113 -3.152491,-3.19778 0.05553,-0.0185 0.100965,-0.10668 0.100965,-0.19594 0,-0.0892 0.0381,-0.16227 0.08467,-0.16227 0.04657,0 0.08467,-0.0762 0.08467,-0.16934 0,-0.0931 0.0381,-0.16933 0.0847,-0.16933 0.0466,0 0.0847,-0.0762 0.0847,-0.16933 0,-0.0931 0.0381,-0.16934 0.0847,-0.16934 0.0466,0 0.0847,-0.1143 0.0847,-0.254 0,-0.1397 0.0381,-0.254 0.0847,-0.254 0.0466,0 0.0847,-0.0762 0.0847,-0.16933 0,-0.0931 0.0381,-0.16933 0.0847,-0.16933 0.0466,0 0.0847,-0.0762 0.0847,-0.16934 0,-0.0931 0.0381,-0.16933 0.0847,-0.16933 0.0466,0 0.0847,-0.0762 0.0847,-0.16933 0,-0.0931 0.0381,-0.16934 0.0847,-0.16934 0.0466,0 0.0847,-0.1143 0.0847,-0.254 0,-0.1397 0.0381,-0.254 0.0847,-0.254 0.0466,0 0.0847,-0.0762 0.0847,-0.16933 0,-0.0931 0.0381,-0.16933 0.0847,-0.16933 0.0466,0 0.0847,-0.0762 0.0847,-0.16934 0,-0.0931 0.0381,-0.16933 0.0847,-0.16933 0.0466,0 0.0847,-0.0762 0.0847,-0.16933 0,-0.0931 0.0381,-0.16934 0.0847,-0.16934 0.0466,0 0.0847,-0.1143 0.0847,-0.254 0,-0.1397 0.0381,-0.254 0.0847,-0.254 0.0466,0 0.0847,-0.0762 0.0847,-0.16933 0,-0.0931 0.0381,-0.16933 0.0847,-0.16933 0.0466,0 0.0847,-0.0762 0.0847,-0.16934 0,-0.0931 0.0381,-0.16933 0.0847,-0.16933 0.0466,0 0.0847,-0.1143 0.0847,-0.254 0,-0.1397 0.0381,-0.254 0.0847,-0.254 0.0466,0 0.0847,-0.0762 0.0847,-0.16933 0,-0.0931 0.0381,-0.16934 0.0847,-0.16934 0.0466,0 0.0847,-0.0762 0.0847,-0.16933 0,-0.0931 0.0381,-0.16933 0.0847,-0.16933 0.0466,0 0.0847,-0.1143 0.0847,-0.254 0,-0.1397 0.0381,-0.254 0.0847,-0.254 0.0466,0 0.0847,-0.0762 0.0847,-0.16934 0,-0.0931 0.0381,-0.16933 0.0847,-0.16933 0.0466,0 0.0847,-0.0762 0.0847,-0.16933 0,-0.0931 0.0381,-0.16934 0.0847,-0.16934 0.0466,0 0.0847,-0.1143 0.0847,-0.254 0,-0.1397 0.0381,-0.254 0.0847,-0.254 0.0466,0 0.0847,-0.0762 0.0847,-0.16933 0,-0.0931 0.0381,-0.16933 0.0847,-0.16933 0.0466,0 0.0847,-0.1143 0.0847,-0.254 0,-0.1397 0.0381,-0.254 0.0847,-0.254 0.0466,0 0.0847,-0.0762 0.0847,-0.16934 0,-0.0931 0.0381,-0.16933 0.0847,-0.16933 0.0466,0 0.0847,-0.1143 0.0847,-0.254 0,-0.1397 0.0381,-0.254 0.0847,-0.254 0.0466,0 0.0847,-0.0762 0.0847,-0.16933 0,-0.0931 0.0381,-0.16934 0.0847,-0.16934 0.0466,0 0.0847,-0.1143 0.0847,-0.254 0,-0.1397 0.0381,-0.254 0.0847,-0.254 0.0466,0 0.0847,-0.0762 0.0847,-0.16933 0,-0.0931 0.0381,-0.16933 0.0847,-0.16933 0.0466,0 0.0847,-0.0762 0.0847,-0.16934 0,-0.0931 0.0381,-0.16933 0.0847,-0.16933 0.0466,0 0.0847,-0.1143 0.0847,-0.254 0,-0.1397 0.0381,-0.254 0.0847,-0.254 0.0466,0 0.0847,-0.0762 0.0847,-0.16933 0,-0.0931 0.0381,-0.16934 0.0847,-0.16934 0.0466,0 0.0847,-0.1143 0.0847,-0.254 0,-0.1397 0.0381,-0.254 0.0847,-0.254 0.0466,0 0.0847,-0.0762 0.0847,-0.16933 0,-0.0931 0.0381,-0.16933 0.0847,-0.16933 0.0466,0 0.0847,-0.1143 0.0847,-0.254 0,-0.1397 0.0381,-0.254 0.0847,-0.254 0.0466,0 0.0847,-0.0762 0.0847,-0.16934 0,-0.0931 0.0381,-0.16933 0.0847,-0.16933 0.0466,0 0.0847,-0.1143 0.0847,-0.254 0,-0.1397 0.0381,-0.254 0.0847,-0.254 0.0466,0 0.0847,-0.0762 0.0847,-0.16933 0,-0.0931 0.0381,-0.16934 0.0847,-0.16934 0.0466,0 0.0847,-0.1143 0.0847,-0.254 0,-0.1397 0.0381,-0.254 0.0847,-0.254 0.0466,0 0.0847,-0.0762 0.0847,-0.16933 0,-0.0931 0.0381,-0.16933 0.0847,-0.16933 0.0466,0 0.0847,-0.1143 0.0847,-0.254 0,-0.1397 0.0381,-0.254 0.0847,-0.254 0.0466,0 0.0847,-0.0762 0.0847,-0.16934 0,-0.11289 0.0564,-0.16933 0.16933,-0.16933 0.11289,0 0.16934,0.0564 0.16934,0.16933 0,0.0931 0.0381,0.16934 0.0847,0.16934 0.0466,0 0.0847,0.1143 0.0847,0.254 0,0.1397 0.0381,0.254 0.0847,0.254 0.0466,0 0.0847,0.0762 0.0847,0.16933 0,0.0931 0.0381,0.16933 0.0847,0.16933 0.0466,0 0.0847,0.0762 0.0847,0.16934 0,0.0931 0.0381,0.16933 0.0847,0.16933 0.0466,0 0.0847,0.1143 0.0847,0.254 0,0.1397 0.0381,0.254 0.0847,0.254 0.0466,0 0.0847,0.0762 0.0847,0.16933 0,0.0931 0.0381,0.16934 0.0847,0.16934 0.0466,0 0.0847,0.1143 0.0847,0.254 0,0.1397 0.0381,0.254 0.0847,0.254 0.0466,0 0.0847,0.0762 0.0847,0.16933 0,0.0931 0.0381,0.16933 0.0847,0.16933 0.0466,0 0.0847,0.0762 0.0847,0.16934 0,0.0931 0.0381,0.16933 0.0847,0.16933 0.0466,0 0.0847,0.1143 0.0847,0.254 0,0.1397 0.0381,0.254 0.0847,0.254 0.0466,0 0.0847,0.0762 0.0847,0.16933 0,0.0931 0.0381,0.16934 0.0847,0.16934 0.0466,0 0.0847,0.0762 0.0847,0.16933 0,0.0931 0.0381,0.16933 0.0847,0.16933 0.0466,0 0.0847,0.1143 0.0847,0.254 0,0.1397 0.0381,0.254 0.0847,0.254 0.0466,0 0.0847,0.0762 0.0847,0.16934 0,0.0931 0.0381,0.16933 0.0847,0.16933 0.0466,0 0.0847,0.0762 0.0847,0.16933 0,0.0931 0.0381,0.16934 0.0847,0.16934 0.0466,0 0.0847,0.1143 0.0847,0.254 0,0.1397 0.0381,0.254 0.0847,0.254 0.0466,0 0.0847,0.0762 0.0847,0.16933 0,0.0931 0.0381,0.16933 0.0847,0.16933 0.0466,0 0.0847,0.0762 0.0847,0.16934 0,0.0931 0.0381,0.16933 0.0847,0.16933 0.0466,0 0.0847,0.1143 0.0847,0.254 0,0.1397 0.0381,0.254 0.0847,0.254 0.0466,0 0.0847,0.0762 0.0847,0.16933 0,0.0931 0.0381,0.16934 0.0847,0.16934 0.0466,0 0.0847,0.0762 0.0847,0.16933 0,0.0931 0.0381,0.16933 0.0847,0.16933 0.0466,0 0.0847,0.1143 0.0847,0.254 0,0.1397 0.0381,0.254 0.0847,0.254 0.0466,0 0.0847,0.0762 0.0847,0.16934 0,0.0931 0.0381,0.16933 0.0847,0.16933 0.0466,0 0.0847,0.0762 0.0847,0.16933 0,0.0931 0.0381,0.16934 0.0847,0.16934 0.0466,0 0.0847,0.1143 0.0847,0.254 0,0.1397 0.0381,0.254 0.0847,0.254 0.0466,0 0.0847,0.0762 0.0847,0.16933 0,0.0931 0.0381,0.16933 0.0847,0.16933 0.0466,0 0.0847,0.0762 0.0847,0.16934 0,0.0931 0.0381,0.16933 0.0847,0.16933 0.0466,0 0.0847,0.0762 0.0847,0.16933 0,0.0931 0.0381,0.16934 0.0847,0.16934 0.0466,0 0.0847,0.1143 0.0847,0.254 0,0.1397 0.0381,0.254 0.0847,0.254 0.0466,0 0.0847,0.0762 0.0847,0.16933 0,0.0931 0.0381,0.16933 0.0847,0.16933 0.0466,0 0.0847,0.0762 0.0847,0.16934 0,0.0931 0.0381,0.16933 0.0847,0.16933 0.0466,0 0.0847,0.0762 0.0847,0.16933 0,0.0931 0.0381,0.16934 0.0847,0.16934 0.0466,0 0.0847,0.0762 0.0847,0.16933 0,0.0931 0.0381,0.16933 0.0847,0.16933 0.0466,0 0.0847,0.1143 0.0847,0.254 0,0.1397 0.0381,0.254 0.0847,0.254 0.0466,0 0.0847,0.0762 0.0847,0.16934 0,0.0931 0.0381,0.16933 0.0847,0.16933 0.0466,0 0.0847,0.0762 0.0847,0.16933 0,0.0931 0.0381,0.16934 0.0847,0.16934 0.0466,0 0.0847,0.0762 0.0847,0.16933 0,0.0931 0.0381,0.16933 0.0847,0.16933 0.0466,0 0.0847,0.0762 0.0847,0.16934 0,0.0931 0.0381,0.16933 0.0847,0.16933 0.0466,0 0.0847,0.0762 0.0847,0.16933 0,0.0931 0.0381,0.16934 0.0847,0.16934 0.0466,0 0.0847,0.0762 0.0847,0.16933 0,0.0931 0.0381,0.16933 0.0847,0.16933 0.0466,0 0.0847,0.1143 0.0847,0.254 0,0.1397 0.0381,0.254 0.0847,0.254 0.0466,0 0.0847,0.0762 0.0847,0.16934 0,0.0931 0.0381,0.16933 0.0847,0.16933 0.0466,0 0.0847,0.0762 0.0847,0.16933 0,0.0931 0.0381,0.16934 0.0847,0.16934 0.0466,0 0.0847,0.0762 0.0847,0.16933 0,0.0931 0.0381,0.16933 0.0847,0.16933 0.0466,0 0.0847,0.0762 0.0847,0.16934 0,0.0931 0.0381,0.16933 0.0847,0.16933 0.0466,0 0.0847,0.0762 0.0847,0.16933 0,0.0931 0.0381,0.16934 0.0847,0.16934 0.0466,0 0.0847,0.0762 0.0847,0.16933 0,0.0931 0.0381,0.16933 0.0847,0.16933 0.0466,0 0.0847,0.0762 0.0847,0.16934 0,0.0931 0.0381,0.16933 0.0847,0.16933 0.0466,0 0.0847,0.0762 0.0847,0.16933 0,0.0931 0.0381,0.16934 0.0847,0.16934 0.0466,0 0.0847,0.0762 0.0847,0.16933 0,0.0931 0.0381,0.16933 0.0847,0.16933 0.0466,0 0.0847,0.0762 0.0847,0.16934 0,0.0931 0.0381,0.16933 0.0847,0.16933 0.0466,0 0.0847,0.0762 0.0847,0.16933 0,0.0931 0.0381,0.16933 0.0847,0.16933 0.0466,0 0.0847,0.0762 0.0847,0.16934 0,0.0931 0.0381,0.16933 0.0847,0.16933 0.0466,0 0.0847,0.0762 0.0847,0.16933 0,0.0931 0.0381,0.16934 0.0847,0.16934 0.0466,0 0.0847,0.0762 0.0847,0.16933 0,0.0931 0.0381,0.16933 0.0847,0.16933 0.0466,0 0.0847,0.0762 0.0847,0.16934 0,0.0931 0.0381,0.16933 0.0847,0.16933 0.0466,0 0.0847,0.0762 0.0847,0.16933 0,0.0931 0.0381,0.16934 0.0847,0.16934 0.0466,0 0.0847,0.0762 0.0847,0.16933 0,0.0931 0.0381,0.16933 0.0847,0.16933 0.0466,0 0.0847,0.0762 0.0847,0.16934 0,0.0931 0.0381,0.16933 0.0847,0.16933 0.0466,0 0.0847,0.0762 0.0847,0.16933 0,0.0931 0.0381,0.16934 0.0847,0.16934 0.0466,0 0.0847,0.0762 0.0847,0.16933 0,0.0931 0.0381,0.16933 0.0847,0.16933 0.0466,0 0.0847,0.0762 0.0847,0.16934 0,0.0931 0.0381,0.16933 0.0847,0.16933 0.0466,0 0.0847,0.0762 0.0847,0.16933 0,0.0931 0.0381,0.16934 0.0847,0.16934 0.0466,0 0.0847,0.0762 0.0847,0.16933 0,0.0931 0.0381,0.16933 0.0847,0.16933 0.0466,0 0.0847,0.0762 0.0847,0.16934 0,0.0931 0.0381,0.16933 0.0847,0.16933 0.0466,0 0.0847,0.0762 0.0847,0.16933 0,0.0931 0.0381,0.16934 0.0847,0.16934 0.0466,0 0.0847,0.0762 0.0847,0.16933 0,0.0931 0.0381,0.16933 0.0847,0.16933 0.0466,0 0.0847,0.0762 0.0847,0.16934 0,0.0931 0.0381,0.16933 0.0847,0.16933 0.0466,0 0.0847,0.0762 0.0847,0.16933 0,0.0931 0.0381,0.16934 0.0847,0.16934 0.0466,0 0.0847,0.0762 0.0847,0.16933 0,0.0931 0.0381,0.16933 0.0847,0.16933 0.0466,0 0.0847,0.0762 0.0847,0.16934 0,0.0931 0.0381,0.16933 0.0847,0.16933 0.0466,0 0.0847,0.0762 0.0847,0.16933 0,0.0931 0.0381,0.16934 0.0847,0.16934 0.0466,0 0.0847,0.0762 0.0847,0.16933 0,0.0931 0.0381,0.16933 0.0847,0.16933 0.0466,0 0.0847,0.0762 0.0847,0.16934 0,0.0931 0.0381,0.16933 0.0847,0.16933 0.0466,0 0.0847,0.0762 0.0847,0.16933 0,0.0931 0.0381,0.16934 0.0847,0.16934 0.0466,0 0.0847,0.0762 0.0847,0.16933 0,0.0931 0.0381,0.16933 0.0847,0.16933 0.0466,0 0.0847,0.0762 0.0847,0.16934 0,0.0931 0.0381,0.16933 0.0847,0.16933 0.0466,0 0.0847,0.0762 0.0847,0.16933 0,0.0931 0.0381,0.16934 0.0847,0.16934 0.0466,0 0.0847,0.0762 0.0847,0.16933 0,0.0931 0.0381,0.16933 0.0847,0.16933 0.0466,0 0.0847,0.0762 0.0847,0.16934 0,0.0931 0.0381,0.16933 0.0847,0.16933 0.0466,0 0.0847,0.0678 0.0847,0.15064 0,0.0829 0.0762,0.20557 0.16933,0.27269 0.0931,0.0671 0.16934,0.18984 0.16934,0.2727 0,0.0828 0.0381,0.15064 0.0847,0.15064 0.0466,0 0.0847,0.0762 0.0847,0.16933 0,0.0931 0.0381,0.16933 0.0847,0.16933 0.0466,0 0.0847,0.0762 0.0847,0.16934 0,0.0931 0.0381,0.16933 0.0847,0.16933 0.0466,0 0.0847,0.0762 0.0847,0.16933 0,0.0931 0.0381,0.16934 0.0847,0.16934 0.0466,0 0.0847,0.0762 0.0847,0.16933 0,0.0931 0.0381,0.16933 0.0847,0.16933 0.0466,0 0.0847,0.0762 0.0847,0.16934 0,0.0931 0.0381,0.16933 0.0847,0.16933 0.0466,0 0.0847,0.0762 0.0847,0.16933 0,0.0931 0.0381,0.16934 0.0847,0.16934 0.0466,0 0.0847,0.0762 0.0847,0.16933 0,0.0931 0.0381,0.16933 0.0847,0.16933 0.0466,0 0.0847,0.0762 0.0847,0.16934 0,0.0931 0.0381,0.16933 0.0847,0.16933 0.0466,0 0.0847,0.0678 0.0847,0.15064 0,0.0829 0.0762,0.20557 0.16933,0.27269 0.0931,0.0671 0.16933,0.18984 0.16933,0.2727 0,0.0829 0.0381,0.15064 0.0847,0.15064 0.0466,0 0.0847,0.0762 0.0847,0.16933 0,0.0931 0.0381,0.16933 0.0847,0.16933 0.0466,0 0.0847,0.0762 0.0847,0.16934 0,0.0931 0.0381,0.16933 0.0847,0.16933 0.0466,0 0.0847,0.0762 0.0847,0.16933 0,0.0931 0.0381,0.16934 0.0847,0.16934 0.0466,0 0.0847,0.0762 0.0847,0.16933 0,0.0931 0.0381,0.16933 0.0847,0.16933 0.0466,0 0.0847,0.0762 0.0847,0.16934 0,0.0931 0.0381,0.16933 0.0847,0.16933 0.0466,0 0.0847,0.0762 0.0847,0.16933 0,0.0931 0.0381,0.16934 0.0847,0.16934 0.0466,0 0.0847,0.0762 0.0847,0.16933 0,0.0931 0.0381,0.16933 0.0847,0.16933 0.0466,0 0.0847,0.0678 0.0847,0.15065 0,0.0829 0.0762,0.20556 0.16933,0.27269 0.0931,0.0671 0.16934,0.18984 0.16934,0.27269 0,0.0829 0.0381,0.15064 0.0847,0.15064 0.0466,0 0.0847,0.0762 0.0847,0.16933 0,0.0931 0.0381,0.16934 0.0847,0.16934 0.0466,0 0.0847,0.0762 0.0847,0.16933 0,0.0931 0.0381,0.16933 0.0847,0.16933 0.0466,0 0.0847,0.0762 0.0847,0.16934 0,0.0931 0.0381,0.16933 0.0847,0.16933 0.0466,0 0.0847,0.0762 0.0847,0.16933 0,0.0931 0.0381,0.16934 0.0847,0.16934 0.0466,0 0.0847,0.0762 0.0847,0.16933 0,0.0931 0.0381,0.16933 0.0847,0.16933 0.0466,0 0.0847,0.0678 0.0847,0.15065 0,0.0829 0.0762,0.20556 0.16933,0.27269 0.0931,0.0671 0.16933,0.18984 0.16933,0.27269 0,0.0829 0.0381,0.15064 0.0847,0.15064 0.0466,0 0.0847,0.0762 0.0847,0.16933 0,0.0931 0.0381,0.16934 0.0847,0.16934 0.0466,0 0.0847,0.0762 0.0847,0.16933 0,0.0931 0.0381,0.16933 0.0847,0.16933 0.0466,0 0.0847,0.0762 0.0847,0.16934 0,0.0931 0.0381,0.16933 0.0847,0.16933 0.0466,0 0.0847,0.0762 0.0847,0.16933 0,0.0931 0.0381,0.16934 0.0847,0.16934 0.0466,0 0.0847,0.0762 0.0847,0.16933 0,0.0931 0.0381,0.16933 0.0847,0.16933 0.0466,0 0.0847,0.0678 0.0847,0.15065 0,0.0828 0.0762,0.20556 0.16934,0.27269 0.0931,0.0671 0.16933,0.18984 0.16933,0.27269 0,0.0829 0.0381,0.15064 0.0847,0.15064 0.0466,0 0.0847,0.0762 0.0847,0.16933 0,0.0931 0.0381,0.16934 0.0847,0.16934 0.0466,0 0.0847,0.0762 0.0847,0.16933 0,0.0931 0.0381,0.16933 0.0847,0.16933 0.0466,0 0.0847,0.0762 0.0847,0.16934 0,0.0931 0.0381,0.16933 0.0847,0.16933 0.0466,0 0.0847,0.0762 0.0847,0.16933 0,0.0931 0.0381,0.16934 0.0847,0.16934 0.0466,0 0.0847,0.0762 0.0847,0.16933 0,0.0931 0.0381,0.16933 0.0847,0.16933 0.0466,0 0.0847,0.0678 0.0847,0.15065 0,0.0829 0.0762,0.20556 0.16933,0.27269 0.0931,0.0671 0.16934,0.18983 0.16934,0.27269 0,0.0829 0.0381,0.15064 0.0847,0.15064 0.0466,0 0.0847,0.0762 0.0847,0.16933 0,0.0931 0.0381,0.16934 0.0847,0.16934 0.0466,0 0.0847,0.073 0.0847,0.16228 0,0.0892 0.0476,0.17928 0.10584,0.20007 0.0616,0.022 0.0744,0.0692 0.0307,0.11289 -0.0437,0.0437 -0.0909,0.0308 -0.11289,-0.0307 -0.0208,-0.0582 -0.11082,-0.10584 -0.20007,-0.10584 -0.0893,0 -0.16228,-0.0381 -0.16228,-0.0847 0,-0.0466 -0.0762,-0.0847 -0.16934,-0.0847 -0.0931,0 -0.16933,-0.0381 -0.16933,-0.0847 0,-0.0466 -0.0762,-0.0847 -0.16933,-0.0847 -0.0931,0 -0.16934,-0.0381 -0.16934,-0.0847 0,-0.0466 -0.0762,-0.0847 -0.16933,-0.0847 -0.0931,0 -0.16933,-0.0381 -0.16933,-0.0847 0,-0.0466 -0.0762,-0.0847 -0.16934,-0.0847 -0.0931,0 -0.16933,-0.0381 -0.16933,-0.0847 0,-0.0466 -0.0762,-0.0847 -0.16933,-0.0847 -0.0931,0 -0.16934,-0.0381 -0.16934,-0.0847 0,-0.0466 -0.0762,-0.0847 -0.16933,-0.0847 -0.0931,0 -0.16933,-0.0381 -0.16933,-0.0847 0,-0.0466 -0.0762,-0.0847 -0.16934,-0.0847 -0.0931,0 -0.16933,-0.0381 -0.16933,-0.0847 0,-0.0466 -0.1143,-0.0847 -0.254,-0.0847 -0.1397,0 -0.254,-0.0381 -0.254,-0.0847 0,-0.0466 -0.0762,-0.0847 -0.16933,-0.0847 -0.0931,0 -0.16934,-0.0381 -0.16934,-0.0847 0,-0.0466 -0.1143,-0.0847 -0.254,-0.0847 -0.1397,0 -0.254,-0.0381 -0.254,-0.0847 0,-0.0466 -0.1143,-0.0847 -0.254,-0.0847 -0.1397,0 -0.254,-0.0381 -0.254,-0.0847 0,-0.0466 -0.1143,-0.0847 -0.254,-0.0847 -0.1397,0 -0.254,-0.0381 -0.254,-0.0847 0,-0.0466 -0.1143,-0.0847 -0.254,-0.0847 -0.1397,0 -0.254,-0.0381 -0.254,-0.0847 0,-0.0466 -0.1143,-0.0847 -0.254,-0.0847 -0.1397,0 -0.254,-0.0381 -0.254,-0.0847 0,-0.0466 -0.1143,-0.0847 -0.254,-0.0847 -0.1397,0 -0.254,-0.0381 -0.254,-0.0847 0,-0.0466 -0.14922,-0.0847 -0.33161,-0.0847 -0.18868,0 -0.3479,-0.0456 -0.36941,-0.10583 -0.0208,-0.0582 -0.0666,-0.0791 -0.1018,-0.0464 -0.0856,0.0796 0.16353,0.32153 0.33111,0.32153 0.0732,0 0.13305,0.0381 0.13305,0.0847 0,0.0466 0.0762,0.0847 0.16933,0.0847 0.0931,0 0.16933,0.0381 0.16933,0.0847 0,0.0466 0.0762,0.0847 0.16934,0.0847 0.0931,0 0.16933,0.0381 0.16933,0.0847 0,0.0466 0.0678,0.0847 0.15064,0.0847 0.0829,0 0.20557,0.0762 0.27269,0.16934 0.0671,0.0931 0.18984,0.16933 0.2727,0.16933 0.0829,0 0.15064,0.0381 0.15064,0.0847 0,0.0466 0.0678,0.0847 0.15064,0.0847 0.0828,0 0.20556,0.0762 0.27269,0.16934 0.0671,0.0931 0.18143,0.16933 0.254,0.16933 0.0726,0 0.18687,0.0762 0.254,0.16933 0.0671,0.0931 0.18984,0.16934 0.27269,0.16934 0.0829,0 0.15064,0.0381 0.15064,0.0847 0,0.0466 0.0678,0.0847 0.15065,0.0847 0.0828,0 0.20556,0.0762 0.27269,0.16933 0.0671,0.0931 0.17455,0.16934 0.23872,0.16934 0.0642,0 0.22345,0.1143 0.35394,0.254 0.1305,0.1397 0.28978,0.254 0.35395,0.254 0.0642,0 0.17159,0.0762 0.23872,0.16933 0.0671,0.0931 0.17455,0.16933 0.23872,0.16933 0.0642,0 0.22345,0.1143 0.35395,0.254 0.1305,0.1397 0.2829,0.254 0.33866,0.254 0.0558,0 0.20817,0.1143 0.33867,0.254 0.1305,0.1397 0.28212,0.254 0.33694,0.254 0.0548,0 0.2461,0.1524 0.42506,0.33867 0.17897,0.18627 0.36947,0.33867 0.42333,0.33867 0.0539,0 0.24437,0.1524 0.42334,0.33866 0.17896,0.18627 0.36895,0.33867 0.42219,0.33867 0.0532,0 0.28235,0.1905 0.50914,0.42333 0.22679,0.23284 0.45465,0.42334 0.50635,0.42334 0.14023,0 0.50965,0.39612 0.50965,0.54648 0,0.072 0.0381,0.13085 0.0847,0.13085 0.0466,0 0.0847,0.0762 0.0847,0.16933 0,0.0931 0.0381,0.16934 0.0847,0.16934 0.0466,0 0.0847,0.0762 0.0847,0.16933 0,0.0931 0.0381,0.16933 0.0847,0.16933 0.0466,0 0.0847,0.0678 0.0847,0.15065 0,0.0829 0.0762,0.20556 0.16933,0.27269 0.0931,0.0671 0.16934,0.18983 0.16934,0.27269 0,0.0828 0.0381,0.15064 0.0847,0.15064 0.0466,0 0.0847,0.0762 0.0847,0.16933 0,0.0931 0.0381,0.16934 0.0847,0.16934 0.0466,0 0.0847,0.0762 0.0847,0.16933 0,0.0931 0.0381,0.16933 0.0847,0.16933 0.0466,0 0.0847,0.0762 0.0847,0.16934 0,0.0931 0.0381,0.16933 0.0847,0.16933 0.0466,0 0.0847,0.0762 0.0847,0.16933 0,0.0931 0.0381,0.16934 0.0847,0.16934 0.0466,0 0.0847,0.0678 0.0847,0.15064 0,0.0829 0.0762,0.20556 0.16934,0.27269 0.0931,0.0671 0.16933,0.18984 0.16933,0.27269 0,0.0829 0.0381,0.15064 0.0847,0.15064 0.0466,0 0.0847,0.0762 0.0847,0.16934 0,0.0931 0.0381,0.16933 0.0847,0.16933 0.0466,0 0.0847,0.0762 0.0847,0.16933 0,0.0931 0.0381,0.16934 0.0847,0.16934 0.0466,0 0.0847,0.0762 0.0847,0.16933 0,0.0931 0.0381,0.16933 0.0847,0.16933 0.0466,0 0.0847,0.0762 0.0847,0.16934 0,0.0931 0.0381,0.16933 0.0847,0.16933 0.0466,0 0.0847,0.0678 0.0847,0.15064 0,0.0829 0.0762,0.20557 0.16933,0.27269 0.0931,0.0671 0.16933,0.18984 0.16933,0.27269 0,0.0829 0.0381,0.15065 0.0847,0.15065 0.0466,0 0.0847,0.0762 0.0847,0.16933 0,0.0931 0.0381,0.16933 0.0847,0.16933 0.0466,0 0.0847,0.0762 0.0847,0.16934 0,0.0931 0.0381,0.16933 0.0847,0.16933 0.0466,0 0.0847,0.0762 0.0847,0.16933 0,0.0931 0.0381,0.16934 0.0847,0.16934 0.0466,0 0.0847,0.0678 0.0847,0.15064 0,0.0829 0.0762,0.20556 0.16933,0.27269 0.0931,0.0671 0.16933,0.18984 0.16933,0.27269 0,0.0829 0.0381,0.15064 0.0847,0.15064 0.0466,0 0.0847,0.0762 0.0847,0.16934 0,0.0931 0.0381,0.16933 0.0847,0.16933 0.0466,0 0.0847,0.0762 0.0847,0.16933 0,0.0931 0.0381,0.16934 0.0847,0.16934 0.0466,0 0.0847,0.0381 0.0847,0.0847 0,0.14969 -0.29727,0.0902 -0.42333,-0.0847 -0.0671,-0.0931 -0.18984,-0.16934 -0.27269,-0.16934 -0.0829,0 -0.15064,-0.0381 -0.15064,-0.0847 0,-0.0466 -0.0762,-0.0847 -0.16934,-0.0847 -0.0931,0 -0.16933,-0.0381 -0.16933,-0.0847 0,-0.0466 -0.0678,-0.0847 -0.15064,-0.0847 -0.0828,0 -0.20557,-0.0762 -0.27269,-0.16934 -0.0671,-0.0931 -0.18984,-0.16933 -0.27269,-0.16933 -0.0829,0 -0.15065,-0.0381 -0.15065,-0.0847 0,-0.0466 -0.0762,-0.0847 -0.16933,-0.0847 -0.0931,0 -0.16933,-0.0381 -0.16933,-0.0847 0,-0.0466 -0.0762,-0.0847 -0.16934,-0.0847 -0.0931,0 -0.16933,-0.0381 -0.16933,-0.0847 0,-0.0466 -0.0678,-0.0847 -0.15064,-0.0847 -0.0829,0 -0.20557,-0.0762 -0.27269,-0.16933 -0.0671,-0.0931 -0.18984,-0.16934 -0.27269,-0.16934 -5.41796,-3.12886 -13.49892,-5.89154 -18.60798,-7.70757 0,-0.0466 -0.1524,-0.0847 -0.33867,-0.0847 h -0.33866 v -0.508 c 0,-0.28222 0.0376,-0.508 0.0847,-0.508 0.0502,0 0.0847,-0.31044 0.0847,-0.762 0,-0.45156 0.0345,-0.762 0.0847,-0.762 0.0524,0 0.0847,-0.45156 0.0847,-1.18533 0,-0.73378 -0.0323,-1.18534 -0.0847,-1.18534 -0.0502,0 -0.0847,-0.31044 -0.0847,-0.762 0,-0.45155 -0.0345,-0.762 -0.0847,-0.762 -0.0466,0 -0.0847,-0.1905 -0.0847,-0.42333 0,-0.23283 -0.0381,-0.42333 -0.0847,-0.42333 -0.0466,0 -0.0847,-0.1524 -0.0847,-0.33867 0,-0.18627 -0.0381,-0.33867 -0.0847,-0.33867 -0.0466,0 -0.0847,-0.1524 -0.0847,-0.33866 0,-0.18627 -0.0381,-0.33867 -0.0847,-0.33867 -0.0466,0 -0.0847,-0.1143 -0.0847,-0.254 0,-0.1397 -0.0381,-0.254 -0.0847,-0.254 -0.0466,0 -0.0847,-0.0762 -0.0847,-0.16933 0,-0.0931 -0.0381,-0.16934 -0.0847,-0.16934 -0.0466,0 -0.0847,-0.1143 -0.0847,-0.254 0,-0.1397 -0.0381,-0.254 -0.0847,-0.254 -0.0466,0 -0.0847,-0.0762 -0.0847,-0.16933 0,-0.0931 -0.0381,-0.16933 -0.0847,-0.16933 -0.0466,0 -0.0847,-0.0762 -0.0847,-0.16934 0,-0.0931 -0.0381,-0.16933 -0.0847,-0.16933 -0.0466,0 -0.0847,-0.0762 -0.0847,-0.16933 0,-0.0931 -0.0381,-0.16934 -0.0847,-0.16934 -0.0466,0 -0.0847,-0.0678 -0.0847,-0.15064 0,-0.0829 -0.0762,-0.20556 -0.16933,-0.27269 -0.0931,-0.0671 -0.16934,-0.17455 -0.16934,-0.23872 0,-0.0642 -0.1143,-0.22345 -0.254,-0.35395 -0.1397,-0.1305 -0.254,-0.27984 -0.254,-0.33187 0,-0.13238 -1.07333,-1.19213 -1.20741,-1.19213 -0.0604,0 -0.16479,-0.0762 -0.23192,-0.16933 -0.0671,-0.0931 -0.18984,-0.16933 -0.27269,-0.16933 -0.0829,0 -0.15064,-0.0381 -0.15064,-0.0847 0,-0.0466 -0.0762,-0.0847 -0.16934,-0.0847 -0.0931,0 -0.16933,-0.0381 -0.16933,-0.0847 0,-0.0466 -0.0762,-0.0847 -0.16933,-0.0847 -0.0931,0 -0.16934,-0.0381 -0.16934,-0.0847 0,-0.0466 -0.1143,-0.0847 -0.254,-0.0847 -0.1397,0 -0.254,-0.0381 -0.254,-0.0847 0,-0.0513 -0.36689,-0.0847 -0.93133,-0.0847 -0.56445,0 -0.93133,0.0334 -0.93133,0.0847 0,0.0466 -0.1143,0.0847 -0.254,0.0847 -0.1397,0 -0.254,0.0381 -0.254,0.0847 0,0.0466 -0.1143,0.0847 -0.254,0.0847 -0.1397,0 -0.254,0.0381 -0.254,0.0847 0,0.0466 -0.0678,0.0847 -0.15065,0.0847 -0.0828,0 -0.20556,0.0762 -0.27269,0.16934 -0.0671,0.0931 -0.17127,0.16933 -0.23144,0.16933 -0.0602,0 -0.47086,0.36146 -0.91264,0.80325 -0.44179,0.44179 -0.80325,0.85247 -0.80325,0.91264 0,0.0602 -0.0762,0.16432 -0.16933,0.23144 -0.0931,0.0671 -0.16934,0.18984 -0.16934,0.2727 0,0.0829 -0.0381,0.15064 -0.0847,0.15064 -0.0466,0 -0.0847,0.0678 -0.0847,0.15064 0,0.0829 -0.0762,0.20556 -0.16933,0.27269 -0.0931,0.0671 -0.16934,0.18984 -0.16934,0.27269 0,0.0829 -0.0381,0.15064 -0.0847,0.15064 -0.0466,0 -0.0847,0.1143 -0.0847,0.254 0,0.1397 -0.0381,0.254 -0.0847,0.254 -0.0466,0 -0.0847,0.0762 -0.0847,0.16934 0,0.0931 -0.0381,0.16933 -0.0847,0.16933 -0.0466,0 -0.0847,0.1143 -0.0847,0.254 0,0.1397 -0.0381,0.254 -0.0847,0.254 -0.0466,0 -0.0847,0.1143 -0.0847,0.254 0,0.1397 -0.0381,0.254 -0.0847,0.254 -0.0466,0 -0.0847,0.1524 -0.0847,0.33867 0,0.18626 -0.0381,0.33866 -0.0847,0.33866 -0.0466,0 -0.0847,0.1524 -0.0847,0.33867 0,0.18627 -0.0381,0.33867 -0.0847,0.33867 -0.047,0 -0.0847,0.22578 -0.0847,0.508 0,0.28222 -0.0376,0.508 -0.0847,0.508 -0.0521,0 -0.0847,0.42333 -0.0847,1.10066 0,0.67734 -0.0326,1.10067 -0.0847,1.10067 -0.0466,0 -0.0847,0.0762 -0.0847,0.16933 0,0.0931 0.0381,0.16934 0.0847,0.16934 0.0521,0 0.0847,0.42333 0.0847,1.10066 0,0.67734 0.0326,1.10067 0.0847,1.10067 0.047,0 0.0847,0.22578 0.0847,0.508 0,0.28222 0.0376,0.508 0.0847,0.508 0.12575,0 0.10247,0.24829 -0.0363,0.38705 -0.0696,0.0695 -0.28545,0.12095 -0.508,0.12095 -0.212852,0 -0.387024,0.0381 -0.387024,0.0847 0,0.0466 -0.1524,0.0847 -0.338666,0.0847 -0.186267,0 -0.338667,0.0381 -0.338667,0.0847 0,0.0466 -0.1524,0.0847 -0.338667,0.0847 -0.186266,0 -0.338666,0.0381 -0.338666,0.0847 0,0.0466 -0.1524,0.0847 -0.338667,0.0847 -0.186267,0 -0.338667,0.0381 -0.338667,0.0847 0,0.0466 -0.152399,0.0847 -0.338666,0.0847 -0.186267,0 -0.338667,0.0381 -0.338667,0.0847 0,0.0466 -0.1143,0.0847 -0.254,0.0847 -0.1397,0 -0.254,0.0381 -0.254,0.0847 0,0.0466 -0.1143,0.0847 -0.254,0.0847 -0.1397,0 -0.254,0.0381 -0.254,0.0847 0,0.0466 -0.1143,0.0847 -0.254,0.0847 -0.1397,0 -0.254,0.0381 -0.254,0.0847 0,0.0466 -0.1143,0.0847 -0.254,0.0847 -0.1397,0 -0.254,0.0381 -0.254,0.0847 0,0.0466 -0.1143,0.0847 -0.254,0.0847 -0.1397,0 -0.254,0.0381 -0.254,0.0847 0,0.0466 -0.1143,0.0847 -0.254,0.0847 -0.1397,0 -0.254,0.0381 -0.254,0.0847 0,0.0466 -0.1143,0.0847 -0.254,0.0847 -0.1397,0 -0.254,0.0381 -0.254,0.0847 0,0.0466 -0.0762,0.0847 -0.169333,0.0847 -0.09313,0 -0.169333,0.0381 -0.169333,0.0847 0,0.0466 -0.1143,0.0847 -0.254,0.0847 -0.1397,0 -0.254,0.0381 -0.254,0.0847 0,0.0466 -0.1143,0.0847 -0.254,0.0847 -0.1397,0 -0.254,0.0381 -0.254,0.0847 0,0.0466 -0.0762,0.0847 -0.169334,0.0847 -0.09313,0 -0.169333,0.0381 -0.169333,0.0847 0,0.0466 -0.1143,0.0847 -0.254,0.0847 -0.1397,0 -0.254,0.0381 -0.254,0.0847 0,0.0466 -0.0762,0.0847 -0.169333,0.0847 -0.09313,0 -0.169333,0.0381 -0.169333,0.0847 0,0.0466 -0.0762,0.0847 -0.169334,0.0847 -0.09313,0 -0.169333,0.0381 -0.169333,0.0847 0,0.0466 -0.1143,0.0847 -0.254,0.0847 -0.1397,0 -0.254,0.0381 -0.254,0.0847 0,0.0466 -0.0762,0.0847 -0.169333,0.0847 -0.09313,0 -0.169334,0.0381 -0.169334,0.0847 0,0.0466 -0.0762,0.0847 -0.169333,0.0847 -0.09313,0 -0.169333,0.0381 -0.169333,0.0847 0,0.0466 -0.0762,0.0847 -0.169334,0.0847 -0.09313,0 -0.169333,0.0381 -0.169333,0.0847 0,0.0466 -0.1143,0.0847 -0.254,0.0847 -0.1397,0 -0.254,0.0381 -0.254,0.0847 0,0.0466 -0.0762,0.0847 -0.169333,0.0847 -0.09313,0 -0.169334,0.0381 -0.169334,0.0847 0,0.0466 -0.0762,0.0847 -0.169333,0.0847 -0.09313,0 -0.169333,0.0381 -0.169333,0.0847 0,0.0466 -0.0762,0.0847 -0.169334,0.0847 -0.09313,0 -0.169333,0.0381 -0.169333,0.0847 0,0.0466 -0.0762,0.0847 -0.169333,0.0847 -0.09313,0 -0.169334,0.0381 -0.169334,0.0847 0,0.0466 -0.0762,0.0847 -0.169333,0.0847 -0.09313,0 -0.169333,0.0381 -0.169333,0.0847 0,0.0466 -0.0762,0.0847 -0.169334,0.0847 -0.09313,0 -0.169333,0.0381 -0.169333,0.0847 0,0.0466 -0.0762,0.0847 -0.169333,0.0847 -0.09313,0 -0.169334,0.0381 -0.169334,0.0847 0,0.0466 -0.0762,0.0847 -0.169333,0.0847 -0.09313,0 -0.169333,0.0381 -0.169333,0.0847 0,0.0466 -0.0762,0.0847 -0.169334,0.0847 -0.09313,0 -0.169333,0.0381 -0.169333,0.0847 0,0.0466 -0.0762,0.0847 -0.169333,0.0847 -0.09313,0 -0.169333,0.0381 -0.169333,0.0847 0,0.0466 -0.0762,0.0847 -0.169334,0.0847 -0.09313,0 -0.169333,0.0381 -0.169333,0.0847 0,0.0466 -0.0762,0.0847 -0.169333,0.0847 -0.09313,0 -0.169334,0.0381 -0.169334,0.0847 0,0.0466 -0.0762,0.0847 -0.169333,0.0847 -0.09313,0 -0.169333,0.0381 -0.169333,0.0847 0,0.0466 -0.0762,0.0847 -0.169334,0.0847 -0.09313,0 -0.169333,0.0381 -0.169333,0.0847 0,0.0466 -0.0762,0.0847 -0.169333,0.0847 -0.09313,0 -0.169334,0.0381 -0.169334,0.0847 0,0.0466 -0.0762,0.0847 -0.169333,0.0847 -0.09313,0 -0.169333,0.0381 -0.169333,0.0847 0,0.0466 -0.06779,0.0847 -0.150643,0.0847 -0.08285,0 -0.205564,0.0762 -0.272691,0.16934 -0.06713,0.0931 -0.189838,0.16933 -0.272691,0.16933 -0.08285,0 -0.150642,0.0381 -0.150642,0.0847 0,0.0466 -0.0762,0.0847 -0.169333,0.0847 -0.09313,0 -0.169334,0.0381 -0.169334,0.0847 0,0.0466 -0.0762,0.0847 -0.169333,0.0847 -0.09313,0 -0.169333,0.0381 -0.169333,0.0847 0,0.0466 -0.0762,0.0847 -0.169334,0.0847 -0.09313,0 -0.169333,0.0381 -0.169333,0.0847 0,0.0466 -0.06779,0.0847 -0.150642,0.0847 -0.08285,0 -0.205564,0.0762 -0.272691,0.16934 -0.06713,0.0931 -0.189838,0.16933 -0.272691,0.16933 -0.08285,0 -0.150643,0.0381 -0.150643,0.0847 0,0.0466 -0.0762,0.0847 -0.169333,0.0847 -0.09313,0 -0.169333,0.0381 -0.169333,0.0847 0,0.0466 -0.0762,0.0847 -0.169334,0.0847 -0.09313,0 -0.169333,0.0381 -0.169333,0.0847 0,0.0466 -0.06779,0.0847 -0.150642,0.0847 -0.08285,0 -0.205564,0.0762 -0.272691,0.16933 -0.06713,0.0931 -0.189838,0.16934 -0.272691,0.16934 -0.08285,0 -0.150642,0.0381 -0.150642,0.0847 0,0.0466 -0.0762,0.0847 -0.169334,0.0847 -0.09313,0 -0.169333,0.0381 -0.169333,0.0847 0,0.0466 -0.06779,0.0847 -0.150642,0.0847 -0.08285,0 -0.205564,0.0762 -0.272691,0.16934 -0.126056,0.17489 -0.423334,0.23435 -0.423334,0.0847 z"
         id="path1334"
         sodipodi:nodetypes="csssscssssssscssssssscssssssscssssssssscssssssscssssssscssssssssscssssssssscssssssssscssssssssscssssssssscssssssssssscssssssssssssscssssssssssssssscssssssssssssssssssscssssssssssssssssssssssssssssssssssssssssssssssssssscssssssssssssssssssssssssssssssssssssssssscsssssssssssssssssssssssssssssssssssssssssssssssssssssssssssssssssssssssssssssssssssssssssssssssssssssssssssssssssssssssssssssssssssssssssssssssssssssssssssssssssssssssssssssssssssssssssssssssssssssssssssssssssssssssssssssssssssssssssssssssssssssssssssssssssssssssssssssssssssssssssssssssssssssssssssssssssssssssssssssssssssssssssssssssssssssssssssssssssssssssssssssssssscsssssssssssssssssssssssssssssssssssssssssssssssssssssssssssssssssssssssssssssssssssssssssssssssssccscssssssssssssssssssssssssssssssssssssssssssssssssssssssssssssssssssssssssssssssssscssssssssssssssssssssssssssssssssssssssssssssssssssssssssssssssssssssssssssssssssscssssssssscssssssscsssssscc" /><path
         style="fill:#1692d0;stroke-width:0.0846667"
         d="m 82.316389,185.7078 c -7.16329,-0.48566 -13.63011,-4.86748 -16.796502,-11.38106 -1.164993,-2.3965 -1.799394,-4.8157 -1.987143,-7.57767 -0.112904,-1.66093 -0.112904,-46.93773 0,-48.59866 0.137998,-2.03008 0.445398,-3.55259 1.10296,-5.4628 1.688825,-4.90601 5.454958,-9.14146 10.198743,-11.46966 2.450692,-1.20277 4.857548,-1.840918 7.662333,-2.031577 1.660934,-0.112904 46.93773,-0.112904 48.59866,0 2.03008,0.137998 3.55259,0.445398 5.4628,1.102957 4.90602,1.68883 9.14147,5.45496 11.46966,10.19875 1.20277,2.45069 1.84092,4.85754 2.03158,7.66233 0.1129,1.66093 0.1129,46.93773 0,48.59866 -0.138,2.03008 -0.4454,3.55259 -1.10296,5.4628 -1.68882,4.90602 -5.45496,9.14147 -10.19874,11.46966 -2.45069,1.20277 -4.85755,1.84092 -7.66234,2.03158 -1.47254,0.10009 -47.297913,0.0951 -48.779051,-0.005 z m -4.222275,-17.01139 c 0.06713,-0.0931 0.189837,-0.16934 0.272691,-0.16934 0.08285,0 0.150642,-0.0381 0.150642,-0.0847 0,-0.0466 0.0762,-0.0847 0.169333,-0.0847 0.09313,0 0.169334,-0.0381 0.169334,-0.0847 0,-0.0466 0.06779,-0.0847 0.150642,-0.0847 0.08285,0 0.205564,-0.0762 0.272691,-0.16934 0.06713,-0.0931 0.189838,-0.16933 0.272691,-0.16933 0.08285,0 0.150642,-0.0381 0.150642,-0.0847 0,-0.0466 0.0762,-0.0847 0.169333,-0.0847 0.09313,0 0.169334,-0.0381 0.169334,-0.0847 0,-0.0466 0.0762,-0.0847 0.169333,-0.0847 0.09313,0 0.169333,-0.0381 0.169333,-0.0847 0,-0.0466 0.06779,-0.0847 0.150643,-0.0847 0.08285,0 0.205564,-0.0762 0.272691,-0.16933 0.06713,-0.0931 0.189838,-0.16934 0.272691,-0.16934 0.08285,0 0.150642,-0.0381 0.150642,-0.0847 0,-0.0466 0.0762,-0.0847 0.169333,-0.0847 0.09313,0 0.169334,-0.0381 0.169334,-0.0847 0,-0.0466 0.0762,-0.0847 0.169333,-0.0847 0.09313,0 0.169333,-0.0381 0.169333,-0.0847 0,-0.0466 0.0762,-0.0847 0.169334,-0.0847 0.09313,0 0.169333,-0.0381 0.169333,-0.0847 0,-0.0466 0.06779,-0.0847 0.150642,-0.0847 0.08285,0 0.205564,-0.0762 0.272691,-0.16933 0.06713,-0.0931 0.189838,-0.16934 0.272691,-0.16934 0.08285,0 0.150643,-0.0381 0.150643,-0.0847 0,-0.0466 0.0762,-0.0847 0.169333,-0.0847 0.09313,0 0.169333,-0.0381 0.169333,-0.0847 0,-0.0466 0.0762,-0.0847 0.169334,-0.0847 0.09313,0 0.169333,-0.0381 0.169333,-0.0847 0,-0.0466 0.0762,-0.0847 0.169333,-0.0847 0.09313,0 0.169334,-0.0381 0.169334,-0.0847 0,-0.0466 0.0762,-0.0847 0.169333,-0.0847 0.09313,0 0.169333,-0.0381 0.169333,-0.0847 0,-0.0466 0.0762,-0.0847 0.169334,-0.0847 0.09313,0 0.169333,-0.0381 0.169333,-0.0847 0,-0.0466 0.0762,-0.0847 0.169333,-0.0847 0.09313,0 0.169334,-0.0381 0.169334,-0.0847 0,-0.0466 0.0762,-0.0847 0.169333,-0.0847 0.09313,0 0.169333,-0.0381 0.169333,-0.0847 0,-0.0466 0.0762,-0.0847 0.169333,-0.0847 0.09313,0 0.169334,-0.0381 0.169334,-0.0847 0,-0.0466 0.0762,-0.0847 0.169333,-0.0847 0.09313,0 0.169333,-0.0381 0.169333,-0.0847 0,-0.0466 0.0762,-0.0847 0.169334,-0.0847 0.09313,0 0.169333,-0.0381 0.169333,-0.0847 0,-0.0466 0.0762,-0.0847 0.169333,-0.0847 0.09313,0 0.169334,-0.0381 0.169334,-0.0847 0,-0.0466 0.0762,-0.0847 0.169333,-0.0847 0.09313,0 0.169333,-0.0381 0.169333,-0.0847 0,-0.0466 0.0762,-0.0847 0.169334,-0.0847 0.09313,0 0.169333,-0.0381 0.169333,-0.0847 0,-0.0466 0.0762,-0.0847 0.169333,-0.0847 0.09313,0 0.169334,-0.0381 0.169334,-0.0847 0,-0.0466 0.0762,-0.0847 0.169333,-0.0847 0.09313,0 0.169333,-0.0381 0.169333,-0.0847 0,-0.0466 0.0762,-0.0847 0.169334,-0.0847 0.09313,0 0.169333,-0.0381 0.169333,-0.0847 0,-0.0466 0.1143,-0.0847 0.254,-0.0847 0.1397,0 0.254,-0.0381 0.254,-0.0847 0,-0.0466 0.0762,-0.0847 0.169333,-0.0847 0.09313,0 0.169334,-0.0381 0.169334,-0.0847 0,-0.0466 0.0762,-0.0847 0.169333,-0.0847 0.09313,0 0.169333,-0.0381 0.169333,-0.0847 0,-0.0466 0.0762,-0.0847 0.169334,-0.0847 0.09313,0 0.169333,-0.0381 0.169333,-0.0847 0,-0.0466 0.1143,-0.0847 0.254,-0.0847 0.1397,0 0.254,-0.0381 0.254,-0.0847 0,-0.0466 0.0762,-0.0847 0.169333,-0.0847 0.09313,0 0.169334,-0.0381 0.169334,-0.0847 0,-0.0466 0.0762,-0.0847 0.169333,-0.0847 0.09313,0 0.169333,-0.0381 0.169333,-0.0847 0,-0.0466 0.1143,-0.0847 0.254,-0.0847 0.1397,0 0.254,-0.0381 0.254,-0.0847 0,-0.0466 0.0762,-0.0847 0.169333,-0.0847 0.09313,0 0.169334,-0.0381 0.169334,-0.0847 0,-0.0466 0.1143,-0.0847 0.254,-0.0847 0.1397,0 0.254,-0.0381 0.254,-0.0847 0,-0.0466 0.1143,-0.0847 0.254,-0.0847 0.1397,0 0.254,-0.0381 0.254,-0.0847 0,-0.0466 0.0762,-0.0847 0.169333,-0.0847 0.09313,0 0.169333,-0.0381 0.169333,-0.0847 0,-0.0466 0.1143,-0.0847 0.254,-0.0847 0.1397,0 0.254,-0.0381 0.254,-0.0847 0,-0.0466 0.1143,-0.0847 0.254,-0.0847 0.1397,0 0.254,-0.0381 0.254,-0.0847 0,-0.0466 0.1143,-0.0847 0.254,-0.0847 0.1397,0 0.254,-0.0381 0.254,-0.0847 0,-0.0466 0.1143,-0.0847 0.254,-0.0847 0.1397,0 0.254,-0.0381 0.254,-0.0847 0,-0.0466 0.1143,-0.0847 0.254,-0.0847 0.1397,0 0.254,-0.0381 0.254,-0.0847 0,-0.0466 0.1143,-0.0847 0.254,-0.0847 0.1397,0 0.254,-0.0381 0.254,-0.0847 0,-0.0466 0.1143,-0.0847 0.254,-0.0847 0.1397,0 0.254,-0.0381 0.254,-0.0847 0,-0.0466 0.1524,-0.0847 0.338667,-0.0847 0.186267,0 0.338666,-0.0381 0.338666,-0.0847 0,-0.0466 0.1524,-0.0847 0.338667,-0.0847 0.186267,0 0.338667,-0.0381 0.338667,-0.0847 0,-0.0466 0.1524,-0.0847 0.338666,-0.0847 0.186267,0 0.338667,-0.0381 0.338667,-0.0847 0,-0.0466 0.1524,-0.0847 0.338667,-0.0847 0.186266,0 0.338666,-0.0381 0.338666,-0.0847 0,-0.0466 0.174172,-0.0847 0.387048,-0.0847 0.22255,0 0.43845,-0.0514 0.508,-0.12095 0.13876,-0.13876 0.16204,-0.38705 0.0363,-0.38705 -0.047,0 -0.0847,-0.22578 -0.0847,-0.508 0,-0.28222 -0.0376,-0.508 -0.0847,-0.508 -0.0521,0 -0.0847,-0.42333 -0.0847,-1.10067 0,-0.67733 -0.0326,-1.10066 -0.0847,-1.10066 -0.0466,0 -0.0847,-0.0762 -0.0847,-0.16934 0,-0.0931 0.0381,-0.16933 0.0847,-0.16933 0.0521,0 0.0847,-0.42333 0.0847,-1.10067 0,-0.67733 0.0326,-1.10066 0.0847,-1.10066 0.047,0 0.0847,-0.22578 0.0847,-0.508 0,-0.28222 0.0376,-0.508 0.0847,-0.508 0.0466,0 0.0847,-0.1524 0.0847,-0.33867 0,-0.18627 0.0381,-0.33867 0.0847,-0.33867 0.0466,0 0.0847,-0.1524 0.0847,-0.33866 0,-0.18627 0.0381,-0.33867 0.0847,-0.33867 0.0466,0 0.0847,-0.1143 0.0847,-0.254 0,-0.1397 0.0381,-0.254 0.0847,-0.254 0.0466,0 0.0847,-0.1143 0.0847,-0.254 0,-0.1397 0.0381,-0.254 0.0847,-0.254 0.0466,0 0.0847,-0.0762 0.0847,-0.16933 0,-0.0931 0.0381,-0.16934 0.0847,-0.16934 0.0466,0 0.0847,-0.1143 0.0847,-0.254 0,-0.1397 0.0381,-0.254 0.0847,-0.254 0.0466,0 0.0847,-0.0678 0.0847,-0.15064 0,-0.0828 0.0762,-0.20556 0.16934,-0.27269 0.0931,-0.0671 0.16933,-0.18984 0.16933,-0.27269 0,-0.0828 0.0381,-0.15064 0.0847,-0.15064 0.0466,0 0.0847,-0.0678 0.0847,-0.15064 0,-0.0829 0.0762,-0.20557 0.16934,-0.2727 0.0931,-0.0671 0.16933,-0.17127 0.16933,-0.23144 0,-0.0602 0.36146,-0.47085 0.80325,-0.91264 1.06345,-1.0969 2.2482,-1.82874 3.57521,-1.83173 0.99292,0.0332 1.76801,0.49097 2.47954,1.02854 0.0671,0.0931 0.17149,0.16933 0.23192,0.16933 0.13408,0 1.20741,1.05975 1.20741,1.19213 0,0.052 0.1143,0.20137 0.254,0.33187 0.1397,0.1305 0.254,0.28978 0.254,0.35395 0,0.0642 0.0762,0.17159 0.16934,0.23872 0.0931,0.0671 0.16933,0.18984 0.16933,0.27269 0,0.0829 0.0381,0.15064 0.0847,0.15064 0.0466,0 0.0847,0.0762 0.0847,0.16934 0,0.0931 0.0381,0.16933 0.0847,0.16933 0.0466,0 0.0847,0.0762 0.0847,0.16933 0,0.0931 0.0381,0.16934 0.0847,0.16934 0.0466,0 0.0847,0.0762 0.0847,0.16933 0,0.0931 0.0381,0.16933 0.0847,0.16933 0.0466,0 0.0847,0.1143 0.0847,0.254 0,0.1397 0.0381,0.254 0.0847,0.254 0.0466,0 0.0847,0.0762 0.0847,0.16934 0,0.0931 0.0381,0.16933 0.0847,0.16933 0.0466,0 0.0847,0.1143 0.0847,0.254 0,0.1397 0.0381,0.254 0.0847,0.254 0.0466,0 0.0847,0.1524 0.0847,0.33867 0,0.18626 0.0381,0.33866 0.0847,0.33866 0.0466,0 0.0847,0.1524 0.0847,0.33867 0,0.18627 0.0381,0.33867 0.0847,0.33867 0.0466,0 0.0847,0.1905 0.0847,0.42333 0,0.23283 0.0381,0.42333 0.0847,0.42333 0.0502,0 0.0847,0.31045 0.0847,0.762 0,0.45156 0.0345,0.762 0.0847,0.762 0.0524,0 0.0847,0.45156 0.0847,1.18534 0,0.73377 -0.0323,1.18533 -0.0847,1.18533 -0.0502,0 -0.0847,0.31044 -0.0847,0.762 0,0.45156 -0.0345,0.762 -0.0847,0.762 -0.047,0 -0.0847,0.22578 -0.0847,0.508 v 0.508 h 0.33866 c 0.18627,0 0.33867,0.0381 0.33867,0.0847 0,0.0466 0.1524,0.0847 0.33867,0.0847 0.18626,0 0.33866,0.0381 0.33866,0.0847 0,0.0466 0.1905,0.0847 0.42334,0.0847 6.02711,1.53586 10.75687,3.98296 15.32466,6.2678 0.0931,0 0.16934,0.0381 0.16934,0.0847 0,0.0466 0.0678,0.0847 0.15064,0.0847 0.0828,0 0.20556,0.0762 0.27269,0.16934 0.0671,0.0931 0.18984,0.16933 0.27269,0.16933 0.0829,0 0.15064,0.0381 0.15064,0.0847 0,0.0466 0.0762,0.0847 0.16934,0.0847 0.0931,0 0.16933,0.0381 0.16933,0.0847 0,0.0466 0.0762,0.0847 0.16933,0.0847 0.0931,0 0.16934,0.0381 0.16934,0.0847 0,0.0466 0.0762,0.0847 0.16933,0.0847 0.0931,0 0.16933,0.0381 0.16933,0.0847 0,0.0466 0.0678,0.0847 0.15065,0.0847 0.0829,0 0.20556,0.0762 0.27269,0.16934 0.0671,0.0931 0.18984,0.16933 0.27269,0.16933 0.0828,0 0.15064,0.0381 0.15064,0.0847 0,0.0466 0.0762,0.0847 0.16933,0.0847 0.0931,0 0.16934,0.0381 0.16934,0.0847 0,0.0466 0.0762,0.0847 0.16933,0.0847 0.0931,0 0.16933,0.0381 0.16933,0.0847 0,0.0466 0.0678,0.0847 0.15065,0.0847 0.0829,0 0.20556,0.0762 0.27269,0.16933 0.0671,0.0931 0.18984,0.16934 0.27269,0.16934 0.0829,0 0.15064,0.0381 0.15064,0.0847 0,0.0466 0.0762,0.0847 0.16933,0.0847 0.0931,0 0.16934,0.0381 0.16934,0.0847 0,0.0466 0.0678,0.0847 0.15064,0.0847 0.0828,0 0.20556,0.0762 0.27269,0.16934 0.12606,0.17489 0.42333,0.23435 0.42333,0.0847 0,-0.0466 -0.0381,-0.0847 -0.0847,-0.0847 -0.0466,0 -0.0847,-0.0762 -0.0847,-0.16934 0,-0.0931 -0.0381,-0.16933 -0.0847,-0.16933 -0.0466,0 -0.0847,-0.0762 -0.0847,-0.16933 0,-0.0931 -0.0381,-0.16934 -0.0847,-0.16934 -0.0466,0 -0.0847,-0.0678 -0.0847,-0.15064 0,-0.0828 -0.0762,-0.20556 -0.16933,-0.27269 -0.0931,-0.0671 -0.16933,-0.18984 -0.16933,-0.27269 0,-0.0829 -0.0381,-0.15064 -0.0847,-0.15064 -0.0466,0 -0.0847,-0.0762 -0.0847,-0.16934 0,-0.0931 -0.0381,-0.16933 -0.0847,-0.16933 -0.0466,0 -0.0847,-0.0762 -0.0847,-0.16933 0,-0.0931 -0.0381,-0.16934 -0.0847,-0.16934 -0.0466,0 -0.0847,-0.0762 -0.0847,-0.16933 0,-0.0931 -0.0381,-0.16933 -0.0847,-0.16933 -0.0466,0 -0.0847,-0.0678 -0.0847,-0.15065 0,-0.0829 -0.0762,-0.20556 -0.16933,-0.27269 -0.0931,-0.0671 -0.16933,-0.18983 -0.16933,-0.27269 0,-0.0828 -0.0381,-0.15064 -0.0847,-0.15064 -0.0466,0 -0.0847,-0.0762 -0.0847,-0.16933 0,-0.0931 -0.0381,-0.16934 -0.0847,-0.16934 -0.0466,0 -0.0847,-0.0762 -0.0847,-0.16933 0,-0.0931 -0.0381,-0.16933 -0.0847,-0.16933 -0.0466,0 -0.0847,-0.0762 -0.0847,-0.16934 0,-0.0931 -0.0381,-0.16933 -0.0847,-0.16933 -0.0466,0 -0.0847,-0.0762 -0.0847,-0.16933 0,-0.0931 -0.0381,-0.16934 -0.0847,-0.16934 -0.0466,0 -0.0847,-0.0678 -0.0847,-0.15064 0,-0.0829 -0.0762,-0.20556 -0.16933,-0.27269 -0.0931,-0.0671 -0.16934,-0.18984 -0.16934,-0.27269 0,-0.0829 -0.0381,-0.15064 -0.0847,-0.15064 -0.0466,0 -0.0847,-0.0762 -0.0847,-0.16934 0,-0.0931 -0.0381,-0.16933 -0.0847,-0.16933 -0.0466,0 -0.0847,-0.0762 -0.0847,-0.16933 0,-0.0931 -0.0381,-0.16934 -0.0847,-0.16934 -0.0466,0 -0.0847,-0.0762 -0.0847,-0.16933 0,-0.0931 -0.0381,-0.16933 -0.0847,-0.16933 -0.0466,0 -0.0847,-0.0762 -0.0847,-0.16934 0,-0.0931 -0.0381,-0.16933 -0.0847,-0.16933 -0.0466,0 -0.0847,-0.0678 -0.0847,-0.15064 0,-0.0829 -0.0762,-0.20557 -0.16934,-0.27269 -0.0931,-0.0671 -0.16933,-0.18984 -0.16933,-0.27269 0,-0.0829 -0.0381,-0.15065 -0.0847,-0.15065 -0.0466,0 -0.0847,-0.0762 -0.0847,-0.16933 0,-0.0931 -0.0381,-0.16933 -0.0847,-0.16933 -0.0466,0 -0.0847,-0.0762 -0.0847,-0.16934 0,-0.0931 -0.0381,-0.16933 -0.0847,-0.16933 -0.0466,0 -0.0847,-0.0589 -0.0847,-0.13085 0,-0.15036 -0.36942,-0.54648 -0.50965,-0.54648 -0.0517,0 -0.27956,-0.1905 -0.50635,-0.42334 -0.22679,-0.23283 -0.4559,-0.42333 -0.50914,-0.42333 -0.0532,0 -0.24323,-0.1524 -0.42219,-0.33867 -0.17897,-0.18626 -0.36947,-0.33866 -0.42334,-0.33866 -0.0539,0 -0.24436,-0.1524 -0.42333,-0.33867 -0.17896,-0.18627 -0.37024,-0.33867 -0.42506,-0.33867 -0.0548,0 -0.20644,-0.1143 -0.33694,-0.254 -0.1305,-0.1397 -0.2829,-0.254 -0.33867,-0.254 -0.0558,0 -0.20816,-0.1143 -0.33866,-0.254 -0.1305,-0.1397 -0.28978,-0.254 -0.35395,-0.254 -0.0642,0 -0.17159,-0.0762 -0.23872,-0.16933 -0.0671,-0.0931 -0.17455,-0.16933 -0.23872,-0.16933 -0.0642,0 -0.22345,-0.1143 -0.35395,-0.254 -0.13049,-0.1397 -0.28977,-0.254 -0.35394,-0.254 -0.0642,0 -0.1716,-0.0762 -0.23872,-0.16934 -0.0671,-0.0931 -0.18984,-0.16933 -0.27269,-0.16933 -0.0829,0 -0.15065,-0.0381 -0.15065,-0.0847 0,-0.0466 -0.0678,-0.0847 -0.15064,-0.0847 -0.0829,0 -0.20556,-0.0762 -0.27269,-0.16934 -0.0671,-0.0931 -0.18143,-0.16933 -0.254,-0.16933 -0.0726,0 -0.18687,-0.0762 -0.254,-0.16933 -0.0671,-0.0931 -0.18984,-0.16934 -0.27269,-0.16934 -0.0829,0 -0.15064,-0.0381 -0.15064,-0.0847 0,-0.0466 -0.0678,-0.0847 -0.15064,-0.0847 -0.0829,0 -0.20557,-0.0762 -0.2727,-0.16933 -0.0671,-0.0931 -0.18983,-0.16934 -0.27269,-0.16934 -0.0828,0 -0.15064,-0.0381 -0.15064,-0.0847 0,-0.0466 -0.0762,-0.0847 -0.16933,-0.0847 -0.0931,0 -0.16934,-0.0381 -0.16934,-0.0847 0,-0.0466 -0.0762,-0.0847 -0.16933,-0.0847 -0.0931,0 -0.16933,-0.0381 -0.16933,-0.0847 0,-0.0466 -0.0599,-0.0847 -0.13305,-0.0847 -0.16758,0 -0.41675,-0.24196 -0.33111,-0.32153 0.0352,-0.0327 0.081,-0.0118 0.1018,0.0464 0.0215,0.0602 0.18073,0.10583 0.36941,0.10583 0.18239,0 0.33161,0.0381 0.33161,0.0847 0,0.0466 0.1143,0.0847 0.254,0.0847 0.1397,0 0.254,0.0381 0.254,0.0847 0,0.0466 0.1143,0.0847 0.254,0.0847 0.1397,0 0.254,0.0381 0.254,0.0847 0,0.0466 0.1143,0.0847 0.254,0.0847 0.1397,0 0.254,0.0381 0.254,0.0847 0,0.0466 0.1143,0.0847 0.254,0.0847 0.1397,0 0.254,0.0381 0.254,0.0847 0,0.0466 0.1143,0.0847 0.254,0.0847 0.1397,0 0.254,0.0381 0.254,0.0847 0,0.0466 0.1143,0.0847 0.254,0.0847 0.1397,0 0.254,0.0381 0.254,0.0847 0,0.0466 0.0762,0.0847 0.16934,0.0847 0.0931,0 0.16933,0.0381 0.16933,0.0847 0,0.0466 0.1143,0.0847 0.254,0.0847 0.1397,0 0.254,0.0381 0.254,0.0847 0,0.0466 0.0762,0.0847 0.16933,0.0847 0.0931,0 0.16934,0.0381 0.16934,0.0847 0,0.0466 0.0762,0.0847 0.16933,0.0847 0.0931,0 0.16933,0.0381 0.16933,0.0847 0,0.0466 0.0762,0.0847 0.16934,0.0847 0.0931,0 0.16933,0.0381 0.16933,0.0847 0,0.0466 0.0762,0.0847 0.16933,0.0847 0.0931,0 0.16934,0.0381 0.16934,0.0847 0,0.0466 0.0762,0.0847 0.16933,0.0847 0.0931,0 0.16933,0.0381 0.16933,0.0847 0,0.0466 0.0762,0.0847 0.16934,0.0847 0.0931,0 0.16933,0.0381 0.16933,0.0847 0,0.0466 0.0762,0.0847 0.16933,0.0847 0.0931,0 0.16934,0.0381 0.16934,0.0847 0,0.0466 0.073,0.0847 0.16228,0.0847 0.0892,0 0.17928,0.0476 0.20007,0.10584 0.022,0.0616 0.0692,0.0744 0.11289,0.0307 0.0437,-0.0437 0.0308,-0.0909 -0.0307,-0.11289 -0.0582,-0.0208 -0.10584,-0.11082 -0.10584,-0.20007 0,-0.0893 -0.0381,-0.16228 -0.0847,-0.16228 -0.0466,0 -0.0847,-0.0762 -0.0847,-0.16934 0,-0.0931 -0.0381,-0.16933 -0.0847,-0.16933 -0.0466,0 -0.0847,-0.0678 -0.0847,-0.15064 0,-0.0829 -0.0762,-0.20557 -0.16934,-0.27269 -0.0931,-0.0671 -0.16933,-0.18984 -0.16933,-0.27269 0,-0.0829 -0.0381,-0.15065 -0.0847,-0.15065 -0.0466,0 -0.0847,-0.0762 -0.0847,-0.16933 0,-0.0931 -0.0381,-0.16933 -0.0847,-0.16933 -0.0466,0 -0.0847,-0.0762 -0.0847,-0.16934 0,-0.0931 -0.0381,-0.16933 -0.0847,-0.16933 -0.0466,0 -0.0847,-0.0762 -0.0847,-0.16933 0,-0.0931 -0.0381,-0.16934 -0.0847,-0.16934 -0.0466,0 -0.0847,-0.0762 -0.0847,-0.16933 0,-0.0931 -0.0381,-0.16933 -0.0847,-0.16933 -0.0466,0 -0.0847,-0.0762 -0.0847,-0.16934 0,-0.0931 -0.0381,-0.16933 -0.0847,-0.16933 -0.0466,0 -0.0847,-0.0678 -0.0847,-0.15064 0,-0.0829 -0.0762,-0.20557 -0.16933,-0.27269 -0.0931,-0.0671 -0.16934,-0.18984 -0.16934,-0.27269 0,-0.0829 -0.0381,-0.15065 -0.0847,-0.15065 -0.0466,0 -0.0847,-0.0762 -0.0847,-0.16933 0,-0.0931 -0.0381,-0.16933 -0.0847,-0.16933 -0.0466,0 -0.0847,-0.0762 -0.0847,-0.16934 0,-0.0931 -0.0381,-0.16933 -0.0847,-0.16933 -0.0466,0 -0.0847,-0.0762 -0.0847,-0.16933 0,-0.0931 -0.0381,-0.16934 -0.0847,-0.16934 -0.0466,0 -0.0847,-0.0762 -0.0847,-0.16933 0,-0.0931 -0.0381,-0.16933 -0.0847,-0.16933 -0.0466,0 -0.0847,-0.0762 -0.0847,-0.16934 0,-0.0931 -0.0381,-0.16933 -0.0847,-0.16933 -0.0466,0 -0.0847,-0.0678 -0.0847,-0.15064 0,-0.0828 -0.0762,-0.20557 -0.16933,-0.27269 -0.0931,-0.0671 -0.16933,-0.18984 -0.16933,-0.27269 0,-0.0829 -0.0381,-0.15065 -0.0847,-0.15065 -0.0466,0 -0.0847,-0.0762 -0.0847,-0.16933 0,-0.0931 -0.0381,-0.16933 -0.0847,-0.16933 -0.0466,0 -0.0847,-0.0762 -0.0847,-0.16934 0,-0.0931 -0.0381,-0.16933 -0.0847,-0.16933 -0.0466,0 -0.0847,-0.0762 -0.0847,-0.16933 0,-0.0931 -0.0381,-0.16934 -0.0847,-0.16934 -0.0466,0 -0.0847,-0.0762 -0.0847,-0.16933 0,-0.0931 -0.0381,-0.16933 -0.0847,-0.16933 -0.0466,0 -0.0847,-0.0762 -0.0847,-0.16934 0,-0.0931 -0.0381,-0.16933 -0.0847,-0.16933 -0.0466,0 -0.0847,-0.0678 -0.0847,-0.15064 0,-0.0829 -0.0762,-0.20557 -0.16934,-0.27269 -0.0931,-0.0671 -0.16933,-0.18984 -0.16933,-0.27269 0,-0.0829 -0.0381,-0.15065 -0.0847,-0.15065 -0.0466,0 -0.0847,-0.0762 -0.0847,-0.16933 0,-0.0931 -0.0381,-0.16933 -0.0847,-0.16933 -0.0466,0 -0.0847,-0.0762 -0.0847,-0.16934 0,-0.0931 -0.0381,-0.16933 -0.0847,-0.16933 -0.0466,0 -0.0847,-0.0762 -0.0847,-0.16933 0,-0.0931 -0.0381,-0.16934 -0.0847,-0.16934 -0.0466,0 -0.0847,-0.0762 -0.0847,-0.16933 0,-0.0931 -0.0381,-0.16933 -0.0847,-0.16933 -0.0466,0 -0.0847,-0.0762 -0.0847,-0.16934 0,-0.0931 -0.0381,-0.16933 -0.0847,-0.16933 -0.0466,0 -0.0847,-0.0762 -0.0847,-0.16933 0,-0.0931 -0.0381,-0.16934 -0.0847,-0.16934 -0.0466,0 -0.0847,-0.0762 -0.0847,-0.16933 0,-0.0931 -0.0381,-0.16933 -0.0847,-0.16933 -0.0466,0 -0.0847,-0.0678 -0.0847,-0.15064 0,-0.0829 -0.0762,-0.20557 -0.16933,-0.2727 -0.0931,-0.0671 -0.16933,-0.18983 -0.16933,-0.27269 0,-0.0828 -0.0381,-0.15064 -0.0847,-0.15064 -0.0466,0 -0.0847,-0.0762 -0.0847,-0.16933 0,-0.0931 -0.0381,-0.16934 -0.0847,-0.16934 -0.0466,0 -0.0847,-0.0762 -0.0847,-0.16933 0,-0.0931 -0.0381,-0.16933 -0.0847,-0.16933 -0.0466,0 -0.0847,-0.0762 -0.0847,-0.16934 0,-0.0931 -0.0381,-0.16933 -0.0847,-0.16933 -0.0466,0 -0.0847,-0.0762 -0.0847,-0.16933 0,-0.0931 -0.0381,-0.16934 -0.0847,-0.16934 -0.0466,0 -0.0847,-0.0762 -0.0847,-0.16933 0,-0.0931 -0.0381,-0.16933 -0.0847,-0.16933 -0.0466,0 -0.0847,-0.0762 -0.0847,-0.16934 0,-0.0931 -0.0381,-0.16933 -0.0847,-0.16933 -0.0466,0 -0.0847,-0.0762 -0.0847,-0.16933 0,-0.0931 -0.0381,-0.16934 -0.0847,-0.16934 -0.0466,0 -0.0847,-0.0762 -0.0847,-0.16933 0,-0.0931 -0.0381,-0.16933 -0.0847,-0.16933 -0.0466,0 -0.0847,-0.0678 -0.0847,-0.15064 0,-0.0829 -0.0762,-0.20557 -0.16934,-0.2727 -0.0931,-0.0671 -0.16933,-0.18983 -0.16933,-0.27269 0,-0.0829 -0.0381,-0.15064 -0.0847,-0.15064 -0.0466,0 -0.0847,-0.0762 -0.0847,-0.16933 0,-0.0931 -0.0381,-0.16934 -0.0847,-0.16934 -0.0466,0 -0.0847,-0.0762 -0.0847,-0.16933 0,-0.0931 -0.0381,-0.16933 -0.0847,-0.16933 -0.0466,0 -0.0847,-0.0762 -0.0847,-0.16934 0,-0.0931 -0.0381,-0.16933 -0.0847,-0.16933 -0.0466,0 -0.0847,-0.0762 -0.0847,-0.16933 0,-0.0931 -0.0381,-0.16934 -0.0847,-0.16934 -0.0466,0 -0.0847,-0.0762 -0.0847,-0.16933 0,-0.0931 -0.0381,-0.16933 -0.0847,-0.16933 -0.0466,0 -0.0847,-0.0762 -0.0847,-0.16934 0,-0.0931 -0.0381,-0.16933 -0.0847,-0.16933 -0.0466,0 -0.0847,-0.0762 -0.0847,-0.16933 0,-0.0931 -0.0381,-0.16934 -0.0847,-0.16934 -0.0466,0 -0.0847,-0.0762 -0.0847,-0.16933 0,-0.0931 -0.0381,-0.16933 -0.0847,-0.16933 -0.0466,0 -0.0847,-0.0762 -0.0847,-0.16934 0,-0.0931 -0.0381,-0.16933 -0.0847,-0.16933 -0.0466,0 -0.0847,-0.0762 -0.0847,-0.16933 0,-0.0931 -0.0381,-0.16934 -0.0847,-0.16934 -0.0466,0 -0.0847,-0.0762 -0.0847,-0.16933 0,-0.0931 -0.0381,-0.16933 -0.0847,-0.16933 -0.0466,0 -0.0847,-0.0762 -0.0847,-0.16934 0,-0.0931 -0.0381,-0.16933 -0.0847,-0.16933 -0.0466,0 -0.0847,-0.0762 -0.0847,-0.16933 0,-0.0931 -0.0381,-0.16934 -0.0847,-0.16934 -0.0466,0 -0.0847,-0.0762 -0.0847,-0.16933 0,-0.0931 -0.0381,-0.16933 -0.0847,-0.16933 -0.0466,0 -0.0847,-0.0762 -0.0847,-0.16934 0,-0.0931 -0.0381,-0.16933 -0.0847,-0.16933 -0.0466,0 -0.0847,-0.0762 -0.0847,-0.16933 0,-0.0931 -0.0381,-0.16934 -0.0847,-0.16934 -0.0466,0 -0.0847,-0.0762 -0.0847,-0.16933 0,-0.0931 -0.0381,-0.16933 -0.0847,-0.16933 -0.0466,0 -0.0847,-0.0762 -0.0847,-0.16934 0,-0.0931 -0.0381,-0.16933 -0.0847,-0.16933 -0.0466,0 -0.0847,-0.0762 -0.0847,-0.16933 0,-0.0931 -0.0381,-0.16934 -0.0847,-0.16934 -0.0466,0 -0.0847,-0.0762 -0.0847,-0.16933 0,-0.0931 -0.0381,-0.16933 -0.0847,-0.16933 -0.0466,0 -0.0847,-0.0762 -0.0847,-0.16934 0,-0.0931 -0.0381,-0.16933 -0.0847,-0.16933 -0.0466,0 -0.0847,-0.0762 -0.0847,-0.16933 0,-0.0931 -0.0381,-0.16934 -0.0847,-0.16934 -0.0466,0 -0.0847,-0.0762 -0.0847,-0.16933 0,-0.0931 -0.0381,-0.16933 -0.0847,-0.16933 -0.0466,0 -0.0847,-0.0762 -0.0847,-0.16934 0,-0.0931 -0.0381,-0.16933 -0.0847,-0.16933 -0.0466,0 -0.0847,-0.0762 -0.0847,-0.16933 0,-0.0931 -0.0381,-0.16934 -0.0847,-0.16934 -0.0466,0 -0.0847,-0.0762 -0.0847,-0.16933 0,-0.0931 -0.0381,-0.16933 -0.0847,-0.16933 -0.0466,0 -0.0847,-0.0762 -0.0847,-0.16934 0,-0.0931 -0.0381,-0.16933 -0.0847,-0.16933 -0.0466,0 -0.0847,-0.0762 -0.0847,-0.16933 0,-0.0931 -0.0381,-0.16934 -0.0847,-0.16934 -0.0466,0 -0.0847,-0.0762 -0.0847,-0.16933 0,-0.0931 -0.0381,-0.16933 -0.0847,-0.16933 -0.0466,0 -0.0847,-0.0762 -0.0847,-0.16933 0,-0.0931 -0.0381,-0.16934 -0.0847,-0.16934 -0.0466,0 -0.0847,-0.0762 -0.0847,-0.16933 0,-0.0931 -0.0381,-0.16933 -0.0847,-0.16933 -0.0466,0 -0.0847,-0.0762 -0.0847,-0.16934 0,-0.0931 -0.0381,-0.16933 -0.0847,-0.16933 -0.0466,0 -0.0847,-0.0762 -0.0847,-0.16933 0,-0.0931 -0.0381,-0.16934 -0.0847,-0.16934 -0.0466,0 -0.0847,-0.0762 -0.0847,-0.16933 0,-0.0931 -0.0381,-0.16933 -0.0847,-0.16933 -0.0466,0 -0.0847,-0.0762 -0.0847,-0.16934 0,-0.0931 -0.0381,-0.16933 -0.0847,-0.16933 -0.0466,0 -0.0847,-0.0762 -0.0847,-0.16933 0,-0.0931 -0.0381,-0.16934 -0.0847,-0.16934 -0.0466,0 -0.0847,-0.0762 -0.0847,-0.16933 0,-0.0931 -0.0381,-0.16933 -0.0847,-0.16933 -0.0466,0 -0.0847,-0.0762 -0.0847,-0.16934 0,-0.0931 -0.0381,-0.16933 -0.0847,-0.16933 -0.0466,0 -0.0847,-0.0762 -0.0847,-0.16933 0,-0.0931 -0.0381,-0.16934 -0.0847,-0.16934 -0.0466,0 -0.0847,-0.1143 -0.0847,-0.254 0,-0.1397 -0.0381,-0.254 -0.0847,-0.254 -0.0466,0 -0.0847,-0.0762 -0.0847,-0.16933 0,-0.0931 -0.0381,-0.16933 -0.0847,-0.16933 -0.0466,0 -0.0847,-0.0762 -0.0847,-0.16934 0,-0.0931 -0.0381,-0.16933 -0.0847,-0.16933 -0.0466,0 -0.0847,-0.0762 -0.0847,-0.16933 0,-0.0931 -0.0381,-0.16934 -0.0847,-0.16934 -0.0466,0 -0.0847,-0.0762 -0.0847,-0.16933 0,-0.0931 -0.0381,-0.16933 -0.0847,-0.16933 -0.0466,0 -0.0847,-0.0762 -0.0847,-0.16934 0,-0.0931 -0.0381,-0.16933 -0.0847,-0.16933 -0.0466,0 -0.0847,-0.0762 -0.0847,-0.16933 0,-0.0931 -0.0381,-0.16934 -0.0847,-0.16934 -0.0466,0 -0.0847,-0.1143 -0.0847,-0.254 0,-0.1397 -0.0381,-0.254 -0.0847,-0.254 -0.0466,0 -0.0847,-0.0762 -0.0847,-0.16933 0,-0.0931 -0.0381,-0.16933 -0.0847,-0.16933 -0.0466,0 -0.0847,-0.0762 -0.0847,-0.16934 0,-0.0931 -0.0381,-0.16933 -0.0847,-0.16933 -0.0466,0 -0.0847,-0.0762 -0.0847,-0.16933 0,-0.0931 -0.0381,-0.16934 -0.0847,-0.16934 -0.0466,0 -0.0847,-0.0762 -0.0847,-0.16933 0,-0.0931 -0.0381,-0.16933 -0.0847,-0.16933 -0.0466,0 -0.0847,-0.1143 -0.0847,-0.254 0,-0.1397 -0.0381,-0.254 -0.0847,-0.254 -0.0466,0 -0.0847,-0.0762 -0.0847,-0.16934 0,-0.0931 -0.0381,-0.16933 -0.0847,-0.16933 -0.0466,0 -0.0847,-0.0762 -0.0847,-0.16933 0,-0.0931 -0.0381,-0.16934 -0.0847,-0.16934 -0.0466,0 -0.0847,-0.0762 -0.0847,-0.16933 0,-0.0931 -0.0381,-0.16933 -0.0847,-0.16933 -0.0466,0 -0.0847,-0.1143 -0.0847,-0.254 0,-0.1397 -0.0381,-0.254 -0.0847,-0.254 -0.0466,0 -0.0847,-0.0762 -0.0847,-0.16934 0,-0.0931 -0.0381,-0.16933 -0.0847,-0.16933 -0.0466,0 -0.0847,-0.0762 -0.0847,-0.16933 0,-0.0931 -0.0381,-0.16934 -0.0847,-0.16934 -0.0466,0 -0.0847,-0.1143 -0.0847,-0.254 0,-0.1397 -0.0381,-0.254 -0.0847,-0.254 -0.0466,0 -0.0847,-0.0762 -0.0847,-0.16933 0,-0.0931 -0.0381,-0.16933 -0.0847,-0.16933 -0.0466,0 -0.0847,-0.0762 -0.0847,-0.16934 0,-0.0931 -0.0381,-0.16933 -0.0847,-0.16933 -0.0466,0 -0.0847,-0.1143 -0.0847,-0.254 0,-0.1397 -0.0381,-0.254 -0.0847,-0.254 -0.0466,0 -0.0847,-0.0762 -0.0847,-0.16933 0,-0.0931 -0.0381,-0.16934 -0.0847,-0.16934 -0.0466,0 -0.0847,-0.0762 -0.0847,-0.16933 0,-0.0931 -0.0381,-0.16933 -0.0847,-0.16933 -0.0466,0 -0.0847,-0.1143 -0.0847,-0.254 0,-0.1397 -0.0381,-0.254 -0.0847,-0.254 -0.0466,0 -0.0847,-0.0762 -0.0847,-0.16934 0,-0.0931 -0.0381,-0.16933 -0.0847,-0.16933 -0.0466,0 -0.0847,-0.0762 -0.0847,-0.16933 0,-0.0931 -0.0381,-0.16934 -0.0847,-0.16934 -0.0466,0 -0.0847,-0.1143 -0.0847,-0.254 0,-0.1397 -0.0381,-0.254 -0.0847,-0.254 -0.0466,0 -0.0847,-0.0762 -0.0847,-0.16933 0,-0.0931 -0.0381,-0.16933 -0.0847,-0.16933 -0.0466,0 -0.0847,-0.0762 -0.0847,-0.16934 0,-0.0931 -0.0381,-0.16933 -0.0847,-0.16933 -0.0466,0 -0.0847,-0.1143 -0.0847,-0.254 0,-0.1397 -0.0381,-0.254 -0.0847,-0.254 -0.0466,0 -0.0847,-0.0762 -0.0847,-0.16933 0,-0.0931 -0.0381,-0.16934 -0.0847,-0.16934 -0.0466,0 -0.0847,-0.0762 -0.0847,-0.16933 0,-0.0931 -0.0381,-0.16933 -0.0847,-0.16933 -0.0466,0 -0.0847,-0.1143 -0.0847,-0.254 0,-0.1397 -0.0381,-0.254 -0.0847,-0.254 -0.0466,0 -0.0847,-0.0762 -0.0847,-0.16934 0,-0.0931 -0.0381,-0.16933 -0.0847,-0.16933 -0.0466,0 -0.0847,-0.1143 -0.0847,-0.254 0,-0.1397 -0.0381,-0.254 -0.0847,-0.254 -0.0466,0 -0.0847,-0.0762 -0.0847,-0.16933 0,-0.0931 -0.0381,-0.16934 -0.0847,-0.16934 -0.0466,0 -0.0847,-0.0762 -0.0847,-0.16933 0,-0.0931 -0.0381,-0.16933 -0.0847,-0.16933 -0.0466,0 -0.0847,-0.1143 -0.0847,-0.254 0,-0.1397 -0.0381,-0.254 -0.0847,-0.254 -0.0466,0 -0.0847,-0.0762 -0.0847,-0.16934 0,-0.11289 -0.0564,-0.16933 -0.16934,-0.16933 -0.11289,0 -0.16933,0.0564 -0.16933,0.16933 0,0.0931 -0.0381,0.16934 -0.0847,0.16934 -0.0466,0 -0.0847,0.1143 -0.0847,0.254 0,0.1397 -0.0381,0.254 -0.0847,0.254 -0.0466,0 -0.0847,0.0762 -0.0847,0.16933 0,0.0931 -0.0381,0.16933 -0.0847,0.16933 -0.0466,0 -0.0847,0.1143 -0.0847,0.254 0,0.1397 -0.0381,0.254 -0.0847,0.254 -0.0466,0 -0.0847,0.0762 -0.0847,0.16934 0,0.0931 -0.0381,0.16933 -0.0847,0.16933 -0.0466,0 -0.0847,0.1143 -0.0847,0.254 0,0.1397 -0.0381,0.254 -0.0847,0.254 -0.0466,0 -0.0847,0.0762 -0.0847,0.16933 0,0.0931 -0.0381,0.16934 -0.0847,0.16934 -0.0466,0 -0.0847,0.1143 -0.0847,0.254 0,0.1397 -0.0381,0.254 -0.0847,0.254 -0.0466,0 -0.0847,0.0762 -0.0847,0.16933 0,0.0931 -0.0381,0.16933 -0.0847,0.16933 -0.0466,0 -0.0847,0.1143 -0.0847,0.254 0,0.1397 -0.0381,0.254 -0.0847,0.254 -0.0466,0 -0.0847,0.0762 -0.0847,0.16934 0,0.0931 -0.0381,0.16933 -0.0847,0.16933 -0.0466,0 -0.0847,0.1143 -0.0847,0.254 0,0.1397 -0.0381,0.254 -0.0847,0.254 -0.0466,0 -0.0847,0.0762 -0.0847,0.16933 0,0.0931 -0.0381,0.16934 -0.0847,0.16934 -0.0466,0 -0.0847,0.0762 -0.0847,0.16933 0,0.0931 -0.0381,0.16933 -0.0847,0.16933 -0.0466,0 -0.0847,0.1143 -0.0847,0.254 0,0.1397 -0.0381,0.254 -0.0847,0.254 -0.0466,0 -0.0847,0.0762 -0.0847,0.16934 0,0.0931 -0.0381,0.16933 -0.0847,0.16933 -0.0466,0 -0.0847,0.1143 -0.0847,0.254 0,0.1397 -0.0381,0.254 -0.0847,0.254 -0.0466,0 -0.0847,0.0762 -0.0847,0.16933 0,0.0931 -0.0381,0.16934 -0.0847,0.16934 -0.0466,0 -0.0847,0.1143 -0.0847,0.254 0,0.1397 -0.0381,0.254 -0.0847,0.254 -0.0466,0 -0.0847,0.0762 -0.0847,0.16933 0,0.0931 -0.0381,0.16933 -0.0847,0.16933 -0.0466,0 -0.0847,0.1143 -0.0847,0.254 0,0.1397 -0.0381,0.254 -0.0847,0.254 -0.0466,0 -0.0847,0.0762 -0.0847,0.16934 0,0.0931 -0.0381,0.16933 -0.0847,0.16933 -0.0466,0 -0.0847,0.0762 -0.0847,0.16933 0,0.0931 -0.0381,0.16934 -0.0847,0.16934 -0.0466,0 -0.0847,0.1143 -0.0847,0.254 0,0.1397 -0.0381,0.254 -0.0847,0.254 -0.0466,0 -0.0847,0.0762 -0.0847,0.16933 0,0.0931 -0.0381,0.16933 -0.0847,0.16933 -0.0466,0 -0.0847,0.0762 -0.0847,0.16934 0,0.0931 -0.0381,0.16933 -0.0847,0.16933 -0.0466,0 -0.0847,0.1143 -0.0847,0.254 0,0.1397 -0.0381,0.254 -0.0847,0.254 -0.0466,0 -0.0847,0.0762 -0.0847,0.16933 0,0.0931 -0.0381,0.16934 -0.0847,0.16934 -0.0466,0 -0.0847,0.0762 -0.0847,0.16933 0,0.0931 -0.0381,0.16933 -0.0847,0.16933 -0.0466,0 -0.0847,0.1143 -0.0847,0.254 0,0.1397 -0.0381,0.254 -0.0847,0.254 -0.0466,0 -0.0847,0.0762 -0.0847,0.16934 0,0.0931 -0.0381,0.16933 -0.0847,0.16933 -0.0466,0 -0.0847,0.0762 -0.0847,0.16933 0,0.0931 -0.0381,0.16934 -0.0847,0.16934 -0.0466,0 -0.0847,0.0762 -0.0847,0.16933 0,0.0931 -0.0381,0.16933 -0.0847,0.16933 -0.0466,0 -0.0847,0.1143 -0.0847,0.254 0,0.1397 -0.0381,0.254 -0.0847,0.254 -0.0466,0 -0.0847,0.0762 -0.0847,0.16934 0,0.0931 -0.0381,0.16933 -0.0847,0.16933 -0.0466,0 -0.0847,0.0762 -0.0847,0.16933 0,0.0931 -0.0381,0.16934 -0.0847,0.16934 -0.0466,0 -0.0847,0.0762 -0.0847,0.16933 0,0.0931 -0.0381,0.16933 -0.0847,0.16933 -0.0466,0 -0.0847,0.1143 -0.0847,0.254 0,0.1397 -0.0381,0.254 -0.0847,0.254 -0.0466,0 -0.0847,0.0762 -0.0847,0.16934 0,0.0931 -0.0381,0.16933 -0.0847,0.16933 -0.0466,0 -0.0847,0.0762 -0.0847,0.16933 0,0.0931 -0.0381,0.16934 -0.08467,0.16934 -0.04657,0 -0.08467,0.073 -0.08467,0.16227 0,0.0893 -0.04544,0.17743 -0.100965,0.19594 -0.109953,0.0366 3.006395,3.19778 3.152485,3.19778 0.0491,0 0.35234,0.2667 0.67381,0.59267 0.32147,0.32597 0.62742,0.59267 0.67988,0.59267 0.0525,0 0.24182,0.1524 0.42079,0.33866 0.17896,0.18627 0.37024,0.33867 0.42506,0.33867 0.0548,0 0.20644,0.1143 0.33694,0.254 0.13049,0.1397 0.28289,0.254 0.33866,0.254 0.0558,0 0.20817,0.1143 0.33867,0.254 0.1305,0.1397 0.28186,0.254 0.33635,0.254 0.10169,0 0.34098,0.20372 0.34098,0.29029 0,0.0266 -0.0762,0.0484 -0.16933,0.0484 -0.0931,0 -0.16933,-0.0381 -0.16933,-0.0847 0,-0.0466 -0.0762,-0.0847 -0.16934,-0.0847 -0.0931,0 -0.16933,-0.0381 -0.16933,-0.0847 0,-0.0466 -0.0762,-0.0847 -0.16933,-0.0847 -0.0931,0 -0.16934,-0.0381 -0.16934,-0.0847 0,-0.0466 -0.0762,-0.0847 -0.16933,-0.0847 -0.0931,0 -0.16933,-0.0381 -0.16933,-0.0847 0,-0.0466 -0.0762,-0.0847 -0.16934,-0.0847 -0.0931,0 -0.16933,-0.0381 -0.16933,-0.0847 0,-0.0466 -0.1143,-0.0847 -0.254,-0.0847 -0.1397,0 -0.254,-0.0381 -0.254,-0.0847 0,-0.0466 -0.0762,-0.0847 -0.16933,-0.0847 -0.0931,0 -0.16934,-0.0381 -0.16934,-0.0847 0,-0.0466 -0.0762,-0.0847 -0.16933,-0.0847 -0.0931,0 -0.16933,-0.0381 -0.16933,-0.0847 0,-0.0466 -0.0678,-0.0847 -0.15065,-0.0847 -0.0829,0 -0.20556,-0.0762 -0.27269,-0.16933 -0.0671,-0.0931 -0.18984,-0.16934 -0.27269,-0.16934 -0.0828,0 -0.15064,-0.0381 -0.15064,-0.0847 0,-0.0466 -0.0762,-0.0847 -0.16933,-0.0847 -0.0931,0 -0.16934,-0.0381 -0.16934,-0.0847 0,-0.0466 -0.0762,-0.0847 -0.16933,-0.0847 -0.0931,0 -0.16933,-0.0381 -0.16933,-0.0847 0,-0.0466 -0.0678,-0.0847 -0.15065,-0.0847 -0.0829,0 -0.20556,-0.0762 -0.27269,-0.16933 -0.0671,-0.0931 -0.18142,-0.16933 -0.254,-0.16933 -0.0726,0 -0.18687,-0.0762 -0.254,-0.16934 -0.0671,-0.0931 -0.18142,-0.16933 -0.254,-0.16933 -0.0726,0 -0.18687,-0.0762 -0.254,-0.16933 -0.0671,-0.0931 -0.18142,-0.16934 -0.254,-0.16934 -0.0726,0 -0.18687,-0.0762 -0.254,-0.16933 -0.0671,-0.0931 -0.17455,-0.16933 -0.23872,-0.16933 -0.0642,0 -0.223441,-0.1143 -0.35394,-0.254 -0.1305,-0.1397 -0.2829,-0.254 -0.338667,-0.254 -0.05577,0 -0.208167,-0.1143 -0.338667,-0.254 -0.27892,-0.29859 -0.338666,-0.31352 -0.338666,-0.0847 0,0.0931 -0.0381,0.16934 -0.08467,0.16934 -0.04657,0 -0.08467,0.0762 -0.08467,0.16933 0,0.0931 -0.0381,0.16933 -0.08467,0.16933 -0.04657,0 -0.08467,0.0762 -0.08467,0.16934 0,0.0931 -0.0381,0.16933 -0.08467,0.16933 -0.04657,0 -0.08467,0.0762 -0.08467,0.16933 0,0.0931 -0.0381,0.16933 -0.08467,0.16933 -0.04657,0 -0.08467,0.0762 -0.08467,0.16934 0,0.0931 -0.0381,0.16933 -0.08467,0.16933 -0.04657,0 -0.08467,0.0762 -0.08467,0.16933 0,0.0931 -0.0381,0.16934 -0.08467,0.16934 -0.04657,0 -0.08467,0.0762 -0.08467,0.16933 0,0.0931 -0.0381,0.16933 -0.08467,0.16933 -0.04657,0 -0.08467,0.0762 -0.08467,0.16934 0,0.0931 -0.0381,0.16933 -0.08467,0.16933 -0.04657,0 -0.08467,0.0762 -0.08467,0.16933 0,0.0931 -0.0381,0.16934 -0.08467,0.16934 -0.04657,0 -0.08467,0.0762 -0.08467,0.16933 0,0.0931 -0.0381,0.16933 -0.08467,0.16933 -0.04657,0 -0.08467,0.0762 -0.08467,0.16934 0,0.0931 -0.0381,0.16933 -0.08467,0.16933 -0.04657,0 -0.08467,0.0762 -0.08467,0.16933 0,0.0931 -0.0381,0.16934 -0.08467,0.16934 -0.04657,0 -0.08467,0.0762 -0.08467,0.16933 0,0.0931 -0.0381,0.16933 -0.08467,0.16933 -0.04657,0 -0.08467,0.0762 -0.08467,0.16934 0,0.0931 -0.0381,0.16933 -0.08467,0.16933 -0.04657,0 -0.08467,0.0762 -0.08467,0.16933 0,0.0931 -0.0381,0.16934 -0.08467,0.16934 -0.04657,0 -0.08467,0.0762 -0.08467,0.16933 0,0.0931 -0.0381,0.16933 -0.08467,0.16933 -0.04657,0 -0.08467,0.0762 -0.08467,0.16934 0,0.0931 -0.0381,0.16933 -0.08467,0.16933 -0.04657,0 -0.08467,0.0762 -0.08467,0.16933 0,0.0931 -0.0381,0.16934 -0.08467,0.16934 -0.04657,0 -0.08467,0.0762 -0.08467,0.16933 0,0.0931 -0.0381,0.16933 -0.08467,0.16933 -0.04657,0 -0.08467,0.0762 -0.08467,0.16934 0,0.0931 -0.0381,0.16933 -0.08467,0.16933 -0.04657,0 -0.08467,0.0762 -0.08467,0.16933 0,0.0931 -0.0381,0.16934 -0.08467,0.16934 -0.04657,0 -0.08467,0.0762 -0.08467,0.16933 0,0.0931 -0.0381,0.16933 -0.08467,0.16933 -0.04657,0 -0.08467,0.0762 -0.08467,0.16934 0,0.0931 -0.0381,0.16933 -0.08467,0.16933 -0.04657,0 -0.08467,0.0762 -0.08467,0.16933 0,0.0931 -0.0381,0.16934 -0.08467,0.16934 -0.04657,0 -0.08467,0.0762 -0.08467,0.16933 0,0.0931 -0.0381,0.16933 -0.08467,0.16933 -0.04657,0 -0.08467,0.0678 -0.08467,0.15065 0,0.0829 -0.0762,0.20556 -0.169334,0.27269 -0.09313,0.0671 -0.169333,0.18984 -0.169333,0.27269 0,0.0829 -0.0381,0.15064 -0.08467,0.15064 -0.04657,0 -0.08467,0.0762 -0.08467,0.16933 0,0.0931 -0.0381,0.16934 -0.08467,0.16934 -0.04657,0 -0.08467,0.0762 -0.08467,0.16933 0,0.0931 -0.0381,0.16933 -0.08467,0.16933 -0.04657,0 -0.08467,0.0762 -0.08467,0.16934 0,0.0931 -0.0381,0.16933 -0.08467,0.16933 -0.04657,0 -0.08467,0.0762 -0.08467,0.16933 0,0.0931 -0.0381,0.16934 -0.08467,0.16934 -0.04657,0 -0.08467,0.0762 -0.08467,0.16933 0,0.0931 -0.0381,0.16933 -0.08467,0.16933 -0.04657,0 -0.08467,0.0762 -0.08467,0.16934 0,0.0931 -0.0381,0.16933 -0.08467,0.16933 -0.04657,0 -0.08467,0.0762 -0.08467,0.16933 0,0.0931 -0.0381,0.16934 -0.08467,0.16934 -0.04657,0 -0.08467,0.0762 -0.08467,0.16933 0,0.0931 -0.0381,0.16933 -0.08467,0.16933 -0.04657,0 -0.08467,0.0678 -0.08467,0.15065 0,0.0829 -0.0762,0.20556 -0.169333,0.27269 -0.09313,0.0671 -0.169334,0.18984 -0.169334,0.27269 0,0.0829 -0.0381,0.15064 -0.08467,0.15064 -0.04657,0 -0.08467,0.0762 -0.08467,0.16933 0,0.0931 -0.0381,0.16934 -0.08467,0.16934 -0.04657,0 -0.08467,0.0762 -0.08467,0.16933 0,0.0931 -0.0381,0.16933 -0.08467,0.16933 -0.04657,0 -0.08467,0.0762 -0.08467,0.16934 0,0.0931 -0.0381,0.16933 -0.08467,0.16933 -0.04657,0 -0.08467,0.0762 -0.08467,0.16933 0,0.0931 -0.0381,0.16934 -0.08467,0.16934 -0.04657,0 -0.08467,0.0762 -0.08467,0.16933 0,0.0931 -0.0381,0.16933 -0.08467,0.16933 -0.04657,0 -0.08467,0.0762 -0.08467,0.16934 0,0.0931 -0.0381,0.16933 -0.08467,0.16933 -0.04657,0 -0.08467,0.0678 -0.08467,0.15064 0,0.0829 -0.0762,0.20557 -0.169333,0.27269 -0.09313,0.0671 -0.169333,0.18984 -0.169333,0.2727 0,0.0829 -0.0381,0.15064 -0.08467,0.15064 -0.04657,0 -0.08467,0.0762 -0.08467,0.16933 0,0.0931 -0.0381,0.16933 -0.08467,0.16933 -0.04657,0 -0.08467,0.0762 -0.08467,0.16934 0,0.0931 -0.0381,0.16933 -0.08467,0.16933 -0.04657,0 -0.08467,0.0762 -0.08467,0.16933 0,0.0931 -0.0381,0.16934 -0.08467,0.16934 -0.04657,0 -0.08467,0.0762 -0.08467,0.16933 0,0.0931 -0.0381,0.16933 -0.08467,0.16933 -0.04657,0 -0.08467,0.0762 -0.08467,0.16934 0,0.0931 -0.0381,0.16933 -0.08467,0.16933 -0.04657,0 -0.08467,0.0678 -0.08467,0.15064 0,0.0829 -0.0762,0.20557 -0.169334,0.27269 -0.09313,0.0671 -0.169333,0.18984 -0.169333,0.2727 0,0.0829 -0.0381,0.15064 -0.08467,0.15064 -0.04657,0 -0.08467,0.0762 -0.08467,0.16933 0,0.0931 -0.0381,0.16933 -0.08467,0.16933 -0.04657,0 -0.08467,0.0762 -0.08467,0.16934 0,0.0931 -0.0381,0.16933 -0.08467,0.16933 -0.04657,0 -0.08467,0.0762 -0.08467,0.16933 0,0.0931 -0.0381,0.16934 -0.08467,0.16934 -0.04657,0 -0.08467,0.0762 -0.08467,0.16933 0,0.0931 -0.0381,0.16933 -0.08467,0.16933 -0.04657,0 -0.08467,0.0678 -0.08467,0.15065 0,0.0828 -0.0762,0.20556 -0.169333,0.27269 -0.09313,0.0671 -0.169333,0.18984 -0.169333,0.27269 0,0.0829 -0.0381,0.15064 -0.08467,0.15064 -0.04657,0 -0.08467,0.0762 -0.08467,0.16933 0,0.0931 -0.0381,0.16934 -0.08467,0.16934 -0.04657,0 -0.08467,0.0762 -0.08467,0.16933 0,0.0931 -0.0381,0.16933 -0.08467,0.16933 -0.04657,0 -0.08467,0.0762 -0.08467,0.16934 0,0.0931 -0.0381,0.16933 -0.08467,0.16933 -0.04657,0 -0.08467,0.0678 -0.08467,0.15064 0,0.0829 -0.0762,0.20557 -0.169333,0.27269 -0.09313,0.0671 -0.169333,0.18984 -0.169333,0.27269 0,0.0829 -0.0381,0.15065 -0.08467,0.15065 -0.04657,0 -0.08467,0.0762 -0.08467,0.16933 0,0.0931 -0.0381,0.16933 -0.08467,0.16933 -0.04657,0 -0.08467,0.0762 -0.08467,0.16934 0,0.0931 -0.0381,0.16933 -0.08467,0.16933 -0.04657,0 -0.08467,0.0762 -0.08467,0.16933 0,0.0931 -0.0381,0.16934 -0.08467,0.16934 -0.04657,0 -0.08467,0.0678 -0.08467,0.15064 0,0.0829 -0.0762,0.20556 -0.169333,0.27269 -0.09313,0.0671 -0.169333,0.18984 -0.169333,0.27269 0,0.0829 -0.0381,0.15064 -0.08467,0.15064 -0.04657,0 -0.08467,0.0762 -0.08467,0.16934 0,0.0931 -0.0381,0.16933 -0.08467,0.16933 -0.04657,0 -0.08467,0.0762 -0.08467,0.16933 0,0.0931 -0.0381,0.16934 -0.08467,0.16934 -0.04657,0 -0.08467,0.0762 -0.08467,0.16933 0,0.0931 -0.0381,0.16933 -0.08467,0.16933 -0.04657,0 -0.08467,0.0678 -0.08467,0.15065 0,0.0829 -0.0762,0.20556 -0.169333,0.27269 -0.09313,0.0671 -0.169333,0.18983 -0.169333,0.27269 0,0.0829 -0.0381,0.15064 -0.08467,0.15064 -0.04657,0 -0.08467,0.0762 -0.08467,0.16933 0,0.0931 -0.0381,0.16934 -0.08467,0.16934 -0.04657,0 -0.08467,0.0762 -0.08467,0.16933 0,0.0931 -0.0381,0.16933 -0.08467,0.16933 -0.04657,0 -0.08467,0.0762 -0.08467,0.16934 0,0.0931 -0.0381,0.16933 -0.08467,0.16933 -0.04657,0 -0.08467,0.0678 -0.08467,0.15064 0,0.0829 -0.0762,0.20557 -0.169334,0.27269 -0.09313,0.0671 -0.169333,0.18984 -0.169333,0.27269 0,0.0829 -0.0381,0.15065 -0.08467,0.15065 -0.04657,0 -0.08467,0.0762 -0.08467,0.16933 0,0.0931 -0.0381,0.16933 -0.08467,0.16933 -0.04657,0 -0.08467,0.0762 -0.08467,0.16934 0,0.0931 -0.0381,0.16933 -0.08467,0.16933 -0.04657,0 -0.08467,0.0762 -0.08467,0.16933 0,0.0931 -0.0381,0.16934 -0.08467,0.16934 -0.04657,0 -0.08467,0.0678 -0.08467,0.15064 0,0.0829 -0.0762,0.20556 -0.169334,0.27269 -0.09313,0.0671 -0.169333,0.18984 -0.169333,0.27269 0,0.0828 -0.0381,0.15064 -0.08467,0.15064 -0.04657,0 -0.08467,0.0762 -0.08467,0.16934 0,0.0931 -0.0381,0.16933 -0.08467,0.16933 -0.04657,0 -0.08467,0.0762 -0.08467,0.16933 0,0.0931 -0.0381,0.16934 -0.08467,0.16934 -0.04657,0 -0.08467,0.0678 -0.08467,0.15064 0,0.0829 -0.0762,0.20556 -0.169333,0.27269 -0.09313,0.0671 -0.169334,0.18984 -0.169334,0.27269 0,0.0828 -0.0381,0.15064 -0.08467,0.15064 -0.04657,0 -0.08467,0.0762 -0.08467,0.16934 0,0.0931 -0.0381,0.16933 -0.08467,0.16933 -0.04657,0 -0.08467,0.0762 -0.08467,0.16933 0,0.0931 -0.0381,0.16934 -0.08467,0.16934 -0.04657,0 -0.08467,0.0678 -0.08467,0.15064 0,0.0829 -0.0762,0.20556 -0.169333,0.27269 -0.09313,0.0671 -0.169333,0.18984 -0.169333,0.27269 0,0.0828 -0.0381,0.15064 -0.08467,0.15064 -0.04657,0 -0.08467,0.0762 -0.08467,0.16934 0,0.0931 -0.0381,0.16933 -0.08467,0.16933 -0.04657,0 -0.08467,0.0762 -0.08467,0.16933 0,0.0931 -0.0381,0.16934 -0.08467,0.16934 -0.04657,0 -0.08467,0.0762 -0.08467,0.16933 0,0.0931 -0.0381,0.16933 -0.08467,0.16933 -0.04657,0 -0.08467,0.0678 -0.08467,0.15065 0,0.0829 -0.0762,0.20556 -0.169333,0.27269 -0.09313,0.0671 -0.169333,0.18983 -0.169333,0.27269 0,0.0829 -0.0381,0.15064 -0.08467,0.15064 -0.04657,0 -0.08467,0.0762 -0.08467,0.16933 0,0.0931 -0.0381,0.16934 -0.08467,0.16934 -0.04657,0 -0.08467,0.0762 -0.08467,0.16933 0,0.0931 -0.0381,0.16933 -0.08467,0.16933 -0.04657,0 -0.08467,0.0678 -0.08467,0.15065 0,0.0829 -0.0762,0.20556 -0.169334,0.27269 -0.09313,0.0671 -0.169333,0.18983 -0.169333,0.27269 0,0.0829 -0.0381,0.15064 -0.08467,0.15064 -0.04657,0 -0.08467,0.0762 -0.08467,0.16933 0,0.0931 -0.0381,0.16934 -0.08467,0.16934 -0.04657,0 -0.08467,0.0762 -0.08467,0.16933 0,0.0931 -0.0381,0.16933 -0.08467,0.16933 -0.04657,0 -0.08467,0.0678 -0.08467,0.15065 0,0.0829 -0.0762,0.20556 -0.169333,0.27269 -0.09313,0.0671 -0.169333,0.18983 -0.169333,0.27269 0,0.0829 -0.0381,0.15064 -0.08467,0.15064 -0.04657,0 -0.08467,0.0762 -0.08467,0.16933 0,0.0931 -0.0381,0.16934 -0.08467,0.16934 -0.04657,0 -0.08467,0.0762 -0.08467,0.16933 0,0.0931 -0.0381,0.16933 -0.08467,0.16933 -0.04657,0 -0.08467,0.0678 -0.08467,0.15065 0,0.0829 -0.0762,0.20556 -0.169334,0.27269 -0.09313,0.0671 -0.169333,0.18983 -0.169333,0.27269 0,0.0829 -0.0381,0.15064 -0.08467,0.15064 -0.04657,0 -0.08467,0.0762 -0.08467,0.16933 0,0.0931 -0.0381,0.16934 -0.08467,0.16934 -0.04657,0 -0.08467,0.0381 -0.08467,0.0847 0,0.14969 0.297278,0.0902 0.423334,-0.0847 z"
         id="path1332"
         sodipodi:nodetypes="csssscssssssssscccssssscssssssscssssssssscsssssssssssssssssssssssssssssssssssssssssssssssssssssssssssssssssssssssssssssssssssssssssssssssssssssssssssssssscccsssssssssssssssssssssssssssssssscssssccsssssssssssssssssssssssssssssssssssssssssssssssssssssssssssssssssssssssssssssssssssssssssssssssssssssssssssssssssssssssssssssssssssssssssssssssssssssssssssssssssssssssssssssssssssssssssssssssssssssssssssssssssssssssssssssssssssssssssssssssssssssssssssssssssssssssssssssssssssssssssssssssssssssssssssssssssssssssssssssssssssssssssssssssssssssssssssssssssssssssssssssssssssssssssssssssssssssssssssssssssssssssssssssssssssssssssssssssssssssssssssssssssssssssssssssssssssssssssssscssscssssssssssssssssssssssssssssssssssssssssssssssssssssssssssssssssssssssssssssssssssssssssssssscssssssssssssssssssscssssssssssssssscssssssssssssscssssssssssscssssssssscssssssssscssssssssscssssssssscssssssssscssssssscssssssscssssssssscssssssscssssssscssssssscssssscc" /></g></g></svg>
