<?xml version="1.0" encoding="UTF-8" standalone="no"?>
<!-- Created with Inkscape (http://www.inkscape.org/) -->

<svg
   width="86.66098mm"
   height="86.710785mm"
   viewBox="0 0 86.660979 86.710784"
   version="1.1"
   id="svg5"
   xml:space="preserve"
   xmlns="http://www.w3.org/2000/svg"
   xmlns:svg="http://www.w3.org/2000/svg"><defs
     id="defs2" /><g
     id="layer1"
     transform="translate(-65.301522,-110.14368)"><g
       id="g1628"
       transform="translate(57.579698,35.560574)"><g
         id="g1845"
         transform="translate(18.631213,1.9681597)"><path
           style="fill:#fbf8f9;stroke-width:0.0846667"
           d="m 33.356512,145.93148 c -1.426286,-0.0742 -2.474253,-0.28046 -3.917583,-0.77106 -0.419099,-0.14246 -0.971549,-0.33008 -1.227666,-0.41695 -0.256117,-0.0869 -0.579967,-0.21208 -0.719667,-0.27825 -0.1397,-0.0662 -0.5588,-0.25849 -0.931333,-0.42736 -0.688318,-0.31201 -2.504645,-1.30503 -3.147067,-1.72056 -0.803244,-0.51955 -1.593816,-1.07787 -2.105507,-1.48696 -0.299077,-0.23911 -0.740006,-0.58714 -0.979842,-0.77341 -0.863638,-0.67074 -3.842237,-3.71253 -4.30218,-4.39346 -0.06633,-0.0982 -0.256828,-0.33259 -0.423333,-0.52088 -0.558808,-0.6319 -2.63107,-3.65622 -2.63107,-3.83986 0,-0.0388 -0.0714,-0.16149 -0.158671,-0.27255 -0.170616,-0.21712 -1.309834,-2.44161 -1.642686,-3.20758 -0.501897,-1.15499 -0.992453,-2.42086 -0.993165,-2.56285 -2.54e-4,-0.0573 -0.05791,-0.21419 -0.128048,-0.34868 -0.070139,-0.1345 -0.1993907,-0.5155 -0.2872247,-0.84667 -0.087835,-0.33117 -0.2614405,-0.98314 -0.3857904,-1.4488 -0.12435,-0.46567 -0.3025699,-1.30387 -0.3960453,-1.86267 -0.093474,-0.5588 -0.2082554,-1.2065 -0.2550685,-1.43933 -0.048382,-0.24064 -0.1095375,-2.92624 -0.1417074,-6.223 -0.031127,-3.18982 -0.082178,-5.83882 -0.1134474,-5.88666 -0.079415,-0.12152 0.4549326,-2.04598 0.9055811,-3.26148 0.1286433,-0.34697 0.3046501,-0.84041 0.3911269,-1.09653 0.086477,-0.25611 0.1930722,-0.54186 0.2368787,-0.635 0.04381,-0.0931 0.197377,-0.45508 0.341268,-0.80433 0.143892,-0.34925 0.31512,-0.7493 0.380507,-0.889 0.06539,-0.1397 0.220189,-0.47482 0.344006,-0.744714 0.187148,-0.40794 0.280941,-0.513049 0.556047,-0.623124 0.291879,-0.116787 0.838439,-0.662723 0.838439,-0.83748 0,-0.03536 0.1143,-0.3062 0.254,-0.601876 0.1397,-0.295676 0.254,-0.572603 0.254,-0.615393 0,-0.169784 0.928908,-1.934699 1.040883,-1.977669 0.06579,-0.02524 0.204943,-0.211165 0.309232,-0.413156 0.558579,-1.08188 1.424209,-2.030826 3.983884,-4.367332 1.020208,-0.931259 1.243552,-1.099306 1.321667,-0.994443 0.132899,0.178404 0.174013,0.165131 0.613917,-0.198188 1.364631,-1.127057 3.460707,-2.279956 6.488749,-3.568987 0.5588,-0.23788 1.14935,-0.492548 1.312334,-0.56593 0.595592,-0.268157 1.182105,-0.440427 1.230867,-0.36153 0.08089,0.130881 0.799094,0.08845 1.520799,-0.08984 1.157085,-0.285855 1.562672,-0.20125 0.849338,0.177173 -0.455212,0.241489 -0.397773,0.354051 0.121166,0.237448 0.347373,-0.07805 0.858211,-0.03517 1.78106,0.149508 0.207225,0.04147 0.208102,0.04487 0.04275,0.165781 -0.399974,0.292468 0.97229,0.371776 1.742133,0.100683 0.338697,-0.119269 1.568932,-0.142417 2.092358,-0.03937 0.361263,0.07112 0.363134,0.07022 0.308322,-0.148167 -0.03033,-0.120847 -0.02655,-0.219722 0.0084,-0.219722 0.09294,0 1.238181,0.334235 1.436473,0.419228 0.09313,0.03992 0.569384,0.195166 1.058334,0.344992 1.169499,0.358361 1.803835,0.60712 2.857695,1.120661 0.858324,0.418258 0.878393,0.423348 1.398396,0.354625 1.486629,-0.196471 2.432575,-0.03117 2.432575,0.42507 0,0.130429 0.542955,0.637899 1.078631,1.008136 0.616066,0.4258 0.802645,0.399055 0.439224,-0.06296 -0.701706,-0.892076 2.09569,1.086722 3.656457,2.586472 1.822693,1.751435 3.599845,4.155554 4.368209,5.909281 0.570196,1.301424 0.695825,1.784464 0.447193,1.719445 -0.235367,-0.06155 -0.155056,1.782508 0.09845,2.260468 0.224999,0.42422 0.214652,0.71281 -0.01564,0.43637 -0.09158,-0.10993 -0.166512,-0.26689 -0.166512,-0.34879 0,-0.63334 -1.205799,-2.502968 -1.492926,-2.314835 -0.125904,0.0825 -0.294056,0.114274 -0.444963,0.08409 -0.468782,-0.09376 -0.570685,0.0876 -0.448754,0.798648 0.122244,0.712867 0.28392,0.949837 0.603501,0.884547 0.313738,-0.0641 0.514346,0.25987 0.604241,0.9758 0.04051,0.32263 0.12926,0.78651 0.19722,1.03084 0.301033,1.08228 0.239273,1.49379 -0.130204,0.86757 -0.142373,-0.2413 -0.412115,-0.41097 -0.412115,-0.25923 0,0.12112 0.463056,1.46631 0.540979,1.57157 0.2799,0.37808 0.303904,0.49158 0.171153,0.8093 -0.270602,0.64764 -0.0049,1.90003 0.403141,1.90003 0.305402,0 0.303134,0.14594 -0.01448,0.93133 -0.277799,0.68694 -0.419011,1.24231 -0.479001,1.88384 -0.05972,0.63867 -0.138108,0.71457 -0.283383,0.27438 -0.11723,-0.35521 -0.253743,-0.31179 -0.253743,0.0807 0,0.20694 -0.05611,0.31837 -0.211666,0.42029 -0.181653,0.11902 -0.211667,0.20224 -0.211667,0.58685 0,0.97923 -0.130304,1.41215 -0.897312,2.9812 -0.251545,0.51457 -0.457589,0.97177 -0.457876,1.016 -2.54e-4,0.0442 -0.05208,0.17919 -0.115084,0.29994 -0.06301,0.12075 -0.140451,0.35754 -0.172091,0.5262 -0.07725,0.41178 -0.178572,0.4517 -0.361317,0.14233 -0.301077,-0.50968 -1.191702,0.64544 -1.093448,1.41817 0.05138,0.40406 -0.121249,0.99541 -0.18419,0.63098 -0.05242,-0.30354 -0.185223,-0.21532 -1.3026,0.86533 -1.513114,1.46339 -3.372943,2.78033 -4.560081,3.22898 -0.162984,0.0616 -0.582084,0.23117 -0.931334,0.37682 -2.179123,0.90881 -5.780377,1.18701 -8.170333,0.63117 -0.2794,-0.065 -0.77181,-0.17743 -1.094246,-0.24987 -0.996059,-0.2238 -1.770015,-0.52848 -1.942168,-0.76457 -0.08676,-0.11898 -0.281416,-0.3005 -0.432567,-0.40337 -0.15115,-0.10288 -0.442114,-0.32759 -0.646585,-0.49936 -0.204472,-0.17177 -0.651644,-0.54817 -0.993716,-0.83645 -1.203731,-1.01442 -2.618312,-2.58106 -3.095701,-3.42847 -0.07708,-0.13682 -0.236384,-0.42022 -0.354014,-0.62977 -0.484776,-0.86359 -0.793599,-1.84345 -1.067376,-3.38666 -0.208515,-1.17535 -0.03425,-3.89102 0.287957,-4.48733 0.163547,-0.30269 0.363663,-0.77894 0.444703,-1.05834 0.287832,-0.99235 0.916072,-2.16368 1.430436,-2.667 0.261739,-0.25611 0.476427,-0.49844 0.477083,-0.5385 0.0092,-0.55853 1.757453,-2.18045 3.184463,-2.95428 0.966385,-0.52404 2.603125,-0.90988 3.859727,-0.90988 2.060452,0 4.399217,0.96791 5.823445,2.41006 0.315401,0.31937 0.416511,0.4686 0.3175,0.4686 -0.0799,0 -0.145274,-0.0376 -0.145274,-0.0835 0,-0.0459 -0.123825,-0.14029 -0.275167,-0.20967 -0.151342,-0.0694 -0.482762,-0.24257 -0.736489,-0.38487 -4.080299,-2.28833 -9.9642,-0.35172 -12.079387,3.97578 -0.838273,1.71505 -1.402866,4.80248 -0.902163,4.93342 0.137363,0.0359 0.175595,0.14431 0.220928,0.62632 0.599341,6.37259 7.954748,11.45407 13.156654,9.08926 0.196923,-0.0895 0.412006,-0.14206 0.477959,-0.11675 0.372434,0.14291 1.713939,-0.47495 2.381331,-1.09678 0.511196,-0.47631 0.693574,-0.58261 0.605423,-0.35289 -0.249425,0.64999 1.067062,-0.22908 3.145103,-2.1001 1.314638,-1.18367 1.31532,-1.18468 1.33083,-1.97503 0.01432,-0.72981 0.134979,-0.94761 0.726633,-1.31166 0.445508,-0.27412 0.572968,-0.47655 0.924649,-1.4685 0.457957,-1.29171 0.62628,-2.32833 0.378066,-2.32833 -0.11851,0 -0.134749,-0.0502 -0.0891,-0.27517 0.140566,-0.69286 0.156894,-5.74018 0.01947,-6.01731 -0.07342,-0.14805 -0.194652,-0.72639 -0.269406,-1.28519 -0.326248,-2.43875 -1.555134,-5.040032 -3.5598,-7.535327 -0.591536,-0.736311 -2.087165,-2.2743 -2.477598,-2.547769 -0.104848,-0.07344 -0.2939,-0.229577 -0.420116,-0.346972 -0.206517,-0.192086 -0.922612,-0.6961 -1.300382,-0.915258 -0.08027,-0.04657 -0.348403,-0.203148 -0.595855,-0.347957 -0.247453,-0.144809 -0.545164,-0.291652 -0.66158,-0.326316 -0.116417,-0.03466 -0.287867,-0.109684 -0.381,-0.16671 -0.150334,-0.09205 -0.907508,-0.342919 -2.319599,-0.768534 -1.461722,-0.440573 -5.088883,-0.677006 -6.554918,-0.427275 -0.482307,0.08216 -0.978106,0.116863 -1.218637,0.0853 -0.901655,-0.118314 -2.402073,0.231909 -3.312336,0.773154 -0.783308,0.465758 -2.162228,1.12015 -2.584307,1.226431 -0.471666,0.118767 -0.579795,0.390074 -0.118036,0.296165 0.797739,-0.162237 0.879294,-0.162117 0.722349,0.0011 -0.137203,0.142655 -0.479882,0.224066 -1.928849,0.458238 -0.977286,0.157942 -2.119342,0.82332 -2.948534,1.71786 -0.244638,0.263918 -0.103065,0.392222 0.207937,0.188445 0.290936,-0.190629 0.339507,-0.109376 0.115629,0.193434 -0.152212,0.205878 -0.262636,0.257671 -0.630256,0.295613 -1.48813,0.153588 -4.840021,2.954097 -7.131432,5.958318 -0.733916,0.96222 -0.836304,1.21444 -0.49301,1.21444 0.18948,0 0.220799,0.13788 0.08964,0.39467 -0.06751,0.13218 -0.337491,0.67848 -0.599954,1.21399 -0.262463,0.53552 -0.603095,1.22132 -0.756961,1.524 -0.680602,1.33888 -0.717795,1.45813 -0.810266,2.59812 -0.0484,0.59668 -0.124275,1.27538 -0.168609,1.50822 -0.526292,2.76396 -0.468057,7.68678 0.104119,8.80164 0.252711,0.49239 0.257484,0.52379 0.202027,1.32899 -0.0568,0.82468 -0.0568,0.82468 0.256933,1.42357 0.295081,0.5633 0.304738,0.60547 0.162451,0.70952 -0.144459,0.10563 -0.143173,0.12894 0.0285,0.51704 0.09888,0.22354 0.179781,0.4462 0.179781,0.49481 0,0.50306 0.841927,1.64685 1.261533,1.71385 0.601944,0.0961 0.686826,0.12965 0.980387,0.3874 0.572995,0.50309 1.656333,2.53017 1.352209,2.53017 -0.103847,0 -0.523314,-0.25149 -0.626163,-0.37541 -0.142814,-0.17208 -0.258633,-0.16908 -0.258633,0.007 0,0.22677 0.586209,1.37952 1.042183,2.04939 0.423616,0.62234 0.423616,0.62234 0.277999,0.86884 -0.186499,0.31572 -0.138137,0.45199 0.336029,0.94683 0.337102,0.3518 0.380583,0.43776 0.332392,0.65717 -0.0712,0.3242 0.304115,0.98055 1.416336,2.47686 0.152934,0.20575 0.354261,0.48157 0.447394,0.61294 0.397642,0.56088 0.577397,0.72803 0.737825,0.68608 0.10317,-0.027 0.177032,0.009 0.204427,0.0993 0.171769,0.56702 1.09814,2.09039 1.482961,2.43865 0.114761,0.10385 0.281926,0.14051 0.578966,0.12696 0.399651,-0.0182 0.426396,-0.005 0.621589,0.30405 0.279939,0.44345 1.168266,1.25022 1.71859,1.56081 0.517363,0.29198 0.521968,0.30254 0.270937,0.62168 -0.194771,0.24761 -0.07815,0.46578 0.248977,0.46578 0.137327,0 0.750686,0.34702 1.290061,0.72988 0.775756,0.55064 1.666289,0.85428 1.584135,0.54012 -0.07895,-0.30192 0.0855,-0.18337 0.877795,0.63275 0.80302,0.82716 1.686511,1.49424 2.198478,1.65994 0.160925,0.0521 0.41265,0.14809 0.559388,0.21334 0.146737,0.0653 0.320925,0.11863 0.387084,0.11863 0.06616,0 0.297533,0.0604 0.514164,0.13421 0.216633,0.0738 0.842545,0.20377 1.390916,0.28878 2.713655,0.42071 2.423041,0.57939 -0.758044,0.4139 z m 4.177099,-20.47767 c -0.650439,-0.10114 -2.349794,-0.63271 -3.311015,-1.0357 -2.150691,-0.90167 -4.73305,-2.88569 -5.791874,-4.44988 -0.134538,-0.19875 -0.217177,-0.3888 -0.183643,-0.42234 0.05748,-0.0575 0.247038,0.13332 1.69985,1.71105 0.969926,1.05333 1.580189,1.43884 0.884544,0.55878 -0.481672,-0.60936 -0.369203,-0.61976 0.359517,-0.0332 0.340233,0.27384 0.771006,0.59543 0.957273,0.71464 0.186266,0.11921 0.509458,0.32487 0.718202,0.45702 0.208745,0.13215 0.499414,0.24755 0.645931,0.25645 0.181026,0.011 0.452817,0.16572 0.84813,0.48283 0.755116,0.60575 1.32854,0.87616 2.317403,1.09282 1.290564,0.28277 1.502413,0.30886 3.033056,0.37363 1.393179,0.0589 1.679528,0.11532 1.263777,0.24881 -0.286311,0.0919 -2.918217,0.12644 -3.441151,0.0451 z m -9.469688,-4.46805 c -0.272673,-0.24323 -1.446813,-1.92256 -1.499181,-2.14422 -0.1199,-0.5075 0.189778,-0.51354 0.463284,-0.009 0.09295,0.17146 0.206279,0.3689 0.25183,0.43875 0.321097,0.49239 0.925729,1.54207 0.971715,1.68696 0.06806,0.21442 0.02838,0.22025 -0.187648,0.0275 z m -0.0065,-2.83351 c -0.119381,-0.11937 -0.132697,-0.32032 -0.02123,-0.32032 0.08318,0 0.215201,0.32673 0.155958,0.38597 -0.019,0.019 -0.07963,-0.0105 -0.13473,-0.0657 z m 10.505626,-0.87634 c -1.346025,-0.295 -1.182435,-0.51401 0.422018,-0.56498 1.381971,-0.0439 1.398739,-0.0365 0.894927,0.39474 -0.390372,0.33414 -0.502787,0.34867 -1.316945,0.17024 z m 4.690629,-2.20976 c -0.122966,-0.12296 -0.04292,-0.26284 0.236546,-0.41334 0.364763,-0.19644 0.446435,-0.12712 0.247338,0.20993 -0.143862,0.24354 -0.355003,0.3323 -0.483884,0.20341 z m -0.433828,-0.36103 c -0.02679,-0.0433 -0.01,-0.10275 0.03734,-0.132 0.04733,-0.0293 0.08605,0.006 0.08605,0.0788 0,0.14872 -0.0508,0.17062 -0.123383,0.0532 z m 0.12338,-0.30219 c 0,-0.0233 0.01905,-0.0423 0.04233,-0.0423 0.02328,0 0.04233,0.019 0.04233,0.0423 0,0.0233 -0.01905,0.0423 -0.04233,0.0423 -0.02328,0 -0.04233,-0.019 -0.04233,-0.0423 z m 1.016,-0.11701 c 0,-0.0466 0.0381,-0.10821 0.08467,-0.13699 0.04657,-0.0288 0.08467,-0.0142 0.08467,0.0323 0,0.0466 -0.0381,0.10822 -0.08467,0.137 -0.04657,0.0288 -0.08467,0.0142 -0.08467,-0.0323 z m -0.84537,-0.24282 c 6.77e-4,-0.0349 0.03674,-0.11955 0.08006,-0.18805 0.09755,-0.15424 0.211988,-0.0578 0.143424,0.1209 -0.05064,0.13196 -0.225885,0.18461 -0.223487,0.0671 z m 2.019411,-4.14179 c -0.143214,-0.35392 -0.127067,-0.77264 0.03609,-0.93579 0.225295,-0.2253 0.325848,-0.032 0.297071,0.57096 -0.02828,0.59267 -0.175659,0.75406 -0.333159,0.36483 z M 8.0337859,103.5529 c -0.1128335,-0.11284 -0.05545,-0.60621 0.1154396,-0.99254 0.314557,-0.7111 0.4443908,-0.42184 0.1983317,0.44187 -0.1455132,0.51078 -0.2210647,0.64337 -0.3137713,0.55067 z m 49.2816421,-1.09404 c -0.03492,-0.0355 -0.0635,-0.161 -0.0635,-0.27897 0,-0.15416 0.02583,-0.18866 0.09184,-0.12266 0.05051,0.0505 0.07908,0.17605 0.0635,0.27898 -0.01558,0.10292 -0.05691,0.15811 -0.09184,0.12265 z M 9.5382922,98.337433 c 0.031962,-0.104775 0.1055581,-0.361905 0.1635489,-0.571401 0.1035261,-0.373997 0.3144409,-0.533614 0.4827319,-0.365323 0.11374,0.113739 -0.0804,0.70001 -0.3067599,0.926371 -0.2582824,0.258283 -0.4166235,0.263111 -0.3395209,0.01035 z M 35.027783,84.810552 c 0.02925,-0.04733 0.08865,-0.06413 0.131997,-0.03734 0.117436,0.07258 0.09554,0.123384 -0.05318,0.123384 -0.0726,0 -0.108065,-0.03872 -0.07882,-0.08605 z"
           id="path1849" /><path
           style="fill:#a7002f;stroke-width:0.0846667"
           d="m 7.8065973,159.26117 c -9.4118907,-0.7258 -16.8107622,-7.66176 -18.5172583,-17.35873 -0.175666,-0.9982 -0.282931,-48.680709 -0.113776,-50.576533 0.8997999,-10.084565 8.6713528,-17.807428 18.7409037,-18.62349 2.1193803,-0.17176 49.4458443,-0.06709 50.4613033,0.111599 9.309239,1.638171 15.682006,8.037024 17.219104,17.289584 0.147388,0.887211 0.15472,2.112602 0.15472,25.86567 0,23.75306 -0.0074,24.97845 -0.15472,25.86566 -1.526582,9.18926 -7.82647,15.57135 -17.030488,17.25271 -0.92474,0.16894 -48.7014067,0.33225 -50.7597887,0.17353 z M 35.869269,145.94826 c 0.06115,-0.0989 -0.494233,-0.23526 -1.754713,-0.43067 -0.548371,-0.085 -1.174283,-0.21497 -1.390916,-0.28879 -0.216631,-0.0738 -0.448006,-0.1342 -0.514164,-0.1342 -0.06616,0 -0.240347,-0.0534 -0.387084,-0.11864 -0.146738,-0.0652 -0.398463,-0.16125 -0.559388,-0.21333 -0.511967,-0.16571 -1.395458,-0.83279 -2.198478,-1.65995 -0.792297,-0.81612 -0.956747,-0.93466 -0.877795,-0.63275 0.08215,0.31416 -0.808379,0.0105 -1.584135,-0.54012 -0.539375,-0.38286 -1.152734,-0.72988 -1.290061,-0.72988 -0.327128,0 -0.443748,-0.21817 -0.248977,-0.46578 0.251031,-0.31913 0.246426,-0.3297 -0.270937,-0.62168 -0.550324,-0.31059 -1.438651,-1.11735 -1.71859,-1.56081 -0.195193,-0.3092 -0.221938,-0.32229 -0.621589,-0.30405 -0.29704,0.0135 -0.464205,-0.0231 -0.578966,-0.12696 -0.384821,-0.34826 -1.311192,-1.87162 -1.482961,-2.43865 -0.0274,-0.0904 -0.101257,-0.12633 -0.204427,-0.0993 -0.160428,0.0419 -0.340183,-0.1252 -0.737825,-0.68608 -0.09313,-0.13137 -0.29446,-0.40719 -0.447394,-0.61294 -1.112221,-1.49631 -1.487541,-2.15266 -1.416336,-2.47686 0.04819,-0.21941 0.0047,-0.30537 -0.332392,-0.65717 -0.474166,-0.49483 -0.522528,-0.6311 -0.336029,-0.94682 0.145617,-0.24651 0.145617,-0.24651 -0.277999,-0.86885 -0.455974,-0.66987 -1.042183,-1.82261 -1.042183,-2.04938 0,-0.17578 0.115819,-0.17878 0.258633,-0.007 0.102849,0.12392 0.522316,0.37542 0.626163,0.37542 0.304124,0 -0.779214,-2.02708 -1.352209,-2.53018 -0.293561,-0.25775 -0.378443,-0.29129 -0.980387,-0.3874 -0.419606,-0.067 -1.261533,-1.21079 -1.261533,-1.71385 0,-0.0486 -0.0809,-0.27127 -0.179781,-0.49481 -0.171674,-0.3881 -0.17296,-0.41141 -0.0285,-0.51704 0.142287,-0.10404 0.13263,-0.14622 -0.162451,-0.70951 -0.313732,-0.5989 -0.313732,-0.5989 -0.256933,-1.42358 0.05546,-0.8052 0.05068,-0.8366 -0.202027,-1.32899 -0.572176,-1.11486 -0.630411,-6.03768 -0.104119,-8.80164 0.04433,-0.23284 0.120208,-0.91153 0.168609,-1.50822 0.09247,-1.13999 0.129664,-1.25924 0.810266,-2.59812 0.153866,-0.30268 0.494498,-0.98848 0.756961,-1.524 0.262463,-0.53551 0.532442,-1.08181 0.599954,-1.21399 0.131154,-0.25679 0.09984,-0.39467 -0.08964,-0.39467 -0.343294,0 -0.240906,-0.25222 0.49301,-1.21444 2.291411,-3.00422 5.643302,-5.804729 7.131432,-5.958318 0.36762,-0.03794 0.478044,-0.08974 0.630256,-0.295613 0.223878,-0.302809 0.175307,-0.384062 -0.115629,-0.193434 -0.311002,0.203777 -0.452575,0.07547 -0.207937,-0.188445 0.829192,-0.894539 1.971248,-1.559918 2.948534,-1.71786 1.448967,-0.234172 1.791646,-0.315582 1.928849,-0.458237 0.156945,-0.163182 0.07539,-0.163302 -0.722349,-0.0011 -0.461759,0.09391 -0.35363,-0.177398 0.118036,-0.296165 0.422079,-0.106281 1.800999,-0.760672 2.584307,-1.22643 0.910263,-0.541246 2.410681,-0.891468 3.312336,-0.773154 0.240531,0.03156 0.73633,-0.0031 1.218637,-0.0853 1.466035,-0.249731 5.093196,-0.0133 6.554918,0.427274 1.412091,0.425615 2.169265,0.676484 2.319599,0.768534 0.09313,0.05703 0.264583,0.132046 0.381,0.16671 0.116416,0.03467 0.414127,0.181507 0.66158,0.326317 0.247452,0.144808 0.515587,0.301389 0.595855,0.347956 0.37777,0.219158 1.093865,0.723173 1.300382,0.915258 0.126216,0.117396 0.315268,0.273534 0.420116,0.346972 0.390433,0.273469 1.886062,1.811458 2.477598,2.54777 2.004666,2.495294 3.233552,5.096585 3.5598,7.535335 0.07475,0.5588 0.195988,1.13714 0.269406,1.28519 0.137429,0.27713 0.121101,5.32445 -0.01947,6.01731 -0.04565,0.22502 -0.02941,0.27517 0.0891,0.27517 0.248214,0 0.07989,1.03662 -0.378066,2.32833 -0.351681,0.99195 -0.479141,1.19438 -0.924649,1.4685 -0.591654,0.36405 -0.712313,0.58185 -0.726633,1.31166 -0.01551,0.79034 -0.01619,0.79136 -1.33083,1.97503 -2.078041,1.87102 -3.394528,2.75009 -3.145103,2.1001 0.08815,-0.22972 -0.09423,-0.12342 -0.605423,0.35288 -0.667392,0.62184 -2.008897,1.2397 -2.381331,1.09679 -0.06595,-0.0253 -0.281036,0.0272 -0.477959,0.11675 -3.652412,1.6604 -9.176938,-0.57942 -11.703376,-4.74493 -0.735021,-1.21188 -1.324362,-2.97361 -1.453278,-4.34433 -0.04533,-0.48202 -0.08357,-0.5904 -0.220928,-0.62632 -0.500703,-0.13094 0.06389,-3.21838 0.902163,-4.93342 2.115187,-4.3275 7.999088,-6.26412 12.079387,-3.97578 0.253727,0.1423 0.585147,0.31549 0.736489,0.38487 0.151342,0.0694 0.275167,0.16373 0.275167,0.20967 0,0.0459 0.06537,0.0835 0.145274,0.0835 0.09901,0 -0.0021,-0.14923 -0.3175,-0.4686 -1.055887,-1.06918 -2.653295,-1.89049 -4.506822,-2.3172 -1.322784,-0.30453 -3.841118,0.093 -5.17635,0.81702 -1.42701,0.77383 -3.175305,2.39575 -3.184463,2.95428 -6.77e-4,0.0401 -0.215344,0.28238 -0.477083,0.5385 -0.514364,0.50332 -1.142604,1.67465 -1.430436,2.667 -0.08104,0.2794 -0.281156,0.75565 -0.444703,1.05833 -0.322204,0.59632 -0.496472,3.31199 -0.287957,4.48734 0.273777,1.54321 0.5826,2.52307 1.067376,3.38666 0.11763,0.20955 0.276937,0.49295 0.354014,0.62977 0.477389,0.84741 1.89197,2.41405 3.095701,3.42847 0.342072,0.28828 0.789244,0.66468 0.993716,0.83645 0.204471,0.17177 0.495435,0.39648 0.646585,0.49936 0.151151,0.10287 0.345807,0.28439 0.432567,0.40337 0.172153,0.23609 0.946109,0.54077 1.942168,0.76457 0.322436,0.0724 0.814846,0.18488 1.094246,0.24986 2.389956,0.55584 5.99121,0.27764 8.170333,-0.63116 0.34925,-0.14566 0.76835,-0.31523 0.931334,-0.37682 1.187138,-0.44866 3.046967,-1.76559 4.560081,-3.22898 1.117377,-1.08065 1.250177,-1.16887 1.3026,-0.86534 0.06294,0.36444 0.235567,-0.22691 0.18419,-0.63097 -0.09825,-0.77273 0.792371,-1.92785 1.093448,-1.41817 0.182745,0.30936 0.284066,0.26945 0.361317,-0.14233 0.03164,-0.16866 0.109081,-0.40545 0.172091,-0.5262 0.06301,-0.12075 0.114797,-0.25572 0.115084,-0.29995 2.54e-4,-0.0442 0.206331,-0.50142 0.457876,-1.016 0.767008,-1.56904 0.897312,-2.00196 0.897312,-2.98119 0,-0.38461 0.03001,-0.46783 0.211667,-0.58685 0.155551,-0.10192 0.211666,-0.21335 0.211666,-0.42029 0,-0.3925 0.136513,-0.43592 0.253743,-0.0807 0.145275,0.44019 0.22366,0.36429 0.283383,-0.27438 0.05999,-0.64153 0.201202,-1.1969 0.479001,-1.88384 0.317614,-0.78539 0.319882,-0.93133 0.01448,-0.93133 -0.408017,0 -0.673743,-1.25239 -0.403141,-1.90003 0.132751,-0.31772 0.108747,-0.43122 -0.171153,-0.8093 -0.07792,-0.10526 -0.540979,-1.45045 -0.540979,-1.57157 0,-0.15174 0.269742,0.0179 0.412115,0.25923 0.369477,0.62622 0.431237,0.21471 0.130204,-0.86757 -0.06796,-0.24433 -0.156708,-0.70821 -0.19722,-1.03084 -0.08989,-0.71593 -0.290503,-1.03989 -0.604241,-0.9758 -0.319581,0.0653 -0.481257,-0.17168 -0.603501,-0.884554 -0.121931,-0.711046 -0.02003,-0.892404 0.448754,-0.798648 0.150907,0.03018 0.319059,-0.0016 0.444963,-0.08409 0.287127,-0.188133 1.492926,1.681492 1.492926,2.314832 0,0.0819 0.07493,0.23886 0.166516,0.34879 0.230298,0.27644 0.240644,-0.0122 0.01564,-0.43637 -0.253502,-0.47796 -0.333814,-2.322015 -0.09845,-2.260465 0.224659,0.05875 0.216454,-0.02909 -0.07344,-0.786283 -1.283691,-3.352915 -4.050398,-6.70939 -7.456116,-9.045507 -0.940193,-0.644915 -1.245819,-0.76927 -0.9423,-0.383408 0.363422,0.462016 0.176842,0.488761 -0.439224,0.06296 -0.535675,-0.370237 -1.078631,-0.877707 -1.078631,-1.008136 0,-0.456245 -0.945946,-0.621541 -2.432575,-0.42507 -0.520003,0.06872 -0.540071,0.06363 -1.398396,-0.354625 -1.05386,-0.513541 -1.688196,-0.7623 -2.857695,-1.120661 -0.48895,-0.149826 -0.9652,-0.305072 -1.058333,-0.344992 -0.198293,-0.08499 -1.343538,-0.419228 -1.436474,-0.419228 -0.03495,0 -0.03873,0.09887 -0.0084,0.219722 0.05481,0.21839 0.05294,0.219289 -0.308322,0.148167 -0.523426,-0.103047 -1.75366,-0.0799 -2.092358,0.03937 -0.769843,0.271093 -2.142107,0.191785 -1.742133,-0.100683 0.165356,-0.120911 0.164479,-0.124312 -0.04275,-0.165781 -0.922848,-0.184679 -1.433686,-0.22756 -1.78106,-0.149508 -0.518939,0.116603 -0.576378,0.004 -0.121166,-0.237448 0.713334,-0.378423 0.307747,-0.463028 -0.849338,-0.177173 -0.721705,0.178296 -1.43991,0.220726 -1.520799,0.08984 -0.04876,-0.0789 -0.635274,0.09337 -1.230867,0.36153 -0.162984,0.07338 -0.753533,0.32805 -1.312333,0.56593 -3.028043,1.289031 -5.124119,2.44193 -6.48875,3.568987 -0.439904,0.363319 -0.481018,0.376592 -0.613916,0.198188 -0.07812,-0.104863 -0.301459,0.06318 -1.321667,0.994443 -2.559676,2.336506 -3.425305,3.285452 -3.983885,4.367332 -0.104289,0.201991 -0.243443,0.387911 -0.309232,0.413156 -0.111979,0.04297 -1.040887,1.807885 -1.040887,1.977669 0,0.04279 -0.1143,0.319717 -0.254,0.615393 -0.1397,0.295676 -0.254,0.56652 -0.254,0.601876 0,0.174757 -0.54656,0.720693 -0.838439,0.83748 -0.275106,0.110075 -0.368899,0.215184 -0.556047,0.623124 -0.123817,0.269891 -0.27862,0.605011 -0.344006,0.744711 -0.06539,0.1397 -0.236615,0.53975 -0.380507,0.889 -0.143891,0.34925 -0.297462,0.7112 -0.341268,0.80433 -0.043807,0.0931 -0.1504018,0.37889 -0.2368787,0.635 -0.086477,0.25612 -0.2624836,0.74956 -0.3911269,1.09653 -0.4506485,1.2155 -0.9849959,3.13996 -0.9055811,3.26148 0.03127,0.0478 0.08232,2.69684 0.1134474,5.88666 0.03217,3.29676 0.093326,5.98236 0.1417074,6.223 0.046813,0.23283 0.161594,0.88053 0.2550685,1.43933 0.093475,0.5588 0.2716953,1.397 0.3960453,1.86267 0.1243499,0.46566 0.2979555,1.11763 0.3857904,1.4488 0.087834,0.33117 0.2170861,0.71217 0.2872247,0.84667 0.07014,0.13449 0.127761,0.2914 0.128048,0.34868 6.78e-4,0.14199 0.491268,1.40786 0.993165,2.56285 0.332852,0.76597 1.47207,2.99046 1.642686,3.20758 0.08727,0.11106 0.158671,0.2337 0.158671,0.27255 0,0.18364 2.072262,3.20796 2.63107,3.83986 0.166505,0.18829 0.357005,0.42268 0.423333,0.52088 0.459943,0.68093 3.438542,3.72272 4.30218,4.39346 0.239836,0.18627 0.680765,0.5343 0.979842,0.77341 0.511691,0.40909 1.302263,0.96741 2.105507,1.48696 0.642422,0.41553 2.458749,1.40855 3.147067,1.72056 0.372533,0.16887 0.791633,0.36118 0.931333,0.42736 0.1397,0.0662 0.46355,0.19139 0.719667,0.27825 0.256117,0.0869 0.808567,0.27449 1.227666,0.41695 1.867557,0.6348 6.197091,1.16525 6.43034,0.78784 z m 5.105493,-20.53958 c 0.415751,-0.13349 0.129402,-0.18986 -1.263777,-0.24881 -1.530643,-0.0648 -1.742492,-0.0909 -3.033056,-0.37363 -0.988863,-0.21666 -1.562287,-0.48707 -2.317403,-1.09282 -0.395313,-0.31711 -0.667104,-0.47184 -0.84813,-0.48283 -0.146517,-0.009 -0.437186,-0.1243 -0.645931,-0.25645 -0.208744,-0.13215 -0.531936,-0.33781 -0.718202,-0.45702 -0.186267,-0.11921 -0.61704,-0.4408 -0.957273,-0.71464 -0.72872,-0.58652 -0.841189,-0.57612 -0.359517,0.0332 0.695645,0.88006 0.08538,0.49455 -0.884544,-0.55878 -1.452812,-1.57773 -1.642366,-1.76853 -1.69985,-1.71105 -0.178811,0.17881 1.031452,1.55513 2.262902,2.57339 1.808106,1.49508 3.35946,2.2894 6.092297,3.11936 0.90405,0.27456 3.707418,0.38358 4.372484,0.17004 z m -12.723191,-4.45046 c -0.04599,-0.14489 -0.650618,-1.19457 -0.971715,-1.68696 -0.04555,-0.0699 -0.158875,-0.26729 -0.25183,-0.43875 -0.203662,-0.37568 -0.333891,-0.4692 -0.435738,-0.31293 -0.134035,0.20567 0.0065,0.50706 0.663244,1.42263 0.769294,1.07244 1.131076,1.44147 0.996039,1.01601 z m -0.08062,-2.95057 c -0.06139,-0.19343 -0.213692,-0.24022 -0.213692,-0.0657 0,0.12051 0.179499,0.33132 0.234919,0.2759 0.019,-0.019 0.0094,-0.11361 -0.02123,-0.21025 z m 11.709067,-0.90198 c 0.503813,-0.43125 0.487044,-0.43864 -0.894926,-0.39474 -1.604453,0.051 -1.768043,0.26998 -0.422019,0.56498 0.814159,0.17843 0.926574,0.1639 1.316945,-0.17024 z m 3.857568,-2.24293 c 0.08443,-0.14293 0.129238,-0.28413 0.09958,-0.31379 -0.07662,-0.0766 -0.639907,0.24134 -0.639907,0.3612 0,0.30708 0.349013,0.27646 0.540328,-0.0474 z m -0.794328,-0.21081 c 0,-0.0726 -0.03872,-0.10806 -0.08605,-0.0788 -0.04733,0.0292 -0.06413,0.0887 -0.03734,0.132 0.07258,0.11743 0.123384,0.0955 0.123384,-0.0532 z m 0.08467,-0.249 c 0,-0.0233 -0.01905,-0.0423 -0.04233,-0.0423 -0.02328,0 -0.04233,0.019 -0.04233,0.0423 0,0.0233 0.01905,0.0423 0.04233,0.0423 0.02328,0 0.04233,-0.019 0.04233,-0.0423 z m 1.100666,-0.22166 c 0,-0.0466 -0.0381,-0.0611 -0.08467,-0.0323 -0.04657,0.0288 -0.08467,0.0904 -0.08467,0.13699 0,0.0466 0.0381,0.0611 0.08467,0.0323 0.04657,-0.0288 0.08467,-0.0904 0.08467,-0.137 z m -0.791216,-0.20532 c 0.06856,-0.17868 -0.04588,-0.27514 -0.143424,-0.1209 -0.10365,0.16389 -0.101571,0.25155 0.006,0.25155 0.04803,0 0.109885,-0.0588 0.137459,-0.13065 z m 2.129083,-4.43947 c 0.02878,-0.603 -0.07178,-0.79626 -0.297071,-0.57096 -0.163155,0.16315 -0.179302,0.58187 -0.03609,0.93579 0.1575,0.38923 0.304874,0.22784 0.333159,-0.36483 z M 8.3475572,103.00223 c 0.2460591,-0.86371 0.1162253,-1.15297 -0.1983317,-0.44187 -0.1708895,0.38633 -0.2282731,0.8797 -0.1154396,0.99254 0.092707,0.0927 0.1682581,-0.0399 0.3137713,-0.55067 z m 48.9962058,-0.945 c -0.066,-0.066 -0.09184,-0.0315 -0.09184,0.12266 0,0.27917 0.118654,0.39857 0.155335,0.15632 0.01558,-0.10293 -0.01299,-0.22847 -0.0635,-0.27898 z M 9.8778131,98.32708 c 0.2263619,-0.226361 0.4204999,-0.812632 0.3067599,-0.926371 -0.168291,-0.168291 -0.3792058,-0.0087 -0.4827319,0.365323 -0.057991,0.209496 -0.1315872,0.466626 -0.1635489,0.571401 -0.077103,0.252758 0.081238,0.24793 0.3395209,-0.01035 z M 35.238596,84.859264 c 0,-0.08936 -0.162485,-0.126908 -0.210813,-0.04871 -0.02925,0.04733 0.0062,0.08605 0.07882,0.08605 0.0726,0 0.131997,-0.0168 0.131997,-0.03734 z"
           id="path1847" /></g></g></g></svg>
