<?xml version="1.0" encoding="UTF-8" standalone="no"?>
<!-- Created with Inkscape (http://www.inkscape.org/) -->

<svg
   width="86.684441mm"
   height="86.700912mm"
   viewBox="0 0 86.68444 86.700912"
   version="1.1"
   id="svg5"
   xml:space="preserve"
   xmlns="http://www.w3.org/2000/svg"
   xmlns:svg="http://www.w3.org/2000/svg"><defs
     id="defs2" /><g
     id="layer1"
     transform="translate(-73.310433,-117.39875)"><g
       id="g1628"
       transform="translate(57.579698,35.560574)"><g
         id="g1927"
         transform="translate(26.59363,9.1053591)"><path
           style="fill:#fbfbfb;stroke-width:0.0846667"
           d="m 31.727324,145.12997 c -0.06985,-0.0473 -0.286,-0.0866 -0.480333,-0.0873 -0.712398,-0.003 -1.741442,-0.67673 -1.881092,-1.23229 -0.04636,-0.18444 -0.118511,-0.46868 -0.160335,-0.63167 -0.04182,-0.16298 -0.139237,-0.41826 -0.216475,-0.56729 -0.07724,-0.14903 -0.140431,-0.31053 -0.140431,-0.35889 0,-0.54222 -1.298245,-1.55323 -2.391834,-1.86265 -0.174625,-0.0494 -0.44403,-0.12793 -0.598678,-0.1745 -0.154648,-0.0466 -0.400504,-0.0847 -0.546349,-0.0847 -0.145845,0 -0.35269,-0.0341 -0.459656,-0.0759 -0.106966,-0.0417 -0.346883,-0.11526 -0.53315,-0.16343 -1.567145,-0.4053 -1.892804,-0.59226 -2.199818,-1.26286 -0.305865,-0.6681 -0.175514,-1.12804 0.523967,-1.8488 0.181225,-0.18674 0.390063,-0.426 0.464084,-0.53168 0.07402,-0.10568 0.319802,-0.39015 0.546176,-0.63216 1.225454,-1.31006 1.290319,-1.67301 0.447718,-2.50522 -0.282814,-0.27932 -0.597139,-0.53202 -0.6985,-0.56156 -0.101362,-0.0295 -0.698643,-0.28534 -1.327293,-0.56846 -0.62865,-0.28311 -1.35255,-0.56173 -1.608667,-0.61914 -0.256117,-0.0574 -0.694267,-0.1893 -0.973667,-0.2931 -1.32482,-0.49216 -2.401435,-0.86606 -2.709333,-0.94092 -0.496207,-0.12065 -1.489882,-0.46176 -1.780125,-0.61109 -0.355347,-0.18281 -1.374317,-0.56173 -1.510592,-0.56173 -0.06267,0 -0.476305,-0.19077 -0.919201,-0.42393 -1.586599,-0.83526 -1.955686,-1.4172 -1.285588,-2.02697 0.388574,-0.3536 1.262822,-0.93563 1.406225,-0.9362 0.557523,-0.002 3.658836,-1.83449 3.8413,-2.26945 0.308067,-0.73438 -0.237257,-1.10175 -2.546019,-1.71516 -0.1397,-0.0371 -0.42545,-0.11331 -0.635,-0.16933 -0.532093,-0.14224 -0.82927,-0.2211 -1.27,-0.33704 -0.20955,-0.0551 -0.47625,-0.13211 -0.592666,-0.17109 -0.116417,-0.039 -0.440267,-0.0951 -0.719667,-0.12474 -0.2794,-0.0296 -0.6223,-0.086 -0.762,-0.12524 -0.1396998,-0.0393 -0.4254498,-0.11755 -0.6349998,-0.17398 -0.6665535,-0.17952 -1.38494,-0.42877 -2.8786665,-0.9988 -0.4887239,-0.18651 -1.6710997,-0.9785 -1.7856216,-1.19607 -0.8463982,-1.60799 -0.6524413,-2.90347 0.7388572,-4.935 0.249754,-0.36468 0.4542807,-0.68936 0.4545034,-0.72152 2.54e-4,-0.0322 0.2288226,-0.27827 0.5079999,-0.54689 0.2791773,-0.26864 0.5075944,-0.53064 0.5075944,-0.58223 0,-0.0516 1.4395611,-1.52725 3.199024,-3.27925 1.759463,-1.75199 3.284509,-3.30709 3.388991,-3.45577 0.104482,-0.14869 1.629103,-1.71079 3.388048,-3.47134 1.758945,-1.760546 3.277918,-3.315296 3.375496,-3.454996 0.09758,-0.1397 1.648245,-1.725617 3.445927,-3.524261 1.797682,-1.798645 3.268513,-3.307056 3.268513,-3.352027 0,-0.120634 0.673,-0.786045 0.795011,-0.786045 0.05755,0 0.216545,-0.117239 0.353315,-0.260532 0.341292,-0.357566 1.361267,-0.981555 1.772674,-1.084468 0.186266,-0.04659 0.491066,-0.131926 0.677333,-0.189627 0.414788,-0.12849 3.035572,-0.197533 3.33811,-0.08794 0.119839,0.04341 0.38934,0.124565 0.59889,0.18034 1.003193,0.267019 2.408385,1.143972 3.048,1.9022 0.116416,0.138004 0.341421,0.367193 0.500011,0.509307 0.15859,0.142113 0.40624,0.389223 0.550333,0.549131 0.144094,0.159908 0.429261,0.445658 0.633704,0.635 0.204443,0.189341 0.490193,0.474012 0.635,0.632601 0.144807,0.15859 0.39304,0.40624 0.551629,0.550333 0.15859,0.144095 0.40624,0.391681 0.550333,0.550193 0.330367,0.363422 0.541697,0.574752 0.905119,0.905119 0.158512,0.144093 0.406099,0.391743 0.550193,0.550333 0.144093,0.158589 0.391743,0.404953 0.550333,0.547476 0.158589,0.142522 0.478629,0.485422 0.711198,0.762 0.232569,0.276577 1.827754,1.912568 3.544856,3.635533 1.717101,1.72297 3.259517,3.30412 3.42759,3.51367 0.168072,0.20955 1.801862,1.88094 3.630643,3.7142 1.828782,1.83326 3.325057,3.3717 3.325057,3.41877 0,0.0471 0.530882,0.61328 1.179737,1.25827 0.648856,0.645 1.286814,1.31635 1.417685,1.4919 0.130871,0.17556 0.260492,0.33824 0.288045,0.36152 0.130962,0.11067 0.670532,1.03446 0.670532,1.14802 0,0.0708 0.0762,0.27809 0.169334,0.46065 0.09313,0.18256 0.169333,0.4269 0.169333,0.54298 0,0.11608 0.0442,0.30807 0.09824,0.42665 0.09923,0.21778 0.09024,0.27331 -0.199207,1.2317 -0.200765,0.66475 -0.531749,1.19067 -1.075083,1.70828 -0.785842,0.74862 -1.015985,0.91186 -2.083611,1.47795 -0.232834,0.12346 -0.537634,0.31134 -0.677334,0.41753 -0.1397,0.10618 -0.3683,0.21753 -0.508,0.24744 -0.221828,0.0475 -0.67546,0.24493 -1.608666,0.70014 -0.1397,0.0681 -0.76835,0.29343 -1.397,0.50063 -0.62865,0.20721 -1.35255,0.46519 -1.608667,0.57328 -0.256116,0.1081 -0.732366,0.27562 -1.058333,0.37227 -1.335579,0.396 -1.73727,0.52582 -2.667,0.86193 -0.535517,0.19359 -1.087966,0.38348 -1.227666,0.42196 -0.425671,0.11725 -1.889555,0.7132 -2.634675,1.07257 -1.395409,0.67301 -0.974258,1.71004 1.103133,2.71631 0.330114,0.1599 0.719035,0.38058 0.864267,0.49039 0.145233,0.10982 0.471897,0.29807 0.725921,0.41834 0.866428,0.41024 1.67702,1.31332 1.67702,1.86838 0,1.19324 -1.787687,3.1706 -2.866468,3.1706 -0.08847,0 -0.30838,0.0629 -0.488692,0.13978 -0.180311,0.0769 -0.48024,0.17421 -0.666506,0.2163 -0.186267,0.0421 -0.491067,0.11045 -0.677334,0.15192 -1.084481,0.24147 -1.933829,0.47977 -2.201333,0.61763 -0.1397,0.072 -0.424291,0.2006 -0.632424,0.2858 -0.208134,0.0852 -0.474834,0.23488 -0.592667,0.33264 -0.117833,0.0977 -0.413423,0.28825 -0.656866,0.42333 -0.587366,0.32592 -1.768962,1.41713 -1.977828,1.82654 -0.260082,0.50981 0.09847,0.92822 1.297564,1.51418 1.242359,0.60711 1.359779,0.96871 0.554806,1.70856 -0.592247,0.54433 -3.215938,1.91735 -4.003918,2.09532 -0.551363,0.12453 -0.937277,0.2216 -1.354666,0.34076 -0.551197,0.15735 -1.063375,0.26116 -1.693334,0.34322 -1.181687,0.15391 -1.441561,0.16772 -1.566333,0.0833 z m 1.625077,-17.79891 c 1.102272,-0.6993 1.082189,-1.27323 -0.05036,-1.43912 -0.461114,-0.0675 -1.017402,-0.17377 -1.701719,-0.32496 -0.232833,-0.0515 -0.766233,-0.14667 -1.185333,-0.21161 -0.4191,-0.0649 -0.942975,-0.15796 -1.164167,-0.20669 -0.221191,-0.0487 -0.583141,-0.12846 -0.804333,-0.17717 -0.221192,-0.0487 -0.573617,-0.12173 -0.783167,-0.16227 -0.20955,-0.0405 -0.5334,-0.11817 -0.719666,-0.17251 -0.393031,-0.11464 -0.878127,-0.21249 -1.651,-0.33301 -0.302684,-0.0472 -0.693209,-0.12493 -0.867834,-0.17274 -0.174625,-0.0478 -0.479425,-0.13051 -0.677333,-0.18379 -0.197908,-0.0533 -0.593608,-0.17333 -0.879333,-0.26677 -0.56706,-0.18544 -0.792833,-0.1562 -0.792833,0.10268 0,0.30964 1.679868,1.29358 2.833798,1.65982 0.344833,0.10944 0.721223,0.26074 0.836421,0.33622 0.333854,0.21875 1.474514,0.62175 2.637447,0.93181 0.2794,0.0745 0.67945,0.19512 0.889,0.26807 0.20955,0.0729 0.51435,0.16379 0.677333,0.20187 0.162983,0.0381 0.448733,0.11333 0.635,0.16721 0.186267,0.0539 0.53738,0.12495 0.780252,0.15794 0.242872,0.033 0.468297,0.0867 0.500944,0.11933 0.198293,0.1983 0.942655,0.051 1.486881,-0.29431 z m -2.234706,-20.93175 c 0.125746,-0.0653 0.381029,-0.24174 0.567296,-0.39205 0.186266,-0.15031 0.472016,-0.33538 0.635,-0.41126 0.162983,-0.0759 0.740686,-0.43286 1.283786,-0.79328 0.543098,-0.36043 1.009088,-0.65532 1.035532,-0.65532 0.02645,0 0.329296,-0.18892 0.673003,-0.41981 1.04076,-0.69917 0.835734,-0.70989 2.515627,0.13157 0.812378,0.40692 1.584762,0.81438 1.716407,0.90546 0.322535,0.22315 0.366206,0.15007 0.470032,-0.78655 0.08341,-0.75244 0.124261,-1.01417 0.353519,-2.26484 0.04908,-0.26775 0.109725,-0.66506 0.134761,-0.8829 0.0746,-0.64913 0.293733,-0.7698 0.691893,-0.381 0.175402,0.17127 0.35693,0.3114 0.403398,0.3114 0.04647,0 0.254411,0.15458 0.462096,0.3435 0.207687,0.18892 0.545339,0.46514 0.750339,0.61383 0.205,0.14869 0.503018,0.3931 0.662263,0.54314 1.189327,1.12056 1.63201,1.10812 1.63201,-0.0459 0,-0.99115 -0.215967,-1.42624 -1.164167,-2.345372 -0.291042,-0.282119 -0.529167,-0.553685 -0.529167,-0.603479 0,-0.04979 -1.781174,-1.873718 -3.958166,-4.053165 -4.695191,-4.700485 -4.718005,-4.716842 -6.750657,-4.839812 -0.371702,-0.02249 -0.819377,4.23e-4 -0.994833,0.05084 -0.175456,0.05045 -0.480935,0.136593 -0.678843,0.191424 -0.197908,0.05483 -0.58095,0.226281 -0.851203,0.381 -0.270253,0.154718 -0.513407,0.281307 -0.540342,0.281307 -0.0812,0 -7.561954,7.511019 -7.561954,7.592552 0,0.04155 -0.317454,0.398099 -0.705452,0.79233 -1.513022,1.537325 -1.865857,2.393565 -1.525234,3.701335 0.217785,0.83616 0.4088,0.88102 3.618845,0.84995 2.833732,-0.0274 2.586753,0.0921 3.517591,-1.7021 0.188784,-0.36387 0.433379,-0.78297 0.543545,-0.93133 0.110167,-0.14836 0.419085,-0.68133 0.686485,-1.18439 0.525701,-0.988983 0.711478,-1.117188 0.820328,-0.566102 0.03209,0.162481 0.102011,0.447812 0.155371,0.634082 0.05336,0.18627 0.149052,0.60537 0.212646,0.93133 0.122134,0.62603 0.223073,1.05273 0.380541,1.60867 0.05276,0.18627 0.128959,0.47202 0.169333,0.63501 0.04037,0.16298 0.116574,0.44873 0.169333,0.635 0.165641,0.5848 0.262421,0.99677 0.377903,1.60867 0.06152,0.32596 0.115959,0.60219 0.120975,0.61383 0.02595,0.0602 0.298863,0.007 0.50016,-0.0976 z m -13.556184,32.06805 c -0.03009,-0.0301 -0.255,-0.0864 -0.499808,-0.12506 -0.500295,-0.0791 -1.300208,-0.80904 -1.558545,-1.42224 -0.368336,-0.8743 0.683909,-1.9038 2.4235,-2.37112 0.20955,-0.0563 0.498005,-0.13787 0.641011,-0.18128 1.01039,-0.30671 2.985647,0.2307 3.212898,0.87414 0.08494,0.24052 -0.962498,1.92528 -1.197113,1.92551 -0.05218,5e-5 -0.242679,0.15498 -0.423333,0.3443 -0.612875,0.64227 -2.293847,1.26052 -2.59861,0.95575 z m 33.469812,-0.91463 c -1.15891,-0.60667 -1.292475,-1.83919 -0.314715,-2.90416 0.680027,-0.74069 3.108715,0.94968 3.108715,2.16367 0,0.82277 -1.750555,1.28672 -2.794,0.74049 z m 3.437508,-4.42671 c -0.03413,-0.0341 -0.297651,-0.0861 -0.585611,-0.11543 -1.948422,-0.19865 -2.304475,-0.94967 -1.051166,-2.21721 0.750184,-0.7587 1.904373,-1.17906 3.236935,-1.17891 2.898144,3.4e-4 5.154244,2.67257 2.790133,3.30477 -0.230707,0.0617 -0.506983,0.14741 -0.61395,0.1905 -0.228932,0.0922 -3.685515,0.1071 -3.776341,0.0163 z"
           id="path1931" /><path
           style="fill:#212121;stroke-width:0.0846667"
           d="M 8.0206587,159.38 C -1.8950284,158.40404 -9.051552,151.73118 -10.671551,141.95107 -10.842054,140.92172 -10.944065,93.284029 -10.77971,91.442042 -9.8797045,81.35532 -2.1105084,73.634799 7.9611947,72.818551 c 2.0604033,-0.166983 49.3461803,-0.06754 50.3937943,0.105982 9.261872,1.534068 15.836391,8.127472 17.287883,17.337535 0.238235,1.511631 0.238235,50.135032 0,51.646662 -1.451754,9.21172 -7.949477,15.74045 -17.245549,17.32784 -0.811692,0.1386 -49.0308751,0.27589 -50.3766643,0.14343 z M 33.293657,145.04671 c 0.629959,-0.0821 1.142137,-0.18587 1.693334,-0.34322 0.417389,-0.11916 0.803303,-0.21623 1.354666,-0.34076 0.78798,-0.17797 3.411671,-1.55099 4.003918,-2.09532 0.804973,-0.73985 0.687553,-1.10145 -0.554806,-1.70856 -1.199092,-0.58596 -1.557646,-1.00437 -1.297564,-1.51418 0.208866,-0.40941 1.390462,-1.50062 1.977828,-1.82654 0.243443,-0.13508 0.539033,-0.32558 0.656866,-0.42333 0.117833,-0.0978 0.384533,-0.24744 0.592667,-0.33264 0.208133,-0.0852 0.492724,-0.21381 0.632424,-0.2858 0.267504,-0.13786 1.116852,-0.37616 2.201333,-0.61763 0.186267,-0.0415 0.491067,-0.10984 0.677334,-0.15192 0.186266,-0.0421 0.486195,-0.13942 0.666506,-0.2163 0.180312,-0.0769 0.400223,-0.13978 0.488692,-0.13978 1.078781,0 2.866468,-1.97736 2.866468,-3.1706 0,-0.55506 -0.810592,-1.45814 -1.67702,-1.86838 -0.254024,-0.12027 -0.580688,-0.30852 -0.725921,-0.41834 -0.145232,-0.10981 -0.534153,-0.33049 -0.864267,-0.49039 -2.077391,-1.00627 -2.498542,-2.0433 -1.103133,-2.71631 0.74512,-0.35937 2.209004,-0.95532 2.634675,-1.07257 0.1397,-0.0385 0.692149,-0.22837 1.227666,-0.42196 0.92973,-0.33611 1.331421,-0.46593 2.667,-0.86193 0.325967,-0.0966 0.802217,-0.26417 1.058333,-0.37227 0.256117,-0.10809 0.980017,-0.36607 1.608667,-0.57328 0.62865,-0.2072 1.2573,-0.43249 1.397,-0.50063 0.933206,-0.45521 1.386838,-0.65264 1.608666,-0.70014 0.1397,-0.0299 0.3683,-0.14126 0.508,-0.24744 0.1397,-0.10619 0.4445,-0.29407 0.677334,-0.41753 1.067626,-0.56609 1.297769,-0.72933 2.083611,-1.47795 0.543334,-0.51761 0.874318,-1.04353 1.075083,-1.70828 0.289451,-0.95839 0.298433,-1.01392 0.199207,-1.2317 -0.05403,-0.11858 -0.09824,-0.31057 -0.09824,-0.42665 0,-0.11608 -0.0762,-0.36042 -0.169333,-0.54298 -0.09313,-0.18256 -0.169334,-0.38985 -0.169334,-0.46065 0,-0.11356 -0.53957,-1.03735 -0.670532,-1.14802 -0.02755,-0.0233 -0.157174,-0.18596 -0.288045,-0.36152 -0.130871,-0.17555 -0.768829,-0.8469 -1.417685,-1.4919 -0.648855,-0.64499 -1.179737,-1.21121 -1.179737,-1.25827 0,-0.0471 -1.496275,-1.58551 -3.325057,-3.41877 -1.828781,-1.83326 -3.462571,-3.50465 -3.630643,-3.7142 -0.168073,-0.20955 -1.710489,-1.7907 -3.42759,-3.51367 -1.717102,-1.722966 -3.312287,-3.358957 -3.544856,-3.635534 -0.232569,-0.276578 -0.552609,-0.619478 -0.711198,-0.762 -0.15859,-0.142523 -0.40624,-0.388887 -0.550333,-0.547476 C 42.301547,95.3608 42.05396,95.11315 41.895448,94.969057 41.532026,94.63869 41.320696,94.42736 40.990329,94.063938 40.846236,93.905426 40.598586,93.65784 40.439996,93.513745 c -0.158589,-0.144093 -0.406822,-0.391743 -0.551629,-0.550333 -0.144807,-0.158589 -0.430557,-0.44326 -0.635,-0.632601 -0.204443,-0.189342 -0.48961,-0.475092 -0.633704,-0.635 -0.144093,-0.159908 -0.391743,-0.407018 -0.550333,-0.549131 -0.15859,-0.142114 -0.383595,-0.371303 -0.500011,-0.509307 -0.639615,-0.758228 -2.044807,-1.635181 -3.048,-1.9022 -0.20955,-0.05577 -0.479051,-0.136928 -0.59889,-0.18034 -0.302538,-0.109592 -2.923322,-0.04055 -3.33811,0.08794 -0.186267,0.0577 -0.491067,0.143033 -0.677333,0.189627 -0.411407,0.102913 -1.431382,0.726902 -1.772674,1.084468 -0.13677,0.143293 -0.295762,0.260532 -0.353315,0.260532 -0.122011,0 -0.795011,0.665411 -0.795011,0.786045 0,0.04497 -1.470831,1.553382 -3.268513,3.352027 -1.797682,1.798644 -3.348348,3.384561 -3.445927,3.524261 -0.09758,0.1397 -1.616551,1.69445 -3.375496,3.454997 -1.758945,1.76055 -3.283566,3.32265 -3.388048,3.47134 -0.104482,0.14868 -1.629528,1.70378 -3.388991,3.45577 -1.7594629,1.752 -3.199024,3.22766 -3.199024,3.27925 0,0.0516 -0.2284171,0.31359 -0.5075944,0.58223 -0.2791773,0.26862 -0.5077773,0.51473 -0.5079999,0.54689 -2.54e-4,0.0322 -0.2047494,0.35684 -0.4545034,0.72152 -1.3912985,2.03153 -1.5852554,3.32701 -0.7388572,4.935 0.1145219,0.21757 1.2968977,1.00956 1.7856216,1.19607 1.4937265,0.57003 2.212113,0.81928 2.8786665,0.9988 0.20955,0.0564 0.4953,0.13472 0.6349998,0.17398 0.1397,0.0392 0.4826,0.0956 0.762,0.12524 0.2794,0.0296 0.60325,0.0858 0.719667,0.12474 0.116416,0.039 0.383116,0.11597 0.592666,0.17109 0.44073,0.11594 0.737907,0.1948 1.27,0.33704 0.20955,0.056 0.4953,0.13222 0.635,0.16933 3.51744,0.93454 3.585125,1.57712 0.338667,3.2152 -0.8382,0.42293 -1.573477,0.76917 -1.633948,0.76941 -0.143403,5.9e-4 -1.017651,0.5826 -1.406225,0.9362 -0.670098,0.60977 -0.301011,1.19171 1.285588,2.02697 0.442896,0.23316 0.856536,0.42393 0.919201,0.42393 0.136275,0 1.155245,0.37892 1.510592,0.56173 0.290243,0.14933 1.283918,0.49044 1.780125,0.61109 0.307898,0.0749 1.384513,0.44876 2.709333,0.94092 0.2794,0.1038 0.71755,0.23569 0.973667,0.2931 0.256117,0.0574 0.980017,0.33603 1.608667,0.61914 0.62865,0.28312 1.225931,0.53893 1.327293,0.56846 0.101361,0.0295 0.415686,0.28224 0.6985,0.56156 0.842601,0.83221 0.777736,1.19516 -0.447718,2.50522 -0.226374,0.24201 -0.472154,0.52648 -0.546176,0.63216 -0.07402,0.10568 -0.282859,0.34494 -0.464084,0.53168 -0.699481,0.72076 -0.829832,1.1807 -0.523967,1.8488 0.307014,0.6706 0.632673,0.85756 2.199818,1.26286 0.186267,0.0482 0.426184,0.12172 0.53315,0.16343 0.106966,0.0417 0.313811,0.0759 0.459656,0.0759 0.145845,0 0.391701,0.0381 0.546349,0.0847 0.154648,0.0466 0.424053,0.12509 0.598678,0.1745 1.093589,0.30942 2.391834,1.32043 2.391834,1.86265 0,0.0484 0.06319,0.20986 0.140431,0.35889 0.07724,0.14903 0.174651,0.40431 0.216475,0.56729 0.04182,0.16299 0.113975,0.44723 0.160335,0.63167 0.13965,0.55556 1.168694,1.22968 1.881092,1.23229 0.194333,6.8e-4 0.410483,0.04 0.480333,0.0873 0.124772,0.0845 0.384646,0.0707 1.566333,-0.0833 z M 31.86552,127.62537 c -0.03265,-0.0326 -0.258072,-0.0864 -0.500944,-0.11933 -0.242872,-0.033 -0.593985,-0.10406 -0.780252,-0.15794 -0.186267,-0.0539 -0.472017,-0.12912 -0.635,-0.16721 -0.162983,-0.0381 -0.467783,-0.12893 -0.677333,-0.20187 -0.20955,-0.073 -0.6096,-0.19358 -0.889,-0.26807 -1.162933,-0.31006 -2.303593,-0.71306 -2.637447,-0.93181 -0.115198,-0.0755 -0.491588,-0.22678 -0.836421,-0.33622 -1.15393,-0.36624 -2.833798,-1.35018 -2.833798,-1.65982 0,-0.25888 0.225773,-0.28812 0.792833,-0.10268 0.285725,0.0934 0.681425,0.21349 0.879333,0.26677 0.197908,0.0533 0.502708,0.13599 0.677333,0.18379 0.174625,0.0478 0.56515,0.12554 0.867834,0.17274 0.772873,0.12052 1.257969,0.21837 1.651,0.33301 0.186266,0.0543 0.510116,0.13196 0.719666,0.17251 0.20955,0.0405 0.561975,0.11357 0.783167,0.16227 0.221192,0.0487 0.583142,0.12843 0.804333,0.17717 0.221192,0.0487 0.745067,0.14174 1.164167,0.20669 0.4191,0.0649 0.9525,0.16016 1.185333,0.21161 0.684317,0.15119 1.240605,0.25742 1.701719,0.32496 1.132547,0.16589 1.15263,0.73982 0.05036,1.43912 -0.544226,0.34527 -1.288588,0.49261 -1.486881,0.29431 z M 30.617535,106.4969 c -0.005,-0.0116 -0.05945,-0.28787 -0.120975,-0.61383 -0.115482,-0.6119 -0.212262,-1.02387 -0.377903,-1.60867 -0.05276,-0.18627 -0.128959,-0.47202 -0.169333,-0.635 -0.04037,-0.16298 -0.116574,-0.44873 -0.169333,-0.635 -0.157468,-0.55594 -0.258407,-0.98264 -0.380541,-1.60867 -0.06359,-0.32596 -0.159285,-0.74506 -0.212646,-0.93133 -0.05336,-0.18627 -0.123277,-0.471606 -0.155371,-0.634087 -0.10885,-0.551086 -0.294627,-0.422881 -0.820328,0.566107 -0.2674,0.50306 -0.576318,1.03603 -0.686485,1.18439 -0.110166,0.14835 -0.354761,0.56745 -0.543545,0.93133 -0.930838,1.79417 -0.683859,1.67467 -3.517591,1.7021 -3.210045,0.0311 -3.40106,-0.0138 -3.618845,-0.84995 -0.340623,-1.30777 0.01221,-2.16401 1.525234,-3.70134 0.387998,-0.394231 0.705452,-0.750779 0.705452,-0.79233 0,-0.08153 7.48075,-7.592552 7.561954,-7.592552 0.02694,0 0.270089,-0.126589 0.540342,-0.281307 0.270253,-0.154719 0.653295,-0.326169 0.851203,-0.381 0.197908,-0.05483 0.503387,-0.140972 0.678843,-0.191424 0.175456,-0.05045 0.623131,-0.07333 0.994833,-0.05084 2.032652,0.12297 2.055466,0.139327 6.750657,4.839812 2.176992,2.179447 3.958166,4.003371 3.958166,4.053165 0,0.04979 0.238125,0.32136 0.529167,0.603479 0.9482,0.919127 1.164167,1.354217 1.164167,2.345367 0,1.154 -0.442683,1.16644 -1.63201,0.0459 -0.159245,-0.15004 -0.457263,-0.39445 -0.662263,-0.54314 -0.205,-0.14869 -0.542652,-0.42491 -0.750339,-0.61383 -0.207685,-0.18891 -0.415629,-0.3435 -0.462096,-0.3435 -0.04647,0 -0.227996,-0.14013 -0.403398,-0.3114 -0.39816,-0.3888 -0.617289,-0.26813 -0.691893,0.381 -0.02504,0.21784 -0.08568,0.61515 -0.134761,0.8829 -0.229258,1.25067 -0.270111,1.5124 -0.353519,2.26484 -0.103826,0.93663 -0.147497,1.0097 -0.470032,0.78656 -0.131645,-0.0911 -0.904029,-0.49855 -1.716407,-0.90547 -1.679893,-0.84145 -1.474867,-0.83074 -2.515627,-0.13156 -0.343707,0.23089 -0.646558,0.4198 -0.673003,0.4198 -0.02644,0 -0.492434,0.29489 -1.035532,0.65533 -0.5431,0.36042 -1.120803,0.71738 -1.283786,0.79327 -0.162984,0.0759 -0.448734,0.26095 -0.635,0.41126 -0.483244,0.38998 -1.006896,0.63018 -1.067456,0.48964 z m -11.922217,31.86287 c 0.702605,-0.23522 1.098855,-0.46466 1.464803,-0.84816 0.180654,-0.18932 0.371154,-0.34425 0.423333,-0.3443 0.234615,-2.6e-4 1.282057,-1.68499 1.197113,-1.92551 -0.227251,-0.64344 -2.202508,-1.18085 -3.212898,-0.87414 -0.143006,0.0434 -0.431461,0.12499 -0.641011,0.18128 -1.739591,0.46732 -2.791836,1.49682 -2.4235,2.37112 0.258337,0.6132 1.05825,1.34315 1.558545,1.42224 0.244808,0.0387 0.469722,0.095 0.499808,0.12506 0.103363,0.10337 0.662055,0.0503 1.133807,-0.10759 z m 34.477211,-0.7789 c 0.70138,-0.3526 0.836532,-0.74137 0.490748,-1.41168 -0.569224,-1.10344 -2.442264,-2.07002 -2.946669,-1.52062 -1.586577,1.7281 0.320919,4.0056 2.455921,2.9323 z m 5.072643,-4.47113 c 0.106967,-0.0431 0.383243,-0.12881 0.61395,-0.1905 0.96743,-0.25871 1.221448,-0.77868 0.756825,-1.54923 -1.470729,-2.4391 -6.1142,-2.3096 -7.397726,0.20632 -0.40151,0.78703 0.173293,1.28217 1.664999,1.43426 0.28796,0.0294 0.551485,0.0813 0.585611,0.11543 0.09083,0.0908 3.547409,0.0759 3.776341,-0.0163 z"
           id="path1929" /></g></g></g></svg>
