<?xml version="1.0" encoding="UTF-8" standalone="no"?>
<!-- Created with Inkscape (http://www.inkscape.org/) -->

<svg
   width="86.696091mm"
   height="86.684036mm"
   viewBox="0 0 86.69609 86.684035"
   version="1.1"
   id="svg5"
   xml:space="preserve"
   xmlns="http://www.w3.org/2000/svg"
   xmlns:svg="http://www.w3.org/2000/svg"><defs
     id="defs2" /><g
     id="layer1"
     transform="translate(-69.75092,-147.63241)"><g
       id="g1628"
       transform="translate(57.579698,35.560574)"><path
         style="fill:#f6fafd;stroke-width:0.0846667"
         d="m 82.319419,187.83198 c -0.02113,-0.0615 -0.05659,-0.39752 -0.07878,-0.74677 -66.282736,-41.28449 -60.196404,-26.62153 -59.106365,-50.5818 11.597686,-5.39412 48.728958,1.38178 11.006666,-7.28658 -0.186267,-0.0302 -0.510117,-0.11413 -0.719667,-0.18645 -0.20955,-0.0723 -0.6096,-0.18152 -0.889,-0.24265 -0.800503,-0.17516 -1.666649,-0.37509 -1.989666,-0.45926 -0.540446,-0.14083 -1.473163,-0.34692 -2.116667,-0.46769 -0.34925,-0.0655 -0.8255,-0.16095 -1.058333,-0.21202 -0.402494,-0.0883 -1.381141,-0.26553 -2.272207,-0.41153 -0.392841,-0.0644 -0.593406,-0.21186 -0.53294,-0.39191 0.03486,-0.10379 1.495607,-0.0752 1.916147,0.0376 0.162983,0.0437 0.658283,0.11797 1.100667,0.16509 0.442383,0.0471 1.013883,0.1248 1.269999,0.17263 0.256117,0.0478 0.808567,0.14278 1.227667,0.21101 59.024136,-5.3722 15.594027,22.2391 2.243667,0.4317 1.391388,0.22772 2.077183,0.36185 2.370666,0.46367 70.205947,-2.73203 54.427803,72.40006 47.628153,59.50549 z"
         id="path1632" /><path
         style="fill:#34a0e1;stroke-width:0.0846667"
         d="m 31.039545,198.67794 c -10.077884,-0.68326 -18.091134,-8.7712 -18.783645,-18.95873 -0.112904,-1.66093 -0.112904,-46.93773 0,-48.59866 0.698947,-10.28221 8.681826,-18.26509 18.964036,-18.96404 1.660934,-0.1129 46.93773,-0.1129 48.598664,0 10.28221,0.69895 18.265088,8.68183 18.964037,18.96404 0.112903,1.66093 0.112903,46.93773 0,48.59866 -0.698949,10.28221 -8.681827,18.26509 -18.964037,18.96404 -1.47254,0.10009 -47.297917,0.0951 -48.779055,-0.005 z m 51.722332,-12.14306 c 0.02859,-1.73831 -0.06708,-2.85017 -0.437068,-5.08 -0.216711,-1.30605 -0.305733,-1.77065 -0.381242,-1.98967 -0.07546,-0.21887 -0.26047,-0.86048 -0.439448,-1.524 -0.05653,-0.20955 -0.188227,-0.59055 -0.292671,-0.84666 -0.104444,-0.25612 -0.274556,-0.67522 -0.378027,-0.93134 -0.646186,-1.59947 -2.213038,-4.22502 -2.823933,-4.73202 -0.07602,-0.0631 -0.138221,-0.15407 -0.138221,-0.20219 0,-0.0481 -0.290136,-0.36926 -0.644746,-0.71366 -0.679888,-0.66032 -0.725422,-0.74776 -0.323313,-0.62082 1.526603,0.48192 3.60968,1.53798 5.159059,2.61548 0.4191,0.29146 0.89535,0.61805 1.058333,0.72576 1.185671,0.78354 3.229311,3.37593 3.64267,4.62079 0.03866,0.11641 0.173548,0.47836 0.29976,0.80433 0.25068,0.64743 0.42217,1.54604 0.55744,2.921 0.09264,0.94165 0.142546,1.07207 0.375931,0.98252 0.162887,-0.0625 0.129832,-2.56722 -0.04128,-3.12781 -0.04494,-0.14724 -0.118834,-0.42011 -0.164202,-0.60638 -0.883483,-3.6273 -2.902918,-6.09256 -7.195635,-8.78416 -0.278502,-0.17463 -0.543,-0.3175 -0.587774,-0.3175 -0.04477,0 -0.180502,-0.078 -0.301618,-0.17322 -0.418591,-0.32926 -3.483879,-1.75775 -4.840293,-2.25568 -0.186266,-0.0684 -0.472016,-0.19277 -0.635,-0.27643 -0.162983,-0.0837 -0.429531,-0.18102 -0.592327,-0.21636 -0.292659,-0.0635 -0.569058,-0.16897 -1.228006,-0.46845 -0.506423,-0.23017 -1.726176,-0.69413 -2.624666,-0.99836 -0.44787,-0.15165 -0.884132,-0.3097 -2.624667,-0.95083 -0.232833,-0.0858 -0.574264,-0.23395 -0.758735,-0.32931 -0.184471,-0.0953 -0.384307,-0.17336 -0.44408,-0.17336 -0.126137,0 -2.70977,-1.31038 -2.901612,-1.47165 -0.0709,-0.0596 -0.317521,-0.21615 -0.548051,-0.34788 -1.210742,-0.69185 -2.850033,-2.19167 -3.74875,-3.42981 -0.953331,-1.31337 -1.4447,-3.60988 -1.050703,-4.91066 0.900007,-2.97139 3.097083,-4.79056 5.980598,-4.95193 1.145861,-0.0641 2.935755,0.13717 4.021666,0.45227 0.162984,0.0473 0.505884,0.14207 0.762,0.2106 0.865867,0.23169 1.992229,0.63204 2.667,0.94795 0.232833,0.109 0.621756,0.27706 0.864272,0.37347 0.524546,0.20852 1.935441,1.04153 3.099316,1.82988 0.27074,0.18338 0.580948,0.39057 0.689351,0.46042 0.312391,0.2013 1.528303,1.29391 1.661174,1.49273 0.0663,0.0992 0.305197,0.42306 0.530873,0.71966 0.452301,0.59446 0.73268,1.1612 0.73268,1.48101 0,0.65741 0.982868,1.567 2.329107,2.15546 1.703259,0.7445 2.83556,1.82176 2.83556,2.69772 0,0.45708 0.208634,0.40809 0.817599,-0.19197 0.577453,-0.569 1.074618,-0.81927 1.627479,-0.81927 0.451159,0 0.374278,-0.15277 -0.521752,-1.03673 -1.16832,-1.15259 -2.427154,-3.01765 -2.430673,-3.60124 -8.98e-4,-0.14948 -1.231156,-2.58943 -1.56761,-3.10903 -0.150765,-0.23284 -0.345652,-0.54206 -0.433081,-0.68716 -1.28155,-2.12693 -3.87766,-4.64859 -6.424295,-6.24004 -0.881941,-0.55115 -1.526277,-0.88763 -3.048,-1.59171 -0.53876,-0.24928 -1.063014,-0.35826 -1.174936,-0.24424 -0.116578,0.11875 0.191779,0.39779 0.529476,0.47913 0.617927,0.14884 3.533989,1.91016 3.907399,2.36009 0.05672,0.0683 0.139212,0.12426 0.183314,0.12426 0.102819,0 0.987111,0.77336 1.936242,1.69333 0.633208,0.61376 1.055801,1.10174 1.723075,1.98967 0.06999,0.0931 0.224118,0.28913 0.342508,0.43556 0.11839,0.14642 0.215255,0.28968 0.215255,0.31836 0,0.0287 0.12646,0.23274 0.281022,0.45345 0.154563,0.22071 0.397632,0.6299 0.540154,0.9093 0.142523,0.2794 0.329673,0.62936 0.415889,0.7777 0.193003,0.33206 0.07927,0.48721 -0.143657,0.19596 -0.08911,-0.11641 -0.209654,-0.26659 -0.267878,-0.33371 -0.05822,-0.0671 -0.315413,-0.39416 -0.57153,-0.72674 -0.256117,-0.33257 -0.665692,-0.8416 -0.910167,-1.13117 -0.244475,-0.28958 -0.4445,-0.56262 -0.4445,-0.60677 0,-0.0442 -0.0381,-0.0803 -0.08467,-0.0803 -0.04657,0 -0.08467,0.21272 -0.08467,0.47272 0,0.57913 0.0065,0.58164 -0.786336,-0.30339 -1.189088,-1.32733 -1.287522,-1.42774 -1.405338,-1.43355 -0.09061,-0.004 -0.105563,0.0802 -0.06562,0.37153 0.06261,0.45675 -0.02341,0.53369 -0.285152,0.25508 -0.108019,-0.11498 -0.233122,-0.20906 -0.278005,-0.20906 -0.07757,0 -0.615751,-0.44754 -1.075124,-0.89404 -0.279744,-0.27191 -0.507086,-0.27189 -0.507086,4e-5 0,0.31113 -0.128357,0.33293 -0.571405,0.097 -0.352221,-0.18754 -1.671972,-0.73875 -2.688262,-1.12277 -0.186266,-0.0704 -0.491066,-0.19747 -0.677333,-0.28242 -0.409205,-0.18661 -1.495904,-0.62082 -1.905,-0.76117 -0.292056,-0.1002 -1.117823,-0.42476 -1.862667,-0.7321 -0.927117,-0.38255 -3.640666,-2.77413 -3.640666,-3.2087 0,-0.0385 -0.07573,-0.15057 -0.168291,-0.24909 -0.27284,-0.29043 -1.17897,-2.12631 -1.241031,-2.51442 -0.03142,-0.1965 -0.127229,-0.54906 -0.212904,-0.78346 -0.185695,-0.50803 -0.228693,-2.92756 -0.05866,-3.30074 0.113935,-0.25006 0.01025,-0.4275 -0.2902,-0.49666 -0.103352,-0.0238 -0.397464,-0.12757 -0.653581,-0.23063 -0.256116,-0.10306 -0.808566,-0.31165 -1.227666,-0.46353 -0.4191,-0.15188 -0.89535,-0.33339 -1.058333,-0.40335 -0.669993,-0.28758 -1.250396,-0.50886 -1.629834,-0.62139 -0.945841,-0.2805 -1.251429,-0.37901 -2.053166,-0.6619 -0.465667,-0.16431 -0.931372,-0.29993 -1.034902,-0.30139 -0.10353,-0.001 -0.35118,-0.0768 -0.550333,-0.16738 -0.199154,-0.0906 -0.590698,-0.22919 -0.870098,-0.30797 -0.2794,-0.0788 -0.777565,-0.23325 -1.107032,-0.34326 -0.329468,-0.11002 -0.65828,-0.20003 -0.730694,-0.20003 -0.07241,0 -0.488649,-0.1105 -0.924968,-0.24555 -1.41044,-0.43656 -1.698885,-0.51645 -1.864735,-0.51645 -0.08964,0 -0.304341,-0.0712 -0.477111,-0.15821 -0.17277,-0.087 -0.49862,-0.18512 -0.724112,-0.21803 -0.225491,-0.0329 -0.568391,-0.1272 -0.762,-0.20957 -0.193608,-0.0824 -0.523465,-0.17625 -0.733015,-0.20864 -0.20955,-0.0324 -0.4953,-0.092 -0.635,-0.13242 -0.1397,-0.0404 -0.4826,-0.13869 -0.762,-0.21832 -0.2794,-0.0796 -0.60325,-0.17689 -0.719666,-0.2161 -0.116417,-0.0392 -0.421217,-0.11358 -0.677334,-0.16526 -1.017655,-0.20537 -1.58167,-0.33042 -1.904999,-0.42239 -0.186267,-0.053 -0.586317,-0.1525 -0.889,-0.22116 -0.302684,-0.0687 -0.683684,-0.15957 -0.846667,-0.20205 -0.591807,-0.15421 -1.495582,-0.35095 -2.116667,-0.46077 -0.34925,-0.0617 -0.76835,-0.15854 -0.931333,-0.21508 -0.293483,-0.10182 -0.979278,-0.23595 -2.370666,-0.46367 -0.395817,-0.0648 -0.891117,-0.16051 -1.100667,-0.21272 -0.20955,-0.0522 -0.7239,-0.15076 -1.143,-0.21898 -0.4191,-0.0682 -0.97155,-0.16318 -1.227667,-0.21101 -0.256116,-0.0478 -0.827616,-0.12551 -1.269999,-0.17263 -0.442384,-0.0471 -0.937684,-0.12141 -1.100667,-0.16509 -0.42054,-0.11272 -1.881292,-0.14136 -1.916147,-0.0376 -0.06047,0.18005 0.140099,0.32754 0.53294,0.39191 0.891066,0.146 1.869713,0.32325 2.272207,0.41153 0.232833,0.0511 0.709083,0.14648 1.058333,0.21202 0.643504,0.12077 1.576221,0.32686 2.116667,0.46769 0.323017,0.0842 1.189163,0.2841 1.989666,0.45926 0.2794,0.0611 0.67945,0.17033 0.889,0.24265 0.20955,0.0723 0.5334,0.15622 0.719667,0.18645 0.186266,0.0302 0.491066,0.11371 0.677333,0.18551 0.373335,0.14392 0.999964,0.31567 1.778,0.48733 0.2794,0.0616 0.67945,0.17238 0.889,0.24609 0.20955,0.0737 0.6096,0.19331 0.889,0.26579 0.2794,0.0725 0.7366,0.21166 1.016,0.30929 0.2794,0.0976 0.71755,0.22505 0.973666,0.28316 0.256117,0.0581 0.599017,0.16485 0.762,0.2372 0.375771,0.16683 1.134166,0.39779 1.306185,0.39779 0.07225,0 0.369893,0.0922 0.661425,0.20493 0.291532,0.11271 0.815807,0.28641 1.165057,0.386 0.34925,0.0996 0.80645,0.25147 1.016,0.33751 0.431378,0.17711 1.295753,0.47062 1.862666,0.6325 0.20955,0.0598 0.66675,0.21358 1.016,0.34167 0.34925,0.12808 0.92075,0.32733 1.27,0.44278 0.34925,0.11545 0.8636,0.29766 1.143,0.40491 0.2794,0.10726 0.7366,0.27874 1.016,0.38109 0.64634,0.23675 0.958743,0.35443 1.693333,0.63788 0.325967,0.12578 0.726017,0.27771 0.889,0.33763 0.84594,0.31102 1.922059,0.75982 2.116667,0.88277 0.06985,0.0441 0.233333,0.10268 0.363296,0.1301 0.129963,0.0274 0.213439,0.0868 0.185503,0.13204 -0.06512,0.10537 -0.339555,0.10563 -0.528781,5.1e-4 -0.08086,-0.0449 -0.470868,-0.12216 -0.866685,-0.17166 -0.395816,-0.0495 -0.929216,-0.12864 -1.185333,-0.17586 -0.256117,-0.0472 -0.903817,-0.14282 -1.439333,-0.21244 -0.535517,-0.0696 -1.240367,-0.16451 -1.566333,-0.21088 -1.27177,-0.18093 -4.956959,-0.48357 -8.297333,-0.68141 -1.877692,-0.11121 -10.316413,-0.11162 -11.895666,-5.9e-4 -0.675217,0.0475 -1.875367,0.1265 -2.667,0.1756 -0.791633,0.0491 -1.572683,0.12491 -1.735667,0.16845 -0.162983,0.0436 -0.715433,0.11701 -1.227666,0.16325 -1.589147,0.14346 -2.286,0.31648 -2.286,0.56761 0,0.18875 0.242615,0.19208 2.243666,0.0308 1.431757,-0.11538 7.462544,-0.11839 9.271,-0.005 0.745066,0.0469 2.021416,0.12403 2.836333,0.17147 0.814917,0.0474 1.672167,0.10747 1.905,0.13341 0.232833,0.0259 0.994833,0.10452 1.693333,0.17465 0.6985,0.0701 1.5367,0.16375 1.862667,0.20807 0.325966,0.0443 1.049866,0.13751 1.608666,0.20708 1.485653,0.18495 2.729697,0.36419 3.259667,0.46964 0.256116,0.051 0.808566,0.14685 1.227666,0.21308 0.4191,0.0662 0.9525,0.15828 1.185334,0.20455 0.449659,0.0894 1.398078,0.26741 2.476499,0.46493 0.360892,0.0661 0.808567,0.16433 0.994834,0.2183 0.455055,0.13184 1.33483,0.33051 1.905,0.43018 0.545085,0.0953 0.931333,0.23724 0.931333,0.34228 0,0.0413 -1.386454,0.0782 -3.1115,0.0829 -1.711325,0.005 -3.47345,0.0415 -3.915833,0.082 -1.140687,0.10419 -2.916235,0.31254 -3.513666,0.41232 -0.2794,0.0467 -0.86995,0.14072 -1.312334,0.20902 -0.442383,0.0683 -0.975783,0.16703 -1.185333,0.21941 -0.20955,0.0524 -0.62865,0.13062 -0.931333,0.17386 -0.302684,0.0432 -0.607484,0.10295 -0.677334,0.13268 -0.06985,0.0297 -0.3937,0.10384 -0.719666,0.1647 -0.616919,0.11519 -0.925712,0.18808 -1.778,0.41972 -0.2794,0.0759 -0.6985,0.17494 -0.931333,0.22001 -0.232834,0.0451 -0.575734,0.14206 -0.762,0.21552 -0.186267,0.0735 -0.529167,0.18152 -0.762,0.24013 -0.232834,0.0586 -0.594784,0.16747 -0.804334,0.2419 -0.20955,0.0744 -0.66675,0.21356 -1.016,0.30916 -0.34925,0.0956 -0.7493,0.23472 -0.889,0.30915 -0.1397,0.0744 -0.425449,0.18505 -0.634999,0.24582 -1.302382,0.37774 -5.007178,2.09561 -5.112751,2.37072 -0.132479,0.34524 0.04414,0.3219 1.006417,-0.13296 0.2794,-0.13207 0.6604,-0.29682 0.846667,-0.36613 1.001552,-0.37263 1.326367,-0.48362 1.905,-0.65094 0.34925,-0.10099 0.84455,-0.25463 1.100667,-0.34142 0.256116,-0.0868 0.618066,-0.19539 0.804333,-0.24132 0.186266,-0.0459 0.491066,-0.12728 0.677333,-0.18079 0.343928,-0.0988 1.045651,-0.25271 2.116667,-0.46427 0.325966,-0.0644 0.764116,-0.15942 0.973666,-0.21118 0.20955,-0.0518 0.6477,-0.12936 0.973667,-0.17242 0.325967,-0.0431 0.726017,-0.1179 0.889,-0.16628 0.162983,-0.0484 0.639233,-0.12426 1.058333,-0.16864 0.4191,-0.0444 1.00965,-0.12131 1.312333,-0.17099 3.34661,-0.54923 8.777822,-0.6612 12.657666,-0.26095 0.829981,0.0856 0.963596,0.10578 1.735667,0.26181 0.20955,0.0423 0.66675,0.1341 1.016,0.20389 2.097244,0.41906 2.416808,0.55259 2.503216,1.04594 0.06446,0.36806 0.240286,1.00015 0.42987,1.54543 0.07286,0.20955 0.149662,0.43868 0.170675,0.50919 0.02713,0.091 -0.19028,0.24734 -0.74961,0.53904 -4.452927,2.32225 -7.133385,7.94872 -5.417923,11.37261 0.08859,0.17682 0.184582,0.41958 0.213311,0.53948 0.511436,2.13435 3.032845,4.62626 6.364127,6.28969 1.19039,0.5944 2.213934,1.07006 2.301946,1.06974 0.06452,-2.5e-4 0.281549,0.0839 1.762054,0.683 0.325967,0.1319 0.764117,0.29572 0.973667,0.36404 0.20955,0.0683 0.5715,0.20687 0.804333,0.30787 0.232833,0.10101 0.594783,0.23955 0.804333,0.30787 0.20955,0.0683 0.6477,0.23214 0.973667,0.36405 0.325967,0.1319 0.859367,0.34228 1.185333,0.46751 0.584196,0.22442 2.169787,0.95472 2.582333,1.18937 0.116417,0.0662 0.402167,0.21662 0.635,0.33422 0.232834,0.11761 0.637551,0.35712 0.899371,0.53224 0.261821,0.17513 0.585671,0.39155 0.719667,0.48093 0.44359,0.29592 1.941984,1.74799 2.402629,2.32836 0.162983,0.20534 0.439208,0.53325 0.613833,0.7287 0.174625,0.19545 0.3175,0.38674 0.3175,0.4251 0,0.0384 0.07168,0.14839 0.159292,0.24453 0.46297,0.50801 2.126708,3.59283 2.126708,3.94323 0,0.043 0.05412,0.20326 0.120267,0.35619 0.483805,1.11848 0.85705,2.40272 1.200429,4.13037 0.06942,0.34925 0.165559,0.80645 0.213653,1.016 0.102334,0.44588 0.321657,2.30435 0.379686,3.21733 0.05088,0.80057 0.07461,0.86459 0.308086,0.83144 0.187894,-0.0267 0.191227,-0.0483 0.213156,-1.38177 z"
         id="path1630" /></g></g></svg>
