<?xml version="1.0" encoding="UTF-8" standalone="no"?>
<!-- Created with Inkscape (http://www.inkscape.org/) -->

<svg
   width="86.698692mm"
   height="86.698669mm"
   viewBox="0 0 86.698693 86.69867"
   version="1.1"
   id="svg5"
   xml:space="preserve"
   inkscape:version="1.2.2 (732a01da63, 2022-12-09, custom)"
   sodipodi:docname="kde.svg"
   xmlns:inkscape="http://www.inkscape.org/namespaces/inkscape"
   xmlns:sodipodi="http://sodipodi.sourceforge.net/DTD/sodipodi-0.dtd"
   xmlns="http://www.w3.org/2000/svg"
   xmlns:svg="http://www.w3.org/2000/svg"><sodipodi:namedview
     id="namedview7"
     pagecolor="#505050"
     bordercolor="#eeeeee"
     borderopacity="1"
     inkscape:showpageshadow="0"
     inkscape:pageopacity="0"
     inkscape:pagecheckerboard="0"
     inkscape:deskcolor="#505050"
     inkscape:document-units="mm"
     showgrid="false"
     inkscape:zoom="1.1194667"
     inkscape:cx="220.19414"
     inkscape:cy="217.96094"
     inkscape:window-width="1390"
     inkscape:window-height="827"
     inkscape:window-x="0"
     inkscape:window-y="37"
     inkscape:window-maximized="1"
     inkscape:current-layer="layer1" /><defs
     id="defs2" /><g
     inkscape:label="Layer 1"
     inkscape:groupmode="layer"
     id="layer1"
     transform="translate(-48.53641,-84.780914)"><g
       id="g1273"
       transform="translate(32.38535,26.382972)"><path
         style="fill:#fafbfb;stroke-width:0.0846667"
         d="m 54.728581,135.57577 c -0.166946,-0.16695 -0.22797,-0.35726 -0.312206,-0.97367 -0.05759,-0.42139 -0.130103,-0.76616 -0.161149,-0.76616 -0.03105,0 -0.104982,-0.3429 -0.164298,-0.762 -0.05932,-0.4191 -0.13704,-0.762 -0.172716,-0.762 -0.03568,0 -0.134997,-0.4953 -0.220711,-1.10067 -0.08572,-0.60536 -0.182783,-1.10066 -0.215709,-1.10066 -0.03292,0 -0.1086,-0.33338 -0.168166,-0.74084 -0.05957,-0.40745 -0.134563,-0.75988 -0.166661,-0.78316 -0.0321,-0.0233 -0.125607,-0.49001 -0.207796,-1.03717 -0.08219,-0.54716 -0.182588,-0.99483 -0.223108,-0.99483 -0.04052,0 -0.07367,-0.0912 -0.07367,-0.20261 0,-0.20647 -0.139372,-0.30539 -0.430258,-0.30539 -0.08932,0 -0.162408,-0.0329 -0.162408,-0.0731 0,-0.0402 -0.231754,-0.12228 -0.515009,-0.18239 -0.283255,-0.0601 -0.560612,-0.15489 -0.616348,-0.21063 -0.05574,-0.0557 -0.300232,-0.15231 -0.543324,-0.21462 -0.243092,-0.0623 -0.441986,-0.14147 -0.441986,-0.17593 0,-0.0345 -0.20955,-0.12357 -0.465666,-0.19802 -0.256117,-0.0745 -0.465667,-0.16488 -0.465667,-0.20095 0,-0.0361 -0.1905,-0.13408 -0.423333,-0.21781 -0.232834,-0.0837 -0.423334,-0.18347 -0.423334,-0.22166 0,-0.0382 -0.114073,-0.0945 -0.253495,-0.12511 -0.139423,-0.0306 -0.290664,-0.11938 -0.336092,-0.19723 -0.04823,-0.0827 -0.08367,-0.0975 -0.08517,-0.0357 -0.0014,0.0582 -0.05973,0.10583 -0.129575,0.10583 -0.06985,0 -0.202231,0.0752 -0.294179,0.16718 -0.09195,0.0919 -0.259634,0.19039 -0.372634,0.21875 -0.112999,0.0284 -0.276772,0.11801 -0.363938,0.19922 -0.08717,0.0812 -0.319533,0.2187 -0.516368,0.30555 -0.196835,0.0868 -0.357881,0.18404 -0.357881,0.21599 0,0.032 -0.1143,0.10545 -0.254,0.16331 -0.1397,0.0579 -0.254,0.13136 -0.254,0.16332 0,0.0319 -0.1524,0.12534 -0.338667,0.20752 -0.186266,0.0822 -0.338666,0.17765 -0.338666,0.21215 0,0.0345 -0.13335,0.11507 -0.296333,0.17901 -0.162984,0.064 -0.296334,0.14148 -0.296334,0.17228 0,0.0308 -0.161925,0.12738 -0.359833,0.21461 -0.197908,0.0872 -0.390302,0.20733 -0.427541,0.26686 -0.03724,0.0595 -0.120242,0.10825 -0.184452,0.10825 -0.06421,0 -0.167092,0.0498 -0.228626,0.11059 -0.06153,0.0608 -0.244533,0.18465 -0.406664,0.27517 -0.16213,0.0905 -0.343505,0.20988 -0.403055,0.26525 -0.05955,0.0554 -0.241223,0.14875 -0.403718,0.20751 -0.162494,0.0588 -0.295444,0.13926 -0.295444,0.1789 0,0.0396 -0.1143,0.1119 -0.254,0.1606 -0.1397,0.0487 -0.254,0.11879 -0.254,0.15574 0,0.037 -0.1524,0.12817 -0.338667,0.2027 -0.186266,0.0745 -0.338666,0.16782 -0.338666,0.20731 0,0.0395 -0.1524,0.12209 -0.338667,0.18357 -0.186267,0.0615 -0.338667,0.14377 -0.338667,0.18288 0,0.0391 -0.05715,0.0711 -0.127,0.0711 -0.06985,0 -0.127,-0.0355 -0.127,-0.079 0,-0.0434 -0.07319,-0.10219 -0.162633,-0.13058 -0.138158,-0.0439 -3.995225,-3.83666 -4.430533,-4.35672 -0.182248,-0.21773 -0.194979,-0.64699 -0.02117,-0.71369 0.06985,-0.0268 0.127,-0.10519 0.127,-0.17419 0,-0.069 0.04762,-0.15592 0.105834,-0.19315 0.05821,-0.0372 0.181655,-0.22011 0.274327,-0.40638 0.09267,-0.18627 0.216497,-0.36913 0.275167,-0.40637 0.05867,-0.0372 0.106672,-0.12107 0.106672,-0.1863 0,-0.0652 0.048,-0.14905 0.106673,-0.18629 0.05867,-0.0372 0.181633,-0.21058 0.273253,-0.38521 0.09162,-0.17462 0.191395,-0.3175 0.221722,-0.3175 0.03033,0 0.102487,-0.1143 0.160352,-0.254 0.05787,-0.1397 0.138801,-0.254 0.179857,-0.254 0.04106,0 0.140671,-0.1524 0.221368,-0.33866 0.0807,-0.18627 0.175322,-0.33867 0.210279,-0.33867 0.03496,0 0.1189,-0.13245 0.186542,-0.29434 0.06764,-0.16189 0.201503,-0.37863 0.29747,-0.48163 0.09597,-0.10301 0.174484,-0.23726 0.174484,-0.29833 0,-0.0611 0.03631,-0.11103 0.08069,-0.11103 0.04438,0 0.147894,-0.14161 0.230026,-0.31469 0.08213,-0.17308 0.207745,-0.3799 0.279139,-0.4596 0.243797,-0.27216 0.323498,-0.38469 0.461639,-0.65183 0.076,-0.14697 0.168194,-0.26721 0.204873,-0.26721 0.03668,0 0.119013,-0.13335 0.182962,-0.29634 0.06395,-0.16298 0.14675,-0.29633 0.184001,-0.29633 0.03725,0 0.123444,-0.13335 0.191543,-0.29633 0.0681,-0.16299 0.154335,-0.29664 0.191636,-0.297 0.160385,-0.002 0.265042,-0.42197 0.168632,-0.67739 -0.05258,-0.13931 -0.121523,-0.25328 -0.153204,-0.25328 -0.03168,0 -0.126104,-0.1905 -0.20983,-0.42333 -0.08373,-0.23284 -0.176704,-0.42334 -0.206618,-0.42334 -0.02991,0 -0.104686,-0.1524 -0.16616,-0.33866 -0.06147,-0.18627 -0.13875,-0.33867 -0.171727,-0.33867 -0.03298,0 -0.1241,-0.2286 -0.202496,-0.508 -0.0784,-0.2794 -0.173461,-0.508 -0.211255,-0.508 -0.03779,0 -0.117229,-0.2286 -0.176522,-0.508 -0.05929,-0.2794 -0.135841,-0.508 -0.170108,-0.508 -0.03427,0 -0.131298,-0.33338 -0.215625,-0.74083 -0.08433,-0.40746 -0.192136,-0.7669 -0.239578,-0.79875 -0.04744,-0.0318 -0.269054,-0.0831 -0.492473,-0.11378 -0.223418,-0.0307 -0.406215,-0.0843 -0.406215,-0.11894 0,-0.0347 -0.32385,-0.11346 -0.719667,-0.17503 -0.395817,-0.0616 -0.719667,-0.13754 -0.719667,-0.16881 0,-0.0313 -0.381,-0.12675 -0.846666,-0.21219 -0.465667,-0.0855 -0.846667,-0.18168 -0.846667,-0.21387 0,-0.0322 -0.28575,-0.10739 -0.635,-0.16713 -0.34925,-0.0598 -0.635,-0.13335 -0.635,-0.16357 0,-0.0302 -0.4191,-0.12464 -0.931333,-0.20984 -0.512233,-0.0852 -0.931333,-0.18317 -0.931333,-0.21772 0,-0.0345 -0.40005,-0.13138 -0.889,-0.21519 -0.48895,-0.0838 -0.889,-0.18019 -0.889,-0.21419 0,-0.034 -0.0907,-0.0846 -0.20155,-0.11239 -0.112298,-0.0282 -0.224264,-0.13535 -0.252844,-0.24201 -0.02821,-0.10529 -0.05181,-1.60917 -0.05245,-3.34196 -0.0012,-3.13271 -8.4e-5,-3.15151 0.184143,-3.32317 0.101914,-0.0949 0.254314,-0.17263 0.338666,-0.17263 0.08435,0 0.153369,-0.0321 0.153369,-0.0713 0,-0.0392 0.466725,-0.13983 1.037167,-0.22364 0.570441,-0.0838 1.056216,-0.18135 1.0795,-0.21677 0.02328,-0.0354 0.499533,-0.13219 1.058333,-0.21503 0.5588,-0.0828 1.03505,-0.175553 1.058333,-0.206027 0.02328,-0.03047 0.347133,-0.106046 0.719667,-0.16794 0.372533,-0.06189 0.696383,-0.137467 0.719666,-0.167941 0.02328,-0.03047 0.499534,-0.123186 1.058334,-0.206028 0.5588,-0.08284 1.035494,-0.18207 1.05932,-0.220506 0.02383,-0.03844 0.283482,-0.09705 0.577013,-0.130264 0.531406,-0.06012 0.776667,-0.194113 0.776667,-0.424309 0,-0.06652 0.03289,-0.120952 0.0731,-0.120952 0.0402,0 0.12161,-0.2286 0.180902,-0.508 0.05929,-0.2794 0.132615,-0.508 0.162937,-0.508 0.03032,0 0.129892,-0.247645 0.221264,-0.550323 0.09137,-0.302678 0.191753,-0.550328 0.223067,-0.550334 0.03131,-5e-6 0.100943,-0.13336 0.154732,-0.296343 0.05379,-0.162983 0.125055,-0.296333 0.158367,-0.296333 0.03331,0 0.131795,-0.20955 0.218852,-0.465667 0.08706,-0.256117 0.184455,-0.465667 0.21644,-0.465667 0.03199,0 0.12886,-0.17145 0.215274,-0.381 0.08642,-0.20955 0.190128,-0.381 0.230474,-0.381 0.04035,0 0.01581,-0.05755 -0.05453,-0.127889 -0.07034,-0.07034 -0.175964,-0.260838 -0.234724,-0.423333 -0.05876,-0.162494 -0.137588,-0.295444 -0.175177,-0.295444 -0.03759,0 -0.129322,-0.1524 -0.203851,-0.338667 -0.07453,-0.186267 -0.165744,-0.338667 -0.202698,-0.338667 -0.03696,0 -0.107037,-0.1143 -0.155737,-0.253999 -0.0487,-0.1397 -0.122885,-0.254 -0.164856,-0.254 -0.04197,0 -0.147015,-0.17145 -0.23343,-0.381 -0.08641,-0.20955 -0.182784,-0.381 -0.214154,-0.381 -0.03137,0 -0.104381,-0.1143 -0.162246,-0.254 -0.05787,-0.1397 -0.134552,-0.254 -0.170412,-0.254 -0.03586,0 -0.126181,-0.1524 -0.20071,-0.338667 -0.07453,-0.186267 -0.173916,-0.338667 -0.220859,-0.338667 -0.04694,0 -0.08535,-0.05715 -0.08535,-0.127 0,-0.06985 -0.06831,-0.195309 -0.151798,-0.278798 -0.08349,-0.08349 -0.203755,-0.277234 -0.267259,-0.430544 -0.0635,-0.153311 -0.158564,-0.323126 -0.211247,-0.377369 -0.05268,-0.05424 -0.166201,-0.248655 -0.252261,-0.432027 -0.157554,-0.335705 -0.223457,-0.433509 -0.491114,-0.728843 -0.08031,-0.08861 -0.169218,-0.253565 -0.197579,-0.366565 -0.02836,-0.112999 -0.117178,-0.275893 -0.197372,-0.361987 -0.08019,-0.08609 -0.200609,-0.280358 -0.267589,-0.4317 -0.06698,-0.151342 -0.144797,-0.275167 -0.172924,-0.275167 -0.02813,0 -0.122549,-0.161924 -0.209828,-0.359833 -0.08728,-0.197908 -0.19784,-0.391309 -0.245692,-0.429779 -0.05793,-0.04657 -0.05164,-0.0843 0.01883,-0.112888 0.05821,-0.02362 0.105833,-0.114127 0.105833,-0.201129 0,-0.131831 3.752073,-3.979816 4.393234,-4.505537 0.18598,-0.152495 0.686766,-0.206288 0.686766,-0.07377 0,0.04092 0.1143,0.12174 0.254,0.179605 0.1397,0.05787 0.254,0.136901 0.254,0.175633 0,0.03873 0.142875,0.1369 0.3175,0.21815 0.174625,0.08125 0.33655,0.172972 0.359833,0.203825 0.02328,0.03085 0.1721,0.122615 0.330702,0.203913 0.158603,0.0813 0.365812,0.219965 0.460465,0.308147 0.09465,0.08818 0.222062,0.160332 0.283131,0.160332 0.06107,0 0.111036,0.03631 0.111036,0.08069 0,0.04438 0.141611,0.147895 0.314692,0.230026 0.173081,0.08213 0.379899,0.207745 0.459598,0.279139 0.272154,0.243797 0.38469,0.323498 0.651825,0.46164 0.146969,0.076 0.267218,0.168193 0.267218,0.204873 0,0.03668 0.13335,0.119012 0.296333,0.182962 0.162983,0.06395 0.296333,0.142638 0.296333,0.174864 0,0.03223 0.115203,0.10631 0.256007,0.164634 0.140803,0.05832 0.283678,0.150725 0.3175,0.205339 0.03382,0.05461 0.204368,0.165706 0.378993,0.24687 0.174625,0.08116 0.3175,0.176772 0.3175,0.212462 0,0.03569 0.13335,0.117214 0.296334,0.181164 0.162983,0.06395 0.296333,0.146283 0.296333,0.182962 0,0.03668 0.120249,0.128872 0.267218,0.204873 0.265411,0.13725 0.375771,0.215187 0.64971,0.458832 0.07854,0.06985 0.30124,0.198034 0.4949,0.284854 0.338104,0.151576 0.367543,0.15196 0.74014,0.0097 0.213418,-0.08151 0.388032,-0.17346 0.388032,-0.204346 0,-0.03088 0.142875,-0.107279 0.3175,-0.169763 0.174625,-0.06248 0.33655,-0.139192 0.359833,-0.170461 0.02328,-0.03127 0.270934,-0.127017 0.550334,-0.212769 0.279399,-0.08575 0.527049,-0.183363 0.550333,-0.216911 0.02328,-0.03355 0.166786,-0.088 0.318896,-0.120999 l 0.276563,-0.06 -0.02256,2.268386 -0.02256,2.268388 -0.338667,0.126103 c -0.186266,0.06936 -0.357716,0.152366 -0.381,0.184464 -0.02328,0.0321 -0.185208,0.117849 -0.359833,0.190556 -0.174625,0.07271 -0.3175,0.169212 -0.3175,0.214456 0,0.04524 -0.114073,0.107314 -0.253495,0.137936 -0.139423,0.03062 -0.282298,0.104357 -0.3175,0.163854 -0.0352,0.0595 -0.216405,0.178606 -0.402671,0.264686 -0.186267,0.08608 -0.388453,0.224924 -0.449301,0.308541 -0.06085,0.08362 -0.146574,0.15203 -0.1905,0.15203 -0.04393,0 -0.146541,0.05811 -0.228033,0.129124 -0.273089,0.237994 -0.593315,0.504028 -0.885941,0.736018 -0.387183,0.306953 -2.013892,1.928617 -2.013892,2.007647 0,0.03428 -0.113242,0.173447 -0.251648,0.309266 -0.138406,0.13582 -0.252706,0.294247 -0.254,0.352061 -0.0013,0.05781 -0.07855,0.152703 -0.171685,0.210866 -0.09313,0.05816 -0.16938,0.144211 -0.169437,0.191218 -5.7e-5,0.04701 -0.09112,0.191297 -0.202367,0.320646 -0.111244,0.129348 -0.24917,0.348423 -0.306501,0.486833 -0.05733,0.13841 -0.130606,0.251654 -0.162831,0.251654 -0.03223,0 -0.110915,0.13335 -0.174864,0.296333 -0.06395,0.162984 -0.14152,0.296334 -0.172377,0.296334 -0.03086,0 -0.126808,0.17145 -0.213222,0.381 -0.08641,0.20955 -0.185938,0.381 -0.221163,0.381 -0.03522,0 -0.105082,0.1524 -0.155238,0.338666 -0.05016,0.186267 -0.1231,0.338667 -0.162098,0.338667 -0.039,0 -0.141827,0.24765 -0.228512,0.550333 -0.08669,0.302683 -0.1848,0.550333 -0.218033,0.550333 -0.03323,0 -0.125923,0.3048 -0.205977,0.677334 -0.08005,0.37254 -0.171773,0.67734 -0.203822,0.67734 -0.03205,0 -0.108031,0.29527 -0.168848,0.65616 -0.06082,0.36089 -0.138058,0.67522 -0.171647,0.6985 -0.311284,0.21578 -0.317087,6.38144 -0.0062,6.60329 0.03318,0.0237 0.110245,0.34785 0.171262,0.72038 0.06102,0.37253 0.137721,0.69638 0.170453,0.71967 0.03273,0.0233 0.130227,0.35665 0.216657,0.74083 0.08643,0.38417 0.18631,0.6985 0.221955,0.6985 0.03565,0 0.125728,0.20955 0.200183,0.46567 0.07446,0.25611 0.167885,0.46566 0.207623,0.46566 0.03974,0 0.115421,0.17145 0.168186,0.381 0.05277,0.20955 0.123964,0.38115 0.158219,0.38132 0.03425,1.7e-4 0.132729,0.17162 0.218834,0.381 0.0861,0.20938 0.19088,0.38068 0.232834,0.38068 0.04195,0 0.07628,0.0571 0.07628,0.127 0,0.0699 0.06794,0.19494 0.150974,0.27798 0.08304,0.083 0.218174,0.29258 0.300306,0.46566 0.08213,0.17308 0.176343,0.3147 0.209358,0.3147 0.03301,0 0.11419,0.12382 0.18039,0.27516 0.0662,0.15134 0.189802,0.32495 0.274669,0.3858 0.08487,0.0609 0.154303,0.15209 0.154303,0.20276 0,0.11344 0.03881,0.15501 1.584689,1.69755 1.593047,1.5896 1.590678,1.58739 1.700254,1.58739 0.05067,0 0.141907,0.0684 0.202756,0.15203 0.06085,0.0836 0.253509,0.21876 0.428134,0.30031 0.174625,0.0815 0.3175,0.18459 0.3175,0.22897 0,0.0444 0.04997,0.0807 0.111035,0.0807 0.06107,0 0.185773,0.0696 0.277119,0.15473 0.09135,0.0851 0.327131,0.22579 0.523965,0.31263 0.196835,0.0868 0.357881,0.18257 0.357881,0.21272 0,0.0302 0.1524,0.10511 0.338667,0.16659 0.186266,0.0615 0.338666,0.13624 0.338666,0.16616 0,0.0299 0.1905,0.12289 0.423334,0.20662 0.232833,0.0837 0.423333,0.18041 0.423333,0.21487 0,0.0345 0.20955,0.11291 0.465667,0.17435 0.256116,0.0614 0.465666,0.14048 0.465666,0.17563 0,0.0352 0.295275,0.13228 0.656167,0.21582 0.360892,0.0835 0.675217,0.1777 0.6985,0.20924 0.04661,0.0631 1.525687,0.33064 1.828197,0.33064 0.104331,0 0.205565,0.0476 0.224965,0.10583 0.04587,0.13764 4.861801,0.15509 4.956084,0.018 0.03323,-0.0483 0.536301,-0.15615 1.117932,-0.23959 0.581632,-0.0834 1.076932,-0.18042 1.100667,-0.21551 0.02374,-0.0351 0.319379,-0.13465 0.656988,-0.22123 0.337608,-0.0866 0.613833,-0.1821 0.613833,-0.21226 0,-0.0301 0.20955,-0.10509 0.465667,-0.16653 0.256116,-0.0614 0.465666,-0.14266 0.465666,-0.18049 0,-0.0378 0.20955,-0.1297 0.465667,-0.20415 0.256117,-0.0745 0.465667,-0.17077 0.465667,-0.21404 0,-0.0433 0.05715,-0.0787 0.127,-0.0787 0.06985,0 0.198789,-0.0718 0.286533,-0.15953 0.08774,-0.0877 0.29996,-0.20588 0.471594,-0.26252 0.171634,-0.0566 0.331627,-0.15398 0.35554,-0.21629 0.02391,-0.0623 0.154369,-0.13766 0.289901,-0.16743 0.135533,-0.0298 0.275225,-0.10175 0.310427,-0.15996 0.0352,-0.0582 0.194864,-0.17906 0.354802,-0.26855 0.314404,-0.17592 0.492025,-0.31066 0.800477,-0.60721 0.108979,-0.10478 0.226808,-0.1905 0.261842,-0.1905 0.03503,0 0.211598,-0.1524 0.392364,-0.33867 0.180766,-0.18627 0.357282,-0.33946 0.392259,-0.34042 0.07807,-0.002 1.03726,-0.96779 1.03726,-1.04423 0,-0.0302 0.1524,-0.20277 0.338667,-0.38354 0.186267,-0.18076 0.338667,-0.36036 0.338667,-0.39909 0,-0.0387 0.0744,-0.14797 0.165325,-0.24274 0.393118,-0.40973 0.511212,-0.56037 0.645976,-0.82398 0.07864,-0.15382 0.194961,-0.31014 0.258503,-0.34738 0.06354,-0.0372 0.115529,-0.12107 0.115529,-0.18629 0,-0.0652 0.04871,-0.14905 0.108251,-0.18629 0.05954,-0.0372 0.179625,-0.22963 0.266859,-0.42754 0.08723,-0.19791 0.18679,-0.35983 0.221237,-0.35983 0.03445,0 0.08717,-0.0978 0.117166,-0.2173 0.06733,-0.26826 0.297856,-0.24787 0.44087,0.039 0.05517,0.11066 0.132688,0.22462 0.172271,0.25325 0.03958,0.0286 0.146941,0.19494 0.238577,0.36957 0.09163,0.17462 0.191423,0.3175 0.22175,0.3175 0.03033,0 0.101352,0.11156 0.157832,0.24791 0.05648,0.13636 0.156352,0.26851 0.221939,0.29368 0.06559,0.0252 0.119338,0.0946 0.119447,0.15425 8.4e-5,0.0597 0.114319,0.24184 0.253801,0.40482 0.139481,0.16299 0.253692,0.34396 0.253801,0.40217 8.4e-5,0.0582 0.03651,0.10583 0.08089,0.10583 0.04438,0 0.147894,0.14161 0.230026,0.31469 0.08213,0.17309 0.207745,0.3799 0.279139,0.4596 0.243797,0.27216 0.323498,0.38469 0.461639,0.65183 0.076,0.14697 0.169519,0.26722 0.207818,0.26722 0.0383,0 0.137344,0.15015 0.220102,0.33367 0.08276,0.18353 0.202844,0.35378 0.266858,0.37835 0.06401,0.0246 0.11639,0.10111 0.11639,0.17011 0,0.069 0.04968,0.15592 0.110401,0.19316 0.06072,0.0372 0.179137,0.21549 0.263146,0.39611 l 0.152744,0.3284 0.47633,-0.0492 c 0.261982,-0.027 0.489642,-0.0891 0.505911,-0.1379 0.04553,-0.1366 0.438802,-0.10773 0.438802,0.0322 0,0.0665 0.05854,0.17949 0.13008,0.25103 0.07155,0.0715 0.186355,0.26477 0.255136,0.42938 0.06878,0.16462 0.153344,0.2993 0.187918,0.2993 0.03458,0 0.117665,0.12383 0.184646,0.27517 0.06698,0.15134 0.187396,0.34561 0.26759,0.4317 0.08019,0.0861 0.16901,0.24899 0.197371,0.36199 0.02836,0.113 0.126797,0.28068 0.218746,0.37263 0.09195,0.0919 0.167179,0.22433 0.167179,0.29418 0,0.0699 0.03841,0.127 0.08535,0.127 0.04694,0 0.14633,0.1524 0.220859,0.33866 0.07453,0.18627 0.165744,0.33867 0.202698,0.33867 0.03696,0 0.107037,0.1143 0.155737,0.254 0.0487,0.1397 0.120088,0.254 0.15864,0.254 0.03855,0 0.145309,0.17109 0.237238,0.3802 0.09193,0.20911 0.195717,0.38056 0.230642,0.381 0.03493,4.2e-4 0.0635,0.0961 0.0635,0.21247 0,0.11641 -0.0393,0.21166 -0.08732,0.21166 -0.04803,0 -0.111116,0.0667 -0.140196,0.14817 -0.02908,0.0815 -1.034845,1.12924 -2.235035,2.32833 -1.905057,1.90332 -2.215177,2.18017 -2.442138,2.18017 -0.142985,0 -0.330444,-0.0705 -0.416575,-0.1566 -0.08613,-0.0861 -0.276629,-0.20973 -0.423333,-0.27467 -0.146703,-0.0649 -0.266732,-0.14635 -0.266732,-0.18093 0,-0.0346 -0.13335,-0.11858 -0.296334,-0.18668 -0.162983,-0.0681 -0.296333,-0.15674 -0.296333,-0.197 0,-0.0402 -0.13335,-0.1255 -0.296333,-0.18945 -0.162984,-0.064 -0.296334,-0.14738 -0.296334,-0.18539 0,-0.038 -0.1524,-0.13514 -0.338666,-0.21584 -0.186267,-0.0807 -0.338667,-0.17485 -0.338667,-0.20924 0,-0.0344 -0.123825,-0.12581 -0.275166,-0.20316 -0.151342,-0.0774 -0.305635,-0.19263 -0.342874,-0.25618 -0.03724,-0.0635 -0.121071,-0.11553 -0.186293,-0.11553 -0.06522,0 -0.149054,-0.0497 -0.186293,-0.1104 -0.03724,-0.0607 -0.21774,-0.1802 -0.401113,-0.26552 -0.329308,-0.15321 -0.428955,-0.21943 -0.712637,-0.47355 -0.0797,-0.0714 -0.286517,-0.19701 -0.459598,-0.27914 -0.173081,-0.0821 -0.314692,-0.18564 -0.314692,-0.23002 0,-0.0444 -0.04997,-0.0807 -0.111036,-0.0807 -0.06107,0 -0.188478,-0.0722 -0.283131,-0.16033 -0.09465,-0.0882 -0.301862,-0.2267 -0.460465,-0.3078 -0.158602,-0.0811 -0.31717,-0.19649 -0.352373,-0.25639 -0.0352,-0.0599 -0.180651,-0.13453 -0.323221,-0.16585 -0.142568,-0.0313 -0.278429,-0.107 -0.301912,-0.16819 -0.02348,-0.0612 -0.154259,-0.15748 -0.290613,-0.21396 -0.136353,-0.0565 -0.247916,-0.13617 -0.247916,-0.17708 0,-0.0409 -0.0762,-0.0744 -0.169333,-0.0744 -0.09313,0 -0.169334,0.032 -0.169334,0.0711 0,0.0391 -0.1524,0.12141 -0.338666,0.18288 -0.186267,0.0615 -0.338667,0.13995 -0.338667,0.17438 0,0.0344 -0.1905,0.13112 -0.423333,0.21484 -0.232833,0.0837 -0.423333,0.17662 -0.423333,0.20642 0,0.0298 -0.219075,0.12705 -0.486834,0.21611 -0.267758,0.0891 -0.537179,0.20954 -0.598714,0.26775 -0.06153,0.0582 -0.182638,0.10583 -0.269119,0.10583 -0.08648,0 -0.209297,0.0521 -0.272925,0.11569 -0.06363,0.0636 -0.409249,0.18489 -0.768047,0.26948 -0.358799,0.0846 -0.652361,0.18006 -0.652361,0.21216 0,0.0321 -0.146077,0.0817 -0.324615,0.11027 l -0.324614,0.0519 -0.148433,0.91098 c -0.08164,0.50104 -0.177871,0.93022 -0.21385,0.95375 -0.03598,0.0235 -0.134895,0.41424 -0.219813,0.86826 -0.08492,0.45403 -0.180975,0.8255 -0.213461,0.8255 -0.03249,0 -0.108562,0.3048 -0.169061,0.67734 -0.0605,0.37253 -0.135075,0.67733 -0.165726,0.67733 -0.03065,0 -0.124301,0.40005 -0.20811,0.889 -0.08381,0.48895 -0.180558,0.889 -0.214998,0.889 -0.03444,0 -0.110034,0.3048 -0.167986,0.67733 -0.05795,0.37254 -0.132708,0.67734 -0.166124,0.67734 -0.03342,0 -0.108978,0.27622 -0.167915,0.61383 -0.08206,0.47004 -0.157734,0.65846 -0.323061,0.80433 -0.215778,0.19039 -0.21779,0.1905 -3.41622,0.1905 H 54.936086 Z M 78.693733,116.2233 c -0.08414,-0.0993 -0.195035,-0.27284 -0.246424,-0.38562 -0.05139,-0.11279 -0.123632,-0.20507 -0.160539,-0.20507 -0.03691,0 -0.133511,-0.14288 -0.214675,-0.3175 -0.08116,-0.17463 -0.197251,-0.34797 -0.257973,-0.38521 -0.06072,-0.0372 -0.110401,-0.12107 -0.110401,-0.18629 0,-0.0652 -0.04762,-0.14906 -0.105833,-0.18629 -0.123872,-0.0793 -0.301391,-0.34376 -0.372166,-0.55454 -0.02736,-0.0815 -0.08243,-0.14817 -0.122368,-0.14817 -0.03994,0 -0.1348,-0.12025 -0.210801,-0.26722 -0.138141,-0.26713 -0.217842,-0.37967 -0.461639,-0.65182 -0.07139,-0.0797 -0.19504,-0.28238 -0.274768,-0.45039 -0.07973,-0.16802 -0.20229,-0.32748 -0.272359,-0.35437 -0.07007,-0.0269 -0.127399,-0.10534 -0.127399,-0.17434 0,-0.069 -0.04968,-0.15592 -0.110401,-0.19315 -0.06072,-0.0372 -0.176809,-0.21059 -0.257973,-0.38521 -0.08116,-0.17463 -0.179261,-0.3175 -0.217993,-0.3175 -0.03873,0 -0.117767,-0.1143 -0.175633,-0.254 -0.05787,-0.1397 -0.130023,-0.254 -0.160352,-0.254 -0.03033,0 -0.13048,-0.14195 -0.222561,-0.31545 -0.09208,-0.17349 -0.234095,-0.39257 -0.315587,-0.48683 -0.337727,-0.39066 -0.381843,-0.45387 -0.494769,-0.70899 -0.06494,-0.1467 -0.145079,-0.26673 -0.178093,-0.26673 -0.03301,0 -0.123305,-0.13335 -0.200645,-0.29633 -0.07734,-0.16299 -0.169757,-0.29634 -0.205368,-0.29634 -0.03561,0 -0.112093,-0.1143 -0.169958,-0.254 -0.05787,-0.1397 -0.13771,-0.254 -0.177431,-0.254 -0.03972,0 -0.134403,-0.12025 -0.210404,-0.26722 -0.138141,-0.26713 -0.217842,-0.37967 -0.461639,-0.65182 -0.07139,-0.0797 -0.197007,-0.28652 -0.279139,-0.4596 -0.08213,-0.17308 -0.176119,-0.31513 -0.20886,-0.31566 -0.03274,-5.1e-4 -0.132332,-0.15294 -0.221315,-0.33867 -0.08898,-0.18573 -0.194701,-0.33769 -0.234929,-0.33769 -0.04023,0 -0.109355,-0.0953 -0.153616,-0.21167 -0.04426,-0.11642 -0.114896,-0.21167 -0.156966,-0.21167 -0.04207,0 -0.123398,-0.11324 -0.180729,-0.25165 -0.05733,-0.13841 -0.195257,-0.35749 -0.306502,-0.48683 -0.111245,-0.12935 -0.20231,-0.27873 -0.202367,-0.33196 -5.6e-5,-0.0532 -0.05725,-0.1187 -0.127103,-0.14551 -0.06985,-0.0268 -0.127,-0.10492 -0.127,-0.17359 0,-0.0687 -0.06944,-0.17464 -0.154303,-0.23549 -0.08487,-0.0609 -0.208468,-0.23446 -0.274669,-0.3858 -0.0662,-0.15134 -0.147376,-0.27517 -0.18039,-0.27517 -0.03301,0 -0.123305,-0.13335 -0.200646,-0.29633 -0.07734,-0.16298 -0.168592,-0.29633 -0.20278,-0.29633 -0.03419,0 -0.130884,-0.1524 -0.214878,-0.33867 -0.084,-0.18627 -0.185974,-0.33867 -0.226622,-0.33867 -0.04065,0 -0.110117,-0.0952 -0.154378,-0.21166 -0.04426,-0.11642 -0.110855,-0.21167 -0.147985,-0.21167 -0.03713,0 -0.14247,-0.14288 -0.23409,-0.3175 -0.09162,-0.17463 -0.214583,-0.34797 -0.273253,-0.38521 -0.05867,-0.0372 -0.106672,-0.12107 -0.106672,-0.18629 0,-0.06522 -0.04762,-0.149055 -0.105834,-0.186293 -0.05821,-0.03724 -0.180127,-0.201058 -0.270931,-0.364041 -0.172659,-0.309903 -0.248815,-0.416162 -0.486566,-0.678899 -0.07901,-0.08732 -0.206891,-0.281029 -0.284168,-0.430467 -0.07728,-0.149437 -0.212654,-0.349148 -0.300836,-0.443801 -0.08818,-0.09465 -0.160332,-0.220168 -0.160332,-0.278924 0,-0.05876 -0.04769,-0.137296 -0.105971,-0.174535 -0.05828,-0.03724 -0.16306,-0.18085 -0.232834,-0.319135 -0.06977,-0.138285 -0.193537,-0.328785 -0.275028,-0.423333 -0.29302,-0.339967 -0.361639,-0.434511 -0.479974,-0.661311 -0.06608,-0.126644 -0.146016,-0.230261 -0.177642,-0.230261 -0.03162,0 -0.125211,-0.150156 -0.207969,-0.33368 -0.391185,-0.867495 -0.383249,-1.057688 -0.383249,9.184 v 9.60701 h -0.254 c -0.1397,0 -0.254,0.0333 -0.254,0.0741 0,0.0408 -0.4953,0.12315 -1.100666,0.18311 -0.605367,0.06 -1.100667,0.13418 -1.100667,0.16494 0,0.0308 -0.62865,0.12711 -1.397,0.21413 -0.76835,0.087 -1.397,0.18231 -1.397,0.21179 0,0.0295 -0.485775,0.10398 -1.0795,0.16558 -0.593725,0.0616 -1.09855,0.13727 -1.121833,0.16815 -0.04181,0.0555 -2.319263,0.34667 -2.688166,0.34372 -0.104775,-8.4e-4 -0.1905,0.0366 -0.1905,0.0832 0,0.0466 -0.05715,0.0847 -0.127,0.0847 -0.112574,0 -0.127,-2.58057 -0.127,-22.71707 V 70.537145 l 1.9685,-0.145194 c 1.082675,-0.07986 2.092324,-0.144177 2.243666,-0.142934 0.151342,0.0012 0.275167,-0.03089 0.275167,-0.07141 0,-0.04052 0.74295,-0.122635 1.651,-0.182477 0.90805,-0.05984 1.651,-0.135379 1.651,-0.167858 0,-0.03248 0.409575,-0.08458 0.910166,-0.115772 0.500592,-0.03119 1.211692,-0.08091 1.580222,-0.110468 l 0.670055,-0.05375 -0.05271,9.915324 c -0.04434,8.340844 -0.03442,9.908308 0.06244,9.871141 0.06333,-0.0243 0.13684,-0.108223 0.16336,-0.186493 0.07315,-0.215889 0.247817,-0.465571 0.412967,-0.590323 0.08149,-0.06156 0.148167,-0.147862 0.148167,-0.191788 0,-0.04393 0.05811,-0.146541 0.129124,-0.228033 0.422246,-0.484513 0.548209,-0.64501 0.548209,-0.6985 0,-0.05321 0.08546,-0.162615 0.536513,-0.686805 0.06459,-0.07506 0.189368,-0.265559 0.277292,-0.423333 0.08792,-0.157774 0.226537,-0.336648 0.308029,-0.397496 0.08149,-0.06085 0.148166,-0.15646 0.148166,-0.212467 0,-0.05601 0.0762,-0.149421 0.169334,-0.207584 0.09313,-0.05816 0.169333,-0.161236 0.169333,-0.229053 0,-0.06782 0.0762,-0.164085 0.169333,-0.213928 0.09313,-0.04984 0.169334,-0.144541 0.169334,-0.210439 0,-0.0659 0.0506,-0.150282 0.112454,-0.187521 0.06185,-0.03724 0.185675,-0.201057 0.275166,-0.36404 0.08949,-0.162984 0.229388,-0.346119 0.31088,-0.406968 0.08149,-0.06085 0.148166,-0.146574 0.148166,-0.1905 0,-0.04393 0.0762,-0.165591 0.169334,-0.270366 0.33766,-0.379868 0.412286,-0.477408 0.513311,-0.670925 0.05654,-0.108299 0.152904,-0.254058 0.214146,-0.323908 0.433082,-0.493955 0.575369,-0.687222 0.685672,-0.931333 0.03156,-0.06985 0.12657,-0.176786 0.211128,-0.237634 0.08456,-0.06085 0.153742,-0.15646 0.153742,-0.212468 0,-0.05601 0.0762,-0.14942 0.169334,-0.207583 0.09313,-0.05816 0.169333,-0.161237 0.169333,-0.229054 0,-0.06782 0.0762,-0.164085 0.169333,-0.213928 0.09313,-0.04984 0.169334,-0.14763 0.169334,-0.217303 0,-0.06967 0.0557,-0.148052 0.123776,-0.174176 0.06808,-0.02612 0.144714,-0.113461 0.170302,-0.194084 0.02559,-0.08062 0.113068,-0.219977 0.194398,-0.309678 0.08133,-0.0897 0.216771,-0.270382 0.300979,-0.401513 0.147259,-0.22932 0.208318,-0.307595 0.628608,-0.805859 0.104718,-0.124146 0.190443,-0.272005 0.1905,-0.328575 5.7e-5,-0.05657 0.0763,-0.143635 0.169437,-0.193478 0.09313,-0.04984 0.169333,-0.145094 0.169333,-0.211667 0,-0.06657 0.0762,-0.161823 0.169333,-0.211667 0.09313,-0.04984 0.169334,-0.146111 0.169334,-0.213928 0,-0.06782 0.0762,-0.170891 0.169333,-0.229054 0.09313,-0.05816 0.169423,-0.144211 0.169532,-0.191218 8.5e-5,-0.04701 0.114592,-0.218816 0.254407,-0.3818 0.139816,-0.162983 0.275644,-0.363008 0.30184,-0.4445 0.0262,-0.08149 0.08219,-0.148166 0.124419,-0.148166 0.04223,0 0.136942,-0.116326 0.210464,-0.258503 0.07352,-0.142176 0.198325,-0.329946 0.27734,-0.417265 0.190544,-0.210568 0.282525,-0.333098 0.476226,-0.634392 0.08904,-0.138505 0.23162,-0.326664 0.316835,-0.418132 0.08522,-0.09147 0.154937,-0.207105 0.154937,-0.256973 0,-0.04987 0.0762,-0.138257 0.169333,-0.19642 0.09313,-0.05816 0.169333,-0.161237 0.169333,-0.229054 0,-0.06782 0.0762,-0.164085 0.169334,-0.213928 0.09313,-0.04984 0.169333,-0.145093 0.169333,-0.211666 0,-0.06657 0.0762,-0.161824 0.169333,-0.211667 0.09313,-0.04984 0.169334,-0.144274 0.169334,-0.209845 0,-0.06557 0.06668,-0.169005 0.148166,-0.229854 0.08149,-0.06085 0.220105,-0.239722 0.308029,-0.397496 0.08792,-0.157775 0.221274,-0.355068 0.296333,-0.438432 0.209095,-0.232227 0.305059,-0.357712 0.481926,-0.630176 0.0894,-0.137721 0.219696,-0.314975 0.289546,-0.393898 0.06985,-0.07892 0.176298,-0.203559 0.236551,-0.27697 0.08339,-0.101598 0.194597,-0.120198 0.465666,-0.07788 0.195864,0.03058 0.375166,0.08272 0.398449,0.115881 0.02328,0.03316 0.432859,0.128445 0.910167,0.211747 0.477308,0.0833 0.867833,0.183739 0.867833,0.223192 0,0.03945 0.08244,0.07173 0.183197,0.07173 0.282654,0 1.716456,0.282138 1.764136,0.347141 0.02328,0.03174 0.347134,0.106042 0.719667,0.165114 0.372533,0.05907 0.696383,0.135553 0.719667,0.169958 0.02328,0.03441 0.442383,0.128902 0.931333,0.209993 0.48895,0.08109 0.90805,0.173949 0.931333,0.20635 0.02328,0.0324 0.337609,0.10867 0.6985,0.169487 0.360892,0.06082 0.656167,0.143288 0.656167,0.183267 0,0.03998 0.08244,0.07269 0.183196,0.07269 0.312295,0 1.720218,0.287387 1.750026,0.357217 0.01552,0.03636 0.137099,0.06612 0.27017,0.06612 0.310388,0 0.370689,0.103258 0.186683,0.31968 -0.08052,0.09471 -0.241659,0.292795 -0.358075,0.440187 -0.116417,0.147392 -0.278342,0.341519 -0.359834,0.431392 -0.08149,0.08987 -0.148166,0.20063 -0.148166,0.246123 0,0.04549 -0.09525,0.145125 -0.211667,0.221404 -0.116417,0.07628 -0.211713,0.181933 -0.21177,0.234785 -8.5e-5,0.09114 -0.221893,0.384517 -0.593742,0.785363 -0.09248,0.0997 -0.168155,0.223198 -0.168155,0.274449 0,0.05125 -0.0762,0.14077 -0.169333,0.198932 -0.09313,0.05816 -0.169333,0.150971 -0.169333,0.20624 0,0.05527 -0.09525,0.175411 -0.211667,0.266985 -0.116417,0.09157 -0.211713,0.199114 -0.21177,0.238979 -8.4e-5,0.06645 -0.132939,0.240861 -0.592727,0.778173 -0.09304,0.108731 -0.169169,0.232233 -0.169169,0.27445 0,0.04222 -0.0762,0.124344 -0.169334,0.182507 -0.09313,0.05816 -0.169942,0.144211 -0.170685,0.191218 -7.62e-4,0.04701 -0.105519,0.205775 -0.232834,0.352819 -0.403786,0.466361 -0.512792,0.604556 -0.669589,0.848893 -0.08415,0.131131 -0.239077,0.333281 -0.344279,0.449222 -0.105204,0.115941 -0.191279,0.249652 -0.191279,0.297134 0,0.04748 -0.0762,0.13392 -0.169334,0.192083 -0.09313,0.05816 -0.169333,0.141795 -0.169333,0.185851 0,0.04406 -0.08573,0.170273 -0.1905,0.280484 -0.104775,0.110212 -0.2667,0.308113 -0.359833,0.439781 -0.09313,0.131669 -0.2735,0.357552 -0.400815,0.501965 -0.127314,0.144412 -0.232089,0.301027 -0.232833,0.348034 -7.62e-4,0.04701 -0.07755,0.133056 -0.170686,0.191218 -0.09313,0.05816 -0.169333,0.141796 -0.169333,0.185851 0,0.04406 -0.08573,0.173455 -0.1905,0.287555 -0.25274,0.275235 -0.342605,0.39149 -0.534483,0.691443 -0.08859,0.13849 -0.228411,0.301585 -0.310712,0.362434 -0.0823,0.06085 -0.149638,0.156459 -0.149638,0.212467 0,0.05601 -0.0762,0.149421 -0.169334,0.207583 -0.09313,0.05816 -0.169333,0.148683 -0.169333,0.201157 0,0.05247 -0.08573,0.181913 -0.1905,0.287642 -0.237364,0.239523 -0.331019,0.357987 -0.534483,0.67605 -0.08859,0.13849 -0.228411,0.301586 -0.310712,0.362434 -0.0823,0.06085 -0.149638,0.15646 -0.149638,0.212467 0,0.05601 -0.0762,0.149421 -0.169333,0.207584 -0.09313,0.05816 -0.169334,0.160683 -0.169334,0.227825 0,0.06714 -0.05115,0.152544 -0.113672,0.189783 -0.06252,0.03724 -0.186345,0.181378 -0.275167,0.32031 -0.159287,0.249149 -0.307018,0.428527 -0.631169,0.766374 -0.09093,0.09477 -0.165325,0.217256 -0.165325,0.272189 0,0.05493 -0.0762,0.140657 -0.169333,0.1905 -0.09313,0.04984 -0.169334,0.144541 -0.169334,0.210439 0,0.0659 -0.05115,0.150282 -0.113672,0.187521 -0.06252,0.03724 -0.18543,0.182007 -0.273134,0.321707 -0.0877,0.1397 -0.208002,0.284468 -0.267327,0.321707 -0.05933,0.03724 -0.107867,0.118583 -0.107867,0.180763 0,0.06218 -0.09525,0.175465 -0.211666,0.251744 -0.116417,0.07628 -0.211667,0.193621 -0.211667,0.260759 0,0.06714 -0.0762,0.16285 -0.169333,0.212694 -0.09313,0.04984 -0.169334,0.137943 -0.169334,0.195776 0,0.09254 -0.242097,0.407388 -0.63616,0.827326 -0.06921,0.07376 -0.12584,0.177653 -0.12584,0.230881 0,0.05323 -0.09525,0.15919 -0.211666,0.235469 -0.116417,0.07628 -0.211667,0.189564 -0.211667,0.251745 0,0.06218 -0.05159,0.143523 -0.11464,0.180762 -0.193312,0.114171 -0.294158,0.391876 -0.21675,0.596874 0.03956,0.104775 0.112204,0.1905 0.161424,0.1905 0.04922,0 0.125705,0.09525 0.169966,0.211666 0.04426,0.116417 0.110854,0.211667 0.147985,0.211667 0.03713,0 0.142847,0.141951 0.234929,0.315447 0.09208,0.173495 0.235863,0.39257 0.319516,0.486833 0.08365,0.09426 0.202204,0.228537 0.263446,0.298387 0.06124,0.06985 0.159877,0.219849 0.219189,0.333332 0.05931,0.113483 0.178886,0.282593 0.26572,0.375798 0.08684,0.09321 0.157882,0.194818 0.157882,0.225805 0,0.03099 0.09633,0.166676 0.214073,0.301535 0.251083,0.287587 0.285481,0.333477 0.49947,0.666329 0.177436,0.275995 0.271535,0.39905 0.488454,0.638766 0.07901,0.08732 0.204866,0.277115 0.279669,0.421768 0.0748,0.144653 0.211948,0.346704 0.304766,0.449002 0.09282,0.102299 0.220676,0.243148 0.284129,0.312998 0.06345,0.06985 0.163049,0.231775 0.221326,0.359833 0.05828,0.128059 0.131945,0.232834 0.163703,0.232834 0.03176,0 0.129558,0.13335 0.21733,0.296333 0.08777,0.162983 0.189965,0.296333 0.227095,0.296333 0.03713,0 0.103723,0.09525 0.147985,0.211667 0.04426,0.116416 0.110854,0.211666 0.147984,0.211666 0.03713,0 0.142661,0.142875 0.234514,0.3175 0.09185,0.174625 0.233868,0.367288 0.315587,0.428128 0.08172,0.0609 0.148581,0.14658 0.148581,0.1905 0,0.0439 0.0762,0.16559 0.169333,0.27037 0.361284,0.40644 0.423334,0.48951 0.423334,0.5667 0,0.0439 0.06841,0.12965 0.15203,0.1905 0.08362,0.0609 0.216787,0.24936 0.295934,0.41892 0.07915,0.16956 0.201234,0.33029 0.271304,0.35718 0.07007,0.0269 0.127398,0.10507 0.127398,0.17374 0,0.0687 0.06667,0.17464 0.148167,0.23549 0.08149,0.0609 0.205317,0.22494 0.275167,0.36464 0.06985,0.1397 0.193675,0.30378 0.275166,0.36463 0.08149,0.0609 0.148167,0.16428 0.148167,0.22985 0,0.0656 0.0762,0.16001 0.169333,0.20985 0.09313,0.0498 0.169334,0.14454 0.169334,0.21044 0,0.0659 0.04762,0.15028 0.105833,0.18752 0.107092,0.0685 0.270958,0.30098 0.375963,0.53337 0.03156,0.0699 0.12657,0.17679 0.211128,0.23764 0.08456,0.0609 0.153742,0.16154 0.153742,0.22377 0,0.0622 0.05715,0.13507 0.127,0.16188 0.06985,0.0268 0.127,0.10492 0.127,0.17359 0,0.0687 0.06667,0.17522 0.148167,0.23678 0.148267,0.112 0.311183,0.33638 0.417487,0.57501 0.03112,0.0699 0.107075,0.15747 0.168795,0.19471 0.06172,0.0372 0.112218,0.12162 0.112218,0.18752 0,0.0659 0.0762,0.16059 0.169333,0.21044 0.09313,0.0498 0.169423,0.1369 0.169533,0.19347 8.4e-5,0.0566 0.114319,0.23621 0.253801,0.39919 0.139481,0.16299 0.253691,0.32491 0.253801,0.35984 8.4e-5,0.0349 0.06687,0.13728 0.148365,0.22745 0.08149,0.0902 0.224367,0.26615 0.3175,0.39106 0.09313,0.1249 0.226483,0.29017 0.296333,0.36726 0.06985,0.0771 0.202339,0.28212 0.29442,0.45561 0.09208,0.1735 0.195878,0.31545 0.230659,0.31545 0.03478,0 0.12327,0.11608 0.19664,0.25797 0.120419,0.23286 0.258799,0.42499 0.507046,0.70398 0.04717,0.053 0.158416,0.20969 0.247212,0.34818 0.176726,0.27563 0.270588,0.39848 0.488021,0.63877 0.07901,0.0873 0.203819,0.27509 0.277341,0.41726 0.07352,0.14218 0.166176,0.25851 0.205897,0.25851 0.03972,0 0.119566,0.1143 0.177431,0.254 0.05786,0.1397 0.138688,0.254 0.179605,0.254 0.04092,0 0.07439,0.0349 0.07439,0.0774 0,0.0426 -0.295275,0.1458 -0.656167,0.22934 -0.360891,0.0835 -0.675216,0.17651 -0.6985,0.2066 -0.02328,0.0301 -0.242358,0.10213 -0.486833,0.1601 -0.244475,0.058 -0.4445,0.13419 -0.4445,0.16938 0,0.0352 -0.314325,0.13153 -0.6985,0.21409 -0.384175,0.0826 -0.71755,0.17752 -0.740833,0.21102 -0.02328,0.0335 -0.318558,0.12796 -0.656167,0.20992 -0.337608,0.0819 -0.613833,0.17869 -0.613833,0.21497 0,0.0363 -0.24765,0.11269 -0.550333,0.1698 -0.302684,0.0571 -0.550334,0.13236 -0.550334,0.16722 0,0.0348 -0.32385,0.13437 -0.719666,0.22116 -0.395817,0.0868 -0.719667,0.18121 -0.719667,0.20985 0,0.0286 -0.20955,0.10233 -0.465667,0.16377 -0.256116,0.0614 -0.465666,0.1375 -0.465666,0.16901 0,0.0315 -0.314325,0.12801 -0.6985,0.21444 -0.384175,0.0864 -0.71755,0.18173 -0.740833,0.21179 -0.02328,0.0301 -0.232327,0.10174 -0.464543,0.1593 -0.232215,0.0576 -0.441852,0.13644 -0.46586,0.17529 -0.02401,0.0388 -0.176915,0.0953 -0.339791,0.12536 -0.239452,0.0443 -0.325425,0.0202 -0.449128,-0.12583 z"
         id="path1277"
         sodipodi:nodetypes="csssssssssssssscsscscsscssccscscscscsccsscccssscscssscssscscscssssssssssssssssscsssssssssssccscscscssssscsccsscscssssscsssssssssssssssssssssssssssssssssssssssssssssssssssssssssssssssscsssssscccssssssssscssssssssssssssssssssccssssssssssscssscsssccssccscscscsccssscscscscssccscssssscssssscscsssscsssccscsssssscscsccsscssssscssssssscsssssscssscsssccsssscsscsscscssscscscsssssccscssssssssssscccssscscssssssscssssssssssssssscsscsssssscssssssssscsssssssssssssscsscscsscsssscscssssscssssscsssssssssssssssssssssssssssssssssscsssssssssssssssssssssssssssssssssssssssssssssssssscssssssssscsssssssssssssssssssssssssssssssssssssssssssssssssssssssscscscssscscscssccssssccsccsccssssssssssssscscscscssssscsccccccc" /><path
         style="fill:#1699f2;stroke-width:0.0846667"
         d="m 35.020666,145.00534 c -7.16329,-0.48566 -13.63011,-4.86748 -16.796502,-11.38107 -1.164993,-2.3965 -1.799394,-4.81569 -1.987143,-7.57766 -0.112904,-1.66094 -0.112904,-46.937732 0,-48.598666 0.137998,-2.030075 0.445398,-3.552585 1.10296,-5.462796 1.688825,-4.906017 5.454958,-9.141467 10.198743,-11.46966 2.450692,-1.20277 4.857548,-1.840921 7.662333,-2.03158 1.660934,-0.112904 46.93773,-0.112904 48.598664,0 2.030075,0.137998 3.552585,0.445398 5.462796,1.10296 4.906017,1.688825 9.141467,5.454958 11.469663,10.198743 1.20277,2.450692 1.84092,4.857548 2.03158,7.662333 0.1129,1.660934 0.1129,46.937726 0,48.598666 -0.138,2.03007 -0.4454,3.55258 -1.10296,5.46279 -1.688828,4.90602 -5.454961,9.14147 -10.198746,11.46966 -2.450692,1.20277 -4.857548,1.84092 -7.662333,2.03158 -1.47254,0.1001 -47.297917,0.0951 -48.779055,-0.005 z m 26.531956,-9.41257 c 0.165327,-0.14587 0.241005,-0.33429 0.323061,-0.80433 0.05894,-0.33761 0.134498,-0.61383 0.167915,-0.61383 0.03342,0 0.108172,-0.3048 0.166124,-0.67734 0.05795,-0.37253 0.133546,-0.67733 0.167986,-0.67733 0.03444,0 0.131189,-0.40005 0.214998,-0.889 0.08381,-0.48895 0.177458,-0.889 0.20811,-0.889 0.03065,0 0.105229,-0.3048 0.165726,-0.67733 0.0605,-0.37254 0.136576,-0.67734 0.169061,-0.67734 0.03249,0 0.128543,-0.37147 0.213461,-0.8255 0.08492,-0.45402 0.183834,-0.84474 0.219813,-0.86826 0.03598,-0.0235 0.132211,-0.45271 0.21385,-0.95375 l 0.148433,-0.91098 0.324614,-0.0519 c 0.178538,-0.0285 0.324615,-0.0782 0.324615,-0.11027 0,-0.0321 0.293562,-0.12757 0.652361,-0.21216 0.358798,-0.0846 0.70442,-0.20585 0.768047,-0.26948 0.06363,-0.0636 0.186444,-0.11569 0.272925,-0.11569 0.08648,0 0.207585,-0.0476 0.269119,-0.10583 0.06154,-0.0582 0.330956,-0.1787 0.598714,-0.26775 0.267759,-0.0891 0.486834,-0.1863 0.486834,-0.21611 0,-0.0298 0.1905,-0.12269 0.423333,-0.20642 0.232833,-0.0837 0.423333,-0.1804 0.423333,-0.21484 0,-0.0344 0.1524,-0.1129 0.338667,-0.17438 0.186266,-0.0615 0.338666,-0.14377 0.338666,-0.18288 0,-0.0391 0.0762,-0.0711 0.169334,-0.0711 0.09313,0 0.169333,0.0335 0.169333,0.0744 0,0.0409 0.111563,0.1206 0.247916,0.17708 0.136354,0.0565 0.26713,0.15276 0.290613,0.21396 0.02348,0.0612 0.159344,0.13688 0.301912,0.16819 0.14257,0.0313 0.288019,0.10595 0.323221,0.16585 0.0352,0.0599 0.193771,0.17528 0.352373,0.25639 0.158603,0.0811 0.365812,0.21962 0.460465,0.3078 0.09465,0.0882 0.222062,0.16033 0.283131,0.16033 0.06107,0 0.111036,0.0363 0.111036,0.0807 0,0.0444 0.141611,0.14789 0.314692,0.23002 0.173081,0.0821 0.379899,0.20775 0.459598,0.27914 0.283682,0.25412 0.383329,0.32034 0.712637,0.47355 0.183373,0.0853 0.363874,0.2048 0.401113,0.26552 0.03724,0.0607 0.121071,0.1104 0.186293,0.1104 0.06522,0 0.149054,0.052 0.186293,0.11553 0.03724,0.0636 0.191532,0.17882 0.342874,0.25618 0.151341,0.0774 0.275166,0.16878 0.275166,0.20316 0,0.0344 0.1524,0.12855 0.338667,0.20924 0.186266,0.0807 0.338666,0.17783 0.338666,0.21584 0,0.038 0.13335,0.12144 0.296334,0.18539 0.162983,0.064 0.296333,0.1492 0.296333,0.18945 0,0.0403 0.13335,0.12891 0.296333,0.197 0.162984,0.0681 0.296334,0.15211 0.296334,0.18668 0,0.0346 0.120029,0.116 0.266732,0.18093 0.146704,0.0649 0.337204,0.18854 0.423333,0.27467 0.08613,0.0861 0.27359,0.1566 0.416575,0.1566 0.226961,0 0.537081,-0.27685 2.442138,-2.18017 1.20019,-1.19909 2.205956,-2.24684 2.235035,-2.32833 0.02908,-0.0815 0.09217,-0.14817 0.140196,-0.14817 0.04803,0 0.08732,-0.0952 0.08732,-0.21166 0,-0.11642 -0.02858,-0.21203 -0.0635,-0.21247 -0.03493,-4.2e-4 -0.138714,-0.17189 -0.230642,-0.381 -0.09193,-0.20911 -0.198685,-0.3802 -0.237238,-0.3802 -0.03855,0 -0.109941,-0.1143 -0.15864,-0.254 -0.0487,-0.1397 -0.118781,-0.254 -0.155737,-0.254 -0.03695,0 -0.128169,-0.1524 -0.202698,-0.33867 -0.07453,-0.18626 -0.173916,-0.33866 -0.220859,-0.33866 -0.04694,0 -0.08535,-0.0571 -0.08535,-0.127 0,-0.0699 -0.07523,-0.20223 -0.167179,-0.29418 -0.09195,-0.092 -0.190385,-0.25963 -0.218746,-0.37263 -0.02836,-0.113 -0.117178,-0.2759 -0.197371,-0.36199 -0.08019,-0.0861 -0.20061,-0.28036 -0.26759,-0.4317 -0.06698,-0.15134 -0.150071,-0.27517 -0.184646,-0.27517 -0.03457,0 -0.119137,-0.13468 -0.187918,-0.2993 -0.06878,-0.16461 -0.183591,-0.35784 -0.255136,-0.42938 -0.07154,-0.0715 -0.13008,-0.18451 -0.13008,-0.25103 0,-0.13994 -0.393272,-0.16881 -0.438802,-0.0322 -0.01627,0.0488 -0.243929,0.11086 -0.505911,0.1379 l -0.47633,0.0492 -0.152744,-0.3284 c -0.08401,-0.18062 -0.202424,-0.35887 -0.263146,-0.39611 -0.06072,-0.0372 -0.110401,-0.12416 -0.110401,-0.19316 0,-0.069 -0.05237,-0.14555 -0.11639,-0.17011 -0.06401,-0.0246 -0.184101,-0.19482 -0.266858,-0.37835 -0.08276,-0.18352 -0.181804,-0.33367 -0.220102,-0.33367 -0.0383,0 -0.131817,-0.12025 -0.207818,-0.26722 -0.138141,-0.26714 -0.217842,-0.37967 -0.461639,-0.65183 -0.07139,-0.0797 -0.197007,-0.28651 -0.279139,-0.4596 -0.08213,-0.17308 -0.185644,-0.31469 -0.230026,-0.31469 -0.04438,0 -0.08078,-0.0476 -0.08089,-0.10583 -8.5e-5,-0.0582 -0.11432,-0.23918 -0.253801,-0.40217 -0.139482,-0.16298 -0.253692,-0.34515 -0.253801,-0.40482 -8.5e-5,-0.0597 -0.05386,-0.12908 -0.119447,-0.15425 -0.06559,-0.0252 -0.165459,-0.15732 -0.221939,-0.29368 -0.05648,-0.13635 -0.127503,-0.24791 -0.157832,-0.24791 -0.03033,0 -0.130115,-0.14288 -0.22175,-0.3175 -0.09164,-0.17463 -0.198996,-0.34093 -0.238577,-0.36957 -0.03958,-0.0286 -0.117104,-0.14259 -0.172271,-0.25325 -0.143014,-0.28685 -0.373541,-0.30724 -0.44087,-0.039 -0.02999,0.11951 -0.08272,0.2173 -0.117166,0.2173 -0.03445,0 -0.134003,0.16192 -0.221237,0.35983 -0.08723,0.19791 -0.207321,0.3903 -0.266859,0.42754 -0.05954,0.0372 -0.108251,0.12107 -0.108251,0.18629 0,0.0652 -0.05199,0.14906 -0.115529,0.18629 -0.06354,0.0372 -0.179868,0.19356 -0.258503,0.34738 -0.134764,0.26361 -0.252858,0.41425 -0.645976,0.82398 -0.09093,0.0948 -0.165325,0.204 -0.165325,0.24274 0,0.0387 -0.1524,0.21833 -0.338667,0.39909 -0.186267,0.18077 -0.338667,0.35336 -0.338667,0.38354 0,0.0764 -0.959194,1.04207 -1.03726,1.04423 -0.03498,9.6e-4 -0.211493,0.15415 -0.392259,0.34042 -0.180766,0.18627 -0.35733,0.33867 -0.392364,0.33867 -0.03503,0 -0.152863,0.0857 -0.261842,0.1905 -0.308452,0.29655 -0.486073,0.43129 -0.800477,0.60721 -0.159938,0.0895 -0.319599,0.21034 -0.354802,0.26855 -0.0352,0.0582 -0.174894,0.13019 -0.310427,0.15996 -0.135532,0.0298 -0.265988,0.10511 -0.289901,0.16743 -0.02391,0.0623 -0.183906,0.15965 -0.35554,0.21629 -0.171634,0.0566 -0.383852,0.17478 -0.471594,0.26252 -0.08774,0.0877 -0.216683,0.15953 -0.286533,0.15953 -0.06985,0 -0.127,0.0354 -0.127,0.0787 0,0.0433 -0.20955,0.13958 -0.465667,0.21404 -0.256117,0.0745 -0.465667,0.16632 -0.465667,0.20415 0,0.0378 -0.20955,0.11905 -0.465666,0.18049 -0.256117,0.0614 -0.465667,0.13638 -0.465667,0.16653 0,0.0302 -0.276225,0.12567 -0.613833,0.21226 -0.337609,0.0866 -0.633253,0.18614 -0.656988,0.22123 -0.02373,0.0351 -0.519035,0.13207 -1.100667,0.21551 -0.581631,0.0834 -1.084701,0.19125 -1.117932,0.23959 -0.09428,0.13713 -4.91021,0.11968 -4.956084,-0.018 -0.0194,-0.0582 -0.120634,-0.10583 -0.224965,-0.10583 -0.30251,0 -1.781585,-0.2675 -1.828197,-0.33064 -0.02328,-0.0315 -0.337608,-0.1257 -0.6985,-0.20924 -0.360892,-0.0835 -0.656167,-0.18066 -0.656167,-0.21582 0,-0.0352 -0.20955,-0.11419 -0.465666,-0.17563 -0.256117,-0.0614 -0.465667,-0.1399 -0.465667,-0.17435 0,-0.0345 -0.1905,-0.13115 -0.423333,-0.21487 -0.232834,-0.0837 -0.423334,-0.17671 -0.423334,-0.20662 0,-0.0299 -0.1524,-0.10469 -0.338666,-0.16616 -0.186267,-0.0615 -0.338667,-0.13644 -0.338667,-0.16659 0,-0.0301 -0.161046,-0.12588 -0.357881,-0.21272 -0.196834,-0.0868 -0.432619,-0.22753 -0.523965,-0.31263 -0.09135,-0.0851 -0.216049,-0.15473 -0.277119,-0.15473 -0.06107,0 -0.111035,-0.0363 -0.111035,-0.0807 0,-0.0444 -0.142875,-0.14742 -0.3175,-0.22897 -0.174625,-0.0816 -0.367285,-0.21669 -0.428134,-0.30031 -0.06085,-0.0836 -0.152089,-0.15203 -0.202756,-0.15203 -0.109576,0 -0.107207,0.002 -1.700254,-1.58739 -1.545879,-1.54254 -1.584689,-1.58411 -1.584689,-1.69755 0,-0.0507 -0.06944,-0.14191 -0.154303,-0.20276 -0.08487,-0.0609 -0.208468,-0.23446 -0.274669,-0.3858 -0.0662,-0.15134 -0.147376,-0.27516 -0.18039,-0.27516 -0.03301,0 -0.127226,-0.14162 -0.209358,-0.3147 -0.08213,-0.17308 -0.21727,-0.38263 -0.300306,-0.46566 -0.08304,-0.083 -0.150974,-0.20813 -0.150974,-0.27798 0,-0.0699 -0.03433,-0.127 -0.07628,-0.127 -0.04195,0 -0.146729,-0.1713 -0.232834,-0.38068 -0.08611,-0.20938 -0.18458,-0.38083 -0.218834,-0.381 -0.03426,-1.7e-4 -0.105453,-0.17177 -0.158219,-0.38132 -0.05277,-0.20955 -0.128449,-0.381 -0.168186,-0.381 -0.03974,0 -0.133168,-0.20955 -0.207623,-0.46566 -0.07446,-0.25612 -0.164538,-0.46567 -0.200183,-0.46567 -0.03565,0 -0.135525,-0.31433 -0.221955,-0.6985 -0.08643,-0.38418 -0.183926,-0.71755 -0.216657,-0.74083 -0.03273,-0.0233 -0.109435,-0.34714 -0.170453,-0.71967 -0.06102,-0.37253 -0.138085,-0.69671 -0.171262,-0.72038 -0.310872,-0.22185 -0.305069,-6.38751 0.0062,-6.60329 0.03359,-0.0233 0.110829,-0.33761 0.171647,-0.6985 0.06082,-0.36089 0.136798,-0.65616 0.168848,-0.65616 0.03205,0 0.123769,-0.3048 0.203822,-0.677337 0.08005,-0.372534 0.172743,-0.677334 0.205977,-0.677334 0.03323,0 0.131348,-0.24765 0.218033,-0.550333 0.08669,-0.302683 0.189516,-0.550333 0.228512,-0.550333 0.039,0 0.111941,-0.1524 0.162098,-0.338667 0.05016,-0.186266 0.120013,-0.338666 0.155238,-0.338666 0.03523,0 0.134748,-0.17145 0.221163,-0.381 0.08641,-0.20955 0.182364,-0.381 0.213222,-0.381 0.03086,0 0.108427,-0.13335 0.172377,-0.296334 0.06395,-0.162983 0.142639,-0.296333 0.174864,-0.296333 0.03222,0 0.105499,-0.113244 0.162831,-0.251654 0.05733,-0.13841 0.195257,-0.357485 0.306501,-0.486833 0.111246,-0.129349 0.20231,-0.273639 0.202367,-0.320646 5.7e-5,-0.04701 0.0763,-0.133056 0.169437,-0.191218 0.09313,-0.05816 0.170391,-0.153052 0.171685,-0.210866 0.0013,-0.05781 0.115594,-0.216241 0.254,-0.352061 0.138406,-0.135819 0.251648,-0.274989 0.251648,-0.309266 0,-0.07903 1.626709,-1.700694 2.013892,-2.007647 0.292626,-0.23199 0.612852,-0.498024 0.885941,-0.736018 0.08149,-0.07102 0.184106,-0.129124 0.228033,-0.129124 0.04393,0 0.129651,-0.06841 0.1905,-0.15203 0.06085,-0.08362 0.263034,-0.22246 0.449301,-0.308541 0.186266,-0.08608 0.367468,-0.205189 0.402671,-0.264686 0.0352,-0.0595 0.178077,-0.133232 0.3175,-0.163854 0.139422,-0.03062 0.253495,-0.09269 0.253495,-0.137936 0,-0.04524 0.142875,-0.141748 0.3175,-0.214456 0.174625,-0.07271 0.33655,-0.158458 0.359833,-0.190556 0.02328,-0.0321 0.194734,-0.115107 0.381,-0.184464 l 0.338667,-0.126103 0.02256,-2.268388 0.02256,-2.268386 -0.276563,0.06 c -0.15211,0.033 -0.295613,0.08745 -0.318896,0.120999 -0.02328,0.03355 -0.270934,0.131158 -0.550333,0.216911 -0.2794,0.08575 -0.52705,0.181499 -0.550334,0.212769 -0.02328,0.03127 -0.185208,0.107977 -0.359833,0.170461 -0.174625,0.06248 -0.3175,0.138878 -0.3175,0.169763 0,0.03089 -0.174614,0.122841 -0.388032,0.204346 -0.372597,0.142296 -0.402036,0.141912 -0.74014,-0.0097 -0.19366,-0.08682 -0.416365,-0.215004 -0.4949,-0.284854 -0.273939,-0.243645 -0.384299,-0.321582 -0.64971,-0.458832 -0.146969,-0.076 -0.267218,-0.168194 -0.267218,-0.204873 0,-0.03668 -0.13335,-0.119013 -0.296333,-0.182962 -0.162984,-0.06395 -0.296334,-0.145473 -0.296334,-0.181164 0,-0.03569 -0.142875,-0.131298 -0.3175,-0.212462 -0.174625,-0.08116 -0.345172,-0.192256 -0.378993,-0.24687 -0.03382,-0.05461 -0.176697,-0.147017 -0.3175,-0.205339 -0.140804,-0.05832 -0.256007,-0.132409 -0.256007,-0.164634 0,-0.03223 -0.13335,-0.110915 -0.296333,-0.174864 -0.162983,-0.06395 -0.296333,-0.146283 -0.296333,-0.182962 0,-0.03668 -0.120249,-0.128872 -0.267218,-0.204873 -0.267135,-0.138142 -0.379671,-0.217843 -0.651825,-0.46164 -0.0797,-0.07139 -0.286517,-0.197006 -0.459598,-0.279139 -0.173081,-0.08213 -0.314692,-0.185643 -0.314692,-0.230026 0,-0.04438 -0.04997,-0.08069 -0.111036,-0.08069 -0.06107,0 -0.188478,-0.07215 -0.283131,-0.160332 -0.09465,-0.08818 -0.301862,-0.226848 -0.460465,-0.308147 -0.158602,-0.0813 -0.307418,-0.173059 -0.330702,-0.203913 -0.02328,-0.03085 -0.185208,-0.122574 -0.359833,-0.203825 -0.174625,-0.08125 -0.3175,-0.179418 -0.3175,-0.21815 0,-0.03873 -0.1143,-0.117767 -0.254,-0.175633 -0.1397,-0.05786 -0.254,-0.138688 -0.254,-0.179605 0,-0.132516 -0.500786,-0.07872 -0.686766,0.07377 -0.641161,0.525721 -4.393234,4.373706 -4.393234,4.505537 0,0.087 -0.04762,0.177509 -0.105833,0.201129 -0.07047,0.02859 -0.07676,0.06631 -0.01883,0.112888 0.04785,0.03847 0.158413,0.231871 0.245692,0.429779 0.08728,0.197909 0.181702,0.359833 0.209828,0.359833 0.02813,0 0.105943,0.123825 0.172924,0.275167 0.06698,0.151342 0.187396,0.345607 0.267589,0.4317 0.08019,0.08609 0.169011,0.248988 0.197372,0.361987 0.02836,0.113 0.117272,0.277953 0.197579,0.366565 0.267657,0.295334 0.33356,0.393138 0.491114,0.728843 0.08606,0.183372 0.199578,0.377785 0.252261,0.432027 0.05268,0.05424 0.147744,0.224058 0.211247,0.377369 0.0635,0.15331 0.18377,0.347055 0.267259,0.430544 0.08349,0.08349 0.151798,0.208948 0.151798,0.278798 0,0.06985 0.03841,0.127 0.08535,0.127 0.04694,0 0.14633,0.1524 0.220859,0.338667 0.07453,0.186267 0.164848,0.338667 0.20071,0.338667 0.03586,0 0.112546,0.1143 0.170411,0.254 0.05787,0.1397 0.130877,0.254 0.162247,0.254 0.03137,0 0.127739,0.17145 0.214154,0.381 0.08642,0.20955 0.191458,0.381 0.23343,0.381 0.04197,0 0.116156,0.1143 0.164856,0.254 0.0487,0.139699 0.118781,0.253999 0.155737,0.253999 0.03695,0 0.128169,0.1524 0.202698,0.338667 0.07453,0.186267 0.166262,0.338667 0.203851,0.338667 0.03759,0 0.116419,0.13295 0.175177,0.295444 0.05876,0.162495 0.164385,0.352995 0.234724,0.423333 0.07034,0.07034 0.09488,0.127889 0.05453,0.127889 -0.04035,0 -0.144059,0.17145 -0.230474,0.381 -0.08641,0.20955 -0.183287,0.381 -0.215274,0.381 -0.03198,0 -0.129383,0.20955 -0.21644,0.465667 -0.08706,0.256117 -0.18554,0.465667 -0.218852,0.465667 -0.03331,0 -0.104577,0.13335 -0.158367,0.296333 -0.05379,0.162983 -0.123419,0.296338 -0.154732,0.296343 -0.03131,6e-6 -0.131694,0.247656 -0.223067,0.550334 -0.09137,0.302678 -0.190942,0.550323 -0.221264,0.550323 -0.03032,0 -0.103644,0.2286 -0.162937,0.508 -0.05929,0.2794 -0.140699,0.508 -0.180902,0.508 -0.0402,0 -0.0731,0.05443 -0.0731,0.120952 0,0.230196 -0.245261,0.364187 -0.776667,0.424309 -0.293531,0.03321 -0.553186,0.09183 -0.577013,0.130264 -0.02383,0.03844 -0.50052,0.137663 -1.05932,0.220506 -0.5588,0.08284 -1.03505,0.175555 -1.058334,0.206028 -0.02328,0.03047 -0.347133,0.106047 -0.719666,0.167941 -0.372534,0.06189 -0.696384,0.137466 -0.719667,0.16794 -0.02328,0.03047 -0.499533,0.123184 -1.058333,0.206024 -0.5588,0.0828 -1.03505,0.17961 -1.058333,0.21503 -0.02328,0.0354 -0.509059,0.13297 -1.0795,0.21677 -0.570442,0.0838 -1.037167,0.18444 -1.037167,0.22364 0,0.0392 -0.06902,0.0713 -0.153369,0.0713 -0.08435,0 -0.236752,0.0777 -0.338666,0.17263 -0.184249,0.17166 -0.185292,0.19046 -0.184143,3.32317 6.78e-4,1.73279 0.02424,3.23667 0.05245,3.34196 0.02858,0.10666 0.140546,0.21383 0.252844,0.24201 0.110852,0.0278 0.20155,0.0784 0.20155,0.11239 0,0.034 0.40005,0.13038 0.889,0.21419 0.48895,0.0838 0.889,0.18065 0.889,0.21519 0,0.0346 0.4191,0.13253 0.931333,0.21772 0.512233,0.0852 0.931333,0.17963 0.931333,0.20984 0,0.0302 0.28575,0.10382 0.635,0.16357 0.34925,0.0597 0.635,0.13495 0.635,0.16713 0,0.0322 0.381,0.12842 0.846667,0.21387 0.465666,0.0854 0.846666,0.18093 0.846666,0.21219 0,0.0313 0.32385,0.10723 0.719667,0.16881 0.395817,0.0616 0.719667,0.14033 0.719667,0.17503 0,0.0347 0.182797,0.0882 0.406215,0.11894 0.223419,0.0307 0.445032,0.0819 0.492473,0.11378 0.04744,0.0319 0.155252,0.39129 0.239578,0.79875 0.08433,0.40745 0.181357,0.74083 0.215625,0.74083 0.03427,0 0.110816,0.2286 0.170108,0.508 0.05929,0.2794 0.138728,0.508 0.176522,0.508 0.03779,0 0.132859,0.2286 0.211255,0.508 0.0784,0.2794 0.169519,0.508 0.202496,0.508 0.03298,0 0.110254,0.1524 0.171727,0.33867 0.06147,0.18626 0.136246,0.33866 0.16616,0.33866 0.02991,0 0.122892,0.1905 0.206618,0.42334 0.08373,0.23283 0.178149,0.42333 0.20983,0.42333 0.03168,0 0.100623,0.11397 0.153204,0.25328 0.09641,0.25542 -0.0082,0.67583 -0.168632,0.67739 -0.0373,3.4e-4 -0.123537,0.13401 -0.191636,0.297 -0.0681,0.16298 -0.154293,0.29633 -0.191543,0.29633 -0.03725,0 -0.120051,0.13335 -0.184001,0.29633 -0.06395,0.16299 -0.146282,0.29634 -0.182962,0.29634 -0.03668,0 -0.128872,0.12024 -0.204873,0.26721 -0.138141,0.26714 -0.217842,0.37967 -0.461639,0.65183 -0.07139,0.0797 -0.197006,0.28652 -0.279139,0.4596 -0.08213,0.17308 -0.185643,0.31469 -0.230026,0.31469 -0.04438,0 -0.08069,0.05 -0.08069,0.11103 0,0.0611 -0.07852,0.19532 -0.174484,0.29833 -0.09597,0.103 -0.229829,0.31974 -0.29747,0.48163 -0.06764,0.16189 -0.151586,0.29434 -0.186542,0.29434 -0.03496,0 -0.129583,0.1524 -0.210279,0.33867 -0.0807,0.18626 -0.180312,0.33866 -0.221368,0.33866 -0.04106,0 -0.121991,0.1143 -0.179857,0.254 -0.05786,0.1397 -0.130023,0.254 -0.160352,0.254 -0.03033,0 -0.130103,0.14288 -0.221722,0.3175 -0.09162,0.17463 -0.214584,0.34797 -0.273253,0.38521 -0.05867,0.0372 -0.106673,0.12107 -0.106673,0.18629 0,0.0652 -0.048,0.14906 -0.106672,0.1863 -0.05867,0.0372 -0.182495,0.2201 -0.275167,0.40637 -0.09267,0.18627 -0.216119,0.36914 -0.274327,0.40638 -0.05821,0.0372 -0.105834,0.12415 -0.105834,0.19315 0,0.069 -0.05715,0.14738 -0.127,0.17419 -0.173812,0.0667 -0.161081,0.49596 0.02117,0.71369 0.435308,0.52006 4.292375,4.31287 4.430533,4.35672 0.08945,0.0284 0.162633,0.0871 0.162633,0.13058 0,0.0434 0.05715,0.079 0.127,0.079 0.06985,0 0.127,-0.032 0.127,-0.0711 0,-0.0391 0.1524,-0.12141 0.338667,-0.18288 0.186267,-0.0615 0.338667,-0.14408 0.338667,-0.18357 0,-0.0395 0.1524,-0.13278 0.338666,-0.20731 0.186267,-0.0745 0.338667,-0.16574 0.338667,-0.2027 0,-0.0369 0.1143,-0.10704 0.254,-0.15574 0.1397,-0.0487 0.254,-0.12097 0.254,-0.1606 0,-0.0396 0.13295,-0.12014 0.295444,-0.1789 0.162495,-0.0588 0.344168,-0.15214 0.403718,-0.20751 0.05955,-0.0554 0.240925,-0.17473 0.403055,-0.26525 0.162131,-0.0905 0.345129,-0.21435 0.406664,-0.27517 0.06153,-0.0608 0.164416,-0.11059 0.228626,-0.11059 0.06421,0 0.147214,-0.0487 0.184452,-0.10825 0.03724,-0.0595 0.229633,-0.17962 0.427541,-0.26686 0.197908,-0.0872 0.359833,-0.1838 0.359833,-0.21461 0,-0.0308 0.13335,-0.10833 0.296334,-0.17228 0.162983,-0.0639 0.296333,-0.1445 0.296333,-0.17901 0,-0.0345 0.1524,-0.12997 0.338666,-0.21215 0.186267,-0.0822 0.338667,-0.17557 0.338667,-0.20752 0,-0.032 0.1143,-0.10545 0.254,-0.16332 0.1397,-0.0579 0.254,-0.13135 0.254,-0.16331 0,-0.032 0.161046,-0.12915 0.357881,-0.21599 0.196835,-0.0868 0.4292,-0.22434 0.516368,-0.30555 0.08717,-0.0812 0.250939,-0.17086 0.363938,-0.19922 0.113,-0.0284 0.280685,-0.1268 0.372634,-0.21875 0.09195,-0.0919 0.224329,-0.16718 0.294179,-0.16718 0.06985,0 0.128158,-0.0476 0.129575,-0.10583 0.0015,-0.0618 0.03694,-0.047 0.08517,0.0357 0.04543,0.0778 0.196669,0.1666 0.336092,0.19723 0.139422,0.0306 0.253495,0.0869 0.253495,0.12511 0,0.0382 0.1905,0.13794 0.423334,0.22166 0.232833,0.0837 0.423333,0.18174 0.423333,0.21781 0,0.0361 0.20955,0.12649 0.465667,0.20095 0.256116,0.0745 0.465666,0.16356 0.465666,0.19802 0,0.0345 0.198894,0.11363 0.441986,0.17593 0.243092,0.0623 0.487588,0.15888 0.543324,0.21462 0.05574,0.0557 0.333093,0.15052 0.616348,0.21063 0.283255,0.0601 0.515009,0.14219 0.515009,0.18239 0,0.0402 0.07308,0.0731 0.162408,0.0731 0.290886,0 0.430258,0.0989 0.430258,0.30539 0,0.11143 0.03315,0.20261 0.07367,0.20261 0.04052,0 0.140919,0.44767 0.223108,0.99483 0.08219,0.54716 0.175698,1.01388 0.207796,1.03717 0.0321,0.0233 0.107095,0.37571 0.166661,0.78316 0.05957,0.40746 0.135241,0.74084 0.168166,0.74084 0.03293,0 0.129994,0.4953 0.215709,1.10066 0.08571,0.60537 0.185034,1.10067 0.220711,1.10067 0.03568,0 0.113398,0.3429 0.172716,0.762 0.05932,0.4191 0.133251,0.762 0.164298,0.762 0.03105,0 0.103564,0.34477 0.161149,0.76616 0.08424,0.61641 0.14526,0.80672 0.312206,0.97367 l 0.207505,0.2075 h 3.200316 c 3.19843,0 3.200442,-8e-5 3.41622,-0.1905 z m 17.93003,-19.369 c 0.02401,-0.0388 0.233645,-0.11772 0.46586,-0.17529 0.232216,-0.0576 0.441259,-0.12924 0.464543,-0.1593 0.02328,-0.0301 0.356658,-0.12536 0.740833,-0.21179 0.384175,-0.0864 0.6985,-0.18293 0.6985,-0.21444 0,-0.0315 0.20955,-0.10757 0.465666,-0.16901 0.256117,-0.0614 0.465667,-0.13514 0.465667,-0.16377 0,-0.0286 0.32385,-0.12307 0.719667,-0.20985 0.395816,-0.0868 0.719666,-0.18631 0.719666,-0.22116 0,-0.0349 0.24765,-0.11011 0.550334,-0.16722 0.302683,-0.0571 0.550333,-0.13352 0.550333,-0.1698 0,-0.0363 0.276225,-0.13302 0.613833,-0.21497 0.337609,-0.082 0.632884,-0.17643 0.656167,-0.20992 0.02328,-0.0335 0.356658,-0.12846 0.740833,-0.21102 0.384175,-0.0826 0.6985,-0.1789 0.6985,-0.21409 0,-0.0352 0.200025,-0.11141 0.4445,-0.16938 0.244475,-0.058 0.46355,-0.13002 0.486833,-0.1601 0.02328,-0.0301 0.337609,-0.12306 0.6985,-0.2066 0.360892,-0.0835 0.656167,-0.18674 0.656167,-0.22934 0,-0.0426 -0.03348,-0.0774 -0.07439,-0.0774 -0.04092,0 -0.12174,-0.1143 -0.179605,-0.254 -0.05787,-0.1397 -0.137709,-0.254 -0.177431,-0.254 -0.03972,0 -0.132375,-0.11633 -0.205897,-0.25851 -0.07352,-0.14217 -0.198326,-0.32994 -0.277341,-0.41726 -0.217433,-0.24029 -0.311295,-0.36314 -0.488021,-0.63877 -0.0888,-0.13849 -0.200041,-0.29517 -0.247212,-0.34818 -0.248247,-0.27899 -0.386627,-0.47112 -0.507046,-0.70398 -0.07337,-0.14189 -0.161858,-0.25797 -0.19664,-0.25797 -0.03478,0 -0.138577,-0.14195 -0.230659,-0.31545 -0.09208,-0.17349 -0.22457,-0.37852 -0.29442,-0.45561 -0.06985,-0.0771 -0.203199,-0.24236 -0.296333,-0.36726 -0.09313,-0.12491 -0.236008,-0.30088 -0.3175,-0.39106 -0.08149,-0.0902 -0.148256,-0.19253 -0.148365,-0.22745 -8.5e-5,-0.0349 -0.11432,-0.19685 -0.253801,-0.35984 -0.139482,-0.16298 -0.253692,-0.34262 -0.253801,-0.39919 -1.1e-4,-0.0566 -0.0764,-0.14363 -0.169533,-0.19347 -0.09313,-0.0499 -0.169333,-0.14454 -0.169333,-0.21044 0,-0.0659 -0.0505,-0.15028 -0.112218,-0.18752 -0.06172,-0.0372 -0.137677,-0.12486 -0.168795,-0.19471 -0.106304,-0.23863 -0.26922,-0.46301 -0.417487,-0.57501 -0.08149,-0.0616 -0.148167,-0.16811 -0.148167,-0.23678 0,-0.0687 -0.05715,-0.14679 -0.127,-0.17359 -0.06985,-0.0268 -0.127,-0.0996 -0.127,-0.16188 0,-0.0622 -0.06918,-0.16292 -0.153742,-0.22377 -0.08456,-0.0609 -0.179566,-0.16779 -0.211128,-0.23764 -0.105005,-0.23239 -0.268871,-0.46486 -0.375963,-0.53337 -0.05821,-0.0372 -0.105833,-0.12162 -0.105833,-0.18752 0,-0.0659 -0.0762,-0.1606 -0.169334,-0.21044 -0.09313,-0.0498 -0.169333,-0.14427 -0.169333,-0.20985 0,-0.0656 -0.06668,-0.169 -0.148167,-0.22985 -0.08149,-0.0609 -0.205316,-0.22493 -0.275166,-0.36463 -0.06985,-0.1397 -0.193675,-0.30379 -0.275167,-0.36464 -0.08149,-0.0609 -0.148167,-0.16682 -0.148167,-0.23549 0,-0.0687 -0.05733,-0.14685 -0.127398,-0.17374 -0.07007,-0.0269 -0.192156,-0.18762 -0.271304,-0.35718 -0.07915,-0.16956 -0.212317,-0.35807 -0.295934,-0.41892 -0.08362,-0.0609 -0.15203,-0.14658 -0.15203,-0.1905 0,-0.0772 -0.06205,-0.16026 -0.423334,-0.5667 -0.09313,-0.10478 -0.169333,-0.22644 -0.169333,-0.27037 0,-0.0439 -0.06686,-0.12965 -0.148581,-0.1905 -0.08172,-0.0608 -0.223733,-0.253506 -0.315587,-0.428131 -0.09185,-0.174625 -0.197384,-0.3175 -0.234514,-0.3175 -0.03713,0 -0.103723,-0.09525 -0.147984,-0.211666 -0.04426,-0.116417 -0.110855,-0.211667 -0.147985,-0.211667 -0.03713,0 -0.139322,-0.13335 -0.227095,-0.296333 C 79.95021,98.494 79.85241,98.36065 79.82065,98.36065 c -0.03176,0 -0.105425,-0.104775 -0.163703,-0.232834 -0.05828,-0.128058 -0.157874,-0.289983 -0.221326,-0.359833 -0.06345,-0.06985 -0.19131,-0.210699 -0.284129,-0.312998 -0.09282,-0.102298 -0.229963,-0.304349 -0.304766,-0.449002 -0.0748,-0.144653 -0.200654,-0.334449 -0.279669,-0.421768 -0.216919,-0.239716 -0.311018,-0.362771 -0.488454,-0.638766 -0.213989,-0.332852 -0.248387,-0.378742 -0.49947,-0.666329 -0.11774,-0.134859 -0.214073,-0.270549 -0.214073,-0.301535 0,-0.03099 -0.07105,-0.132598 -0.157882,-0.225805 -0.08683,-0.0932 -0.206408,-0.262315 -0.26572,-0.375798 -0.05931,-0.113483 -0.157947,-0.263482 -0.219189,-0.333332 -0.06124,-0.06985 -0.179792,-0.204124 -0.263446,-0.298387 -0.08365,-0.09426 -0.227436,-0.313338 -0.319516,-0.486833 -0.09208,-0.173496 -0.1978,-0.315447 -0.234929,-0.315447 -0.03713,0 -0.103724,-0.09525 -0.147985,-0.211667 -0.04426,-0.116416 -0.120746,-0.211666 -0.169966,-0.211666 -0.04922,0 -0.12186,-0.08572 -0.161424,-0.1905 -0.07741,-0.204998 0.02344,-0.482703 0.21675,-0.596874 0.06305,-0.03724 0.11464,-0.118582 0.11464,-0.180762 0,-0.06218 0.09525,-0.175466 0.211667,-0.251745 0.116416,-0.07628 0.211666,-0.18224 0.211666,-0.235469 0,-0.05323 0.05663,-0.157124 0.12584,-0.230881 0.394063,-0.419938 0.63616,-0.734785 0.63616,-0.827326 0,-0.05783 0.0762,-0.145933 0.169334,-0.195776 0.09313,-0.04984 0.169333,-0.145556 0.169333,-0.212694 0,-0.06714 0.09525,-0.184479 0.211667,-0.260759 0.116416,-0.07628 0.211666,-0.189564 0.211666,-0.251744 0,-0.06218 0.04854,-0.143524 0.107867,-0.180763 0.05933,-0.03724 0.179623,-0.182007 0.267327,-0.321707 0.0877,-0.1397 0.210614,-0.284468 0.273134,-0.321707 0.06252,-0.03724 0.113672,-0.121624 0.113672,-0.187521 0,-0.0659 0.0762,-0.160595 0.169334,-0.210439 0.09313,-0.04984 0.169333,-0.135569 0.169333,-0.1905 0,-0.05493 0.0744,-0.177418 0.165325,-0.272189 0.324151,-0.337847 0.471882,-0.517225 0.631169,-0.766374 0.08882,-0.138932 0.212647,-0.283071 0.275167,-0.32031 0.06252,-0.03724 0.113672,-0.122642 0.113672,-0.189783 0,-0.06714 0.0762,-0.169663 0.169334,-0.227825 0.09313,-0.05816 0.169333,-0.151576 0.169333,-0.207584 0,-0.05601 0.06734,-0.151618 0.149638,-0.212467 0.0823,-0.06085 0.222121,-0.223944 0.310712,-0.362434 0.203464,-0.318063 0.297119,-0.436527 0.534483,-0.67605 0.104775,-0.105729 0.1905,-0.235168 0.1905,-0.287642 0,-0.05247 0.0762,-0.142994 0.169333,-0.201157 0.09313,-0.05816 0.169334,-0.151575 0.169334,-0.207583 0,-0.05601 0.06734,-0.151618 0.149638,-0.212467 0.0823,-0.06085 0.222121,-0.223944 0.310712,-0.362434 0.191878,-0.299953 0.281743,-0.416208 0.534483,-0.691443 0.104775,-0.1141 0.1905,-0.243499 0.1905,-0.287555 0,-0.04406 0.0762,-0.127688 0.169333,-0.185851 0.09313,-0.05816 0.169942,-0.144211 0.170686,-0.191218 7.62e-4,-0.04701 0.105519,-0.203622 0.232833,-0.348034 0.127315,-0.144413 0.307681,-0.370296 0.400815,-0.501965 0.09313,-0.131668 0.255058,-0.329569 0.359833,-0.439781 0.104775,-0.110211 0.1905,-0.236429 0.1905,-0.280484 0,-0.04406 0.0762,-0.127688 0.169333,-0.185851 0.09313,-0.05816 0.169334,-0.144601 0.169334,-0.192083 0,-0.04748 0.08607,-0.181193 0.191279,-0.297134 0.105202,-0.115941 0.260129,-0.318091 0.344279,-0.449222 0.156797,-0.244337 0.265803,-0.382532 0.669589,-0.848893 0.127315,-0.147044 0.23209,-0.305813 0.232834,-0.352819 7.62e-4,-0.04701 0.07755,-0.133056 0.170685,-0.191218 0.09313,-0.05816 0.169334,-0.140291 0.169334,-0.182507 0,-0.04222 0.07613,-0.165719 0.169169,-0.27445 0.459788,-0.537312 0.592632,-0.711719 0.592727,-0.778173 5.7e-5,-0.03987 0.09535,-0.147405 0.21177,-0.238979 0.116417,-0.09157 0.211667,-0.211716 0.211667,-0.266985 0,-0.05527 0.0762,-0.148077 0.169333,-0.20624 0.09313,-0.05816 0.169333,-0.147682 0.169333,-0.198932 0,-0.05125 0.07567,-0.174752 0.168155,-0.274449 0.371849,-0.400846 0.593644,-0.694222 0.593742,-0.785363 5.7e-5,-0.05285 0.09535,-0.158506 0.21177,-0.234785 0.116417,-0.07628 0.211667,-0.175911 0.211667,-0.221404 0,-0.04549 0.06668,-0.156248 0.148166,-0.246123 0.08149,-0.08987 0.243417,-0.284 0.359834,-0.431392 0.116416,-0.147392 0.277551,-0.345476 0.358075,-0.440187 0.184006,-0.216422 0.123705,-0.31968 -0.186683,-0.31968 -0.133071,0 -0.254648,-0.02975 -0.27017,-0.06612 -0.02981,-0.06983 -1.437731,-0.357217 -1.750026,-0.357217 -0.100758,0 -0.183196,-0.03271 -0.183196,-0.07269 0,-0.03998 -0.295275,-0.12245 -0.656167,-0.183267 -0.360891,-0.06082 -0.675216,-0.137087 -0.6985,-0.169487 -0.02328,-0.0324 -0.442383,-0.125259 -0.931333,-0.20635 -0.48895,-0.08109 -0.90805,-0.175587 -0.931333,-0.209993 -0.02328,-0.03441 -0.347134,-0.110886 -0.719667,-0.169958 -0.372533,-0.05907 -0.696383,-0.133373 -0.719667,-0.165114 -0.04768,-0.065 -1.481482,-0.347141 -1.764136,-0.347141 -0.100759,0 -0.183197,-0.03228 -0.183197,-0.07173 0,-0.03945 -0.390525,-0.139889 -0.867833,-0.223192 -0.477308,-0.0833 -0.886883,-0.178589 -0.910167,-0.211747 -0.02328,-0.03316 -0.202585,-0.08531 -0.398449,-0.115881 -0.271069,-0.04232 -0.382278,-0.02372 -0.465666,0.07788 -0.06025,0.07341 -0.166701,0.198047 -0.236551,0.27697 -0.06985,0.07892 -0.200146,0.256177 -0.289546,0.393898 -0.176867,0.272464 -0.272831,0.397949 -0.481926,0.630176 -0.07506,0.08336 -0.208409,0.280657 -0.296333,0.438432 -0.08792,0.157774 -0.226537,0.336647 -0.308029,0.397496 -0.08149,0.06085 -0.148166,0.164283 -0.148166,0.229854 0,0.06557 -0.0762,0.160002 -0.169334,0.209845 -0.09313,0.04984 -0.169333,0.145093 -0.169333,0.211667 0,0.06657 -0.0762,0.161823 -0.169333,0.211666 -0.09313,0.04984 -0.169334,0.146111 -0.169334,0.213928 0,0.06782 -0.0762,0.170891 -0.169333,0.229054 -0.09313,0.05816 -0.169333,0.146551 -0.169333,0.19642 0,0.04987 -0.06972,0.165506 -0.154937,0.256973 -0.08521,0.09147 -0.227791,0.279627 -0.316835,0.418132 -0.193701,0.301294 -0.285682,0.423824 -0.476226,0.634392 -0.07901,0.08732 -0.203818,0.275089 -0.27734,0.417265 -0.07352,0.142177 -0.168231,0.258503 -0.210464,0.258503 -0.04223,0 -0.09822,0.06668 -0.124419,0.148166 -0.0262,0.08149 -0.162024,0.281517 -0.30184,0.4445 -0.139815,0.162984 -0.254298,0.334794 -0.254407,0.3818 -8.4e-5,0.04701 -0.0764,0.133056 -0.169532,0.191218 -0.09313,0.05816 -0.169333,0.161237 -0.169333,0.229054 0,0.06782 -0.0762,0.164085 -0.169334,0.213928 -0.09313,0.04984 -0.169333,0.145094 -0.169333,0.211667 0,0.06657 -0.0762,0.161823 -0.169333,0.211667 -0.09313,0.04984 -0.16938,0.136908 -0.169437,0.193478 -5.7e-5,0.05657 -0.08578,0.204429 -0.1905,0.328575 -0.42029,0.498264 -0.481349,0.576539 -0.628608,0.805859 -0.08421,0.131131 -0.219649,0.311812 -0.300979,0.401513 -0.08133,0.0897 -0.168809,0.229056 -0.194398,0.309678 -0.02559,0.08062 -0.102224,0.167961 -0.170302,0.194084 -0.06808,0.02612 -0.123776,0.104503 -0.123776,0.174176 0,0.06967 -0.0762,0.16746 -0.169334,0.217303 -0.09313,0.04984 -0.169333,0.146111 -0.169333,0.213928 0,0.06782 -0.0762,0.170891 -0.169333,0.229054 -0.09313,0.05816 -0.169334,0.151575 -0.169334,0.207583 0,0.05601 -0.06918,0.151619 -0.153742,0.212468 -0.08456,0.06085 -0.179566,0.167784 -0.211128,0.237634 -0.110303,0.244111 -0.25259,0.437378 -0.685672,0.931333 -0.06124,0.06985 -0.157607,0.215609 -0.214146,0.323908 -0.101025,0.193517 -0.175651,0.291057 -0.513311,0.670925 -0.09313,0.104775 -0.169334,0.22644 -0.169334,0.270366 0,0.04393 -0.06668,0.129651 -0.148166,0.1905 -0.08149,0.06085 -0.221388,0.243984 -0.31088,0.406968 -0.08949,0.162983 -0.213316,0.326801 -0.275166,0.36404 -0.06185,0.03724 -0.112454,0.121624 -0.112454,0.187521 0,0.0659 -0.0762,0.160595 -0.169334,0.210439 -0.09313,0.04984 -0.169333,0.146111 -0.169333,0.213928 0,0.06782 -0.0762,0.170891 -0.169333,0.229053 -0.09313,0.05816 -0.169334,0.151576 -0.169334,0.207584 0,0.05601 -0.06668,0.151618 -0.148166,0.212467 -0.08149,0.06085 -0.220105,0.239722 -0.308029,0.397496 -0.08792,0.157774 -0.212705,0.348274 -0.277292,0.423333 -0.451048,0.52419 -0.536513,0.633595 -0.536513,0.686805 0,0.05349 -0.125963,0.213987 -0.548209,0.6985 -0.07102,0.08149 -0.129124,0.184106 -0.129124,0.228033 0,0.04393 -0.06667,0.130231 -0.148167,0.191788 -0.16515,0.124752 -0.339819,0.374434 -0.412967,0.590323 -0.02652,0.07827 -0.100032,0.162192 -0.16336,0.186493 -0.09686,0.03717 -0.106772,-1.530297 -0.06244,-9.871141 l 0.05271,-9.915324 -0.670055,0.05375 c -0.36853,0.02956 -1.07963,0.07927 -1.580222,0.110468 -0.500591,0.03119 -0.910166,0.08329 -0.910166,0.115772 0,0.03248 -0.74295,0.108015 -1.651,0.167858 -0.90805,0.05984 -1.651,0.141957 -1.651,0.182477 0,0.04052 -0.123825,0.07265 -0.275167,0.07141 -0.151342,-0.0012 -1.160991,0.06308 -2.243666,0.142934 l -1.9685,0.145194 V 93.25421 c 0,20.1365 0.01443,22.71707 0.127,22.71707 0.06985,0 0.127,-0.0381 0.127,-0.0847 0,-0.0466 0.08572,-0.084 0.1905,-0.0832 0.368903,0.003 2.646357,-0.28825 2.688166,-0.34372 0.02328,-0.0309 0.528108,-0.10655 1.121833,-0.16815 0.593725,-0.0616 1.0795,-0.13611 1.0795,-0.16558 0,-0.0295 0.62865,-0.12478 1.397,-0.21179 0.76835,-0.087 1.397,-0.18337 1.397,-0.21413 0,-0.0308 0.4953,-0.10498 1.100667,-0.16494 0.605366,-0.06 1.100666,-0.14235 1.100666,-0.18311 0,-0.0408 0.1143,-0.0741 0.254,-0.0741 h 0.254 v -9.60701 c 0,-10.241688 -0.0079,-10.051495 0.383249,-9.184 0.08276,0.183524 0.176344,0.33368 0.207969,0.33368 0.03163,0 0.111565,0.103617 0.177642,0.230261 0.118335,0.2268 0.186954,0.321344 0.479974,0.661311 0.08149,0.09455 0.205255,0.285048 0.275028,0.423333 0.06977,0.138285 0.174549,0.281896 0.232834,0.319135 0.05828,0.03724 0.105971,0.11578 0.105971,0.174535 0,0.05876 0.07215,0.184271 0.160332,0.278924 0.08818,0.09465 0.223559,0.294364 0.300836,0.443801 0.07728,0.149438 0.205153,0.343148 0.284168,0.430467 0.237751,0.262737 0.313907,0.368996 0.486566,0.678899 0.0908,0.162983 0.212723,0.326802 0.270931,0.364041 0.05821,0.03724 0.105834,0.12107 0.105834,0.186293 0,0.0652 0.048,0.14905 0.106672,0.18629 0.05867,0.0372 0.181634,0.21058 0.273253,0.38521 0.09162,0.17462 0.19696,0.3175 0.23409,0.3175 0.03713,0 0.103723,0.0952 0.147985,0.21167 0.04426,0.11641 0.113731,0.21166 0.154378,0.21166 0.04065,0 0.142627,0.1524 0.226622,0.33867 0.08399,0.18627 0.180689,0.33867 0.214878,0.33867 0.03419,0 0.125439,0.13335 0.20278,0.29633 0.07734,0.16298 0.167631,0.29633 0.200646,0.29633 0.03301,0 0.11419,0.12383 0.18039,0.27517 0.0662,0.15134 0.189801,0.32495 0.274669,0.3858 0.08487,0.0609 0.154303,0.16682 0.154303,0.23549 0,0.0687 0.05715,0.14679 0.127,0.17359 0.06985,0.0268 0.127047,0.0923 0.127103,0.14551 5.7e-5,0.0532 0.09112,0.20261 0.202367,0.33196 0.111245,0.12934 0.249171,0.34842 0.306502,0.48683 0.05733,0.13841 0.138659,0.25165 0.180729,0.25165 0.04207,0 0.112705,0.0952 0.156966,0.21167 0.04426,0.11642 0.113389,0.21167 0.153616,0.21167 0.04023,0 0.145945,0.15196 0.234929,0.33769 0.08898,0.18573 0.188576,0.33813 0.221315,0.33867 0.03274,5.1e-4 0.126728,0.14258 0.20886,0.31566 0.08213,0.17308 0.207744,0.3799 0.279139,0.4596 0.243797,0.27215 0.323498,0.38469 0.461639,0.65182 0.076,0.14697 0.170683,0.26722 0.210404,0.26722 0.03972,0 0.119566,0.1143 0.177431,0.254 0.05787,0.1397 0.134346,0.254 0.169958,0.254 0.03561,0 0.128026,0.13335 0.205368,0.29634 0.07734,0.16298 0.16763,0.29633 0.200645,0.29633 0.03301,0 0.113156,0.12003 0.178093,0.26673 0.112926,0.25512 0.157042,0.31833 0.494769,0.70899 0.08149,0.0943 0.223506,0.31334 0.315587,0.48683 0.09208,0.1735 0.192234,0.31545 0.222561,0.31545 0.03033,0 0.102487,0.1143 0.160352,0.254 0.05787,0.1397 0.1369,0.254 0.175633,0.254 0.03873,0 0.136829,0.14287 0.217993,0.3175 0.08116,0.17462 0.197252,0.34797 0.257973,0.38521 0.06072,0.0372 0.110401,0.12416 0.110401,0.19315 0,0.069 0.05733,0.14745 0.127399,0.17434 0.07007,0.0269 0.192631,0.18635 0.272359,0.35437 0.07973,0.16801 0.203374,0.37069 0.274768,0.45039 0.243797,0.27215 0.323498,0.38469 0.461639,0.65182 0.076,0.14697 0.170861,0.26722 0.210801,0.26722 0.03994,0 0.09501,0.0667 0.122368,0.14817 0.07077,0.21078 0.248294,0.47529 0.372166,0.55454 0.05821,0.0372 0.105833,0.12107 0.105833,0.18629 0,0.0652 0.04968,0.14905 0.110401,0.18629 0.06072,0.0372 0.176809,0.21058 0.257973,0.38521 0.08116,0.17462 0.177768,0.3175 0.214675,0.3175 0.03691,0 0.10915,0.0923 0.160539,0.20507 0.199981,0.4389 0.378362,0.57007 0.695552,0.51145 0.162876,-0.0301 0.315782,-0.0865 0.339791,-0.12536 z"
         id="path1275" /></g></g></svg>
