<?xml version="1.0" encoding="UTF-8" standalone="no"?>
<!-- Created with Inkscape (http://www.inkscape.org/) -->

<svg
   width="86.673714mm"
   height="86.700737mm"
   viewBox="0 0 86.673713 86.700736"
   version="1.1"
   id="svg5"
   xml:space="preserve"
   xmlns="http://www.w3.org/2000/svg"
   xmlns:svg="http://www.w3.org/2000/svg"><defs
     id="defs2" /><g
     id="layer1"
     transform="translate(-47.470097,-132.40436)"><g
       id="g1628"
       transform="translate(57.579698,35.560574)"><g
         id="g1747"
         transform="translate(14.761752,17.033487)"><path
           style="fill:#fdfbfa;stroke-width:0.0846667"
           d="m 34.061298,155.38762 c -1.035063,-0.28225 -2.455333,-1.0048 -2.455333,-1.24913 0,-0.0364 -0.111449,-0.12383 -0.247664,-0.19427 -0.136214,-0.0704 -0.355289,-0.2789 -0.486833,-0.46324 -0.131543,-0.18435 -0.358068,-0.49917 -0.503389,-0.69961 -2.362424,-3.25839 -0.427635,-8.18182 3.608355,-9.18212 1.729403,-0.42862 3.22486,-0.16878 4.95878,0.86162 5.547245,3.2965 1.382739,12.63283 -4.873916,10.92675 z M 17.466632,148.9469 c -0.535517,-0.0586 -1.392767,-0.1844 -1.905,-0.27957 -0.512233,-0.0952 -1.121833,-0.1985 -1.354666,-0.22963 -0.232834,-0.0311 -0.883871,-0.20581 -1.44675,-0.38817 -0.56288,-0.18237 -1.084945,-0.33158 -1.160146,-0.33158 -0.313722,0 -3.2774375,-1.30303 -3.2774375,-1.44096 0,-0.11356 0.4658259,-1.03618 0.7456856,-1.47691 0.1193724,-0.18799 0.3671502,-0.62755 0.5506169,-0.9768 0.1834668,-0.34925 0.405003,-0.72586 0.492303,-0.83692 0.0873,-0.11105 0.158728,-0.25757 0.158728,-0.32559 0,-0.068 0.0724,-0.22535 0.160883,-0.34962 0.168488,-0.23662 0.798576,-1.35583 1.415254,-2.51387 0.52945,-0.99424 0.58169,-1.02943 1.191261,-0.80239 3.194056,1.18963 5.626507,1.59348 8.195689,1.3607 1.467013,-0.13292 3.475702,-0.54114 4.42334,-0.89895 0.315281,-0.11904 0.771414,-0.28983 1.01363,-0.37953 1.345384,-0.49824 3.87137,-2.04939 4.900141,-3.00906 2.117736,-1.97549 3.129516,-3.26788 4.235673,-5.41043 0.812931,-1.5746 1.479668,-3.69906 1.756951,-5.59828 0.13997,-0.95872 -0.08153,-0.88036 2.45134,-0.86725 5.308213,0.0275 6.278546,0.0853 6.306912,0.37565 0.0227,0.23236 -0.08479,1.01958 -0.455793,3.33821 -0.147578,0.92231 -0.710634,2.8502 -1.149833,3.937 -0.188185,0.46567 -0.380733,0.96097 -0.427885,1.10067 -0.125575,0.37205 -1.177492,2.4889 -1.399732,2.81679 -0.104775,0.15458 -0.1905,0.31044 -0.1905,0.34636 0,0.0755 -1.160687,1.83798 -1.474716,2.23928 -2.307374,2.94863 -2.615191,3.17835 -3.774617,2.81692 -0.707705,-0.22061 -2.659904,-0.27812 -3.471333,-0.10227 -1.226727,0.26585 -1.403705,0.32326 -2.201333,0.71413 -1.362212,0.66752 -2.73186,1.82003 -3.339968,2.81045 -0.128661,0.20955 -0.327491,0.51977 -0.441844,0.68938 -0.218588,0.32422 -0.615749,1.35259 -0.874296,2.26382 -0.179085,0.63118 -0.155686,0.61167 -0.950932,0.79277 -2.950081,0.67183 -6.131284,0.89691 -8.701626,0.61565 z M 4.5529502,144.12543 c -0.8974844,-0.67746 -1.8504297,-1.43801 -2.1557309,-1.7205 -1.68186602,-1.55617 -3.593889,-3.68503 -3.9839348,-4.43572 -0.057037,-0.10978 -0.2241389,-0.35199 -0.3713378,-0.53826 -0.2384433,-0.30173 -0.8006715,-1.18647 -1.148328,-1.80706 -0.4562424,-0.81442 -0.8476522,-1.56633 -0.8476522,-1.62838 0,-0.0401 -0.1484994,-0.37673 -0.3299984,-0.74814 -0.3387784,-0.69326 -1.2236407,-3.20322 -1.3159469,-3.73275 -0.047719,-0.27376 -0.017621,-0.32912 0.3949785,-0.72656 2.8296259,-2.72562 3.5252785,-7.42493 1.5435359,-10.42697 -0.1609132,-0.24376 -0.2925691,-0.46826 -0.2925691,-0.49888 0,-0.0703 -0.6660768,-0.86125 -1.2387359,-1.47093 -0.5257148,-0.55969 -0.5225279,-0.7101 0.04734,-2.23446 0.1896017,-0.50717 0.3447296,-0.96827 0.3447296,-1.02468 0,-0.24766 1.4661548,-3.24388 2.0215825,-4.13128 0.4050022,-0.64706 1.2612717,-1.89775 1.82114098,-2.66001 0.66879974,-0.91055 2.18020382,-2.49885 3.43435832,-3.60908 0.9639478,-0.85332 1.1772223,-1.02509 1.8245844,-1.46949 0.1862667,-0.12787 0.4463652,-0.31945 0.5779964,-0.42574 0.3470893,-0.28027 0.4278325,-0.24723 0.7175119,0.29358 0.1434211,0.26776 0.3582797,0.61806 0.4774624,0.77845 0.1191827,0.16038 0.2166959,0.32789 0.2166959,0.37223 0,0.0443 0.141936,0.29412 0.3154138,0.55505 0.1734777,0.26094 0.4116027,0.65197 0.5291666,0.86895 0.293795,0.54226 0.9053304,1.56274 1.1981874,1.99944 0.1335023,0.19907 0.2995921,0.48482 0.369089,0.635 0.069498,0.15017 0.2982104,0.53878 0.5082506,0.86357 0.4914239,0.75991 0.483964,0.85472 -0.1000988,1.27214 -1.4913618,1.06586 -3.4224416,3.2125 -4.3440086,4.82892 -0.1164166,0.20419 -0.3545416,0.61711 -0.5291666,0.91759 -0.174625,0.30049 -0.3175,0.5695 -0.3175,0.59781 0,0.0283 -0.1504374,0.36961 -0.3343063,0.75846 -0.183868,0.38884 -0.3600238,0.81669 -0.3914563,0.95077 -0.031433,0.13408 -0.1331714,0.47238 -0.2260862,0.75178 -0.5395519,1.62247 -0.7593339,3.08801 -0.7745264,5.16467 -0.015557,2.12651 0.2209757,3.82051 0.749813,5.37 0.1180092,0.34576 0.2145623,0.68136 0.2145623,0.74577 0,0.37019 1.6591668,3.56177 2.1627125,4.1602 0.1143745,0.13593 0.207954,0.28203 0.207954,0.32468 0,0.0426 0.1054091,0.18954 0.2342422,0.32644 0.128833,0.1369 0.372005,0.42036 0.5403832,0.62991 0.6290827,0.7829 2.2527479,2.33486 2.8580968,2.73186 0.542411,0.35573 0.5372675,0.56888 -0.034005,1.40929 -0.263271,0.3873 -0.7701533,1.23993 -1.1116224,1.86985 -0.098948,0.18254 -0.3128764,0.53351 -0.4753966,0.77994 -0.1625202,0.24643 -0.3630405,0.58141 -0.4455998,0.74439 -0.08256,0.16299 -0.2543683,0.44873 -0.3817958,0.635 -0.2247375,0.32851 -0.6604051,1.07312 -1.1048111,1.88826 -0.2840651,0.52104 -0.4383108,0.53053 -1.0551743,0.0649 z M -11.867341,128.66279 c -2.00262,-0.30914 -4.410685,-2.11289 -4.795177,-3.59179 -0.03652,-0.14046 -0.151952,-0.48398 -0.25652,-0.76338 -0.52325,-1.3981 -0.156772,-3.80139 0.777946,-5.10163 0.402023,-0.55923 1.327912,-1.5393 1.4576,-1.54289 0.03605,-0.001 0.248979,-0.128 0.47318,-0.28222 0.431358,-0.29672 0.618881,-0.37844 1.366279,-0.59538 3.568953,-1.03591 7.0579163,1.13928 7.75422,4.83437 0.417294,2.21445 -0.6588641,4.70686 -2.5895536,5.99746 -1.2359478,0.82619 -2.9066644,1.24326 -4.1879744,1.04546 z m 49.599421,-7.79556 c -0.05033,-0.0636 -0.114929,-0.32516 -0.143552,-0.58128 -0.09634,-0.86205 -0.490483,-2.49085 -0.82976,-3.429 -0.185245,-0.51223 -0.367693,-1.04563 -0.405438,-1.18533 -0.03775,-0.1397 -0.225994,-0.52906 -0.41833,-0.86524 -0.192337,-0.33618 -0.349968,-0.66003 -0.350294,-0.71967 -3.39e-4,-0.0596 -0.190825,-0.38761 -0.423333,-0.72883 -0.232508,-0.34123 -0.422742,-0.64673 -0.422742,-0.67889 0,-0.0322 -0.154897,-0.24592 -0.344215,-0.47502 -0.189318,-0.22911 -0.385408,-0.49511 -0.435756,-0.59112 -0.171581,-0.3272 -2.127695,-2.31628 -2.913382,-2.96249 -0.723922,-0.5954 -2.678319,-1.80015 -3.46098,-2.13344 -0.232833,-0.0991 -0.690033,-0.29566 -1.016,-0.43668 -3.362872,-1.45488 -8.284129,-1.67021 -11.721048,-0.51285 -0.39291,0.13231 -0.767738,0.24056 -0.832951,0.24056 -0.06521,0 -0.428792,0.1364 -0.807954,0.30311 -0.765938,0.33676 -0.821176,0.31548 -1.217798,-0.46926 -0.08326,-0.16473 -0.332554,-0.60837 -0.553983,-0.98585 -0.221429,-0.37749 -0.402598,-0.71353 -0.402598,-0.74676 0,-0.0332 -0.17145,-0.34286 -0.381,-0.68806 -0.20955,-0.34519 -0.381,-0.66047 -0.381,-0.70061 0,-0.0401 -0.155877,-0.31416 -0.3463944,-0.60892 -0.1905161,-0.29477 -0.3765668,-0.6153 -0.4134442,-0.7123 -0.036878,-0.097 -0.1920545,-0.3856 -0.3448364,-0.64135 -0.9623822,-1.610977 -0.9793189,-1.711354 -0.3346585,-1.983436 0.2561167,-0.108096 0.7323666,-0.310897 1.0583333,-0.450669 0.6277352,-0.269169 0.7041362,-0.297058 2.0320002,-0.741739 4.320843,-1.446987 10.105727,-1.631016 14.388129,-0.457717 0.692708,0.189789 0.673531,0.172781 0.804205,0.713228 0.0563,0.232834 0.194827,0.654923 0.307845,0.937977 0.113018,0.283053 0.207823,0.568803 0.21068,0.635 0.0029,0.0662 0.15326,0.348957 0.334231,0.628357 0.180971,0.279399 0.404148,0.643309 0.495949,0.808689 0.19625,0.35353 1.85518,2.02764 2.009262,2.02764 0.05814,0 0.213404,0.0888 0.345035,0.19742 0.370326,0.30546 1.122878,0.66856 2.186663,1.05504 0.538613,0.19568 0.74034,0.21858 2.211837,0.25106 1.653638,0.0365 1.686999,0.0328 2.962999,-0.33219 0.348837,-0.0998 0.348837,-0.0998 0.804333,0.36878 1.124187,1.15641 2.039365,2.28538 2.868497,3.53859 0.116416,0.17596 0.354541,0.53473 0.529166,0.79726 0.174625,0.26253 0.3175,0.50604 0.3175,0.54112 0,0.0351 0.125065,0.25369 0.277922,0.48579 0.286123,0.43445 1.246078,2.35259 1.246078,2.48986 0,0.0423 0.1905,0.5136 0.423334,1.04721 0.232833,0.53361 0.423768,1.04135 0.4243,1.1283 5.08e-4,0.087 0.149381,0.61671 0.330776,1.17724 0.181394,0.56052 0.35607,1.20822 0.388168,1.43933 0.0321,0.23111 0.146751,0.91549 0.254786,1.52086 0.235809,1.32135 0.340075,2.37592 0.240763,2.43514 -0.194535,0.11601 -8.460866,0.16544 -8.551344,0.0511 z m -3.470529,-19.16504 c -5.339842,-1.16131 -6.662261,-8.288109 -2.06292,-11.117516 5.503533,-3.385645 11.892297,3.022129 8.379012,8.403942 -0.544868,0.834654 -1.858057,2.078004 -2.194729,2.078004 -0.05165,0 -0.286799,0.0977 -0.522549,0.2172 -0.994571,0.50399 -2.435107,0.67146 -3.598814,0.41837 z"
           id="path1751" /><path
           style="fill:#dc4713;stroke-width:0.0846667"
           d="m -6.0707,166.45987 c -9.759838,-0.93892 -16.881491,-7.58591 -18.601925,-17.36208 -0.175666,-0.9982 -0.282931,-48.68071 -0.113776,-50.576532 0.900203,-10.089084 8.66684,-17.807062 18.7409037,-18.62349 2.1193801,-0.17176 49.4458443,-0.06709 50.4613033,0.111599 9.379338,1.650507 15.870694,8.248538 17.259939,17.543584 0.168816,1.129533 0.168816,50.093799 0,51.223329 -1.389084,9.29395 -7.881339,15.89291 -17.259939,17.54361 -0.755652,0.133 -49.1638976,0.26722 -50.486506,0.13998 z m 42.653523,-10.99104 c 3.588264,-0.75481 5.733871,-4.33592 4.673372,-7.80005 -0.631606,-2.06315 -2.204481,-3.54619 -4.316033,-4.06953 -1.983049,-0.49149 -4.240887,0.0631 -5.601321,1.37592 -2.182688,2.10624 -2.610305,5.54485 -0.970762,7.8062 0.145321,0.20044 0.371846,0.51526 0.503389,0.69961 0.131544,0.18434 0.350619,0.39281 0.486833,0.46324 0.136215,0.0704 0.247664,0.15786 0.247664,0.19427 0,0.74605 3.414974,1.6589 4.976858,1.33034 z m -14.501858,-6.48235 c 1.441932,-0.13315 4.514785,-0.67902 4.794103,-0.85165 0.04997,-0.0309 0.159822,-0.29924 0.244122,-0.59635 0.258547,-0.91123 0.655708,-1.9396 0.874296,-2.26382 0.114353,-0.16961 0.313183,-0.47983 0.441844,-0.68938 0.608108,-0.99042 1.977756,-2.14293 3.339968,-2.81045 0.797628,-0.39087 0.974606,-0.44828 2.201333,-0.71413 0.811429,-0.17585 2.763628,-0.11834 3.471333,0.10227 1.159426,0.36143 1.467243,0.13171 3.774617,-2.81692 0.314029,-0.4013 1.474716,-2.16375 1.474716,-2.23928 0,-0.0359 0.08573,-0.19178 0.1905,-0.34636 0.22224,-0.32789 1.274157,-2.44474 1.399732,-2.81679 0.04715,-0.1397 0.2397,-0.635 0.427885,-1.10067 0.439199,-1.0868 1.002255,-3.01469 1.149833,-3.937 0.371005,-2.31863 0.47849,-3.10585 0.455793,-3.33821 -0.02837,-0.29039 -0.998699,-0.34818 -6.306912,-0.37565 -2.532867,-0.0131 -2.31137,-0.0915 -2.45134,0.86725 -0.277283,1.89922 -0.94402,4.02368 -1.756951,5.59828 -1.106157,2.14255 -2.117937,3.43494 -4.235673,5.41043 -1.028771,0.95967 -3.554757,2.51082 -4.900141,3.00906 -0.242216,0.0897 -0.698349,0.26049 -1.01363,0.37953 -0.947638,0.35781 -2.956327,0.76603 -4.42334,0.89895 -2.569182,0.23278 -5.001633,-0.17107 -8.195689,-1.3607 -0.609571,-0.22704 -0.661811,-0.19185 -1.191261,0.80239 -0.616678,1.15804 -1.246766,2.27725 -1.415254,2.51387 -0.08849,0.12427 -0.160883,0.28159 -0.160883,0.34962 0,0.068 -0.07143,0.21454 -0.158728,0.32559 -0.0873,0.11106 -0.3088362,0.48767 -0.492303,0.83692 -0.1834667,0.34925 -0.4312445,0.78881 -0.5506169,0.9768 -0.2798597,0.44073 -0.7456856,1.36335 -0.7456856,1.47691 0,0.13793 2.9637155,1.44096 3.2774375,1.44096 0.0752,0 0.597266,0.14921 1.160146,0.33158 0.562879,0.18236 1.213916,0.35704 1.44675,0.38817 0.232833,0.0311 0.842433,0.13447 1.354666,0.22963 2.037571,0.37856 4.546041,0.50135 6.519333,0.31915 z M 5.6081245,144.06054 c 0.444406,-0.81514 0.8800736,-1.55975 1.1048111,-1.88826 0.1274275,-0.18627 0.2992357,-0.47201 0.3817958,-0.635 0.082559,-0.16298 0.2830796,-0.49796 0.4455998,-0.74439 0.1625202,-0.24643 0.3764483,-0.5974 0.4753966,-0.77994 0.3414691,-0.62992 0.8483514,-1.48255 1.1116224,-1.86985 0.5712722,-0.84041 0.5764157,-1.05356 0.034005,-1.40929 -0.6053489,-0.397 -2.2290141,-1.94896 -2.8580968,-2.73186 -0.1683782,-0.20955 -0.4115502,-0.49301 -0.5403832,-0.62991 -0.1288331,-0.1369 -0.2342422,-0.2838 -0.2342422,-0.32644 0,-0.0427 -0.09358,-0.18875 -0.207954,-0.32468 -0.5035457,-0.59843 -2.1627125,-3.79001 -2.1627125,-4.1602 0,-0.0644 -0.096553,-0.40001 -0.2145623,-0.74577 -0.5288373,-1.54949 -0.7653705,-3.24349 -0.749813,-5.37 0.015193,-2.07666 0.2349745,-3.5422 0.7745264,-5.16467 0.092915,-0.2794 0.1946528,-0.6177 0.2260862,-0.75178 0.031433,-0.13408 0.2075883,-0.56193 0.3914563,-0.95077 0.1838689,-0.38885 0.3343063,-0.73016 0.3343063,-0.75846 0,-0.0283 0.142875,-0.29732 0.3175,-0.59781 0.174625,-0.30048 0.41275,-0.7134 0.5291666,-0.91759 0.921567,-1.61642 2.8526468,-3.76306 4.3440086,-4.82892 0.5840628,-0.41742 0.5915227,-0.51223 0.1000988,-1.27214 -0.2100402,-0.32479 -0.4387528,-0.7134 -0.5082506,-0.86357 -0.069497,-0.15018 -0.2355867,-0.43593 -0.369089,-0.635 -0.292857,-0.4367 -0.9043924,-1.45718 -1.1981874,-1.99944 -0.1175639,-0.21698 -0.3556889,-0.60801 -0.5291666,-0.86895 -0.1734778,-0.26093 -0.3154138,-0.51071 -0.3154138,-0.55505 0,-0.0443 -0.097513,-0.21185 -0.2166959,-0.37223 -0.1191827,-0.16039 -0.3340413,-0.51069 -0.4774624,-0.77845 -0.2896794,-0.54081 -0.3704226,-0.57385 -0.7175119,-0.29358 -0.1316312,0.10629 -0.3917297,0.29787 -0.5779964,0.42574 -0.6473621,0.4444 -0.8606366,0.61617 -1.8245844,1.46949 -1.2541545,1.11023 -2.76555858,2.69853 -3.43435832,3.60908 -0.55986928,0.76226 -1.41613878,2.01295 -1.82114098,2.66001 -0.5554277,0.8874 -2.0215825,3.88362 -2.0215825,4.13128 0,0.0564 -0.1551279,0.51751 -0.3447296,1.02468 -0.5698676,1.52436 -0.5730545,1.67477 -0.04734,2.23446 0.5726591,0.60968 1.2387359,1.40061 1.2387359,1.47093 0,0.0306 0.1316559,0.25512 0.2925691,0.49888 1.9817426,3.00204 1.28609,7.70135 -1.5435359,10.42697 -0.4125993,0.39744 -0.4426974,0.4528 -0.3949785,0.72656 0.092306,0.52953 0.9771685,3.03949 1.3159469,3.73275 0.181499,0.37141 0.3299984,0.70807 0.3299984,0.74814 0,0.062 0.3914098,0.81396 0.8476522,1.62838 0.3476565,0.62059 0.9098847,1.50533 1.148328,1.80706 0.1471989,0.18627 0.3143013,0.42848 0.3713378,0.53826 0.2764638,0.53209 2.09799587,2.6512 3.0850542,3.58906 1.0101097,0.95975 1.1725969,1.10324 1.8725472,1.65362 1.8892773,1.48555 1.8898869,1.48578 2.2372386,0.84865 z M -9.729486,128.53171 c 5.2081639,-1.34988 6.4133159,-7.95604 2.0073475,-11.00347 -1.063735,-0.73574 -2.7739065,-1.14783 -4.0212275,-0.96896 -1.096968,0.15731 -1.880674,0.41831 -2.466946,0.8216 -0.224201,0.15422 -0.437132,0.28122 -0.47318,0.28222 -0.129688,0.004 -1.055577,0.98366 -1.4576,1.54289 -0.934718,1.30024 -1.301196,3.70353 -0.777946,5.10163 0.104568,0.2794 0.220002,0.62292 0.25652,0.76338 0.592579,2.27928 4.317485,4.13862 6.933032,3.46071 z m 56.01291,-7.71562 c 0.09931,-0.0592 -0.005,-1.11379 -0.240763,-2.43514 -0.108035,-0.60537 -0.222688,-1.28975 -0.254786,-1.52086 -0.0321,-0.23111 -0.206774,-0.87881 -0.388168,-1.43933 -0.181395,-0.56053 -0.330244,-1.09029 -0.330776,-1.17724 -5.08e-4,-0.087 -0.191467,-0.59469 -0.4243,-1.1283 -0.232834,-0.53361 -0.423334,-1.00486 -0.423334,-1.04721 0,-0.13727 -0.959955,-2.05541 -1.246078,-2.48986 -0.152857,-0.2321 -0.277922,-0.45071 -0.277922,-0.48579 0,-0.0351 -0.142875,-0.27859 -0.3175,-0.54112 -0.174625,-0.26253 -0.41275,-0.6213 -0.529166,-0.79726 -0.829132,-1.25321 -1.74431,-2.38218 -2.868497,-3.53859 -0.455496,-0.46855 -0.455496,-0.46855 -0.804333,-0.36878 -1.276,0.36495 -1.309361,0.36869 -2.962999,0.33219 -1.471497,-0.0325 -1.673224,-0.0554 -2.211837,-0.25106 -1.063785,-0.38648 -1.816337,-0.74958 -2.186663,-1.05504 -0.131631,-0.10858 -0.286897,-0.19742 -0.345035,-0.19742 -0.154082,0 -1.813012,-1.67411 -2.009262,-2.02764 -0.0918,-0.16538 -0.314978,-0.52929 -0.495949,-0.808689 -0.180971,-0.2794 -0.331374,-0.562161 -0.334231,-0.628357 -0.0029,-0.0662 -0.09766,-0.351947 -0.21068,-0.635 C 27.308127,98.29254 27.169597,97.870451 27.1133,97.637617 26.982626,97.09717 27.001803,97.114178 26.309095,96.924389 22.026693,95.75109 16.241809,95.935119 11.920966,97.382106 c -1.327864,0.444681 -1.404265,0.47257 -2.0320002,0.741739 -0.3259667,0.139772 -0.8022166,0.342573 -1.0583333,0.450669 -0.6446604,0.272082 -0.6277237,0.372459 0.3346585,1.983436 0.1527819,0.25575 0.3079581,0.54436 0.3448364,0.64135 0.036877,0.097 0.2229281,0.41753 0.4134442,0.7123 0.1905174,0.29476 0.3463944,0.56878 0.3463944,0.60892 0,0.0401 0.17145,0.35542 0.381,0.70061 0.20955,0.3452 0.381,0.65483 0.381,0.68806 0,0.0332 0.181169,0.36927 0.402598,0.74676 0.221429,0.37748 0.470721,0.82112 0.553983,0.98585 0.396622,0.78474 0.45186,0.80602 1.217798,0.46926 0.379162,-0.16671 0.742742,-0.30311 0.807954,-0.30311 0.06521,0 0.440041,-0.10825 0.832951,-0.24056 3.436919,-1.15736 8.358176,-0.94203 11.721048,0.51285 0.325967,0.14102 0.783167,0.33753 1.016,0.43668 0.782661,0.33329 2.737058,1.53804 3.46098,2.13344 0.785687,0.64621 2.741801,2.63529 2.913382,2.96249 0.05035,0.096 0.246438,0.36201 0.435756,0.59112 0.189318,0.2291 0.344215,0.44286 0.344215,0.47502 0,0.0322 0.190234,0.33766 0.422742,0.67889 0.232508,0.34122 0.423008,0.6692 0.423333,0.72883 3.39e-4,0.0596 0.157957,0.38349 0.350294,0.71967 0.192336,0.33618 0.380585,0.72554 0.41833,0.86524 0.03775,0.1397 0.220193,0.6731 0.405438,1.18533 0.339277,0.93815 0.733419,2.56695 0.82976,3.429 0.08485,0.75924 -0.295506,0.7047 4.428749,0.63512 2.306528,-0.034 4.226294,-0.0812 4.266147,-0.10498 z m -9.492122,-19.15127 c 0.352234,-0.0901 0.833313,-0.26153 1.069063,-0.381 0.23575,-0.11946 0.470897,-0.2172 0.522549,-0.2172 0.336672,0 1.649861,-1.24335 2.194729,-2.078004 1.785656,-2.735351 0.950837,-6.641164 -1.78702,-8.360816 -4.004399,-2.515168 -9.051682,0.03444 -9.435224,4.766151 -0.310172,3.826552 3.716316,7.222179 7.435903,6.270869 z"
           id="path1749" /></g></g></g></svg>
