<?xml version="1.0" encoding="UTF-8" standalone="no"?>
<!-- Created with Inkscape (http://www.inkscape.org/) -->

<svg
   width="47.998577mm"
   height="47.991886mm"
   viewBox="0 0 47.998577 47.991886"
   version="1.1"
   id="svg5"
   xml:space="preserve"
   inkscape:version="1.2.2 (732a01da63, 2022-12-09, custom)"
   sodipodi:docname="xfce.svg"
   xmlns:inkscape="http://www.inkscape.org/namespaces/inkscape"
   xmlns:sodipodi="http://sodipodi.sourceforge.net/DTD/sodipodi-0.dtd"
   xmlns="http://www.w3.org/2000/svg"
   xmlns:svg="http://www.w3.org/2000/svg"><sodipodi:namedview
     id="namedview7"
     pagecolor="#505050"
     bordercolor="#eeeeee"
     borderopacity="1"
     inkscape:showpageshadow="0"
     inkscape:pageopacity="0"
     inkscape:pagecheckerboard="0"
     inkscape:deskcolor="#505050"
     inkscape:document-units="mm"
     showgrid="false"
     inkscape:zoom="4.2269912"
     inkscape:cx="91.199621"
     inkscape:cy="88.47901"
     inkscape:window-width="1390"
     inkscape:window-height="827"
     inkscape:window-x="0"
     inkscape:window-y="37"
     inkscape:window-maximized="1"
     inkscape:current-layer="layer1" /><defs
     id="defs2" /><g
     inkscape:label="Layer 1"
     inkscape:groupmode="layer"
     id="layer1"
     transform="translate(-70.01786,-91.34798)"><g
       id="g1120"
       transform="translate(8.6965816,4.8909172)"><path
         style="fill:#fefefe;stroke-width:0.046875"
         d="m 109.27004,124.00935 c -31.966315,-25.035332 -15.983157,-12.51767 0,0 z m -32.511652,-2.4052 c -0.185264,-0.0896 -0.192411,-0.55578 -0.01748,-1.13999 0.166612,-0.55641 0.432985,-1.40997 0.497857,-1.59531 0.06078,-0.17366 0.09241,-0.5375 0.04672,-0.5375 -0.0107,0 -0.226909,0.0864 -0.480468,0.19212 -0.794555,0.33111 -0.923422,0.37828 -1.16408,0.42608 -0.70202,0.13943 -0.912601,-0.20797 -0.561997,-0.92716 0.09055,-0.18573 0.196015,-0.34974 0.234375,-0.36446 0.03836,-0.0147 0.06975,-0.0477 0.06975,-0.0733 0,-0.0256 0.0791,-0.1275 0.175781,-0.22645 0.445405,-0.4559 0.845873,-0.89422 0.97057,-1.0623 l 0.13644,-0.1839 -0.07908,-0.54266 c -0.106682,-0.73202 -0.110189,-2.64005 -0.006,-3.28215 0.107877,-0.66503 0.325618,-1.4698 0.520717,-1.92457 0.162844,-0.37958 0.647493,-1.3125 0.681842,-1.3125 0.0205,0 0.03727,-0.0213 0.03727,-0.0473 0,-0.0261 0.07592,-0.15537 0.168705,-0.28738 0.151404,-0.2154 0.16261,-0.25141 0.109267,-0.35108 -0.03269,-0.0611 -0.07697,-0.11106 -0.09839,-0.11106 -0.02142,0 -0.03895,-0.0323 -0.03895,-0.0718 0,-0.0395 -0.03164,-0.0839 -0.07031,-0.0988 -0.03867,-0.0148 -0.07031,-0.0441 -0.07031,-0.0651 0,-0.0369 -0.552034,-0.60811 -0.587714,-0.60811 -0.0097,0 -0.106201,-0.0842 -0.214352,-0.18706 -0.108152,-0.10288 -0.341071,-0.29686 -0.517599,-0.43107 -0.176528,-0.1342 -0.32096,-0.26096 -0.32096,-0.28169 0,-0.0207 -0.02988,-0.0377 -0.06641,-0.0377 -0.03652,0 -0.07344,-0.0158 -0.08203,-0.0352 -0.0166,-0.0373 -0.524322,-0.4206 -1.013557,-0.76508 -0.162144,-0.11416 -0.387636,-0.27613 -0.501094,-0.35992 -0.113458,-0.0838 -0.225377,-0.15234 -0.248709,-0.15234 -0.02333,0 -0.0806,-0.0422 -0.127264,-0.0937 -0.04666,-0.0516 -0.113214,-0.0937 -0.147891,-0.0937 -0.03468,0 -0.06305,-0.0177 -0.06305,-0.0393 0,-0.0217 -0.05416,-0.064 -0.12035,-0.0942 -0.06619,-0.0302 -0.26546,-0.14956 -0.442818,-0.26534 -0.177357,-0.11577 -0.344684,-0.2105 -0.371837,-0.2105 -0.02715,0 -0.04937,-0.0172 -0.04937,-0.0382 0,-0.021 -0.06855,-0.0742 -0.152344,-0.11818 -0.08379,-0.044 -0.236719,-0.13073 -0.339843,-0.19275 -0.103125,-0.062 -0.292969,-0.16905 -0.421875,-0.23785 -0.128907,-0.0688 -0.318751,-0.17434 -0.421875,-0.23453 -0.292411,-0.1707 -1.471407,-0.7524 -1.757813,-0.86728 -0.141797,-0.0569 -0.352734,-0.14693 -0.46875,-0.20012 -0.116016,-0.0532 -0.274219,-0.12247 -0.351562,-0.15397 -0.07734,-0.0315 -0.246094,-0.10362 -0.375,-0.16025 -0.128907,-0.0566 -0.308204,-0.13466 -0.398438,-0.17338 -0.180437,-0.0774 -0.294293,-0.12949 -1.054687,-0.48214 -0.283594,-0.13152 -0.557813,-0.26331 -0.609375,-0.29286 -0.05156,-0.0296 -0.199219,-0.10301 -0.328125,-0.16325 -0.128907,-0.0602 -0.276563,-0.13402 -0.328125,-0.16396 -0.05156,-0.0299 -0.212161,-0.11906 -0.356885,-0.19803 -0.501852,-0.27382 -1.05044,-0.59743 -1.26314,-0.74513 -0.42089,-0.292259 -0.474907,-0.349425 -0.482297,-0.510419 -0.0062,-0.134496 0.0089,-0.15548 0.120599,-0.168358 0.07288,-0.0084 0.263946,0.04953 0.445313,0.13503 0.174713,0.08236 0.496956,0.233013 0.716097,0.334789 0.219141,0.101775 0.514453,0.238991 0.65625,0.304928 0.141797,0.0659 0.326059,0.14922 0.409472,0.18509 0.28231,0.12142 0.456673,0.19918 0.819663,0.36555 0.199071,0.0912 0.381648,0.16589 0.405727,0.16589 0.02408,0 0.124873,0.0401 0.22399,0.0892 0.09912,0.049 0.285679,0.12488 0.414586,0.16853 0.128906,0.0437 0.323793,0.11955 0.433082,0.16865 0.10929,0.0491 0.229863,0.0893 0.267941,0.0893 0.03808,0 0.138504,0.0293 0.223167,0.0651 0.181806,0.0769 0.641919,0.22067 1.067997,0.33372 0.167578,0.0445 0.388083,0.11157 0.490011,0.14913 0.101927,0.0376 0.344506,0.12271 0.539062,0.18923 0.194557,0.0665 0.395347,0.14934 0.446201,0.18406 0.05085,0.0347 0.11994,0.0631 0.153525,0.0631 0.05517,0 1.214287,0.53481 1.441514,0.6651 0.05156,0.0296 0.209765,0.11654 0.351562,0.19327 0.141797,0.0767 0.286429,0.16201 0.321405,0.18952 0.06891,0.0542 0.222645,0.14672 0.334845,0.20153 0.149639,0.0731 0.727369,0.45731 0.742187,0.49358 0.0086,0.021 0.0343,0.0383 0.05712,0.0383 0.02282,0 0.16976,0.0896 0.326527,0.19922 0.156766,0.10957 0.319276,0.22031 0.361133,0.24609 0.08444,0.052 1.125011,0.83247 1.224307,0.91827 0.03456,0.0299 0.213859,0.17591 0.398438,0.32455 0.184578,0.14865 0.405454,0.33587 0.490834,0.41607 0.08538,0.0802 0.161341,0.1458 0.168801,0.1458 0.0075,0 0.127447,0.10774 0.266638,0.23942 0.852488,0.8065 1.015418,0.92234 1.120262,0.79652 0.03524,-0.0423 0.990309,-0.5041 1.125,-0.54398 0.06445,-0.0191 0.138281,-0.0508 0.164063,-0.0705 0.02578,-0.0197 0.220339,-0.0804 0.432351,-0.13489 0.642841,-0.16522 1.467622,-0.12248 2.708274,0.14033 0.232031,0.0491 0.470274,0.0892 0.529428,0.0891 0.05915,-1.9e-4 0.238452,0.0293 0.398438,0.0655 0.159986,0.0362 0.501821,0.10147 0.759634,0.14503 0.257812,0.0435 0.66914,0.11723 0.914062,0.16373 2.154397,0.40902 3.860851,0.44913 4.348081,0.10219 0.169538,-0.12072 0.46087,-0.70641 0.625187,-1.25687 0.02418,-0.081 0.07524,-0.17323 0.113472,-0.20496 0.03823,-0.0317 0.06951,-0.0825 0.06951,-0.11275 0,-0.0303 0.08578,-0.13844 0.19063,-0.24035 0.181477,-0.1764 0.189215,-0.19542 0.161144,-0.39623 -0.01622,-0.11602 -0.06918,-0.34805 -0.117687,-0.51563 -0.234721,-0.81083 -0.296807,-1.69527 -0.151365,-2.15625 0.254978,-0.80816 0.901052,-1.25249 1.470147,-1.01107 0.506304,0.21478 1.03723,1.02297 1.726601,2.62826 0.221299,0.51533 0.308078,0.60283 0.572681,0.57744 0.190107,-0.0183 0.218789,-0.12845 0.117507,-0.45148 -0.03789,-0.12084 -0.101628,-0.32518 -0.141646,-0.45409 -0.186173,-0.5997 -0.276755,-1.21503 -0.276015,-1.875 8.43e-4,-0.75328 0.07105,-1.02489 0.342609,-1.32557 0.190384,-0.21079 0.389187,-0.31088 0.769457,-0.38738 0.239533,-0.0482 0.320175,-0.0451 0.543686,0.0209 0.259586,0.0766 0.604751,0.32737 0.604751,0.43938 0,0.0316 0.01778,0.0574 0.03951,0.0574 0.05868,0 0.223676,0.35134 0.352225,0.75 0.183014,0.56758 0.26452,1.25046 0.26452,2.21622 0,0.93312 -0.0019,0.92605 0.249928,0.9233 0.0559,-6.1e-4 0.333666,0.0408 0.61726,0.0921 0.283593,0.0513 0.726562,0.12762 0.984375,0.16965 0.971818,0.15844 1.672028,0.30342 2.250008,0.46585 0.1289,0.0362 0.2871,0.0762 0.35156,0.0887 0.20223,0.0395 1.00002,0.31625 1.17826,0.40877 0.0937,0.0487 0.19354,0.0885 0.22178,0.0885 0.0508,0 0.74131,0.32826 0.91782,0.4363 0.19582,0.11986 0.70634,0.47588 0.81463,0.5681 0.34903,0.29725 0.7151,0.76266 0.83225,1.0581 0.19135,0.48254 0.20713,0.55156 0.20713,0.90587 0,0.35536 -0.0109,0.396 -0.18319,0.68609 -0.10075,0.16959 -0.29587,0.42475 -0.43359,0.56701 -0.29343,0.3031 -0.89349,0.79415 -0.97043,0.79415 -0.0294,0 -0.0534,0.0178 -0.0534,0.0395 0,0.0217 -0.0738,0.0793 -0.16406,0.12784 -0.0902,0.0486 -0.16407,0.10465 -0.16407,0.12457 0,0.0199 -0.02,0.0362 -0.0445,0.0362 -0.0245,0 -0.14466,0.0676 -0.26705,0.15017 -0.20144,0.13596 -0.44043,0.27389 -0.83686,0.48299 -0.0773,0.0408 -0.28829,0.15596 -0.46875,0.25592 -0.45698,0.25311 -1.12844,0.58277 -2.69532,1.32327 -0.778255,0.36779 -0.820335,0.39262 -1.017129,0.60015 -0.170634,0.17993 -0.247834,0.39141 -0.248235,0.67999 -5.72e-4,0.4113 0.140258,0.64132 0.843091,1.37702 0.206473,0.21612 0.375403,0.39961 0.375403,0.40774 0,0.008 0.055,0.0739 0.12227,0.14611 0.64718,0.69511 1.01079,1.56484 0.74101,1.77245 -0.15745,0.12117 -0.30618,0.13244 -0.67123,0.0509 -0.39615,-0.0885 -1.349643,-0.37527 -1.588658,-0.4778 -0.08493,-0.0364 -0.232585,-0.0859 -0.328125,-0.10986 -0.09554,-0.024 -0.384648,-0.10789 -0.64246,-0.18645 -0.525361,-0.16009 -0.820313,-0.18642 -0.820313,-0.0732 0,0.15092 0.302881,0.5496 0.797706,1.05 0.266655,0.26967 0.749169,0.85969 0.749169,0.91609 0,0.0175 0.03109,0.063 0.06908,0.10094 0.038,0.038 0.112263,0.20888 0.165037,0.37974 0.0914,0.29592 0.09236,0.32303 0.0202,0.57124 -0.04166,0.14332 -0.12616,0.31099 -0.187767,0.3726 -0.09997,0.1 -0.141077,0.10921 -0.382253,0.086 -0.303458,-0.0293 -0.696565,-0.1331 -0.913524,-0.24133 -0.0795,-0.0397 -0.17224,-0.0721 -0.206076,-0.0721 -0.03384,0 -0.130791,-0.0295 -0.215454,-0.0656 -0.08466,-0.0361 -0.248856,-0.10309 -0.364872,-0.14892 -0.116016,-0.0458 -0.295313,-0.11806 -0.398438,-0.1605 -0.103124,-0.0424 -0.282421,-0.11612 -0.398437,-0.16373 -0.116016,-0.0476 -0.363267,-0.15681 -0.549448,-0.24267 -0.18618,-0.0858 -0.353357,-0.1561 -0.371503,-0.1561 -0.01815,0 -0.19277,-0.0758 -0.388053,-0.16854 -0.195282,-0.0927 -0.44998,-0.21056 -0.565996,-0.26193 -0.438783,-0.19427 -0.518493,-0.23036 -0.672392,-0.30447 -0.145266,-0.0699 -0.192055,-0.0701 -0.574903,-0.002 -0.475142,0.0846 -1.304458,0.18411 -2.526142,0.30312 -1.213898,0.11826 -4.562342,0.11786 -5.601563,-6.7e-4 -1.08273,-0.12349 -1.755667,-0.22007 -2.226562,-0.31955 -1.001352,-0.21155 -1.137878,-0.24422 -1.377152,-0.32949 l -0.252151,-0.0898 -0.427536,0.36081 c -0.235145,0.19845 -0.484355,0.42026 -0.5538,0.49291 -0.06945,0.0727 -0.139759,0.1321 -0.156252,0.1321 -0.01649,0 -0.09929,0.0686 -0.183998,0.15234 -0.0847,0.0838 -0.267517,0.25093 -0.406248,0.37142 -0.138731,0.12049 -0.319988,0.27869 -0.402794,0.35156 -0.08281,0.0729 -0.209368,0.17841 -0.28125,0.23454 -0.07188,0.0561 -0.172882,0.1407 -0.224444,0.18793 -0.05156,0.0472 -0.188672,0.15934 -0.304688,0.24915 -0.116016,0.0898 -0.217969,0.17927 -0.226562,0.1988 -0.0086,0.0195 -0.04293,0.0355 -0.07629,0.0355 -0.03337,0 -0.08794,0.0329 -0.121269,0.073 -0.0564,0.0679 -0.347364,0.2122 -0.413633,0.20505 -0.01619,-0.002 -0.07499,-0.0252 -0.130674,-0.0521 z m 23.049587,-9.0749 c 0.08992,-0.0458 0.264185,-0.1513 0.387265,-0.23437 0.12308,-0.0831 0.23303,-0.15103 0.24434,-0.15103 0.0515,0 0.62925,-0.46807 0.82837,-0.67116 0.30005,-0.30602 0.36591,-0.64134 0.12597,-0.64134 -0.26443,0 -1.439349,1.14233 -1.72358,1.67578 -0.0676,0.12688 -0.06777,0.12685 0.137635,0.0221 z m -0.846782,-1.43699 c 0.161309,-0.0591 0.307882,-0.11166 0.679688,-0.24372 0.712169,-0.25296 1.569499,-0.69462 1.570019,-0.80882 2.3e-4,-0.0521 -0.061,-0.0588 -0.30766,-0.0335 -0.16937,0.0174 -0.34339,0.05 -0.38671,0.0726 -0.0433,0.0225 -0.31081,0.15129 -0.594399,0.2861 -0.283594,0.1348 -0.526172,0.258 -0.539063,0.27376 -0.01289,0.0158 -0.107812,0.0705 -0.210937,0.12171 -0.150809,0.0748 -0.58552,0.35102 -0.67627,0.42965 -0.03867,0.0335 0.303046,-0.0383 0.465332,-0.0977 z m -0.01627,-2.647 c 0.110447,-0.067 0.201479,-0.13754 0.202293,-0.15688 8.16e-4,-0.0193 -0.140901,-0.036 -0.314924,-0.037 -0.627978,-0.004 -1.078619,-0.30645 -1.37386,-0.92288 -0.101604,-0.21214 -0.184734,-0.4178 -0.184734,-0.45703 0,-0.10914 -0.07921,-0.0848 -0.11108,0.0341 -0.04848,0.1809 -0.03278,0.34093 0.06277,0.64004 0.174854,0.54734 0.568929,0.99614 0.920532,1.04837 0.254109,0.0377 0.596532,-0.026 0.799003,-0.14872 z m 0.262424,-1.01026 c 0.115111,-0.11179 0.176901,-0.22187 0.199448,-0.35533 0.04341,-0.56048 -0.08634,-0.72247 -0.567737,-0.9358 -0.08642,0 -0.383578,0.17777 -0.463793,0.27745 -0.223773,0.27808 -0.188673,0.72919 0.07744,0.99531 0.153912,0.15391 0.210253,0.18037 0.384115,0.18037 0.168926,0 0.23225,-0.0277 0.370527,-0.16198 z m 5.835213,-1.59355 c -0.10701,-0.0782 -0.10268,-0.22594 0.0166,-0.56641 0.0996,-0.28442 0.37087,-0.8698 0.42278,-0.91244 0.0157,-0.0129 0.0791,-0.11836 0.141,-0.23437 0.32623,-0.61184 0.90446,-1.30422 1.04437,-1.25053 0.125,0.048 0.056,0.38524 -0.16224,0.7935 -0.0567,0.10599 -0.10382,0.20298 -0.21078,0.43359 -0.0478,0.10312 -0.12476,0.24349 -0.17096,0.31192 -0.0462,0.0684 -0.084,0.14475 -0.084,0.16958 0,0.0382 -0.1112,0.23792 -0.43646,0.78394 -0.11311,0.18992 -0.32496,0.44831 -0.40081,0.4889 -0.0504,0.027 -0.10697,0.0207 -0.15949,-0.0177 z m -0.86887,-0.26947 c -0.0795,-0.0795 -0.0714,-0.75364 0.0154,-1.27297 0.10608,-0.63511 0.2571,-1.33936 0.33565,-1.56531 0.0905,-0.26029 0.22452,-0.27411 0.27071,-0.0279 0.0979,0.52173 -0.1975,2.57981 -0.41102,2.86385 -0.0556,0.0739 -0.13817,0.0749 -0.21069,0.002 z"
         id="path1124"
         sodipodi:nodetypes="cccssscsscscscscsssccsscssccsscccscssscssccscccsccsccccccscscccsccsscccccsccsscsccccsscccssccscssscscscssscssssccssssssccccsscsscssscsscccssssscscccsssscsscccssccscsccccsssccscscscccccsccccccsssscccsscccccscccscsssscccccsssccccscccccsccccccccccc" /><path
         style="fill:#28b6e1;stroke-width:0.046875"
         d="m 71.767571,134.40582 c -3.965897,-0.26888 -7.546198,-2.69484 -9.299245,-6.30103 -0.644989,-1.32681 -0.99622,-2.66617 -1.100165,-4.19531 -0.06251,-0.91957 -0.06251,-25.986691 0,-26.906253 0.0764,-1.123935 0.246591,-1.96686 0.610645,-3.024432 0.935003,-2.716176 3.020092,-5.061098 5.64645,-6.350083 1.356805,-0.665904 2.689341,-1.01921 4.242187,-1.124767 0.919562,-0.06251 25.986688,-0.06251 26.90625,0 1.123935,0.0764 1.966857,0.246591 3.024437,0.610645 2.71617,0.935003 5.06109,3.020092 6.35008,5.646449 0.6659,1.356806 1.01921,2.689342 1.12477,4.242188 0.0625,0.919562 0.0625,25.986683 0,26.906253 -0.0764,1.12393 -0.24659,1.96686 -0.61065,3.02443 -0.935,2.71617 -3.02009,5.0611 -5.64645,6.35008 -1.3568,0.66591 -2.68934,1.01921 -4.242187,1.12477 -0.81526,0.0554 -26.186102,0.0527 -27.006122,-0.003 z m 5.312723,-12.81395 c 0.08899,-0.0372 0.18907,-0.10046 0.222401,-0.14062 0.03333,-0.0402 0.0879,-0.073 0.121269,-0.073 0.03337,0 0.0677,-0.016 0.07629,-0.0355 0.0086,-0.0195 0.110546,-0.10898 0.226562,-0.1988 0.116016,-0.0898 0.253125,-0.20193 0.304688,-0.24916 0.05156,-0.0472 0.152562,-0.13179 0.224444,-0.18792 0.07188,-0.0561 0.198444,-0.16167 0.28125,-0.23454 0.08281,-0.0729 0.264063,-0.23107 0.402794,-0.35156 0.138731,-0.12049 0.321543,-0.28763 0.406248,-0.37142 0.0847,-0.0838 0.167504,-0.15234 0.183998,-0.15234 0.01649,0 0.08681,-0.0594 0.156252,-0.1321 0.06945,-0.0726 0.318655,-0.29446 0.5538,-0.49291 l 0.427536,-0.36081 0.252151,0.0898 c 0.239274,0.0853 0.3758,0.11793 1.377151,0.32949 0.470896,0.0995 1.143833,0.19606 2.226563,0.31955 1.039221,0.11852 4.387665,0.11892 5.601563,6.7e-4 1.221684,-0.11901 2.051,-0.21853 2.526142,-0.30312 0.382848,-0.0682 0.429637,-0.068 0.574903,0.002 0.153899,0.0741 0.233609,0.1102 0.672392,0.30447 0.116016,0.0514 0.370714,0.16923 0.565996,0.26193 0.195283,0.0927 0.369907,0.16854 0.388053,0.16854 0.01815,0 0.185323,0.0702 0.371503,0.1561 0.186181,0.0859 0.433432,0.19506 0.549448,0.24267 0.116016,0.0476 0.295313,0.12129 0.398438,0.16373 0.103125,0.0424 0.282421,0.11466 0.398437,0.1605 0.116016,0.0458 0.280208,0.11285 0.364872,0.14892 0.08466,0.0361 0.181618,0.0656 0.215454,0.0656 0.03384,0 0.126571,0.0324 0.206076,0.0721 0.216959,0.10823 0.610066,0.21208 0.913524,0.24133 0.241176,0.0233 0.282284,0.014 0.382253,-0.086 0.06161,-0.0616 0.146103,-0.22928 0.187767,-0.3726 0.07216,-0.24821 0.0712,-0.27532 -0.0202,-0.57124 -0.05277,-0.17086 -0.12704,-0.34174 -0.165037,-0.37974 -0.038,-0.038 -0.06908,-0.0834 -0.06908,-0.10094 0,-0.0564 -0.482514,-0.64642 -0.749169,-0.91609 -0.494825,-0.5004 -0.797706,-0.89908 -0.797706,-1.05 0,-0.11319 0.294952,-0.0869 0.820313,0.0732 0.257812,0.0786 0.546919,0.16246 0.64246,0.18645 0.09554,0.024 0.243197,0.0734 0.328125,0.10986 0.239015,0.10253 1.192502,0.3893 1.588652,0.4778 0.36505,0.0815 0.51378,0.0703 0.67123,-0.0509 0.26978,-0.20761 -0.0938,-1.07734 -0.74101,-1.77245 -0.0673,-0.0722 -0.12227,-0.13797 -0.12227,-0.14611 0,-0.008 -0.16893,-0.19162 -0.375397,-0.40774 -0.702833,-0.7357 -0.843664,-0.96572 -0.843091,-1.37702 4.21e-4,-0.28858 0.0776,-0.50006 0.248235,-0.67999 0.196794,-0.20753 0.238874,-0.23236 1.017123,-0.60015 1.56688,-0.7405 2.23834,-1.07016 2.69532,-1.32327 0.18046,-0.1 0.3914,-0.21512 0.46875,-0.25592 0.39643,-0.2091 0.63542,-0.34703 0.83686,-0.48299 0.12239,-0.0826 0.24256,-0.15017 0.26705,-0.15017 0.0245,0 0.0445,-0.0163 0.0445,-0.0362 0,-0.0199 0.0738,-0.076 0.16407,-0.12457 0.0902,-0.0486 0.16406,-0.10612 0.16406,-0.12784 0,-0.0217 0.024,-0.0395 0.0534,-0.0395 0.0769,0 0.677,-0.49105 0.97043,-0.79415 0.13772,-0.14226 0.33284,-0.39742 0.43359,-0.56701 0.17234,-0.29009 0.18319,-0.33073 0.18319,-0.68609 0,-0.35431 -0.0158,-0.42333 -0.20713,-0.90587 -0.11715,-0.29544 -0.48322,-0.76085 -0.83225,-1.0581 -0.10829,-0.0922 -0.61881,-0.44824 -0.81463,-0.5681 -0.17651,-0.10804 -0.86706,-0.4363 -0.91782,-0.4363 -0.0282,0 -0.12804,-0.0398 -0.22178,-0.0885 -0.17824,-0.0925 -0.97603,-0.36929 -1.17826,-0.40877 -0.0645,-0.0126 -0.22266,-0.0525 -0.35156,-0.0887 -0.57798,-0.16243 -1.27819,-0.30741 -2.250002,-0.46585 -0.257813,-0.042 -0.700782,-0.11837 -0.984375,-0.16965 -0.283594,-0.0513 -0.561361,-0.0927 -0.61726,-0.0921 -0.251842,0.003 -0.249928,0.01 -0.249928,-0.9233 0,-0.96576 -0.08151,-1.64864 -0.26452,-2.21622 -0.128549,-0.39866 -0.293547,-0.75 -0.352225,-0.75 -0.02173,0 -0.03951,-0.0258 -0.03951,-0.0574 0,-0.11201 -0.345165,-0.36279 -0.604751,-0.43938 -0.441462,-0.130261 -1.007036,0.0276 -1.313143,0.36652 -0.271563,0.30068 -0.341766,0.57229 -0.342609,1.32557 -7.41e-4,0.65997 0.08984,1.2753 0.276015,1.875 0.04002,0.12891 0.103758,0.33325 0.141646,0.45409 0.101282,0.32303 0.0726,0.43323 -0.117507,0.45148 -0.264603,0.0254 -0.351382,-0.0621 -0.572681,-0.57744 -0.689371,-1.60529 -1.220297,-2.41348 -1.726601,-2.62826 -0.569095,-0.24142 -1.215169,0.20291 -1.470147,1.01107 -0.145442,0.46098 -0.08336,1.34542 0.151365,2.15625 0.04851,0.16758 0.10147,0.39961 0.117687,0.51563 0.02807,0.20081 0.02033,0.21983 -0.161144,0.39623 -0.104846,0.10191 -0.19063,0.21007 -0.19063,0.24035 0,0.0303 -0.03128,0.081 -0.06951,0.11275 -0.03823,0.0317 -0.08929,0.12396 -0.113472,0.20496 -0.164317,0.55046 -0.455649,1.13615 -0.625187,1.25687 -0.48723,0.34694 -2.193684,0.30683 -4.348081,-0.10219 -0.244922,-0.0465 -0.65625,-0.12018 -0.914062,-0.16373 -0.257813,-0.0436 -0.599648,-0.10882 -0.759634,-0.14503 -0.159986,-0.0362 -0.339283,-0.0657 -0.398438,-0.0655 -0.05915,1.8e-4 -0.297397,-0.0399 -0.529428,-0.0891 -1.240652,-0.26281 -2.065433,-0.30555 -2.708274,-0.14033 -0.212012,0.0545 -0.40657,0.11519 -0.432351,0.13489 -0.02578,0.0197 -0.09961,0.0514 -0.164063,0.0705 -0.134691,0.0399 -1.089756,0.50168 -1.125,0.54398 -0.104844,0.12582 -0.267774,0.01 -1.120262,-0.79652 -0.139191,-0.13168 -0.259178,-0.23942 -0.266638,-0.23942 -0.0075,0 -0.08342,-0.0656 -0.168801,-0.1458 -0.08538,-0.0802 -0.306256,-0.26742 -0.490834,-0.41607 -0.184579,-0.14864 -0.363876,-0.29469 -0.398438,-0.32455 -0.0993,-0.0858 -1.139867,-0.86626 -1.224307,-0.91827 -0.04186,-0.0258 -0.204367,-0.13652 -0.361133,-0.24609 -0.156767,-0.10957 -0.303704,-0.19922 -0.326527,-0.19922 -0.02282,0 -0.04853,-0.0172 -0.05712,-0.0383 -0.01482,-0.0363 -0.592548,-0.42048 -0.742187,-0.49358 -0.1122,-0.0548 -0.265935,-0.14734 -0.334845,-0.20153 -0.03498,-0.0275 -0.179608,-0.11279 -0.321405,-0.18952 -0.141797,-0.0767 -0.3,-0.1637 -0.351562,-0.19327 -0.227227,-0.13029 -1.386342,-0.6651 -1.441514,-0.6651 -0.03359,0 -0.102672,-0.0284 -0.153525,-0.0631 -0.05085,-0.0347 -0.251644,-0.11755 -0.446201,-0.18406 -0.194556,-0.0665 -0.437135,-0.15167 -0.539062,-0.18923 -0.101928,-0.0376 -0.322433,-0.10467 -0.490011,-0.14913 -0.426078,-0.11305 -0.886191,-0.25682 -1.067997,-0.33372 -0.08466,-0.0358 -0.185088,-0.0651 -0.223167,-0.0651 -0.03808,0 -0.158651,-0.0402 -0.267941,-0.0893 -0.109289,-0.0491 -0.304176,-0.12499 -0.433082,-0.16865 -0.128907,-0.0436 -0.315471,-0.11949 -0.414586,-0.16853 -0.09912,-0.049 -0.199912,-0.0892 -0.22399,-0.0892 -0.02408,0 -0.206656,-0.0747 -0.405727,-0.16589 -0.36299,-0.16637 -0.537353,-0.24413 -0.819663,-0.36555 -0.08341,-0.0359 -0.267675,-0.11916 -0.409472,-0.18509 -0.141797,-0.06594 -0.437109,-0.203153 -0.65625,-0.304928 -0.219141,-0.101776 -0.541384,-0.252431 -0.716097,-0.334789 -0.181367,-0.0855 -0.372429,-0.143429 -0.445313,-0.13503 -0.111742,0.01288 -0.126773,0.03386 -0.120599,0.168358 0.0074,0.160994 0.06141,0.21816 0.482297,0.510419 0.2127,0.1477 0.761288,0.47131 1.26314,0.74513 0.144724,0.079 0.305322,0.16808 0.356885,0.19803 0.05156,0.0299 0.199218,0.10373 0.328125,0.16396 0.128906,0.0602 0.276562,0.1337 0.328125,0.16325 0.05156,0.0296 0.325781,0.16134 0.609375,0.29286 0.760394,0.35265 0.87425,0.4047 1.054687,0.48214 0.09023,0.0387 0.269531,0.11674 0.398438,0.17338 0.128906,0.0566 0.297656,0.12875 0.375,0.16025 0.07734,0.0315 0.235546,0.10079 0.351562,0.15397 0.116016,0.0532 0.326953,0.14324 0.46875,0.20012 0.286406,0.11488 1.465402,0.69658 1.757813,0.86728 0.103124,0.0602 0.292968,0.16574 0.421875,0.23453 0.128906,0.0688 0.31875,0.17583 0.421875,0.23785 0.103124,0.062 0.256054,0.14876 0.339843,0.19275 0.08379,0.044 0.152344,0.0972 0.152344,0.11818 0,0.021 0.02222,0.0382 0.04937,0.0382 0.02715,0 0.19448,0.0947 0.371837,0.2105 0.177358,0.11578 0.376626,0.23518 0.442818,0.26534 0.06619,0.0302 0.12035,0.0725 0.12035,0.0942 0,0.0216 0.02837,0.0393 0.06305,0.0393 0.03468,0 0.101227,0.0422 0.147891,0.0937 0.04666,0.0516 0.103932,0.0937 0.127264,0.0937 0.02333,0 0.135251,0.0686 0.248709,0.15234 0.113458,0.0838 0.33895,0.24576 0.501094,0.35992 0.489235,0.34448 0.996959,0.72774 1.013557,0.76508 0.0086,0.0193 0.04551,0.0352 0.08203,0.0352 0.03652,0 0.06641,0.017 0.06641,0.0377 0,0.0207 0.144432,0.14749 0.32096,0.28169 0.176528,0.13421 0.409447,0.32819 0.517599,0.43107 0.108151,0.10288 0.20461,0.18706 0.214352,0.18706 0.03568,0 0.587714,0.57119 0.587714,0.60811 0,0.021 0.03164,0.0503 0.07031,0.0651 0.03867,0.0148 0.07031,0.0593 0.07031,0.0988 0,0.0395 0.01753,0.0718 0.03895,0.0718 0.02143,0 0.0657,0.05 0.09839,0.11106 0.05334,0.0997 0.04214,0.13568 -0.109267,0.35108 -0.09279,0.13201 -0.168705,0.26133 -0.168705,0.28738 0,0.026 -0.01677,0.0473 -0.03727,0.0473 -0.03435,0 -0.518998,0.93292 -0.681842,1.3125 -0.195099,0.45477 -0.41284,1.25954 -0.520717,1.92457 -0.104156,0.6421 -0.100649,2.55013 0.006,3.28215 l 0.07908,0.54266 -0.13644,0.1839 c -0.124697,0.16808 -0.525165,0.6064 -0.97057,1.0623 -0.09668,0.099 -0.175781,0.20086 -0.175781,0.22645 0,0.0256 -0.03139,0.0586 -0.06975,0.0733 -0.03836,0.0147 -0.143829,0.17873 -0.234375,0.36446 -0.350604,0.71919 -0.140023,1.06659 0.561997,0.92716 0.240658,-0.0478 0.369525,-0.095 1.16408,-0.42608 0.253559,-0.10567 0.46977,-0.19212 0.480468,-0.19212 0.04569,0 0.01406,0.36384 -0.04672,0.5375 -0.06487,0.18534 -0.331245,1.0389 -0.497857,1.59531 -0.174934,0.58421 -0.167787,1.05036 0.01748,1.13999 0.135135,0.0654 0.13614,0.0653 0.321906,-0.0123 z m 22.590046,-9.08474 c 0.284231,-0.53345 1.45915,-1.67578 1.72358,-1.67578 0.23994,0 0.17408,0.33532 -0.12597,0.64134 -0.19912,0.20309 -0.77683,0.67116 -0.82837,0.67116 -0.0113,0 -0.12126,0.068 -0.24434,0.15103 -0.199657,0.13474 -0.525571,0.31772 -0.56592,0.31772 -0.0083,0 0.01011,-0.0475 0.04102,-0.10547 z m -1.174479,-1.31715 c 0.09075,-0.0786 0.525461,-0.35482 0.67627,-0.42965 0.103125,-0.0512 0.198046,-0.10594 0.210937,-0.12171 0.01289,-0.0158 0.255469,-0.13896 0.539063,-0.27376 0.283589,-0.13481 0.551069,-0.26355 0.594399,-0.2861 0.0433,-0.0226 0.21734,-0.0552 0.38671,-0.0726 0.57259,-0.0587 0.35141,0.13921 -0.67642,0.60514 -0.252206,0.11433 -0.339307,0.14959 -0.585939,0.23719 -0.371806,0.13206 -0.518379,0.18462 -0.679688,0.24372 -0.162286,0.0595 -0.503998,0.13123 -0.465332,0.0977 z m -0.349947,-2.596 c -0.535044,-0.0795 -1.13733,-1.11365 -0.983301,-1.68841 0.03187,-0.11893 0.11108,-0.14328 0.11108,-0.0341 0,0.0392 0.08313,0.24489 0.184734,0.45703 0.295241,0.61643 0.745882,0.91915 1.37386,0.92288 0.174023,0.001 0.315739,0.0177 0.314924,0.037 -8.15e-4,0.0193 -0.09185,0.0899 -0.202293,0.15688 -0.202472,0.12273 -0.544895,0.18646 -0.799004,0.14872 z m 0.306786,-1.17737 c -0.266117,-0.26612 -0.301217,-0.71723 -0.07744,-0.99531 0.08022,-0.0997 0.377375,-0.27745 0.463793,-0.27745 0.501233,0.17121 0.589986,0.43703 0.567737,0.9358 -0.04878,0.2887 -0.300659,0.51731 -0.569975,0.51731 -0.173862,0 -0.230203,-0.0265 -0.384115,-0.18037 z m 6.96095,-1.77605 c 0.0734,-0.0972 0.15856,-0.21887 0.18921,-0.27033 0.32526,-0.54602 0.43646,-0.74576 0.43646,-0.78394 0,-0.0248 0.0378,-0.10114 0.084,-0.16958 0.0462,-0.0684 0.12313,-0.2088 0.17096,-0.31192 0.10696,-0.23061 0.15411,-0.3276 0.21078,-0.43359 0.11658,-0.21803 0.18455,-0.40016 0.21367,-0.57252 0.0264,-0.15609 0.0174,-0.19457 -0.0514,-0.22098 -0.13991,-0.0537 -0.71814,0.63869 -1.04437,1.25053 -0.0619,0.11601 -0.12531,0.22148 -0.141,0.23437 -0.0519,0.0426 -0.32315,0.62802 -0.42278,0.91244 -0.11926,0.34047 -0.12359,0.48817 -0.0166,0.56641 0.10518,0.0769 0.20014,0.0255 0.37109,-0.20089 z m -1.02927,-0.0709 c 0.21352,-0.28404 0.50889,-2.34212 0.41102,-2.86385 -0.0462,-0.24619 -0.18022,-0.23237 -0.27071,0.0279 -0.0786,0.22595 -0.22957,0.9302 -0.33565,1.56531 -0.0868,0.51933 -0.0949,1.19344 -0.0154,1.27297 0.0725,0.0725 0.15511,0.0716 0.21069,-0.002 z"
         id="path1122"
         sodipodi:nodetypes="cssccssssscscscccccscccccscscscccsscccsssscccscccsssscsccccccssccccsssscsssssscsscsccccsssscssssscssssssccsscccccsccssscccsscccccssccccssccscccscccccccccccsccscccssccsscscccsscsssssscsssssccscsscscsssccccssscscccccccssccccssscscccsccsccccscsscsccscccccccccc" /></g></g></svg>
